<svg width="573" height="417" viewBox="0 0 573 417" fill="none" xmlns="http://www.w3.org/2000/svg">
<rect x="1.03719" y="0.787493" width="447.253" height="296.129" rx="15.4738" fill="white" stroke="black" stroke-width="1.0524"/>
<path d="M26.1902 26.2644H24.2334C24.1776 25.9435 24.0747 25.6592 23.9247 25.4115C23.7747 25.1604 23.5881 24.9476 23.3649 24.7732C23.1416 24.5988 22.887 24.468 22.601 24.3808C22.3185 24.2901 22.0132 24.2448 21.6854 24.2448C21.1029 24.2448 20.5866 24.3913 20.1367 24.6843C19.6867 24.9738 19.3344 25.3993 19.0798 25.9609C18.8251 26.519 18.6978 27.2009 18.6978 28.0067C18.6978 28.8264 18.8251 29.517 19.0798 30.0786C19.3379 30.6367 19.6902 31.0587 20.1367 31.3448C20.5866 31.6273 21.1011 31.7686 21.6801 31.7686C22.001 31.7686 22.301 31.7267 22.5801 31.643C22.8626 31.5558 23.1155 31.4285 23.3387 31.261C23.5654 31.0936 23.7555 30.8878 23.909 30.6436C24.066 30.3995 24.1741 30.1204 24.2334 29.8065L26.1902 29.817C26.117 30.3262 25.9583 30.8041 25.7141 31.2506C25.4734 31.697 25.1577 32.0912 24.7671 32.433C24.3764 32.7714 23.9195 33.0365 23.3963 33.2283C22.8731 33.4167 22.2923 33.5108 21.654 33.5108C20.7122 33.5108 19.8716 33.2928 19.1321 32.8568C18.3926 32.4208 17.8101 31.7912 17.3846 30.968C16.959 30.1449 16.7462 29.1577 16.7462 28.0067C16.7462 26.8521 16.9608 25.865 17.3898 25.0453C17.8188 24.2221 18.4031 23.5925 19.1426 23.1565C19.882 22.7205 20.7192 22.5025 21.654 22.5025C22.2504 22.5025 22.805 22.5862 23.3178 22.7536C23.8305 22.921 24.2875 23.1669 24.6886 23.4913C25.0897 23.8122 25.4194 24.2064 25.6775 24.6738C25.9391 25.1377 26.11 25.6679 26.1902 26.2644ZM31.3896 33.5213C30.6048 33.5213 29.9246 33.3487 29.3491 33.0033C28.7736 32.658 28.3271 32.1749 28.0097 31.554C27.6958 30.9332 27.5388 30.2076 27.5388 29.3775C27.5388 28.5473 27.6958 27.82 28.0097 27.1957C28.3271 26.5713 28.7736 26.0865 29.3491 25.7412C29.9246 25.3958 30.6048 25.2232 31.3896 25.2232C32.1745 25.2232 32.8546 25.3958 33.4302 25.7412C34.0057 26.0865 34.4504 26.5713 34.7644 27.1957C35.0818 27.82 35.2405 28.5473 35.2405 29.3775C35.2405 30.2076 35.0818 30.9332 34.7644 31.554C34.4504 32.1749 34.0057 32.658 33.4302 33.0033C32.8546 33.3487 32.1745 33.5213 31.3896 33.5213ZM31.4001 32.004C31.8256 32.004 32.1814 31.8871 32.4675 31.6534C32.7535 31.4163 32.9662 31.0988 33.1058 30.7012C33.2488 30.3036 33.3203 29.8606 33.3203 29.3722C33.3203 28.8804 33.2488 28.4357 33.1058 28.0381C32.9662 27.6369 32.7535 27.3178 32.4675 27.0806C32.1814 26.8434 31.8256 26.7248 31.4001 26.7248C30.9641 26.7248 30.6013 26.8434 30.3118 27.0806C30.0258 27.3178 29.8113 27.6369 29.6683 28.0381C29.5287 28.4357 29.459 28.8804 29.459 29.3722C29.459 29.8606 29.5287 30.3036 29.6683 30.7012C29.8113 31.0988 30.0258 31.4163 30.3118 31.6534C30.6013 31.8871 30.9641 32.004 31.4001 32.004ZM38.7421 28.6554V33.3643H36.848V25.3278H38.6584V26.6934H38.7525C38.9374 26.2434 39.2321 25.8859 39.6368 25.6208C40.0449 25.3557 40.5489 25.2232 41.1488 25.2232C41.7035 25.2232 42.1865 25.3418 42.5981 25.579C43.0132 25.8161 43.3341 26.1597 43.5609 26.6097C43.7911 27.0596 43.9044 27.6055 43.9009 28.2473V33.3643H42.0069V28.5403C42.0069 28.0032 41.8674 27.5829 41.5883 27.2794C41.3128 26.9759 40.9308 26.8242 40.4425 26.8242C40.1111 26.8242 39.8164 26.8975 39.5583 27.0439C39.3037 27.187 39.1031 27.3945 38.9566 27.6666C38.8136 27.9386 38.7421 28.2683 38.7421 28.6554ZM52.7171 25.3278L49.8551 33.3643H47.7622L44.9003 25.3278H46.9199L48.7668 31.2977H48.8505L50.7027 25.3278H52.7171ZM57.3122 33.5213C56.5064 33.5213 55.8105 33.3539 55.2246 33.019C54.642 32.6807 54.1938 32.2028 53.8799 31.5854C53.566 30.9646 53.409 30.2338 53.409 29.3932C53.409 28.5665 53.566 27.841 53.8799 27.2166C54.1973 26.5888 54.6403 26.1004 55.2089 25.7516C55.7774 25.3993 56.4454 25.2232 57.2128 25.2232C57.7081 25.2232 58.1755 25.3034 58.615 25.4638C59.0579 25.6208 59.4486 25.865 59.787 26.1963C60.1288 26.5277 60.3974 26.9498 60.5927 27.4625C60.788 27.9718 60.8857 28.5787 60.8857 29.2833V29.8641H54.2985V28.5874H59.0702C59.0667 28.2247 58.9882 27.902 58.8347 27.6195C58.6812 27.3335 58.4667 27.1085 58.1912 26.9445C57.9191 26.7806 57.6017 26.6986 57.2389 26.6986C56.8517 26.6986 56.5117 26.7928 56.2187 26.9812C55.9257 27.166 55.6972 27.4102 55.5332 27.7137C55.3728 28.0136 55.2908 28.3433 55.2873 28.7025V29.817C55.2873 30.2844 55.3728 30.6855 55.5437 31.0204C55.7146 31.3517 55.9536 31.6064 56.2605 31.7842C56.5675 31.9587 56.9267 32.0459 57.3383 32.0459C57.6139 32.0459 57.8633 32.0075 58.0865 31.9307C58.3098 31.8505 58.5033 31.7337 58.6673 31.5802C58.8312 31.4267 58.9551 31.2366 59.0388 31.0099L60.8072 31.2087C60.6956 31.6761 60.4828 32.0842 60.1689 32.433C59.8585 32.7784 59.4608 33.0469 58.976 33.2388C58.4911 33.4271 57.9365 33.5213 57.3122 33.5213ZM62.488 33.3643V25.3278H64.3245V26.6672H64.4082C64.5547 26.2033 64.8059 25.8458 65.1617 25.5947C65.5209 25.34 65.9308 25.2127 66.3912 25.2127C66.4958 25.2127 66.6127 25.2179 66.7418 25.2284C66.8743 25.2354 66.9842 25.2476 67.0714 25.265V27.0073C66.9912 26.9794 66.8638 26.955 66.6894 26.9341C66.5185 26.9097 66.3528 26.8975 66.1924 26.8975C65.8471 26.8975 65.5366 26.9724 65.2611 27.1224C64.989 27.2689 64.7745 27.473 64.6175 27.7346C64.4605 27.9962 64.3821 28.2979 64.3821 28.6397V33.3643H62.488ZM74.6815 27.4521L72.9549 27.6404C72.9061 27.466 72.8206 27.3021 72.6985 27.1486C72.5799 26.9951 72.4195 26.8713 72.2172 26.7771C72.0149 26.6829 71.7672 26.6358 71.4742 26.6358C71.0801 26.6358 70.7487 26.7213 70.4801 26.8922C70.215 27.0631 70.0842 27.2846 70.0877 27.5567C70.0842 27.7904 70.1697 27.9805 70.3441 28.127C70.522 28.2735 70.815 28.3938 71.2231 28.488L72.5939 28.781C73.3543 28.945 73.9194 29.2048 74.2891 29.5606C74.6623 29.9164 74.8507 30.382 74.8542 30.9576C74.8507 31.4633 74.7024 31.9098 74.4094 32.297C74.1199 32.6807 73.717 32.9807 73.2008 33.1969C72.6846 33.4132 72.0916 33.5213 71.4219 33.5213C70.4382 33.5213 69.6465 33.3155 69.0465 32.9039C68.4466 32.4888 68.089 31.9116 67.9739 31.1721L69.8209 30.9942C69.9046 31.357 70.0825 31.6308 70.3545 31.8156C70.6266 32.0005 70.9806 32.0929 71.4167 32.0929C71.8666 32.0929 72.2276 32.0005 72.4997 31.8156C72.7753 31.6308 72.913 31.4023 72.913 31.1302C72.913 30.9 72.8241 30.7099 72.6462 30.5599C72.4718 30.4099 72.1997 30.2948 71.83 30.2146L70.4592 29.9268C69.6883 29.7664 69.118 29.4961 68.7483 29.1159C68.3785 28.7322 68.1954 28.2473 68.1989 27.6613C68.1954 27.166 68.3297 26.737 68.6018 26.3742C68.8773 26.008 69.2593 25.7255 69.7476 25.5266C70.2394 25.3243 70.8062 25.2232 71.448 25.2232C72.3898 25.2232 73.131 25.4237 73.6717 25.8249C74.2158 26.226 74.5524 26.7684 74.6815 27.4521ZM76.4159 33.3643V25.3278H78.31V33.3643H76.4159ZM77.3682 24.1872C77.0682 24.1872 76.8101 24.0878 76.5938 23.889C76.3776 23.6867 76.2694 23.4443 76.2694 23.1617C76.2694 22.8757 76.3776 22.6333 76.5938 22.4345C76.8101 22.2321 77.0682 22.131 77.3682 22.131C77.6717 22.131 77.9298 22.2321 78.1425 22.4345C78.3588 22.6333 78.4669 22.8757 78.4669 23.1617C78.4669 23.4443 78.3588 23.6867 78.1425 23.889C77.9298 24.0878 77.6717 24.1872 77.3682 24.1872ZM83.7631 33.5213C82.9783 33.5213 82.2982 33.3487 81.7226 33.0033C81.1471 32.658 80.7006 32.1749 80.3832 31.554C80.0693 30.9332 79.9123 30.2076 79.9123 29.3775C79.9123 28.5473 80.0693 27.82 80.3832 27.1957C80.7006 26.5713 81.1471 26.0865 81.7226 25.7412C82.2982 25.3958 82.9783 25.2232 83.7631 25.2232C84.548 25.2232 85.2281 25.3958 85.8037 25.7412C86.3792 26.0865 86.8239 26.5713 87.1379 27.1957C87.4553 27.82 87.614 28.5473 87.614 29.3775C87.614 30.2076 87.4553 30.9332 87.1379 31.554C86.8239 32.1749 86.3792 32.658 85.8037 33.0033C85.2281 33.3487 84.548 33.5213 83.7631 33.5213ZM83.7736 32.004C84.1992 32.004 84.5549 31.8871 84.841 31.6534C85.127 31.4163 85.3398 31.0988 85.4793 30.7012C85.6223 30.3036 85.6938 29.8606 85.6938 29.3722C85.6938 28.8804 85.6223 28.4357 85.4793 28.0381C85.3398 27.6369 85.127 27.3178 84.841 27.0806C84.5549 26.8434 84.1992 26.7248 83.7736 26.7248C83.3376 26.7248 82.9748 26.8434 82.6853 27.0806C82.3993 27.3178 82.1848 27.6369 82.0418 28.0381C81.9023 28.4357 81.8325 28.8804 81.8325 29.3722C81.8325 29.8606 81.9023 30.3036 82.0418 30.7012C82.1848 31.0988 82.3993 31.4163 82.6853 31.6534C82.9748 31.8871 83.3376 32.004 83.7736 32.004ZM91.1156 28.6554V33.3643H89.2215V25.3278H91.0319V26.6934H91.126C91.3109 26.2434 91.6057 25.8859 92.0103 25.6208C92.4184 25.3557 92.9224 25.2232 93.5224 25.2232C94.077 25.2232 94.5601 25.3418 94.9716 25.579C95.3867 25.8161 95.7076 26.1597 95.9344 26.6097C96.1646 27.0596 96.2779 27.6055 96.2744 28.2473V33.3643H94.3804V28.5403C94.3804 28.0032 94.2409 27.5829 93.9618 27.2794C93.6863 26.9759 93.3043 26.8242 92.816 26.8242C92.4846 26.8242 92.1899 26.8975 91.9318 27.0439C91.6772 27.187 91.4766 27.3945 91.3301 27.6666C91.1871 27.9386 91.1156 28.2683 91.1156 28.6554ZM104.552 27.4521L102.825 27.6404C102.776 27.466 102.691 27.3021 102.569 27.1486C102.45 26.9951 102.29 26.8713 102.087 26.7771C101.885 26.6829 101.637 26.6358 101.344 26.6358C100.95 26.6358 100.619 26.7213 100.35 26.8922C100.085 27.0631 99.9544 27.2846 99.9579 27.5567C99.9544 27.7904 100.04 27.9805 100.214 28.127C100.392 28.2735 100.685 28.3938 101.093 28.488L102.464 28.781C103.224 28.945 103.79 29.2048 104.159 29.5606C104.532 29.9164 104.721 30.382 104.724 30.9576C104.721 31.4633 104.573 31.9098 104.28 32.297C103.99 32.6807 103.587 32.9807 103.071 33.1969C102.555 33.4132 101.962 33.5213 101.292 33.5213C100.308 33.5213 99.5166 33.3155 98.9167 32.9039C98.3167 32.4888 97.9592 31.9116 97.8441 31.1721L99.691 30.9942C99.7747 31.357 99.9526 31.6308 100.225 31.8156C100.497 32.0005 100.851 32.0929 101.287 32.0929C101.737 32.0929 102.098 32.0005 102.37 31.8156C102.645 31.6308 102.783 31.4023 102.783 31.1302C102.783 30.9 102.694 30.7099 102.516 30.5599C102.342 30.4099 102.07 30.2948 101.7 30.2146L100.329 29.9268C99.5585 29.7664 98.9882 29.4961 98.6184 29.1159C98.2487 28.7322 98.0656 28.2473 98.0691 27.6613C98.0656 27.166 98.1999 26.737 98.4719 26.3742C98.7475 26.008 99.1294 25.7255 99.6178 25.5266C100.11 25.3243 100.676 25.2232 101.318 25.2232C102.26 25.2232 103.001 25.4237 103.542 25.8249C104.086 26.226 104.423 26.7684 104.552 27.4521ZM113.446 33.5213C112.661 33.5213 111.981 33.3487 111.406 33.0033C110.83 32.658 110.384 32.1749 110.066 31.554C109.752 30.9332 109.595 30.2076 109.595 29.3775C109.595 28.5473 109.752 27.82 110.066 27.1957C110.384 26.5713 110.83 26.0865 111.406 25.7412C111.981 25.3958 112.661 25.2232 113.446 25.2232C114.231 25.2232 114.911 25.3958 115.487 25.7412C116.062 26.0865 116.507 26.5713 116.821 27.1957C117.138 27.82 117.297 28.5473 117.297 29.3775C117.297 30.2076 117.138 30.9332 116.821 31.554C116.507 32.1749 116.062 32.658 115.487 33.0033C114.911 33.3487 114.231 33.5213 113.446 33.5213ZM113.457 32.004C113.882 32.004 114.238 31.8871 114.524 31.6534C114.81 31.4163 115.023 31.0988 115.162 30.7012C115.305 30.3036 115.377 29.8606 115.377 29.3722C115.377 28.8804 115.305 28.4357 115.162 28.0381C115.023 27.6369 114.81 27.3178 114.524 27.0806C114.238 26.8434 113.882 26.7248 113.457 26.7248C113.021 26.7248 112.658 26.8434 112.368 27.0806C112.082 27.3178 111.868 27.6369 111.725 28.0381C111.585 28.4357 111.516 28.8804 111.516 29.3722C111.516 29.8606 111.585 30.3036 111.725 30.7012C111.868 31.0988 112.082 31.4163 112.368 31.6534C112.658 31.8871 113.021 32.004 113.457 32.004ZM125.81 25.3278L122.948 33.3643H120.855L117.993 25.3278H120.013L121.86 31.2977H121.943L123.795 25.3278H125.81ZM130.405 33.5213C129.599 33.5213 128.903 33.3539 128.317 33.019C127.735 32.6807 127.287 32.2028 126.973 31.5854C126.659 30.9646 126.502 30.2338 126.502 29.3932C126.502 28.5665 126.659 27.841 126.973 27.2166C127.29 26.5888 127.733 26.1004 128.302 25.7516C128.87 25.3993 129.538 25.2232 130.305 25.2232C130.801 25.2232 131.268 25.3034 131.708 25.4638C132.151 25.6208 132.541 25.865 132.88 26.1963C133.221 26.5277 133.49 26.9498 133.685 27.4625C133.881 27.9718 133.978 28.5787 133.978 29.2833V29.8641H127.391V28.5874H132.163C132.159 28.2247 132.081 27.902 131.927 27.6195C131.774 27.3335 131.559 27.1085 131.284 26.9445C131.012 26.7806 130.694 26.6986 130.332 26.6986C129.944 26.6986 129.604 26.7928 129.311 26.9812C129.018 27.166 128.79 27.4102 128.626 27.7137C128.465 28.0136 128.384 28.3433 128.38 28.7025V29.817C128.38 30.2844 128.465 30.6855 128.636 31.0204C128.807 31.3517 129.046 31.6064 129.353 31.7842C129.66 31.9587 130.019 32.0459 130.431 32.0459C130.707 32.0459 130.956 32.0075 131.179 31.9307C131.402 31.8505 131.596 31.7337 131.76 31.5802C131.924 31.4267 132.048 31.2366 132.131 31.0099L133.9 31.2087C133.788 31.6761 133.576 32.0842 133.262 32.433C132.951 32.7784 132.554 33.0469 132.069 33.2388C131.584 33.4271 131.029 33.5213 130.405 33.5213ZM135.581 33.3643V25.3278H137.417V26.6672H137.501C137.647 26.2033 137.899 25.8458 138.254 25.5947C138.614 25.34 139.023 25.2127 139.484 25.2127C139.589 25.2127 139.705 25.2179 139.834 25.2284C139.967 25.2354 140.077 25.2476 140.164 25.265V27.0073C140.084 26.9794 139.957 26.955 139.782 26.9341C139.611 26.9097 139.446 26.8975 139.285 26.8975C138.94 26.8975 138.629 26.9724 138.354 27.1224C138.082 27.2689 137.867 27.473 137.71 27.7346C137.553 27.9962 137.475 28.2979 137.475 28.6397V33.3643H135.581ZM149.09 25.3278V26.7928H144.47V25.3278H149.09ZM145.611 23.4024H147.505V30.9471C147.505 31.2017 147.543 31.3971 147.62 31.5331C147.7 31.6657 147.805 31.7563 147.934 31.8052C148.063 31.854 148.206 31.8784 148.363 31.8784C148.481 31.8784 148.59 31.8697 148.687 31.8523C148.788 31.8348 148.865 31.8191 148.917 31.8052L149.237 33.2859C149.135 33.3207 148.991 33.3591 148.802 33.401C148.617 33.4428 148.391 33.4672 148.122 33.4742C147.648 33.4882 147.22 33.4167 146.84 33.2597C146.46 33.0993 146.158 32.8516 145.935 32.5167C145.715 32.1819 145.607 31.7633 145.611 31.261V23.4024ZM150.674 33.3643V25.3278H152.568V33.3643H150.674ZM151.626 24.1872C151.326 24.1872 151.068 24.0878 150.852 23.889C150.636 23.6867 150.528 23.4443 150.528 23.1617C150.528 22.8757 150.636 22.6333 150.852 22.4345C151.068 22.2321 151.326 22.131 151.626 22.131C151.93 22.131 152.188 22.2321 152.401 22.4345C152.617 22.6333 152.725 22.8757 152.725 23.1617C152.725 23.4443 152.617 23.6867 152.401 23.889C152.188 24.0878 151.93 24.1872 151.626 24.1872ZM154.516 33.3643V25.3278H156.326V26.6934H156.42C156.588 26.233 156.865 25.8737 157.252 25.6156C157.639 25.354 158.102 25.2232 158.639 25.2232C159.183 25.2232 159.642 25.3557 160.015 25.6208C160.391 25.8824 160.657 26.2399 160.81 26.6934H160.894C161.072 26.2469 161.372 25.8911 161.794 25.626C162.219 25.3575 162.723 25.2232 163.306 25.2232C164.045 25.2232 164.649 25.4569 165.116 25.9243C165.583 26.3917 165.817 27.0736 165.817 27.97V33.3643H163.918V28.263C163.918 27.7642 163.785 27.3997 163.52 27.1695C163.255 26.9358 162.931 26.819 162.547 26.819C162.09 26.819 161.733 26.962 161.474 27.248C161.22 27.5305 161.093 27.8985 161.093 28.352V33.3643H159.235V28.1846C159.235 27.7695 159.11 27.4381 158.858 27.1904C158.611 26.9428 158.286 26.819 157.885 26.819C157.613 26.819 157.366 26.8887 157.142 27.0283C156.919 27.1643 156.741 27.3579 156.609 27.609C156.476 27.8567 156.41 28.1462 156.41 28.4776V33.3643H154.516ZM171.296 33.5213C170.491 33.5213 169.795 33.3539 169.209 33.019C168.626 32.6807 168.178 32.2028 167.864 31.5854C167.55 30.9646 167.393 30.2338 167.393 29.3932C167.393 28.5665 167.55 27.841 167.864 27.2166C168.182 26.5888 168.625 26.1004 169.193 25.7516C169.762 25.3993 170.43 25.2232 171.197 25.2232C171.692 25.2232 172.16 25.3034 172.599 25.4638C173.042 25.6208 173.433 25.865 173.771 26.1963C174.113 26.5277 174.382 26.9498 174.577 27.4625C174.772 27.9718 174.87 28.5787 174.87 29.2833V29.8641H168.283V28.5874H173.054C173.051 28.2247 172.973 27.902 172.819 27.6195C172.666 27.3335 172.451 27.1085 172.175 26.9445C171.903 26.7806 171.586 26.6986 171.223 26.6986C170.836 26.6986 170.496 26.7928 170.203 26.9812C169.91 27.166 169.682 27.4102 169.518 27.7137C169.357 28.0136 169.275 28.3433 169.272 28.7025V29.817C169.272 30.2844 169.357 30.6855 169.528 31.0204C169.699 31.3517 169.938 31.6064 170.245 31.7842C170.552 31.9587 170.911 32.0459 171.323 32.0459C171.598 32.0459 171.848 32.0075 172.071 31.9307C172.294 31.8505 172.488 31.7337 172.652 31.5802C172.816 31.4267 172.939 31.2366 173.023 31.0099L174.792 31.2087C174.68 31.6761 174.467 32.0842 174.153 32.433C173.843 32.7784 173.445 33.0469 172.96 33.2388C172.475 33.4271 171.921 33.5213 171.296 33.5213Z" fill="#090F1D"/>
<line opacity="0.7" x1="448.817" y1="58.5155" x2="0.511078" y2="58.5155" stroke="black" stroke-width="1.0524"/>
<path d="M22.1864 98.1696C21.5944 98.1696 21.0667 98.0679 20.6033 97.8646C20.1429 97.6613 19.7766 97.3788 19.5046 97.017C19.2355 96.6522 19.089 96.2292 19.0651 95.7478H20.1952C20.2191 96.0438 20.3208 96.2995 20.5001 96.5147C20.6795 96.727 20.9142 96.8914 21.2042 97.008C21.4943 97.1246 21.8157 97.1829 22.1684 97.1829C22.5631 97.1829 22.9129 97.1142 23.2179 96.9766C23.5228 96.8391 23.762 96.6478 23.9354 96.4026C24.1088 96.1574 24.1955 95.8734 24.1955 95.5505C24.1955 95.2127 24.1118 94.9152 23.9444 94.6581C23.777 94.398 23.5318 94.1946 23.2089 94.0481C22.886 93.9016 22.4913 93.8284 22.0249 93.8284H21.2895V92.8418H22.0249C22.3897 92.8418 22.7096 92.776 22.9847 92.6444C23.2627 92.5129 23.4795 92.3275 23.6349 92.0883C23.7934 91.8492 23.8726 91.5681 23.8726 91.2452C23.8726 90.9343 23.8039 90.6637 23.6663 90.4335C23.5288 90.2033 23.3345 90.0239 23.0833 89.8953C22.8352 89.7668 22.5422 89.7025 22.2043 89.7025C21.8874 89.7025 21.5884 89.7608 21.3074 89.8774C21.0293 89.991 20.8021 90.1569 20.6257 90.3752C20.4493 90.5905 20.3536 90.8506 20.3387 91.1555H19.2624C19.2803 90.6742 19.4253 90.2526 19.6974 89.8909C19.9695 89.5261 20.3252 89.2421 20.7647 89.0388C21.2072 88.8355 21.6931 88.7338 22.2223 88.7338C22.7903 88.7338 23.2777 88.8489 23.6843 89.0791C24.0909 89.3064 24.4033 89.6068 24.6216 89.9805C24.8398 90.3543 24.9489 90.7579 24.9489 91.1914C24.9489 91.7086 24.8129 92.1496 24.5408 92.5144C24.2718 92.8791 23.9055 93.1318 23.4421 93.2723V93.3441C24.0221 93.4397 24.4751 93.6864 24.801 94.084C25.1268 94.4787 25.2898 94.9675 25.2898 95.5505C25.2898 96.0498 25.1537 96.4983 24.8817 96.8959C24.6126 97.2906 24.2449 97.6015 23.7784 97.8287C23.312 98.056 22.7814 98.1696 22.1864 98.1696ZM30.1198 98.1696C29.4441 98.1696 28.8685 97.9857 28.3932 97.6179C27.9178 97.2472 27.5545 96.7105 27.3034 96.0079C27.0523 95.3024 26.9267 94.4503 26.9267 93.4517C26.9267 92.4591 27.0523 91.6115 27.3034 90.9089C27.5575 90.2033 27.9223 89.6651 28.3977 89.2944C28.876 88.9207 29.4501 88.7338 30.1198 88.7338C30.7895 88.7338 31.362 88.9207 31.8374 89.2944C32.3158 89.6651 32.6805 90.2033 32.9317 90.9089C33.1858 91.6115 33.3129 92.4591 33.3129 93.4517C33.3129 94.4503 33.1873 95.3024 32.9361 96.0079C32.685 96.7105 32.3217 97.2472 31.8464 97.6179C31.371 97.9857 30.7955 98.1696 30.1198 98.1696ZM30.1198 97.1829C30.7895 97.1829 31.3097 96.86 31.6804 96.2142C32.0512 95.5685 32.2365 94.6476 32.2365 93.4517C32.2365 92.6564 32.1513 91.9792 31.9809 91.4201C31.8135 90.861 31.5713 90.435 31.2544 90.142C30.9405 89.849 30.5623 89.7025 30.1198 89.7025C29.456 89.7025 28.9373 90.0299 28.5636 90.6846C28.1899 91.3364 28.003 92.2588 28.003 93.4517C28.003 94.247 28.0867 94.9227 28.2541 95.4788C28.4216 96.0349 28.6623 96.4579 28.9762 96.7479C29.2931 97.0379 29.6743 97.1829 30.1198 97.1829Z" fill="#9CA3AF"/>
<path d="M20.53 146.455V145.647L23.5616 142.329C23.9174 141.94 24.2104 141.602 24.4406 141.315C24.6709 141.025 24.8413 140.753 24.9519 140.499C25.0655 140.242 25.1223 139.973 25.1223 139.692C25.1223 139.369 25.0446 139.089 24.8891 138.853C24.7366 138.617 24.5273 138.434 24.2613 138.306C23.9952 138.177 23.6962 138.113 23.3643 138.113C23.0115 138.113 22.7036 138.186 22.4405 138.333C22.1804 138.476 21.9786 138.678 21.8351 138.938C21.6945 139.198 21.6243 139.503 21.6243 139.853H20.5659C20.5659 139.315 20.69 138.843 20.9381 138.436C21.1863 138.029 21.5241 137.712 21.9517 137.485C22.3822 137.258 22.865 137.144 23.4002 137.144C23.9384 137.144 24.4152 137.258 24.8308 137.485C25.2464 137.712 25.5723 138.019 25.8085 138.405C26.0447 138.79 26.1628 139.219 26.1628 139.692C26.1628 140.029 26.1015 140.36 25.9789 140.683C25.8593 141.003 25.65 141.36 25.351 141.755C25.055 142.146 24.644 142.625 24.1177 143.19L22.0548 145.396V145.468H26.3242V146.455H20.53ZM31.1721 146.58C30.4964 146.58 29.9209 146.396 29.4455 146.028C28.9702 145.658 28.6069 145.121 28.3558 144.418C28.1046 143.713 27.9791 142.861 27.9791 141.862C27.9791 140.87 28.1046 140.022 28.3558 139.319C28.6099 138.614 28.9747 138.076 29.45 137.705C29.9284 137.331 30.5024 137.144 31.1721 137.144C31.8419 137.144 32.4144 137.331 32.8898 137.705C33.3681 138.076 33.7329 138.614 33.984 139.319C34.2382 140.022 34.3652 140.87 34.3652 141.862C34.3652 142.861 34.2397 143.713 33.9885 144.418C33.7374 145.121 33.3741 145.658 32.8987 146.028C32.4234 146.396 31.8478 146.58 31.1721 146.58ZM31.1721 145.593C31.8419 145.593 32.3621 145.271 32.7328 144.625C33.1035 143.979 33.2889 143.058 33.2889 141.862C33.2889 141.067 33.2037 140.39 33.0333 139.831C32.8659 139.272 32.6237 138.846 32.3068 138.553C31.9928 138.26 31.6146 138.113 31.1721 138.113C30.5084 138.113 29.9897 138.44 29.616 139.095C29.2422 139.747 29.0554 140.669 29.0554 141.862C29.0554 142.658 29.1391 143.333 29.3065 143.889C29.4739 144.445 29.7146 144.868 30.0285 145.158C30.3455 145.448 30.7267 145.593 31.1721 145.593Z" fill="#9CA3AF"/>
<path d="M24.5874 185.68V194.865H23.4752V186.846H23.4214L21.179 188.335V187.205L23.4752 185.68H24.5874ZM30.2246 194.991C29.5489 194.991 28.9734 194.807 28.498 194.439C28.0227 194.068 27.6594 193.532 27.4083 192.829C27.1571 192.123 27.0315 191.271 27.0315 190.273C27.0315 189.28 27.1571 188.433 27.4083 187.73C27.6624 187.024 28.0271 186.486 28.5025 186.115C28.9809 185.742 29.5549 185.555 30.2246 185.555C30.8943 185.555 31.4669 185.742 31.9423 186.115C32.4206 186.486 32.7854 187.024 33.0365 187.73C33.2907 188.433 33.4177 189.28 33.4177 190.273C33.4177 191.271 33.2921 192.123 33.041 192.829C32.7899 193.532 32.4266 194.068 31.9512 194.439C31.4759 194.807 30.9003 194.991 30.2246 194.991ZM30.2246 194.004C30.8943 194.004 31.4146 193.681 31.7853 193.035C32.156 192.39 32.3414 191.469 32.3414 190.273C32.3414 189.477 32.2562 188.8 32.0858 188.241C31.9183 187.682 31.6762 187.256 31.3593 186.963C31.0453 186.67 30.6671 186.524 30.2246 186.524C29.5609 186.524 29.0422 186.851 28.6684 187.506C28.2947 188.158 28.1079 189.08 28.1079 190.273C28.1079 191.068 28.1916 191.744 28.359 192.3C28.5264 192.856 28.7671 193.279 29.081 193.569C29.398 193.859 29.7792 194.004 30.2246 194.004Z" fill="#9CA3AF"/>
<path d="M30.539 243.401C29.8633 243.401 29.2877 243.217 28.8124 242.85C28.337 242.479 27.9737 241.942 27.7226 241.24C27.4714 240.534 27.3459 239.682 27.3459 238.683C27.3459 237.691 27.4714 236.843 27.7226 236.141C27.9767 235.435 28.3415 234.897 28.8168 234.526C29.2952 234.152 29.8693 233.965 30.539 233.965C31.2087 233.965 31.7812 234.152 32.2566 234.526C32.735 234.897 33.0997 235.435 33.3509 236.141C33.605 236.843 33.732 237.691 33.732 238.683C33.732 239.682 33.6065 240.534 33.3553 241.24C33.1042 241.942 32.7409 242.479 32.2656 242.85C31.7902 243.217 31.2147 243.401 30.539 243.401ZM30.539 242.415C31.2087 242.415 31.7289 242.092 32.0996 241.446C32.4704 240.8 32.6557 239.879 32.6557 238.683C32.6557 237.888 32.5705 237.211 32.4001 236.652C32.2327 236.093 31.9905 235.667 31.6736 235.374C31.3597 235.081 30.9814 234.934 30.539 234.934C29.8752 234.934 29.3565 235.262 28.9828 235.916C28.6091 236.568 28.4222 237.49 28.4222 238.683C28.4222 239.479 28.5059 240.154 28.6733 240.71C28.8408 241.266 29.0814 241.69 29.3954 241.98C29.7123 242.27 30.0935 242.415 30.539 242.415Z" fill="#9CA3AF"/>
<line x1="51.5525" y1="97.892" x2="428.05" y2="97.892" stroke="#DEE0E6" stroke-width="1.0524" stroke-dasharray="5.26 5.26"/>
<line x1="51.553" y1="149.46" x2="428.05" y2="149.46" stroke="#DEE0E6" stroke-width="1.0524" stroke-dasharray="5.26 5.26"/>
<line opacity="0.5" x1="297.765" y1="83.8826" x2="297.765" y2="246.927" stroke="#9CA3AF" stroke-width="1.0524" stroke-dasharray="5.26 5.26"/>
<line x1="51.553" y1="197.87" x2="428.05" y2="197.87" stroke="#DEE0E6" stroke-width="1.0524" stroke-dasharray="5.26 5.26"/>
<line x1="51.553" y1="246.281" x2="428.05" y2="246.281" stroke="#DEE0E6" stroke-width="1.0524" stroke-dasharray="5.26 5.26"/>
<path d="M65.7985 259.313V268.498H64.6863V260.479H64.6325L62.3901 261.968V260.838L64.6863 259.313H65.7985ZM71.4357 268.623C70.76 268.623 70.1845 268.44 69.7091 268.072C69.2337 267.701 68.8705 267.164 68.6193 266.462C68.3682 265.756 68.2426 264.904 68.2426 263.906C68.2426 262.913 68.3682 262.065 68.6193 261.363C68.8735 260.657 69.2382 260.119 69.7136 259.748C70.192 259.375 70.766 259.188 71.4357 259.188C72.1054 259.188 72.678 259.375 73.1533 259.748C73.6317 260.119 73.9965 260.657 74.2476 261.363C74.5017 262.065 74.6288 262.913 74.6288 263.906C74.6288 264.904 74.5032 265.756 74.2521 266.462C74.0009 267.164 73.6377 267.701 73.1623 268.072C72.6869 268.44 72.1114 268.623 71.4357 268.623ZM71.4357 267.637C72.1054 267.637 72.6256 267.314 72.9964 266.668C73.3671 266.022 73.5525 265.101 73.5525 263.906C73.5525 263.11 73.4673 262.433 73.2968 261.874C73.1294 261.315 72.8872 260.889 72.5703 260.596C72.2564 260.303 71.8782 260.156 71.4357 260.156C70.772 260.156 70.2532 260.484 69.8795 261.139C69.5058 261.79 69.3189 262.713 69.3189 263.906C69.3189 264.701 69.4027 265.377 69.5701 265.933C69.7375 266.489 69.9782 266.912 70.2921 267.202C70.609 267.492 70.9902 267.637 71.4357 267.637Z" fill="#9CA3AF"/>
<path d="M123.692 259.313V268.498H122.58V260.479H122.526L120.284 261.968V260.838L122.58 259.313H123.692ZM129.562 259.313V268.498H128.45V260.479H128.396L126.154 261.968V260.838L128.45 259.313H129.562Z" fill="#9CA3AF"/>
<path d="M179.581 259.313V268.498H178.469V260.479H178.415L176.173 261.968V260.838L178.469 259.313H179.581ZM182.223 268.498V267.691L185.255 264.372C185.61 263.983 185.903 263.645 186.134 263.358C186.364 263.068 186.534 262.796 186.645 262.542C186.758 262.285 186.815 262.016 186.815 261.735C186.815 261.412 186.738 261.133 186.582 260.896C186.43 260.66 186.22 260.478 185.954 260.349C185.688 260.221 185.389 260.156 185.057 260.156C184.704 260.156 184.397 260.23 184.133 260.376C183.873 260.52 183.671 260.721 183.528 260.982C183.387 261.242 183.317 261.547 183.317 261.896H182.259C182.259 261.358 182.383 260.886 182.631 260.479C182.879 260.073 183.217 259.756 183.645 259.529C184.075 259.301 184.558 259.188 185.093 259.188C185.631 259.188 186.108 259.301 186.524 259.529C186.939 259.756 187.265 260.062 187.501 260.448C187.738 260.834 187.856 261.263 187.856 261.735C187.856 262.073 187.794 262.403 187.672 262.726C187.552 263.046 187.343 263.403 187.044 263.798C186.748 264.19 186.337 264.668 185.811 265.233L183.748 267.439V267.511H188.017V268.498H182.223Z" fill="#9CA3AF"/>
<path d="M236.214 259.313V268.498H235.102V260.479H235.048L232.806 261.968V260.838L235.102 259.313H236.214ZM241.959 268.623C241.367 268.623 240.839 268.522 240.376 268.318C239.915 268.115 239.549 267.833 239.277 267.471C239.008 267.106 238.861 266.683 238.837 266.202H239.968C239.991 266.498 240.093 266.753 240.272 266.969C240.452 267.181 240.687 267.345 240.977 267.462C241.267 267.579 241.588 267.637 241.941 267.637C242.335 267.637 242.685 267.568 242.99 267.431C243.295 267.293 243.534 267.102 243.708 266.856C243.881 266.611 243.968 266.327 243.968 266.004C243.968 265.667 243.884 265.369 243.717 265.112C243.549 264.852 243.304 264.649 242.981 264.502C242.658 264.356 242.264 264.282 241.797 264.282H241.062V263.296H241.797C242.162 263.296 242.482 263.23 242.757 263.098C243.035 262.967 243.252 262.781 243.407 262.542C243.566 262.303 243.645 262.022 243.645 261.699C243.645 261.388 243.576 261.118 243.439 260.887C243.301 260.657 243.107 260.478 242.856 260.349C242.608 260.221 242.315 260.156 241.977 260.156C241.66 260.156 241.361 260.215 241.08 260.331C240.802 260.445 240.574 260.611 240.398 260.829C240.222 261.044 240.126 261.304 240.111 261.609H239.035C239.053 261.128 239.198 260.706 239.47 260.345C239.742 259.98 240.098 259.696 240.537 259.493C240.98 259.289 241.465 259.188 241.995 259.188C242.563 259.188 243.05 259.303 243.457 259.533C243.863 259.76 244.176 260.061 244.394 260.434C244.612 260.808 244.721 261.212 244.721 261.645C244.721 262.163 244.585 262.604 244.313 262.968C244.044 263.333 243.678 263.586 243.214 263.726V263.798C243.794 263.894 244.247 264.14 244.573 264.538C244.899 264.933 245.062 265.421 245.062 266.004C245.062 266.504 244.926 266.952 244.654 267.35C244.385 267.744 244.017 268.055 243.551 268.283C243.084 268.51 242.554 268.623 241.959 268.623Z" fill="#9CA3AF"/>
<path d="M294.065 259.313V268.498H292.953V260.479H292.899L290.657 261.968V260.838L292.953 259.313H294.065ZM296.491 266.614V265.699L300.528 259.313H301.191V260.73H300.743L297.693 265.556V265.628H303.129V266.614H296.491ZM300.815 268.498V266.336V265.91V259.313H301.873V268.498H300.815Z" fill="#9CA3AF"/>
<path d="M353.209 259.313V268.498H352.097V260.479H352.043L349.801 261.968V260.838L352.097 259.313H353.209ZM358.721 268.623C358.195 268.623 357.721 268.519 357.299 268.31C356.878 268.1 356.54 267.813 356.286 267.448C356.032 267.084 355.893 266.668 355.869 266.202H356.945C356.987 266.617 357.175 266.961 357.51 267.233C357.848 267.502 358.252 267.637 358.721 267.637C359.098 267.637 359.433 267.549 359.726 267.372C360.022 267.196 360.253 266.954 360.421 266.646C360.591 266.335 360.676 265.983 360.676 265.592C360.676 265.191 360.588 264.834 360.412 264.52C360.238 264.203 359.999 263.953 359.694 263.771C359.389 263.589 359.041 263.496 358.649 263.493C358.368 263.49 358.08 263.533 357.784 263.623C357.488 263.71 357.244 263.822 357.053 263.959L356.012 263.834L356.568 259.313H361.34V260.3H357.501L357.178 263.009H357.232C357.421 262.859 357.657 262.735 357.941 262.636C358.225 262.538 358.521 262.488 358.829 262.488C359.391 262.488 359.892 262.623 360.331 262.892C360.774 263.158 361.12 263.523 361.372 263.986C361.626 264.45 361.753 264.979 361.753 265.574C361.753 266.16 361.621 266.683 361.358 267.143C361.098 267.601 360.739 267.963 360.282 268.229C359.824 268.492 359.304 268.623 358.721 268.623Z" fill="#9CA3AF"/>
<path d="M409.941 259.313V268.498H408.828V260.479H408.775L406.532 261.968V260.838L408.828 259.313H409.941ZM415.632 268.623C415.255 268.617 414.878 268.546 414.502 268.408C414.125 268.271 413.781 268.039 413.47 267.713C413.159 267.384 412.909 266.94 412.721 266.381C412.533 265.819 412.439 265.113 412.439 264.264C412.439 263.451 412.515 262.731 412.667 262.103C412.82 261.472 413.041 260.941 413.331 260.511C413.621 260.077 413.971 259.748 414.38 259.524C414.793 259.3 415.258 259.188 415.775 259.188C416.289 259.188 416.747 259.291 417.147 259.497C417.551 259.7 417.88 259.984 418.134 260.349C418.388 260.714 418.553 261.134 418.627 261.609H417.533C417.432 261.197 417.234 260.854 416.941 260.582C416.648 260.31 416.26 260.174 415.775 260.174C415.064 260.174 414.503 260.484 414.093 261.103C413.687 261.722 413.482 262.59 413.479 263.708H413.551C413.718 263.454 413.917 263.237 414.147 263.058C414.38 262.876 414.638 262.735 414.919 262.636C415.2 262.538 415.497 262.488 415.811 262.488C416.337 262.488 416.819 262.62 417.255 262.883C417.692 263.143 418.041 263.503 418.305 263.964C418.568 264.421 418.699 264.946 418.699 265.538C418.699 266.106 418.572 266.626 418.318 267.099C418.064 267.568 417.707 267.942 417.246 268.22C416.789 268.495 416.251 268.629 415.632 268.623ZM415.632 267.637C416.008 267.637 416.346 267.543 416.645 267.354C416.947 267.166 417.185 266.913 417.358 266.596C417.535 266.279 417.623 265.927 417.623 265.538C417.623 265.158 417.538 264.813 417.367 264.502C417.2 264.188 416.968 263.938 416.672 263.753C416.379 263.568 416.044 263.475 415.668 263.475C415.384 263.475 415.119 263.532 414.874 263.645C414.629 263.756 414.413 263.909 414.228 264.103C414.046 264.297 413.902 264.52 413.797 264.771C413.693 265.019 413.64 265.281 413.64 265.556C413.64 265.921 413.726 266.262 413.896 266.578C414.07 266.895 414.306 267.151 414.605 267.345C414.907 267.54 415.249 267.637 415.632 267.637Z" fill="#9CA3AF"/>
<g filter="url(#filter0_d_4430_7125)">
<rect x="323.037" y="13.7875" width="105.197" height="28.8226" rx="5.78822" fill="white" stroke="black" stroke-width="1.0524"/>
</g>
<path d="M332.127 32.4631V23.2785H333.513V31.2702H337.675V32.4631H332.127ZM341.153 32.6156C340.716 32.6156 340.321 32.5349 339.969 32.3734C339.616 32.209 339.336 31.9713 339.13 31.6604C338.927 31.3494 338.825 30.9682 338.825 30.5168C338.825 30.1281 338.9 29.8082 339.049 29.5571C339.199 29.3059 339.401 29.1071 339.655 28.9606C339.909 28.8141 340.193 28.7035 340.507 28.6287C340.821 28.554 341.141 28.4972 341.467 28.4583C341.879 28.4105 342.214 28.3716 342.471 28.3417C342.728 28.3088 342.915 28.2565 343.032 28.1848C343.148 28.113 343.207 27.9964 343.207 27.835V27.8036C343.207 27.4119 343.096 27.1084 342.875 26.8932C342.656 26.6779 342.331 26.5703 341.897 26.5703C341.446 26.5703 341.09 26.6704 340.83 26.8707C340.573 27.0681 340.395 27.2878 340.296 27.53L339.036 27.243C339.185 26.8244 339.404 26.4866 339.691 26.2294C339.981 25.9693 340.314 25.781 340.691 25.6644C341.067 25.5448 341.464 25.485 341.879 25.485C342.154 25.485 342.446 25.5179 342.754 25.5836C343.065 25.6464 343.355 25.763 343.624 25.9335C343.896 26.1039 344.118 26.3475 344.292 26.6645C344.465 26.9784 344.552 27.3865 344.552 27.8888V32.4631H343.242V31.5214H343.189C343.102 31.6948 342.972 31.8652 342.798 32.0326C342.625 32.2 342.402 32.3391 342.13 32.4497C341.858 32.5603 341.532 32.6156 341.153 32.6156ZM341.444 31.5393C341.815 31.5393 342.132 31.466 342.395 31.3195C342.661 31.173 342.863 30.9817 343 30.7455C343.141 30.5063 343.211 30.2507 343.211 29.9786V29.0907C343.163 29.1385 343.071 29.1833 342.933 29.2252C342.798 29.2641 342.645 29.2985 342.471 29.3283C342.298 29.3553 342.129 29.3807 341.964 29.4046C341.8 29.4255 341.662 29.4435 341.552 29.4584C341.292 29.4913 341.054 29.5466 340.839 29.6243C340.626 29.7021 340.456 29.8142 340.327 29.9607C340.202 30.1042 340.139 30.2955 340.139 30.5347C340.139 30.8666 340.262 31.1177 340.507 31.2882C340.752 31.4556 341.064 31.5393 341.444 31.5393ZM351.5 27.2564L350.285 27.4717C350.234 27.3162 350.153 27.1682 350.042 27.0277C349.935 26.8872 349.788 26.7721 349.603 26.6824C349.417 26.5927 349.186 26.5479 348.908 26.5479C348.528 26.5479 348.211 26.6331 347.957 26.8035C347.703 26.9709 347.576 27.1877 347.576 27.4538C347.576 27.684 347.661 27.8693 347.831 28.0099C348.002 28.1504 348.277 28.2655 348.657 28.3552L349.751 28.6063C350.385 28.7528 350.857 28.9785 351.168 29.2835C351.479 29.5885 351.634 29.9846 351.634 30.4719C351.634 30.8845 351.515 31.2523 351.276 31.5752C351.039 31.8951 350.709 32.1462 350.285 32.3286C349.863 32.511 349.374 32.6022 348.818 32.6022C348.047 32.6022 347.417 32.4377 346.93 32.1088C346.443 31.777 346.144 31.3061 346.033 30.6962L347.329 30.4988C347.41 30.8367 347.576 31.0923 347.827 31.2657C348.078 31.4361 348.405 31.5214 348.809 31.5214C349.249 31.5214 349.6 31.4302 349.863 31.2478C350.126 31.0624 350.258 30.8367 350.258 30.5706C350.258 30.3553 350.177 30.1745 350.015 30.028C349.857 29.8815 349.613 29.7708 349.284 29.6961L348.118 29.4405C347.476 29.294 347 29.0608 346.692 28.7409C346.387 28.4209 346.235 28.0158 346.235 27.5255C346.235 27.1189 346.348 26.7631 346.576 26.4582C346.803 26.1532 347.117 25.9155 347.517 25.7451C347.918 25.5717 348.377 25.485 348.894 25.485C349.639 25.485 350.225 25.6464 350.652 25.9693C351.08 26.2892 351.362 26.7183 351.5 27.2564ZM356.324 25.5747V26.651H352.562V25.5747H356.324ZM353.571 23.9243H354.912V30.4405C354.912 30.7007 354.95 30.8965 355.028 31.028C355.106 31.1566 355.206 31.2448 355.329 31.2926C355.454 31.3375 355.59 31.3599 355.737 31.3599C355.844 31.3599 355.939 31.3524 356.019 31.3375C356.1 31.3225 356.163 31.3106 356.208 31.3016L356.45 32.4093C356.372 32.4392 356.261 32.4691 356.118 32.499C355.974 32.5319 355.795 32.5498 355.58 32.5528C355.227 32.5588 354.898 32.496 354.593 32.3645C354.288 32.2329 354.042 32.0296 353.853 31.7546C353.665 31.4795 353.571 31.1342 353.571 30.7186V23.9243ZM361.441 32.4631L365.451 24.5342V24.467H360.813V23.2785H366.886V24.5073L362.89 32.4631H361.441ZM374.384 32.5977C373.828 32.5977 373.332 32.4557 372.895 32.1716C372.462 31.8846 372.121 31.4765 371.873 30.9473C371.627 30.4151 371.505 29.7768 371.505 29.0324C371.505 28.2879 371.629 27.6511 371.877 27.1219C372.128 26.5927 372.472 26.1876 372.909 25.9065C373.345 25.6255 373.84 25.485 374.393 25.485C374.821 25.485 375.164 25.5567 375.424 25.7002C375.688 25.8408 375.891 26.0052 376.034 26.1936C376.181 26.3819 376.295 26.5479 376.375 26.6914H376.456V23.2785H377.797V32.4631H376.487V31.3913H376.375C376.295 31.5378 376.178 31.7052 376.025 31.8936C375.876 32.0819 375.67 32.2464 375.407 32.3869C375.143 32.5274 374.803 32.5977 374.384 32.5977ZM374.68 31.4541C375.066 31.4541 375.392 31.3524 375.658 31.1491C375.927 30.9428 376.13 30.6573 376.268 30.2926C376.408 29.9278 376.478 29.5033 376.478 29.0189C376.478 28.5405 376.41 28.122 376.272 27.7632C376.135 27.4044 375.933 27.1249 375.667 26.9246C375.401 26.7242 375.072 26.6241 374.68 26.6241C374.276 26.6241 373.94 26.7287 373.671 26.938C373.402 27.1473 373.199 27.4328 373.061 27.7946C372.927 28.1564 372.859 28.5645 372.859 29.0189C372.859 29.4793 372.928 29.8934 373.066 30.2612C373.203 30.6289 373.406 30.9204 373.675 31.1357C373.948 31.3479 374.282 31.4541 374.68 31.4541ZM381.715 32.6156C381.279 32.6156 380.884 32.5349 380.531 32.3734C380.179 32.209 379.899 31.9713 379.693 31.6604C379.489 31.3494 379.388 30.9682 379.388 30.5168C379.388 30.1281 379.463 29.8082 379.612 29.5571C379.762 29.3059 379.963 29.1071 380.217 28.9606C380.472 28.8141 380.756 28.7035 381.07 28.6287C381.384 28.554 381.703 28.4972 382.029 28.4583C382.442 28.4105 382.777 28.3716 383.034 28.3417C383.291 28.3088 383.478 28.2565 383.594 28.1848C383.711 28.113 383.769 27.9964 383.769 27.835V27.8036C383.769 27.4119 383.659 27.1084 383.437 26.8932C383.219 26.6779 382.893 26.5703 382.46 26.5703C382.008 26.5703 381.653 26.6704 381.392 26.8707C381.135 27.0681 380.957 27.2878 380.859 27.53L379.599 27.243C379.748 26.8244 379.966 26.4866 380.253 26.2294C380.543 25.9693 380.877 25.781 381.253 25.6644C381.63 25.5448 382.026 25.485 382.442 25.485C382.717 25.485 383.008 25.5179 383.316 25.5836C383.627 25.6464 383.917 25.763 384.186 25.9335C384.458 26.1039 384.681 26.3475 384.855 26.6645C385.028 26.9784 385.115 27.3865 385.115 27.8888V32.4631H383.805V31.5214H383.751C383.665 31.6948 383.535 31.8652 383.361 32.0326C383.188 32.2 382.965 32.3391 382.693 32.4497C382.421 32.5603 382.095 32.6156 381.715 32.6156ZM382.007 31.5393C382.378 31.5393 382.695 31.466 382.958 31.3195C383.224 31.173 383.426 30.9817 383.563 30.7455C383.704 30.5063 383.774 30.2507 383.774 29.9786V29.0907C383.726 29.1385 383.633 29.1833 383.496 29.2252C383.361 29.2641 383.207 29.2985 383.034 29.3283C382.86 29.3553 382.692 29.3807 382.527 29.4046C382.363 29.4255 382.225 29.4435 382.115 29.4584C381.854 29.4913 381.617 29.5466 381.401 29.6243C381.189 29.7021 381.019 29.8142 380.89 29.9607C380.765 30.1042 380.702 30.2955 380.702 30.5347C380.702 30.8666 380.824 31.1177 381.07 31.2882C381.315 31.4556 381.627 31.5393 382.007 31.5393ZM387.502 35.0463C387.301 35.0463 387.119 35.0299 386.955 34.997C386.79 34.9671 386.668 34.9342 386.587 34.8983L386.91 33.7996C387.155 33.8653 387.373 33.8937 387.565 33.8848C387.756 33.8758 387.925 33.8041 388.071 33.6695C388.221 33.535 388.352 33.3152 388.466 33.0103L388.632 32.5528L386.111 25.5747H387.547L389.291 30.9204H389.363L391.107 25.5747H392.547L389.708 33.3825C389.577 33.7413 389.409 34.0447 389.206 34.2929C389.003 34.544 388.76 34.7324 388.479 34.858C388.198 34.9835 387.872 35.0463 387.502 35.0463ZM398.969 27.2564L397.754 27.4717C397.703 27.3162 397.622 27.1682 397.512 27.0277C397.404 26.8872 397.257 26.7721 397.072 26.6824C396.887 26.5927 396.655 26.5479 396.377 26.5479C395.997 26.5479 395.68 26.6331 395.426 26.8035C395.172 26.9709 395.045 27.1877 395.045 27.4538C395.045 27.684 395.13 27.8693 395.301 28.0099C395.471 28.1504 395.746 28.2655 396.126 28.3552L397.22 28.6063C397.854 28.7528 398.326 28.9785 398.637 29.2835C398.948 29.5885 399.104 29.9846 399.104 30.4719C399.104 30.8845 398.984 31.2523 398.745 31.5752C398.509 31.8951 398.178 32.1462 397.754 32.3286C397.332 32.511 396.843 32.6022 396.287 32.6022C395.516 32.6022 394.886 32.4377 394.399 32.1088C393.912 31.777 393.613 31.3061 393.502 30.6962L394.798 30.4988C394.879 30.8367 395.045 31.0923 395.296 31.2657C395.547 31.4361 395.875 31.5214 396.278 31.5214C396.718 31.5214 397.069 31.4302 397.332 31.2478C397.595 31.0624 397.727 30.8367 397.727 30.5706C397.727 30.3553 397.646 30.1745 397.485 30.028C397.326 29.8815 397.082 29.7708 396.754 29.6961L395.588 29.4405C394.945 29.294 394.469 29.0608 394.161 28.7409C393.856 28.4209 393.704 28.0158 393.704 27.5255C393.704 27.1189 393.818 26.7631 394.045 26.4582C394.272 26.1532 394.586 25.9155 394.987 25.7451C395.387 25.5717 395.846 25.485 396.363 25.485C397.108 25.485 397.694 25.6464 398.121 25.9693C398.549 26.2892 398.831 26.7183 398.969 27.2564Z" fill="#9CA3AF"/>
<path fill-rule="evenodd" clip-rule="evenodd" d="M409.321 25.598C409.595 25.324 410.039 25.324 410.313 25.598L414.027 29.3115L417.74 25.598C418.014 25.324 418.458 25.324 418.732 25.598C419.006 25.872 419.006 26.3163 418.732 26.5903L414.523 30.7999C414.249 31.0739 413.805 31.0739 413.531 30.7999L409.321 26.5903C409.047 26.3163 409.047 25.872 409.321 25.598Z" fill="#9CA3AF"/>
<path d="M51.5525 184.35L57.6807 178.331L63.4098 171.19C63.5295 171.041 63.6798 170.919 63.8505 170.833L70.5197 167.462C70.5778 167.432 70.6337 167.399 70.6869 167.361L78.1161 162.128C78.329 161.978 78.4936 161.77 78.5897 161.528L81.5434 154.095C81.5678 154.034 81.5968 153.975 81.6299 153.917L86.5348 145.473C86.6899 145.205 86.9326 145 87.2217 144.891L95.0144 141.96C95.1653 141.903 95.3251 141.874 95.4863 141.874H103.226C103.509 141.874 103.784 141.785 104.013 141.619L111.273 136.359C111.385 136.277 111.51 136.213 111.643 136.17L119.194 133.704C119.394 133.638 119.576 133.527 119.725 133.377L125.163 127.939C125.264 127.838 125.348 127.722 125.412 127.595L129.694 119.116C129.799 118.906 129.958 118.729 130.154 118.6L137.053 114.068C137.467 113.795 137.998 113.774 138.433 114.013L150.102 120.41C150.325 120.532 150.509 120.715 150.632 120.938L154.163 127.343C154.32 127.629 154.577 127.847 154.884 127.958L161.619 130.374L168.409 132.325C168.663 132.398 168.89 132.545 169.061 132.746L173.711 138.227C173.815 138.35 173.94 138.453 174.081 138.531L179.779 141.705C179.979 141.816 180.203 141.874 180.431 141.874H187.382C187.535 141.874 187.688 141.9 187.832 141.952L194.399 144.295C194.687 144.398 194.931 144.596 195.091 144.857L198.395 150.247C198.605 150.591 198.959 150.821 199.358 150.875L205.799 151.743C205.988 151.769 206.171 151.835 206.333 151.937L211.95 155.467C212.074 155.545 212.185 155.643 212.278 155.757L220.709 166.155C220.902 166.392 221.17 166.557 221.469 166.621L228.678 168.167C228.95 168.225 229.197 168.366 229.384 168.571L234.738 174.41C234.79 174.466 234.847 174.518 234.908 174.565L245.646 182.845C245.881 183.026 246.168 183.124 246.464 183.124H253.308C253.656 183.124 253.991 183.26 254.241 183.502L259.552 188.648C259.672 188.764 259.769 188.901 259.838 189.053L262.611 195.107C262.707 195.317 262.856 195.499 263.044 195.635L268.96 199.911C269.018 199.953 269.08 199.991 269.144 200.023L275.206 203.061C275.399 203.158 275.565 203.299 275.692 203.474L280.322 209.886L284.577 215.074C284.733 215.265 284.939 215.409 285.172 215.49L291.751 217.784C291.811 217.805 291.871 217.831 291.928 217.861L297.744 220.886C297.935 220.985 298.147 221.037 298.362 221.037H304.592C304.906 221.037 305.209 221.147 305.45 221.349L310.142 225.263C310.323 225.414 310.541 225.515 310.773 225.555L317.583 226.724C317.722 226.748 317.856 226.794 317.981 226.86L323.932 229.998C324.104 230.089 324.255 230.217 324.373 230.372L327.939 235.056C328.372 235.624 329.174 235.753 329.763 235.35L337.113 230.315C337.284 230.197 337.425 230.042 337.526 229.861L343.194 219.674C343.266 219.545 343.316 219.405 343.342 219.259L345.199 208.937C345.251 208.646 345.398 208.38 345.617 208.181L354.577 200.057C354.638 200.002 354.693 199.942 354.743 199.877L361.838 190.571C361.996 190.364 362.212 190.207 362.458 190.12L372.497 186.579C372.635 186.531 372.763 186.46 372.878 186.37L382.283 179.001C382.482 178.845 382.633 178.636 382.718 178.398L386.706 167.251C386.76 167.1 386.842 166.959 386.946 166.836L394.02 158.492C394.139 158.352 394.285 158.237 394.45 158.156L404.139 153.378C404.266 153.315 404.382 153.233 404.483 153.134L411.57 146.208C411.684 146.097 411.778 145.965 411.846 145.821L416.598 135.73C416.655 135.61 416.73 135.498 416.82 135.399L425.103 126.307C425.253 126.142 425.36 125.943 425.413 125.726L428.05 115.065" stroke="#9CA3AF" stroke-width="2.10481" stroke-linecap="round" stroke-linejoin="round"/>
<path d="M51.2987 223.816L58.6797 236.142L69.2239 219.465L75.5505 223.816L85.0403 217.29L93.4757 225.991L106.129 220.915L121.945 240.493L132.489 219.465H150.415L156.741 209.314H170.449L180.993 196.262L185.211 202.788L198.918 185.386H230.551L237.932 175.234L245.313 182.485L256.912 160.007L278 147.681L296.98 175.234L328.612 147.681L337.048 135.354L353.919 147.681L387.66 175.234L400.313 141.88L418.239 139.705L425.62 135.354L429.837 139.705V123.027" stroke="#00162A" stroke-width="2.10481" stroke-linecap="round" stroke-linejoin="round"/>
<circle cx="298.028" cy="173.715" r="3.81496" fill="#090F1D"/>
<circle cx="297.239" cy="220.547" r="3.28876" fill="#9CA3AF" stroke="#9CA3AF" stroke-width="1.0524"/>
<rect x="323.799" y="154.054" width="237.675" height="262.159" rx="15.4738" fill="white" stroke="black" stroke-width="1.0524"/>
<g filter="url(#filter1_d_4430_7125)">
<line opacity="0.7" x1="562" y1="211.758" x2="323.273" y2="211.758" stroke="black" stroke-width="1.0524"/>
</g>
<path d="M341.156 187.379H339.084L342.857 176.664H345.253L349.031 187.379H346.959L344.097 178.862H344.013L341.156 187.379ZM341.224 183.178H346.875V184.737H341.224V183.178ZM353.619 187.536C352.817 187.536 352.128 187.36 351.553 187.008C350.98 186.656 350.539 186.169 350.229 185.548C349.922 184.924 349.768 184.205 349.768 183.393C349.768 182.576 349.925 181.856 350.239 181.232C350.553 180.604 350.996 180.116 351.568 179.767C352.144 179.414 352.824 179.238 353.609 179.238C354.261 179.238 354.838 179.359 355.341 179.599C355.846 179.837 356.249 180.173 356.549 180.609C356.849 181.042 357.02 181.547 357.062 182.126H355.252C355.178 181.739 355.004 181.417 354.728 181.158C354.456 180.897 354.092 180.766 353.635 180.766C353.248 180.766 352.908 180.871 352.615 181.08C352.322 181.286 352.093 181.582 351.929 181.969C351.769 182.357 351.689 182.821 351.689 183.361C351.689 183.909 351.769 184.38 351.929 184.774C352.09 185.165 352.315 185.466 352.604 185.679C352.897 185.888 353.241 185.993 353.635 185.993C353.914 185.993 354.163 185.941 354.383 185.836C354.606 185.728 354.793 185.573 354.943 185.37C355.093 185.168 355.196 184.922 355.252 184.633H357.062C357.017 185.201 356.849 185.705 356.56 186.145C356.27 186.581 355.876 186.923 355.377 187.17C354.878 187.414 354.292 187.536 353.619 187.536ZM363.98 190.393V186.113H363.902C363.804 186.309 363.663 186.516 363.478 186.736C363.293 186.952 363.049 187.137 362.745 187.291C362.442 187.444 362.06 187.521 361.6 187.521C360.968 187.521 360.403 187.359 359.904 187.034C359.406 186.71 359.011 186.239 358.722 185.621C358.432 185.004 358.288 184.254 358.288 183.372C358.288 182.479 358.434 181.725 358.727 181.111C359.024 180.494 359.423 180.028 359.925 179.714C360.428 179.397 360.987 179.238 361.605 179.238C362.076 179.238 362.463 179.319 362.766 179.479C363.07 179.636 363.31 179.826 363.488 180.049C363.666 180.269 363.804 180.477 363.902 180.672H364.017V179.343H365.879V190.393H363.98ZM362.128 185.967C362.529 185.967 362.871 185.859 363.153 185.642C363.436 185.423 363.651 185.117 363.797 184.727C363.944 184.336 364.017 183.881 364.017 183.361C364.017 182.841 363.944 182.39 363.797 182.006C363.654 181.622 363.441 181.324 363.159 181.111C362.88 180.899 362.536 180.792 362.128 180.792C361.706 180.792 361.354 180.902 361.071 181.122C360.789 181.342 360.576 181.645 360.433 182.032C360.29 182.419 360.218 182.862 360.218 183.361C360.218 183.864 360.29 184.312 360.433 184.706C360.579 185.097 360.794 185.405 361.076 185.632C361.362 185.855 361.713 185.967 362.128 185.967ZM372.948 184V179.343H374.842V187.379H373.006V185.951H372.922C372.74 186.401 372.442 186.769 372.027 187.055C371.616 187.341 371.108 187.484 370.505 187.484C369.978 187.484 369.512 187.367 369.108 187.134C368.706 186.896 368.393 186.553 368.166 186.103C367.939 185.649 367.826 185.102 367.826 184.46V179.343H369.72V184.167C369.72 184.676 369.859 185.081 370.138 185.381C370.417 185.681 370.784 185.831 371.237 185.831C371.516 185.831 371.786 185.763 372.048 185.627C372.31 185.491 372.524 185.288 372.692 185.02C372.863 184.748 372.948 184.408 372.948 184ZM376.79 187.379V179.343H378.684V187.379H376.79ZM377.742 178.202C377.442 178.202 377.184 178.103 376.968 177.904C376.751 177.702 376.643 177.459 376.643 177.177C376.643 176.891 376.751 176.648 376.968 176.45C377.184 176.247 377.442 176.146 377.742 176.146C378.045 176.146 378.303 176.247 378.516 176.45C378.733 176.648 378.841 176.891 378.841 177.177C378.841 177.459 378.733 177.702 378.516 177.904C378.303 178.103 378.045 178.202 377.742 178.202ZM386.983 181.467L385.257 181.656C385.208 181.481 385.122 181.317 385 181.164C384.882 181.01 384.721 180.886 384.519 180.792C384.317 180.698 384.069 180.651 383.776 180.651C383.382 180.651 383.05 180.736 382.782 180.907C382.517 181.078 382.386 181.3 382.389 181.572C382.386 181.806 382.471 181.996 382.646 182.142C382.824 182.289 383.117 182.409 383.525 182.503L384.896 182.796C385.656 182.96 386.221 183.22 386.591 183.576C386.964 183.932 387.152 184.397 387.156 184.973C387.152 185.478 387.004 185.925 386.711 186.312C386.422 186.696 386.019 186.996 385.502 187.212C384.986 187.428 384.393 187.536 383.724 187.536C382.74 187.536 381.948 187.331 381.348 186.919C380.748 186.504 380.391 185.927 380.276 185.187L382.123 185.009C382.206 185.372 382.384 185.646 382.656 185.831C382.928 186.016 383.282 186.108 383.718 186.108C384.168 186.108 384.529 186.016 384.801 185.831C385.077 185.646 385.215 185.417 385.215 185.145C385.215 184.915 385.126 184.725 384.948 184.575C384.773 184.425 384.501 184.31 384.132 184.23L382.761 183.942C381.99 183.782 381.42 183.511 381.05 183.131C380.68 182.747 380.497 182.262 380.501 181.676C380.497 181.181 380.631 180.752 380.903 180.389C381.179 180.023 381.561 179.741 382.049 179.542C382.541 179.339 383.108 179.238 383.75 179.238C384.691 179.238 385.433 179.439 385.973 179.84C386.517 180.241 386.854 180.784 386.983 181.467ZM388.718 187.379V179.343H390.612V187.379H388.718ZM389.67 178.202C389.37 178.202 389.112 178.103 388.895 177.904C388.679 177.702 388.571 177.459 388.571 177.177C388.571 176.891 388.679 176.648 388.895 176.45C389.112 176.247 389.37 176.146 389.67 176.146C389.973 176.146 390.231 176.247 390.444 176.45C390.66 176.648 390.769 176.891 390.769 177.177C390.769 177.459 390.66 177.702 390.444 177.904C390.231 178.103 389.973 178.202 389.67 178.202ZM396.572 179.343V180.808H391.952V179.343H396.572ZM393.093 177.418H394.987V184.962C394.987 185.217 395.025 185.412 395.102 185.548C395.182 185.681 395.287 185.771 395.416 185.82C395.545 185.869 395.688 185.894 395.845 185.894C395.964 185.894 396.072 185.885 396.169 185.867C396.271 185.85 396.347 185.834 396.4 185.82L396.719 187.301C396.618 187.336 396.473 187.374 396.285 187.416C396.1 187.458 395.873 187.482 395.604 187.489C395.13 187.503 394.703 187.432 394.322 187.275C393.942 187.114 393.641 186.867 393.417 186.532C393.198 186.197 393.089 185.778 393.093 185.276V177.418ZM398.156 187.379V179.343H400.05V187.379H398.156ZM399.109 178.202C398.809 178.202 398.55 178.103 398.334 177.904C398.118 177.702 398.01 177.459 398.01 177.177C398.01 176.891 398.118 176.648 398.334 176.45C398.55 176.247 398.809 176.146 399.109 176.146C399.412 176.146 399.67 176.247 399.883 176.45C400.099 176.648 400.207 176.891 400.207 177.177C400.207 177.459 400.099 177.702 399.883 177.904C399.67 178.103 399.412 178.202 399.109 178.202ZM405.504 187.536C404.719 187.536 404.039 187.364 403.463 187.018C402.887 186.673 402.441 186.19 402.124 185.569C401.81 184.948 401.653 184.223 401.653 183.393C401.653 182.562 401.81 181.835 402.124 181.211C402.441 180.586 402.887 180.102 403.463 179.756C404.039 179.411 404.719 179.238 405.504 179.238C406.288 179.238 406.969 179.411 407.544 179.756C408.12 180.102 408.564 180.586 408.878 181.211C409.196 181.835 409.354 182.562 409.354 183.393C409.354 184.223 409.196 184.948 408.878 185.569C408.564 186.19 408.12 186.673 407.544 187.018C406.969 187.364 406.288 187.536 405.504 187.536ZM405.514 186.019C405.94 186.019 406.295 185.902 406.581 185.669C406.867 185.431 407.08 185.114 407.22 184.716C407.363 184.319 407.434 183.876 407.434 183.387C407.434 182.896 407.363 182.451 407.22 182.053C407.08 181.652 406.867 181.333 406.581 181.096C406.295 180.859 405.94 180.74 405.514 180.74C405.078 180.74 404.715 180.859 404.426 181.096C404.14 181.333 403.925 181.652 403.782 182.053C403.643 182.451 403.573 182.896 403.573 183.387C403.573 183.876 403.643 184.319 403.782 184.716C403.925 185.114 404.14 185.431 404.426 185.669C404.715 185.902 405.078 186.019 405.514 186.019ZM412.856 182.671V187.379H410.962V179.343H412.772V180.709H412.866C413.051 180.259 413.346 179.901 413.751 179.636C414.159 179.371 414.663 179.238 415.263 179.238C415.817 179.238 416.3 179.357 416.712 179.594C417.127 179.831 417.448 180.175 417.675 180.625C417.905 181.075 418.018 181.621 418.015 182.262V187.379H416.121V182.555C416.121 182.018 415.981 181.598 415.702 181.295C415.427 180.991 415.045 180.839 414.556 180.839C414.225 180.839 413.93 180.913 413.672 181.059C413.418 181.202 413.217 181.41 413.07 181.682C412.927 181.954 412.856 182.283 412.856 182.671Z" fill="#090F1D"/>
<g filter="url(#filter2_d_4430_7125)">
<rect x="338.724" y="231.126" width="207.826" height="77.215" rx="5.45922" fill="white"/>
<rect x="339.065" y="231.467" width="207.144" height="76.5325" rx="5.11802" stroke="black" stroke-width="0.682402"/>
</g>
<rect x="346.476" y="291.571" width="192.321" height="4.20961" rx="2.10481" fill="black"/>
<rect x="346.476" y="291.571" width="150.321" height="4.20961" rx="2.10481" fill="#00162A"/>
<path d="M351.882 247.53C351.844 247.171 351.682 246.891 351.397 246.691C351.115 246.491 350.747 246.391 350.295 246.391C349.977 246.391 349.705 246.439 349.477 246.535C349.25 246.631 349.076 246.761 348.955 246.925C348.834 247.09 348.773 247.278 348.77 247.489C348.77 247.664 348.81 247.816 348.889 247.945C348.971 248.074 349.082 248.183 349.222 248.274C349.362 248.361 349.517 248.435 349.687 248.496C349.857 248.556 350.028 248.607 350.201 248.648L350.99 248.845C351.308 248.919 351.613 249.019 351.907 249.145C352.203 249.271 352.467 249.43 352.7 249.622C352.936 249.814 353.122 250.046 353.259 250.317C353.396 250.588 353.465 250.906 353.465 251.271C353.465 251.764 353.339 252.198 353.086 252.574C352.834 252.947 352.47 253.238 351.993 253.449C351.519 253.658 350.945 253.762 350.27 253.762C349.615 253.762 349.047 253.66 348.564 253.458C348.085 253.255 347.709 252.959 347.438 252.57C347.169 252.181 347.024 251.706 347.002 251.147H348.503C348.525 251.441 348.615 251.684 348.774 251.879C348.933 252.074 349.14 252.219 349.395 252.315C349.652 252.411 349.94 252.459 350.258 252.459C350.59 252.459 350.88 252.409 351.13 252.311C351.382 252.209 351.579 252.07 351.722 251.891C351.864 251.711 351.937 251.499 351.94 251.258C351.937 251.039 351.872 250.858 351.746 250.716C351.62 250.57 351.443 250.45 351.216 250.354C350.991 250.255 350.728 250.168 350.427 250.091L349.469 249.844C348.775 249.666 348.227 249.396 347.824 249.034C347.424 248.67 347.224 248.186 347.224 247.583C347.224 247.087 347.359 246.653 347.627 246.28C347.898 245.907 348.267 245.618 348.733 245.413C349.199 245.204 349.726 245.1 350.316 245.1C350.913 245.1 351.437 245.204 351.886 245.413C352.338 245.618 352.693 245.904 352.951 246.272C353.208 246.636 353.341 247.056 353.35 247.53H351.882ZM354.759 253.634V247.32H356.247V253.634H354.759ZM355.507 246.424C355.271 246.424 355.068 246.346 354.898 246.189C354.728 246.031 354.644 245.84 354.644 245.618C354.644 245.393 354.728 245.203 354.898 245.047C355.068 244.888 355.271 244.808 355.507 244.808C355.745 244.808 355.948 244.888 356.115 245.047C356.285 245.203 356.37 245.393 356.37 245.618C356.37 245.84 356.285 246.031 356.115 246.189C355.948 246.346 355.745 246.424 355.507 246.424ZM360.523 256.134C359.989 256.134 359.53 256.061 359.146 255.916C358.762 255.773 358.454 255.582 358.221 255.34C357.988 255.099 357.826 254.832 357.736 254.539L359.076 254.214C359.136 254.337 359.224 254.459 359.339 254.58C359.454 254.703 359.609 254.805 359.804 254.884C360.001 254.966 360.249 255.007 360.548 255.007C360.97 255.007 361.319 254.905 361.596 254.699C361.873 254.496 362.011 254.162 362.011 253.696V252.5H361.937C361.861 252.653 361.748 252.811 361.6 252.973C361.455 253.134 361.262 253.27 361.021 253.38C360.782 253.489 360.482 253.544 360.12 253.544C359.635 253.544 359.195 253.43 358.801 253.203C358.409 252.973 358.096 252.63 357.863 252.175C357.633 251.717 357.518 251.145 357.518 250.457C357.518 249.763 357.633 249.178 357.863 248.701C358.096 248.222 358.41 247.859 358.805 247.612C359.199 247.362 359.639 247.238 360.124 247.238C360.494 247.238 360.799 247.301 361.037 247.427C361.278 247.55 361.47 247.7 361.613 247.875C361.755 248.048 361.863 248.211 361.937 248.364H362.02V247.32H363.487V253.737C363.487 254.277 363.358 254.724 363.101 255.077C362.843 255.431 362.491 255.695 362.044 255.871C361.598 256.046 361.091 256.134 360.523 256.134ZM360.536 252.376C360.851 252.376 361.119 252.3 361.341 252.146C361.563 251.993 361.732 251.772 361.847 251.484C361.962 251.197 362.02 250.851 362.02 250.448C362.02 250.051 361.962 249.703 361.847 249.404C361.735 249.106 361.567 248.874 361.345 248.71C361.126 248.542 360.856 248.459 360.536 248.459C360.204 248.459 359.927 248.545 359.705 248.718C359.483 248.89 359.316 249.127 359.204 249.429C359.091 249.728 359.035 250.067 359.035 250.448C359.035 250.835 359.091 251.173 359.204 251.464C359.319 251.752 359.487 251.976 359.709 252.138C359.934 252.297 360.209 252.376 360.536 252.376ZM366.501 249.935V253.634H365.012V247.32H366.435V248.393H366.509C366.654 248.039 366.886 247.759 367.203 247.55C367.524 247.342 367.92 247.238 368.392 247.238C368.827 247.238 369.207 247.331 369.53 247.517C369.856 247.704 370.109 247.974 370.287 248.327C370.468 248.681 370.557 249.11 370.554 249.614V253.634H369.066V249.844C369.066 249.422 368.956 249.092 368.737 248.853C368.52 248.615 368.22 248.496 367.837 248.496C367.576 248.496 367.345 248.553 367.142 248.668C366.942 248.781 366.784 248.944 366.669 249.158C366.557 249.371 366.501 249.63 366.501 249.935ZM378.963 250.979V247.32H380.451V253.634H379.008V252.512H378.942C378.8 252.866 378.565 253.155 378.239 253.38C377.916 253.604 377.517 253.717 377.043 253.717C376.629 253.717 376.263 253.625 375.945 253.441C375.63 253.255 375.384 252.985 375.205 252.631C375.027 252.275 374.938 251.845 374.938 251.341V247.32H376.426V251.11C376.426 251.51 376.536 251.828 376.755 252.064C376.975 252.3 377.262 252.418 377.619 252.418C377.838 252.418 378.05 252.364 378.256 252.257C378.461 252.15 378.63 251.991 378.761 251.78C378.896 251.567 378.963 251.299 378.963 250.979ZM381.981 256.002V247.32H383.445V248.364H383.531C383.608 248.211 383.716 248.048 383.856 247.875C383.996 247.7 384.185 247.55 384.423 247.427C384.662 247.301 384.966 247.238 385.336 247.238C385.824 247.238 386.264 247.362 386.655 247.612C387.05 247.859 387.363 248.224 387.593 248.71C387.826 249.192 387.942 249.784 387.942 250.485C387.942 251.179 387.828 251.768 387.601 252.253C387.374 252.738 387.064 253.108 386.672 253.363C386.28 253.618 385.836 253.745 385.34 253.745C384.978 253.745 384.678 253.685 384.44 253.565C384.201 253.444 384.009 253.299 383.864 253.129C383.722 252.956 383.611 252.793 383.531 252.64H383.469V256.002H381.981ZM383.441 250.477C383.441 250.886 383.498 251.243 383.613 251.55C383.731 251.857 383.9 252.097 384.119 252.27C384.341 252.44 384.61 252.524 384.925 252.524C385.254 252.524 385.529 252.437 385.751 252.261C385.973 252.083 386.14 251.841 386.253 251.534C386.368 251.224 386.425 250.872 386.425 250.477C386.425 250.085 386.369 249.737 386.257 249.433C386.144 249.129 385.977 248.89 385.755 248.718C385.533 248.545 385.256 248.459 384.925 248.459C384.607 248.459 384.337 248.542 384.115 248.71C383.893 248.877 383.724 249.111 383.609 249.412C383.497 249.714 383.441 250.069 383.441 250.477ZM394.207 248.989L392.851 249.137C392.812 249 392.745 248.871 392.649 248.751C392.556 248.63 392.43 248.533 392.271 248.459C392.112 248.385 391.917 248.348 391.687 248.348C391.378 248.348 391.117 248.415 390.906 248.549C390.698 248.683 390.595 248.858 390.598 249.071C390.595 249.255 390.662 249.404 390.799 249.519C390.939 249.634 391.169 249.729 391.49 249.803L392.567 250.033C393.164 250.162 393.608 250.366 393.899 250.646C394.192 250.925 394.34 251.291 394.343 251.743C394.34 252.141 394.224 252.492 393.994 252.796C393.766 253.097 393.45 253.333 393.044 253.503C392.638 253.673 392.172 253.758 391.646 253.758C390.873 253.758 390.251 253.596 389.78 253.273C389.308 252.947 389.027 252.493 388.937 251.912L390.388 251.772C390.454 252.057 390.594 252.272 390.808 252.418C391.021 252.563 391.299 252.635 391.642 252.635C391.996 252.635 392.279 252.563 392.493 252.418C392.71 252.272 392.818 252.093 392.818 251.879C392.818 251.698 392.748 251.549 392.608 251.431C392.471 251.313 392.257 251.223 391.967 251.16L390.89 250.934C390.284 250.807 389.836 250.595 389.545 250.296C389.255 249.995 389.111 249.614 389.114 249.153C389.111 248.764 389.217 248.427 389.43 248.142C389.647 247.854 389.947 247.632 390.331 247.476C390.717 247.317 391.162 247.238 391.667 247.238C392.407 247.238 392.989 247.395 393.414 247.711C393.841 248.026 394.106 248.452 394.207 248.989Z" fill="#090F1D"/>
<path d="M352.545 269.015V281.261H350.327V271.174H350.255L347.391 273.003V270.97L350.435 269.015H352.545ZM357.546 279.587L357.468 280.245C357.412 280.747 357.313 281.257 357.169 281.775C357.03 282.298 356.882 282.778 356.727 283.216C356.571 283.655 356.446 284 356.35 284.251H354.891C354.947 284.008 355.022 283.677 355.118 283.258C355.218 282.84 355.313 282.369 355.405 281.847C355.497 281.325 355.559 280.795 355.59 280.257L355.632 279.587H357.546ZM364.056 281.429C363.259 281.429 362.545 281.279 361.915 280.98C361.285 280.677 360.785 280.262 360.414 279.736C360.048 279.21 359.852 278.608 359.828 277.93H361.981C362.021 278.433 362.238 278.843 362.633 279.162C363.028 279.477 363.502 279.635 364.056 279.635C364.491 279.635 364.877 279.535 365.216 279.336C365.555 279.136 365.822 278.859 366.017 278.504C366.213 278.15 366.308 277.745 366.304 277.291C366.308 276.828 366.211 276.418 366.011 276.059C365.812 275.7 365.539 275.419 365.192 275.216C364.845 275.008 364.447 274.905 363.996 274.905C363.629 274.901 363.269 274.969 362.914 275.108C362.559 275.248 362.278 275.431 362.071 275.658L360.068 275.329L360.707 269.015H367.811V270.869H362.543L362.19 274.115H362.262C362.489 273.848 362.81 273.627 363.225 273.452C363.639 273.272 364.094 273.183 364.588 273.183C365.33 273.183 365.991 273.358 366.573 273.709C367.155 274.056 367.614 274.534 367.949 275.144C368.284 275.754 368.451 276.452 368.451 277.237C368.451 278.046 368.264 278.768 367.889 279.401C367.518 280.031 367.002 280.528 366.34 280.89C365.682 281.249 364.921 281.429 364.056 281.429ZM374.849 281.429C373.988 281.429 373.223 281.281 372.553 280.986C371.887 280.691 371.361 280.28 370.974 279.754C370.588 279.228 370.382 278.62 370.358 277.93H372.607C372.627 278.261 372.736 278.55 372.936 278.797C373.135 279.041 373.4 279.23 373.731 279.366C374.062 279.501 374.433 279.569 374.843 279.569C375.282 279.569 375.67 279.493 376.009 279.342C376.348 279.186 376.613 278.971 376.804 278.696C376.996 278.421 377.089 278.104 377.085 277.745C377.089 277.374 376.994 277.047 376.798 276.764C376.603 276.481 376.32 276.26 375.949 276.101C375.583 275.941 375.14 275.862 374.622 275.862H373.54V274.151H374.622C375.048 274.151 375.421 274.078 375.74 273.93C376.063 273.783 376.316 273.575 376.499 273.308C376.683 273.037 376.773 272.724 376.769 272.369C376.773 272.023 376.695 271.722 376.535 271.467C376.38 271.207 376.159 271.006 375.872 270.863C375.589 270.719 375.256 270.647 374.873 270.647C374.498 270.647 374.151 270.715 373.833 270.851C373.514 270.986 373.257 271.18 373.061 271.431C372.866 271.678 372.762 271.973 372.75 272.316H370.616C370.632 271.63 370.829 271.028 371.208 270.51C371.59 269.988 372.101 269.581 372.738 269.29C373.376 268.995 374.092 268.847 374.885 268.847C375.702 268.847 376.412 269.001 377.014 269.308C377.62 269.611 378.088 270.019 378.419 270.534C378.75 271.048 378.915 271.616 378.915 272.238C378.919 272.928 378.716 273.506 378.305 273.972C377.899 274.438 377.365 274.743 376.703 274.887V274.983C377.564 275.102 378.224 275.421 378.682 275.939C379.144 276.454 379.374 277.093 379.37 277.859C379.37 278.544 379.174 279.158 378.784 279.7C378.397 280.239 377.863 280.661 377.181 280.968C376.503 281.275 375.726 281.429 374.849 281.429ZM385.68 281.429C384.882 281.429 384.169 281.279 383.539 280.98C382.909 280.677 382.409 280.262 382.038 279.736C381.671 279.21 381.476 278.608 381.452 277.93H383.605C383.645 278.433 383.862 278.843 384.256 279.162C384.651 279.477 385.125 279.635 385.68 279.635C386.114 279.635 386.501 279.535 386.84 279.336C387.178 279.136 387.446 278.859 387.641 278.504C387.836 278.15 387.932 277.745 387.928 277.291C387.932 276.828 387.834 276.418 387.635 276.059C387.436 275.7 387.163 275.419 386.816 275.216C386.469 275.008 386.07 274.905 385.62 274.905C385.253 274.901 384.892 274.969 384.537 275.108C384.183 275.248 383.902 275.431 383.694 275.658L381.691 275.329L382.331 269.015H389.435V270.869H384.167L383.814 274.115H383.886C384.113 273.848 384.434 273.627 384.848 273.452C385.263 273.272 385.717 273.183 386.212 273.183C386.953 273.183 387.615 273.358 388.197 273.709C388.779 274.056 389.237 274.534 389.572 275.144C389.907 275.754 390.075 276.452 390.075 277.237C390.075 278.046 389.887 278.768 389.512 279.401C389.142 280.031 388.626 280.528 387.964 280.89C387.306 281.249 386.545 281.429 385.68 281.429Z" fill="#090F1D"/>
<g filter="url(#filter3_d_4430_7125)">
<rect x="338.723" y="323.075" width="207.826" height="77.215" rx="5.45922" fill="white"/>
<rect x="339.065" y="323.416" width="207.144" height="76.5325" rx="5.11802" stroke="black" stroke-width="0.682402"/>
</g>
<rect x="346.476" y="383.568" width="192.321" height="4.20961" rx="2.10481" fill="black"/>
<rect x="346.476" y="383.568" width="73.036" height="4.20961" rx="2.10481" fill="#00162A"/>
<path d="M354.225 337.164V345.583H352.868L348.901 339.848H348.831V345.583H347.306V337.164H348.671L352.634 342.902H352.708V337.164H354.225ZM358.616 345.706C357.983 345.706 357.437 345.575 356.976 345.312C356.519 345.046 356.166 344.67 355.92 344.185C355.673 343.697 355.55 343.123 355.55 342.463C355.55 341.813 355.673 341.243 355.92 340.752C356.169 340.259 356.517 339.875 356.964 339.601C357.411 339.325 357.935 339.186 358.538 339.186C358.928 339.186 359.295 339.249 359.64 339.375C359.988 339.499 360.295 339.69 360.561 339.951C360.83 340.211 361.041 340.543 361.194 340.946C361.348 341.346 361.424 341.823 361.424 342.376V342.833H356.249V341.83H359.998C359.995 341.545 359.933 341.291 359.813 341.069C359.692 340.844 359.524 340.668 359.307 340.539C359.093 340.41 358.844 340.345 358.559 340.345C358.255 340.345 357.988 340.419 357.757 340.567C357.527 340.713 357.348 340.905 357.219 341.143C357.093 341.379 357.028 341.638 357.026 341.92V342.796C357.026 343.163 357.093 343.478 357.227 343.741C357.361 344.001 357.549 344.202 357.79 344.341C358.031 344.478 358.314 344.547 358.637 344.547C358.854 344.547 359.05 344.517 359.225 344.456C359.4 344.393 359.552 344.302 359.681 344.181C359.81 344.06 359.907 343.911 359.973 343.733L361.363 343.889C361.275 344.256 361.108 344.577 360.861 344.851C360.617 345.122 360.305 345.333 359.924 345.484C359.543 345.632 359.107 345.706 358.616 345.706ZM363.953 345.583L362.168 339.268H363.685L364.795 343.708H364.853L365.987 339.268H367.488L368.623 343.684H368.684L369.778 339.268H371.299L369.511 345.583H367.961L366.777 341.316H366.69L365.506 345.583H363.953ZM382.482 340.004H380.944C380.9 339.752 380.819 339.529 380.702 339.334C380.584 339.137 380.437 338.97 380.262 338.833C380.086 338.696 379.886 338.593 379.661 338.524C379.439 338.453 379.2 338.417 378.942 338.417C378.484 338.417 378.079 338.533 377.725 338.763C377.372 338.99 377.095 339.325 376.895 339.766C376.695 340.204 376.595 340.74 376.595 341.373C376.595 342.017 376.695 342.56 376.895 343.001C377.098 343.44 377.374 343.771 377.725 343.996C378.079 344.218 378.483 344.329 378.938 344.329C379.19 344.329 379.426 344.296 379.645 344.23C379.867 344.162 380.066 344.062 380.241 343.93C380.419 343.799 380.569 343.637 380.689 343.445C380.813 343.253 380.898 343.034 380.944 342.787L382.482 342.796C382.424 343.196 382.299 343.571 382.107 343.922C381.918 344.273 381.67 344.583 381.363 344.851C381.056 345.117 380.697 345.325 380.286 345.476C379.875 345.624 379.419 345.698 378.917 345.698C378.177 345.698 377.517 345.527 376.936 345.184C376.355 344.841 375.897 344.347 375.563 343.7C375.229 343.053 375.061 342.278 375.061 341.373C375.061 340.466 375.23 339.69 375.567 339.046C375.904 338.4 376.363 337.905 376.944 337.562C377.525 337.22 378.183 337.048 378.917 337.048C379.386 337.048 379.822 337.114 380.225 337.246C380.628 337.377 380.987 337.571 381.302 337.825C381.617 338.078 381.876 338.387 382.079 338.755C382.284 339.119 382.419 339.536 382.482 340.004ZM387.837 342.927V339.268H389.325V345.583H387.882V344.461H387.817C387.674 344.814 387.44 345.103 387.114 345.328C386.79 345.553 386.391 345.665 385.917 345.665C385.503 345.665 385.138 345.573 384.82 345.39C384.505 345.203 384.258 344.933 384.08 344.58C383.902 344.223 383.813 343.793 383.813 343.289V339.268H385.301V343.059C385.301 343.459 385.41 343.777 385.63 344.012C385.849 344.248 386.137 344.366 386.493 344.366C386.712 344.366 386.925 344.313 387.13 344.206C387.336 344.099 387.504 343.94 387.636 343.729C387.77 343.515 387.837 343.248 387.837 342.927ZM395.846 340.937L394.49 341.085C394.451 340.948 394.384 340.82 394.288 340.699C394.195 340.578 394.069 340.481 393.91 340.407C393.751 340.333 393.556 340.296 393.326 340.296C393.017 340.296 392.756 340.363 392.545 340.498C392.337 340.632 392.234 340.806 392.237 341.02C392.234 341.203 392.301 341.353 392.438 341.468C392.578 341.583 392.808 341.677 393.129 341.751L394.206 341.982C394.803 342.11 395.247 342.315 395.538 342.594C395.831 342.874 395.979 343.24 395.982 343.692C395.979 344.089 395.863 344.44 395.633 344.744C395.405 345.046 395.089 345.281 394.683 345.451C394.277 345.621 393.811 345.706 393.285 345.706C392.512 345.706 391.89 345.544 391.419 345.221C390.947 344.895 390.666 344.441 390.576 343.86L392.027 343.721C392.093 344.006 392.233 344.221 392.447 344.366C392.66 344.511 392.938 344.584 393.281 344.584C393.635 344.584 393.918 344.511 394.132 344.366C394.349 344.221 394.457 344.041 394.457 343.827C394.457 343.647 394.387 343.497 394.247 343.379C394.11 343.262 393.896 343.171 393.606 343.108L392.529 342.882C391.923 342.756 391.475 342.543 391.184 342.245C390.894 341.943 390.75 341.562 390.753 341.102C390.75 340.713 390.856 340.376 391.069 340.091C391.286 339.803 391.586 339.581 391.97 339.425C392.356 339.266 392.801 339.186 393.306 339.186C394.046 339.186 394.628 339.344 395.053 339.659C395.48 339.974 395.745 340.4 395.846 340.937ZM400.362 339.268V340.419H396.732V339.268H400.362ZM397.628 337.756H399.117V343.684C399.117 343.884 399.147 344.037 399.207 344.144C399.27 344.248 399.352 344.319 399.454 344.358C399.555 344.396 399.667 344.415 399.791 344.415C399.884 344.415 399.969 344.408 400.046 344.395C400.125 344.381 400.185 344.369 400.227 344.358L400.477 345.521C400.398 345.549 400.284 345.579 400.136 345.612C399.991 345.644 399.813 345.664 399.602 345.669C399.229 345.68 398.893 345.624 398.594 345.501C398.296 345.375 398.059 345.18 397.883 344.917C397.711 344.654 397.626 344.325 397.628 343.93V337.756ZM404.293 345.706C403.677 345.706 403.142 345.57 402.69 345.299C402.238 345.028 401.887 344.648 401.638 344.16C401.391 343.673 401.268 343.103 401.268 342.45C401.268 341.798 401.391 341.227 401.638 340.736C401.887 340.245 402.238 339.864 402.69 339.593C403.142 339.322 403.677 339.186 404.293 339.186C404.91 339.186 405.444 339.322 405.897 339.593C406.349 339.864 406.698 340.245 406.945 340.736C407.194 341.227 407.319 341.798 407.319 342.45C407.319 343.103 407.194 343.673 406.945 344.16C406.698 344.648 406.349 345.028 405.897 345.299C405.444 345.57 404.91 345.706 404.293 345.706ZM404.301 344.514C404.636 344.514 404.915 344.422 405.14 344.239C405.365 344.052 405.532 343.803 405.642 343.49C405.754 343.178 405.81 342.83 405.81 342.446C405.81 342.06 405.754 341.71 405.642 341.398C405.532 341.083 405.365 340.832 405.14 340.646C404.915 340.459 404.636 340.366 404.301 340.366C403.959 340.366 403.674 340.459 403.446 340.646C403.222 340.832 403.053 341.083 402.941 341.398C402.831 341.71 402.776 342.06 402.776 342.446C402.776 342.83 402.831 343.178 402.941 343.49C403.053 343.803 403.222 344.052 403.446 344.239C403.674 344.422 403.959 344.514 404.301 344.514ZM408.582 345.583V339.268H410.004V340.341H410.078C410.21 339.98 410.428 339.697 410.732 339.495C411.036 339.289 411.399 339.186 411.821 339.186C412.249 339.186 412.609 339.29 412.903 339.499C413.199 339.704 413.407 339.985 413.527 340.341H413.593C413.733 339.991 413.969 339.711 414.3 339.503C414.635 339.292 415.031 339.186 415.488 339.186C416.069 339.186 416.544 339.37 416.911 339.737C417.278 340.104 417.462 340.64 417.462 341.344V345.583H415.969V341.575C415.969 341.183 415.865 340.896 415.657 340.715C415.449 340.532 415.194 340.44 414.892 340.44C414.533 340.44 414.252 340.552 414.05 340.777C413.85 340.999 413.749 341.288 413.749 341.645V345.583H412.29V341.513C412.29 341.187 412.191 340.926 411.994 340.732C411.8 340.537 411.545 340.44 411.229 340.44C411.016 340.44 410.821 340.495 410.646 340.604C410.47 340.711 410.331 340.863 410.226 341.061C410.122 341.255 410.07 341.483 410.07 341.743V345.583H408.582ZM421.767 345.706C421.134 345.706 420.587 345.575 420.127 345.312C419.669 345.046 419.317 344.67 419.07 344.185C418.823 343.697 418.7 343.123 418.7 342.463C418.7 341.813 418.823 341.243 419.07 340.752C419.319 340.259 419.668 339.875 420.114 339.601C420.561 339.325 421.086 339.186 421.689 339.186C422.078 339.186 422.445 339.249 422.79 339.375C423.139 339.499 423.446 339.69 423.711 339.951C423.98 340.211 424.191 340.543 424.344 340.946C424.498 341.346 424.575 341.823 424.575 342.376V342.833H419.399V341.83H423.148C423.145 341.545 423.084 341.291 422.963 341.069C422.843 340.844 422.674 340.668 422.458 340.539C422.244 340.41 421.994 340.345 421.709 340.345C421.405 340.345 421.138 340.419 420.908 340.567C420.677 340.713 420.498 340.905 420.369 341.143C420.243 341.379 420.179 341.638 420.176 341.92V342.796C420.176 343.163 420.243 343.478 420.377 343.741C420.512 344.001 420.699 344.202 420.941 344.341C421.182 344.478 421.464 344.547 421.787 344.547C422.004 344.547 422.2 344.517 422.375 344.456C422.551 344.393 422.703 344.302 422.832 344.181C422.96 344.06 423.058 343.911 423.123 343.733L424.513 343.889C424.425 344.256 424.258 344.577 424.011 344.851C423.768 345.122 423.455 345.333 423.074 345.484C422.693 345.632 422.257 345.706 421.767 345.706ZM425.834 345.583V339.268H427.277V340.321H427.342C427.457 339.956 427.655 339.675 427.934 339.478C428.217 339.278 428.539 339.178 428.9 339.178C428.983 339.178 429.074 339.182 429.176 339.19C429.28 339.196 429.366 339.205 429.435 339.219V340.588C429.372 340.566 429.272 340.547 429.135 340.53C429 340.511 428.87 340.502 428.744 340.502C428.473 340.502 428.229 340.561 428.012 340.678C427.799 340.794 427.63 340.954 427.507 341.159C427.383 341.365 427.322 341.602 427.322 341.871V345.583H425.834ZM435.414 340.937L434.058 341.085C434.019 340.948 433.952 340.82 433.856 340.699C433.763 340.578 433.637 340.481 433.478 340.407C433.319 340.333 433.124 340.296 432.894 340.296C432.584 340.296 432.324 340.363 432.113 340.498C431.905 340.632 431.802 340.806 431.805 341.02C431.802 341.203 431.869 341.353 432.006 341.468C432.146 341.583 432.376 341.677 432.697 341.751L433.774 341.982C434.371 342.11 434.815 342.315 435.106 342.594C435.399 342.874 435.547 343.24 435.55 343.692C435.547 344.089 435.431 344.44 435.2 344.744C434.973 345.046 434.656 345.281 434.251 345.451C433.845 345.621 433.379 345.706 432.853 345.706C432.08 345.706 431.458 345.544 430.987 345.221C430.515 344.895 430.234 344.441 430.144 343.86L431.595 343.721C431.661 344.006 431.801 344.221 432.014 344.366C432.228 344.511 432.506 344.584 432.849 344.584C433.202 344.584 433.486 344.511 433.7 344.366C433.916 344.221 434.025 344.041 434.025 343.827C434.025 343.647 433.955 343.497 433.815 343.379C433.678 343.262 433.464 343.171 433.174 343.108L432.097 342.882C431.491 342.756 431.043 342.543 430.752 342.245C430.462 341.943 430.318 341.562 430.321 341.102C430.318 340.713 430.423 340.376 430.637 340.091C430.854 339.803 431.154 339.581 431.538 339.425C431.924 339.266 432.369 339.186 432.874 339.186C433.614 339.186 434.196 339.344 434.621 339.659C435.048 339.974 435.313 340.4 435.414 340.937ZM440.018 341.373C440.018 340.345 440.154 339.401 440.425 338.541C440.7 337.677 441.106 336.88 441.646 336.148H443.048C442.84 336.42 442.645 336.753 442.464 337.147C442.284 337.539 442.126 337.969 441.992 338.438C441.86 338.904 441.756 339.388 441.679 339.889C441.605 340.391 441.568 340.885 441.568 341.373C441.568 342.023 441.633 342.681 441.762 343.346C441.893 344.012 442.07 344.63 442.292 345.201C442.517 345.768 442.769 346.232 443.048 346.594H441.646C441.106 345.862 440.7 345.066 440.425 344.206C440.154 343.342 440.018 342.398 440.018 341.373ZM444.27 345.583V337.164H447.427C448.074 337.164 448.617 337.276 449.055 337.501C449.497 337.725 449.83 338.041 450.054 338.446C450.282 338.849 450.396 339.319 450.396 339.856C450.396 340.396 450.28 340.865 450.05 341.262C449.823 341.657 449.487 341.962 449.043 342.179C448.599 342.393 448.054 342.5 447.407 342.5H445.158V341.233H447.201C447.58 341.233 447.889 341.181 448.13 341.077C448.372 340.97 448.55 340.815 448.665 340.613C448.783 340.407 448.842 340.155 448.842 339.856C448.842 339.558 448.783 339.303 448.665 339.092C448.547 338.878 448.367 338.716 448.126 338.607C447.885 338.494 447.574 338.438 447.193 338.438H445.795V345.583H444.27ZM448.62 341.768L450.704 345.583H449.002L446.955 341.768H448.62ZM454.439 345.706C453.806 345.706 453.259 345.575 452.798 345.312C452.341 345.046 451.989 344.67 451.742 344.185C451.495 343.697 451.372 343.123 451.372 342.463C451.372 341.813 451.495 341.243 451.742 340.752C451.991 340.259 452.339 339.875 452.786 339.601C453.233 339.325 453.758 339.186 454.361 339.186C454.75 339.186 455.117 339.249 455.462 339.375C455.81 339.499 456.117 339.69 456.383 339.951C456.652 340.211 456.863 340.543 457.016 340.946C457.17 341.346 457.246 341.823 457.246 342.376V342.833H452.071V341.83H455.82C455.817 341.545 455.756 341.291 455.635 341.069C455.514 340.844 455.346 340.668 455.129 340.539C454.916 340.41 454.666 340.345 454.381 340.345C454.077 340.345 453.81 340.419 453.579 340.567C453.349 340.713 453.17 340.905 453.041 341.143C452.915 341.379 452.85 341.638 452.848 341.92V342.796C452.848 343.163 452.915 343.478 453.049 343.741C453.183 344.001 453.371 344.202 453.612 344.341C453.854 344.478 454.136 344.547 454.459 344.547C454.676 344.547 454.872 344.517 455.047 344.456C455.222 344.393 455.375 344.302 455.503 344.181C455.632 344.06 455.729 343.911 455.795 343.733L457.185 343.889C457.097 344.256 456.93 344.577 456.683 344.851C456.439 345.122 456.127 345.333 455.746 345.484C455.365 345.632 454.929 345.706 454.439 345.706ZM463.965 339.268L461.716 345.583H460.072L457.823 339.268H459.41L460.861 343.959H460.927L462.382 339.268H463.965ZM467.575 345.706C466.942 345.706 466.395 345.575 465.935 345.312C465.477 345.046 465.125 344.67 464.878 344.185C464.632 343.697 464.508 343.123 464.508 342.463C464.508 341.813 464.632 341.243 464.878 340.752C465.128 340.259 465.476 339.875 465.923 339.601C466.369 339.325 466.894 339.186 467.497 339.186C467.886 339.186 468.253 339.249 468.599 339.375C468.947 339.499 469.254 339.69 469.52 339.951C469.788 340.211 469.999 340.543 470.153 340.946C470.306 341.346 470.383 341.823 470.383 342.376V342.833H465.207V341.83H468.956C468.954 341.545 468.892 341.291 468.771 341.069C468.651 340.844 468.482 340.668 468.266 340.539C468.052 340.41 467.803 340.345 467.518 340.345C467.213 340.345 466.946 340.419 466.716 340.567C466.486 340.713 466.306 340.905 466.177 341.143C466.051 341.379 465.987 341.638 465.984 341.92V342.796C465.984 343.163 466.051 343.478 466.186 343.741C466.32 344.001 466.508 344.202 466.749 344.341C466.99 344.478 467.272 344.547 467.596 344.547C467.812 344.547 468.008 344.517 468.184 344.456C468.359 344.393 468.511 344.302 468.64 344.181C468.769 344.06 468.866 343.911 468.932 343.733L470.321 343.889C470.234 344.256 470.066 344.577 469.82 344.851C469.576 345.122 469.263 345.333 468.882 345.484C468.502 345.632 468.066 345.706 467.575 345.706ZM473.13 341.883V345.583H471.642V339.268H473.064V340.341H473.138C473.284 339.988 473.515 339.707 473.833 339.499C474.154 339.29 474.55 339.186 475.021 339.186C475.457 339.186 475.836 339.279 476.16 339.466C476.486 339.652 476.738 339.922 476.916 340.276C477.097 340.629 477.186 341.058 477.184 341.562V345.583H475.695V341.793C475.695 341.37 475.586 341.04 475.366 340.802C475.15 340.563 474.85 340.444 474.466 340.444C474.206 340.444 473.974 340.502 473.771 340.617C473.571 340.729 473.414 340.892 473.299 341.106C473.186 341.32 473.13 341.579 473.13 341.883ZM482.721 342.927V339.268H484.209V345.583H482.766V344.461H482.7C482.558 344.814 482.324 345.103 481.997 345.328C481.674 345.553 481.275 345.665 480.801 345.665C480.387 345.665 480.021 345.573 479.704 345.39C479.388 345.203 479.142 344.933 478.964 344.58C478.785 344.223 478.696 343.793 478.696 343.289V339.268H480.185V343.059C480.185 343.459 480.294 343.777 480.513 344.012C480.733 344.248 481.02 344.366 481.377 344.366C481.596 344.366 481.808 344.313 482.014 344.206C482.219 344.099 482.388 343.94 482.52 343.729C482.654 343.515 482.721 343.248 482.721 342.927ZM488.535 345.706C487.902 345.706 487.355 345.575 486.895 345.312C486.437 345.046 486.085 344.67 485.838 344.185C485.591 343.697 485.468 343.123 485.468 342.463C485.468 341.813 485.591 341.243 485.838 340.752C486.087 340.259 486.436 339.875 486.882 339.601C487.329 339.325 487.854 339.186 488.457 339.186C488.846 339.186 489.213 339.249 489.559 339.375C489.907 339.499 490.214 339.69 490.479 339.951C490.748 340.211 490.959 340.543 491.112 340.946C491.266 341.346 491.343 341.823 491.343 342.376V342.833H486.167V341.83H489.916C489.913 341.545 489.852 341.291 489.731 341.069C489.611 340.844 489.442 340.668 489.226 340.539C489.012 340.41 488.762 340.345 488.477 340.345C488.173 340.345 487.906 340.419 487.676 340.567C487.445 340.713 487.266 340.905 487.137 341.143C487.011 341.379 486.947 341.638 486.944 341.92V342.796C486.944 343.163 487.011 343.478 487.145 343.741C487.28 344.001 487.467 344.202 487.709 344.341C487.95 344.478 488.232 344.547 488.555 344.547C488.772 344.547 488.968 344.517 489.143 344.456C489.319 344.393 489.471 344.302 489.6 344.181C489.728 344.06 489.826 343.911 489.891 343.733L491.281 343.889C491.193 344.256 491.026 344.577 490.779 344.851C490.536 345.122 490.223 345.333 489.842 345.484C489.461 345.632 489.025 345.706 488.535 345.706ZM495.257 342.15C495.257 343.175 495.12 344.119 494.846 344.983C494.575 345.843 494.169 346.639 493.629 347.371H492.228C492.439 347.1 492.633 346.768 492.811 346.376C492.992 345.984 493.148 345.554 493.28 345.085C493.414 344.617 493.518 344.132 493.592 343.63C493.669 343.129 493.707 342.635 493.707 342.15C493.707 341.501 493.642 340.843 493.51 340.177C493.381 339.511 493.205 338.893 492.98 338.323C492.758 337.753 492.507 337.287 492.228 336.925H493.629C494.169 337.657 494.575 338.454 494.846 339.318C495.12 340.178 495.257 341.122 495.257 342.15Z" fill="#090F1D"/>
<path d="M351.511 374.74V359.433H352.491V374.74H351.511ZM354.339 364.33C354.283 363.808 354.048 363.401 353.633 363.11C353.223 362.819 352.689 362.673 352.031 362.673C351.568 362.673 351.172 362.743 350.841 362.883C350.51 363.022 350.257 363.212 350.082 363.451C349.906 363.69 349.816 363.963 349.812 364.27C349.812 364.525 349.87 364.746 349.986 364.934C350.105 365.121 350.267 365.281 350.47 365.412C350.673 365.54 350.899 365.647 351.146 365.735C351.393 365.823 351.642 365.896 351.893 365.956L353.041 366.243C353.504 366.351 353.948 366.496 354.375 366.68C354.805 366.863 355.19 367.094 355.529 367.373C355.872 367.652 356.143 367.989 356.342 368.384C356.541 368.779 356.641 369.241 356.641 369.771C356.641 370.489 356.458 371.121 356.091 371.667C355.724 372.209 355.194 372.633 354.5 372.94C353.811 373.243 352.976 373.395 351.995 373.395C351.042 373.395 350.215 373.247 349.513 372.952C348.816 372.657 348.27 372.227 347.875 371.661C347.484 371.095 347.273 370.405 347.241 369.592H349.424C349.456 370.018 349.587 370.373 349.818 370.656C350.05 370.939 350.351 371.151 350.721 371.29C351.096 371.43 351.515 371.499 351.977 371.499C352.459 371.499 352.882 371.428 353.245 371.284C353.611 371.137 353.898 370.933 354.106 370.674C354.313 370.411 354.419 370.104 354.423 369.753C354.419 369.434 354.325 369.171 354.142 368.964C353.958 368.753 353.701 368.577 353.37 368.438C353.043 368.294 352.661 368.167 352.222 368.055L350.829 367.696C349.82 367.437 349.023 367.045 348.437 366.518C347.855 365.988 347.564 365.285 347.564 364.408C347.564 363.686 347.759 363.054 348.15 362.512C348.545 361.97 349.081 361.549 349.759 361.25C350.436 360.947 351.204 360.796 352.061 360.796C352.93 360.796 353.691 360.947 354.345 361.25C355.003 361.549 355.519 361.966 355.894 362.5C356.268 363.03 356.462 363.64 356.474 364.33H354.339ZM358.278 370.937V369.173L363.474 360.963H364.945V363.475H364.048L360.55 369.018V369.113H367.803V370.937H358.278ZM364.12 373.209V370.399L364.144 369.61V360.963H366.237V373.209H364.12ZM374.199 373.377C373.613 373.373 373.041 373.271 372.482 373.072C371.924 372.869 371.422 372.54 370.976 372.085C370.529 371.627 370.174 371.019 369.911 370.262C369.648 369.5 369.519 368.557 369.523 367.433C369.523 366.385 369.634 365.45 369.857 364.629C370.081 363.808 370.402 363.114 370.82 362.548C371.239 361.978 371.743 361.543 372.333 361.244C372.927 360.945 373.591 360.796 374.324 360.796C375.094 360.796 375.775 360.947 376.369 361.25C376.967 361.553 377.449 361.968 377.816 362.494C378.183 363.016 378.41 363.606 378.498 364.264H376.315C376.204 363.794 375.975 363.419 375.628 363.14C375.285 362.857 374.85 362.715 374.324 362.715C373.475 362.715 372.821 363.084 372.363 363.822C371.908 364.559 371.679 365.572 371.675 366.859H371.759C371.954 366.508 372.207 366.207 372.518 365.956C372.829 365.705 373.18 365.512 373.571 365.376C373.965 365.237 374.382 365.167 374.82 365.167C375.538 365.167 376.182 365.338 376.752 365.681C377.326 366.024 377.78 366.496 378.115 367.098C378.45 367.696 378.615 368.382 378.612 369.155C378.615 369.961 378.432 370.684 378.061 371.326C377.691 371.964 377.174 372.466 376.513 372.833C375.851 373.199 375.08 373.381 374.199 373.377ZM374.187 371.583C374.621 371.583 375.01 371.477 375.353 371.266C375.695 371.055 375.967 370.77 376.166 370.411C376.365 370.052 376.463 369.65 376.459 369.203C376.463 368.765 376.367 368.368 376.172 368.013C375.98 367.658 375.715 367.377 375.377 367.17C375.038 366.963 374.651 366.859 374.217 366.859C373.894 366.859 373.593 366.921 373.314 367.045C373.035 367.168 372.791 367.34 372.584 367.559C372.377 367.774 372.213 368.025 372.094 368.312C371.978 368.595 371.918 368.898 371.914 369.221C371.918 369.648 372.018 370.04 372.213 370.399C372.409 370.758 372.678 371.045 373.021 371.26C373.363 371.475 373.752 371.583 374.187 371.583ZM382.672 371.535L382.594 372.193C382.538 372.695 382.438 373.205 382.295 373.724C382.155 374.246 382.008 374.726 381.852 375.165C381.697 375.603 381.571 375.948 381.476 376.199H380.017C380.073 375.956 380.148 375.625 380.244 375.207C380.344 374.788 380.439 374.318 380.531 373.795C380.623 373.273 380.684 372.743 380.716 372.205L380.758 371.535H382.672ZM389.143 360.796C389.729 360.8 390.299 360.904 390.853 361.107C391.411 361.306 391.914 361.633 392.36 362.087C392.806 362.538 393.161 363.142 393.424 363.899C393.687 364.657 393.819 365.593 393.819 366.71C393.823 367.762 393.711 368.703 393.484 369.532C393.261 370.357 392.94 371.055 392.521 371.625C392.103 372.195 391.599 372.629 391.009 372.928C390.419 373.227 389.755 373.377 389.017 373.377C388.244 373.377 387.558 373.225 386.96 372.922C386.367 372.619 385.886 372.205 385.519 371.679C385.153 371.152 384.927 370.551 384.844 369.873H387.026C387.138 370.359 387.365 370.746 387.708 371.033C388.055 371.316 388.491 371.457 389.017 371.457C389.867 371.457 390.52 371.089 390.979 370.351C391.437 369.614 391.666 368.589 391.666 367.278H391.583C391.387 367.629 391.134 367.932 390.823 368.187C390.512 368.438 390.16 368.631 389.765 368.767C389.374 368.902 388.96 368.97 388.521 368.97C387.804 368.97 387.158 368.799 386.584 368.456C386.014 368.113 385.561 367.642 385.226 367.045C384.896 366.447 384.728 365.763 384.724 364.994C384.724 364.196 384.907 363.481 385.274 362.847C385.645 362.209 386.161 361.707 386.823 361.34C387.485 360.969 388.258 360.788 389.143 360.796ZM389.149 362.59C388.718 362.59 388.33 362.695 387.983 362.907C387.64 363.114 387.369 363.397 387.17 363.756C386.974 364.111 386.877 364.507 386.877 364.946C386.881 365.38 386.978 365.775 387.17 366.13C387.365 366.484 387.63 366.765 387.965 366.973C388.304 367.18 388.691 367.284 389.125 367.284C389.448 367.284 389.749 367.222 390.028 367.098C390.307 366.975 390.55 366.803 390.757 366.584C390.969 366.361 391.132 366.108 391.248 365.825C391.367 365.542 391.425 365.243 391.421 364.928C391.421 364.509 391.322 364.123 391.122 363.768C390.927 363.413 390.658 363.128 390.315 362.913C389.976 362.697 389.587 362.59 389.149 362.59ZM395.589 370.937V369.173L400.785 360.963H402.256V363.475H401.359L397.861 369.018V369.113H405.114V370.937H395.589ZM401.431 373.209V370.399L401.455 369.61V360.963H403.548V373.209H401.431ZM411.42 373.377C410.559 373.377 409.793 373.229 409.124 372.934C408.458 372.639 407.932 372.229 407.545 371.703C407.158 371.176 406.953 370.568 406.929 369.879H409.178C409.197 370.21 409.307 370.499 409.506 370.746C409.706 370.989 409.971 371.178 410.302 371.314C410.633 371.449 411.003 371.517 411.414 371.517C411.852 371.517 412.241 371.442 412.58 371.29C412.919 371.135 413.184 370.919 413.375 370.644C413.567 370.369 413.66 370.052 413.656 369.693C413.66 369.323 413.565 368.996 413.369 368.713C413.174 368.43 412.891 368.209 412.52 368.049C412.153 367.89 411.711 367.81 411.193 367.81H410.11V366.1H411.193C411.619 366.1 411.992 366.026 412.311 365.879C412.634 365.731 412.887 365.524 413.07 365.257C413.254 364.986 413.343 364.673 413.339 364.318C413.343 363.971 413.266 363.67 413.106 363.415C412.951 363.156 412.729 362.955 412.442 362.811C412.159 362.667 411.826 362.596 411.444 362.596C411.069 362.596 410.722 362.664 410.403 362.799C410.084 362.935 409.827 363.128 409.632 363.379C409.437 363.626 409.333 363.921 409.321 364.264H407.186C407.202 363.578 407.4 362.976 407.778 362.458C408.161 361.936 408.671 361.529 409.309 361.238C409.947 360.943 410.662 360.796 411.456 360.796C412.273 360.796 412.983 360.949 413.584 361.256C414.19 361.559 414.659 361.968 414.99 362.482C415.321 362.996 415.486 363.564 415.486 364.186C415.49 364.876 415.287 365.454 414.876 365.92C414.469 366.387 413.935 366.692 413.274 366.835V366.931C414.135 367.051 414.794 367.369 415.253 367.888C415.715 368.402 415.944 369.042 415.94 369.807C415.94 370.493 415.745 371.107 415.354 371.649C414.968 372.187 414.434 372.61 413.752 372.916C413.074 373.223 412.297 373.377 411.42 373.377Z" fill="#090F1D"/>
<g filter="url(#filter4_d_4430_7125)">
<rect x="476.052" y="167.968" width="69.9712" height="28.8226" rx="5.78822" fill="white" stroke="black" stroke-width="1.0524"/>
</g>
<path d="M486.94 186.644L484.393 177.459H485.851L487.64 184.572H487.725L489.586 177.459H491.03L492.892 184.576H492.977L494.762 177.459H496.224L493.672 186.644H492.277L490.344 179.764H490.273L488.34 186.644H486.94ZM499.67 186.783C498.992 186.783 498.407 186.638 497.917 186.348C497.429 186.055 497.053 185.644 496.787 185.114C496.523 184.582 496.392 183.959 496.392 183.244C496.392 182.539 496.523 181.917 496.787 181.379C497.053 180.841 497.423 180.421 497.899 180.119C498.377 179.817 498.936 179.666 499.576 179.666C499.965 179.666 500.341 179.73 500.706 179.858C501.071 179.987 501.398 180.189 501.688 180.464C501.978 180.739 502.207 181.096 502.374 181.536C502.542 181.972 502.626 182.503 502.626 183.128V183.603H497.15V182.599H501.312C501.312 182.246 501.24 181.933 501.096 181.661C500.953 181.386 500.751 181.169 500.491 181.011C500.234 180.853 499.932 180.773 499.585 180.773C499.208 180.773 498.879 180.866 498.598 181.051C498.32 181.234 498.105 181.473 497.953 181.769C497.803 182.062 497.728 182.38 497.728 182.724V183.509C497.728 183.969 497.809 184.361 497.971 184.684C498.135 185.007 498.364 185.254 498.657 185.424C498.95 185.591 499.292 185.675 499.684 185.675C499.938 185.675 500.17 185.639 500.379 185.567C500.588 185.493 500.769 185.382 500.921 185.236C501.074 185.089 501.191 184.908 501.271 184.693L502.54 184.922C502.439 185.295 502.256 185.623 501.993 185.904C501.733 186.182 501.406 186.399 501.011 186.554C500.619 186.707 500.172 186.783 499.67 186.783ZM507.082 186.783C506.404 186.783 505.819 186.638 505.329 186.348C504.841 186.055 504.465 185.644 504.199 185.114C503.936 184.582 503.804 183.959 503.804 183.244C503.804 182.539 503.936 181.917 504.199 181.379C504.465 180.841 504.835 180.421 505.311 180.119C505.789 179.817 506.348 179.666 506.988 179.666C507.377 179.666 507.753 179.73 508.118 179.858C508.483 179.987 508.81 180.189 509.1 180.464C509.39 180.739 509.619 181.096 509.787 181.536C509.954 181.972 510.038 182.503 510.038 183.128V183.603H504.562V182.599H508.724C508.724 182.246 508.652 181.933 508.508 181.661C508.365 181.386 508.163 181.169 507.903 181.011C507.646 180.853 507.344 180.773 506.997 180.773C506.62 180.773 506.291 180.866 506.01 181.051C505.732 181.234 505.517 181.473 505.365 181.769C505.215 182.062 505.14 182.38 505.14 182.724V183.509C505.14 183.969 505.221 184.361 505.383 184.684C505.547 185.007 505.776 185.254 506.069 185.424C506.362 185.591 506.704 185.675 507.096 185.675C507.35 185.675 507.582 185.639 507.791 185.567C508 185.493 508.181 185.382 508.333 185.236C508.486 185.089 508.603 184.908 508.683 184.693L509.952 184.922C509.851 185.295 509.668 185.623 509.405 185.904C509.145 186.182 508.818 186.399 508.423 186.554C508.032 186.707 507.585 186.783 507.082 186.783ZM512.759 184.307L512.75 182.67H512.983L515.728 179.755H517.333L514.203 183.074H513.992L512.759 184.307ZM511.525 186.644V177.459H512.866V186.644H511.525ZM515.876 186.644L513.409 183.37L514.333 182.433L517.521 186.644H515.876Z" fill="#9CA3AF"/>
<path fill-rule="evenodd" clip-rule="evenodd" d="M527.455 179.779C527.729 179.505 528.173 179.505 528.447 179.779L532.16 183.492L535.874 179.779C536.148 179.505 536.592 179.505 536.866 179.779C537.14 180.053 537.14 180.497 536.866 180.771L532.656 184.98C532.382 185.254 531.938 185.254 531.664 184.98L527.455 180.771C527.181 180.497 527.181 180.053 527.455 179.779Z" fill="#9CA3AF"/>
<defs>
<filter id="filter0_d_4430_7125" x="320.406" y="12.2089" width="110.459" height="34.0847" filterUnits="userSpaceOnUse" color-interpolation-filters="sRGB">
<feFlood flood-opacity="0" result="BackgroundImageFix"/>
<feColorMatrix in="SourceAlpha" type="matrix" values="0 0 0 0 0 0 0 0 0 0 0 0 0 0 0 0 0 0 127 0" result="hardAlpha"/>
<feOffset dy="1.0524"/>
<feGaussianBlur stdDeviation="1.0524"/>
<feComposite in2="hardAlpha" operator="out"/>
<feColorMatrix type="matrix" values="0 0 0 0 0.254902 0 0 0 0 0.286275 0 0 0 0 0.329412 0 0 0 0.05 0"/>
<feBlend mode="normal" in2="BackgroundImageFix" result="effect1_dropShadow_4430_7125"/>
<feBlend mode="normal" in="SourceGraphic" in2="effect1_dropShadow_4430_7125" result="shape"/>
</filter>
<filter id="filter1_d_4430_7125" x="312.749" y="204.917" width="259.775" height="22.1005" filterUnits="userSpaceOnUse" color-interpolation-filters="sRGB">
<feFlood flood-opacity="0" result="BackgroundImageFix"/>
<feColorMatrix in="SourceAlpha" type="matrix" values="0 0 0 0 0 0 0 0 0 0 0 0 0 0 0 0 0 0 127 0" result="hardAlpha"/>
<feOffset dy="4.20961"/>
<feGaussianBlur stdDeviation="5.26202"/>
<feComposite in2="hardAlpha" operator="out"/>
<feColorMatrix type="matrix" values="0 0 0 0 0.254902 0 0 0 0 0.286275 0 0 0 0 0.329412 0 0 0 0.06 0"/>
<feBlend mode="normal" in2="BackgroundImageFix" result="effect1_dropShadow_4430_7125"/>
<feBlend mode="normal" in="SourceGraphic" in2="effect1_dropShadow_4430_7125" result="shape"/>
</filter>
<filter id="filter2_d_4430_7125" x="335.994" y="229.079" width="213.285" height="82.6742" filterUnits="userSpaceOnUse" color-interpolation-filters="sRGB">
<feFlood flood-opacity="0" result="BackgroundImageFix"/>
<feColorMatrix in="SourceAlpha" type="matrix" values="0 0 0 0 0 0 0 0 0 0 0 0 0 0 0 0 0 0 127 0" result="hardAlpha"/>
<feOffset dy="0.682402"/>
<feGaussianBlur stdDeviation="1.3648"/>
<feComposite in2="hardAlpha" operator="out"/>
<feColorMatrix type="matrix" values="0 0 0 0 0.254902 0 0 0 0 0.286275 0 0 0 0 0.329412 0 0 0 0.05 0"/>
<feBlend mode="normal" in2="BackgroundImageFix" result="effect1_dropShadow_4430_7125"/>
<feBlend mode="normal" in="SourceGraphic" in2="effect1_dropShadow_4430_7125" result="shape"/>
</filter>
<filter id="filter3_d_4430_7125" x="335.994" y="321.028" width="213.285" height="82.6742" filterUnits="userSpaceOnUse" color-interpolation-filters="sRGB">
<feFlood flood-opacity="0" result="BackgroundImageFix"/>
<feColorMatrix in="SourceAlpha" type="matrix" values="0 0 0 0 0 0 0 0 0 0 0 0 0 0 0 0 0 0 127 0" result="hardAlpha"/>
<feOffset dy="0.682402"/>
<feGaussianBlur stdDeviation="1.3648"/>
<feComposite in2="hardAlpha" operator="out"/>
<feColorMatrix type="matrix" values="0 0 0 0 0.254902 0 0 0 0 0.286275 0 0 0 0 0.329412 0 0 0 0.05 0"/>
<feBlend mode="normal" in2="BackgroundImageFix" result="effect1_dropShadow_4430_7125"/>
<feBlend mode="normal" in="SourceGraphic" in2="effect1_dropShadow_4430_7125" result="shape"/>
</filter>
<filter id="filter4_d_4430_7125" x="473.421" y="166.39" width="75.2333" height="34.0847" filterUnits="userSpaceOnUse" color-interpolation-filters="sRGB">
<feFlood flood-opacity="0" result="BackgroundImageFix"/>
<feColorMatrix in="SourceAlpha" type="matrix" values="0 0 0 0 0 0 0 0 0 0 0 0 0 0 0 0 0 0 127 0" result="hardAlpha"/>
<feOffset dy="1.0524"/>
<feGaussianBlur stdDeviation="1.0524"/>
<feComposite in2="hardAlpha" operator="out"/>
<feColorMatrix type="matrix" values="0 0 0 0 0.254902 0 0 0 0 0.286275 0 0 0 0 0.329412 0 0 0 0.05 0"/>
<feBlend mode="normal" in2="BackgroundImageFix" result="effect1_dropShadow_4430_7125"/>
<feBlend mode="normal" in="SourceGraphic" in2="effect1_dropShadow_4430_7125" result="shape"/>
</filter>
</defs>
</svg>
