<svg xmlns="http://www.w3.org/2000/svg" width="573" height="417" fill="none" viewBox="0 0 573 417"><rect width="447.253" height="296.129" x="1.037" y=".787" fill="#fff" stroke="#000" stroke-width="1.052" rx="15.474"/><path fill="#090f1d" d="M26.19 26.264h-1.957a2.4 2.4 0 0 0-.308-.852A2.3 2.3 0 0 0 22.6 24.38a3 3 0 0 0-.916-.136q-.873 0-1.548.44-.676.433-1.057 1.276-.382.837-.382 2.046 0 1.23.382 2.072.387.837 1.057 1.266.675.423 1.543.424.482 0 .9-.126.425-.131.759-.382.34-.25.57-.617a2.3 2.3 0 0 0 .324-.837l1.957.01q-.11.764-.476 1.434-.36.669-.947 1.182-.586.507-1.37.795a5.1 5.1 0 0 1-1.743.283q-1.413 0-2.522-.654-1.11-.654-1.747-1.889-.639-1.235-.639-2.961 0-1.732.644-2.962.643-1.235 1.753-1.889 1.108-.653 2.511-.653.894 0 1.664.25.769.252 1.37.738.602.481.99 1.183a4.4 4.4 0 0 1 .512 1.59m5.2 7.257q-1.178 0-2.04-.518a3.5 3.5 0 0 1-1.34-1.449q-.471-.93-.471-2.176t.47-2.182a3.5 3.5 0 0 1 1.34-1.455q.864-.518 2.04-.518 1.179 0 2.041.518.864.518 1.334 1.455.477.936.476 2.182 0 1.245-.476 2.176a3.5 3.5 0 0 1-1.334 1.45q-.862.517-2.04.517m.01-1.517q.638 0 1.068-.35.428-.357.638-.953.214-.596.214-1.329 0-.738-.214-1.334a2.1 2.1 0 0 0-.639-.957q-.428-.357-1.067-.356-.654 0-1.088.356-.429.355-.644.957-.21.596-.209 1.334 0 .733.21 1.33.213.596.643.951.434.351 1.088.351m7.342-3.349v4.71h-1.894v-8.037h1.81v1.365h.094q.278-.675.885-1.072.612-.398 1.512-.398.831 0 1.45.356.621.355.962 1.03.345.675.34 1.638v5.117h-1.894V28.54q0-.805-.419-1.26-.413-.456-1.145-.456a1.76 1.76 0 0 0-.885.22q-.382.214-.601.623-.215.408-.215.988m13.975-3.327-2.862 8.036h-2.093L44.9 25.328h2.02l1.847 5.97h.083l1.853-5.97zm4.595 8.193q-1.208 0-2.087-.502a3.4 3.4 0 0 1-1.345-1.434q-.471-.93-.471-2.192 0-1.24.47-2.176a3.56 3.56 0 0 1 1.33-1.465q.852-.53 2.004-.529.742 0 1.402.24.665.237 1.172.733.513.498.806 1.266.293.765.293 1.821v.581h-6.588v-1.277h4.772a2.04 2.04 0 0 0-.235-.968 1.7 1.7 0 0 0-.644-.674 1.8 1.8 0 0 0-.952-.246q-.58 0-1.02.282a1.95 1.95 0 0 0-.686.733q-.24.45-.246.989v1.114q0 .701.257 1.203.256.497.717.764.46.262 1.077.262.413 0 .749-.115a1.7 1.7 0 0 0 .58-.35 1.46 1.46 0 0 0 .372-.571l1.768.199a2.76 2.76 0 0 1-.638 1.224q-.465.518-1.193.806-.728.282-1.664.282m5.176-.157v-8.036h1.837v1.34h.083q.22-.697.754-1.073.538-.382 1.23-.382.155 0 .35.015.198.011.33.037v1.742a2 2 0 0 0-.383-.073 3.5 3.5 0 0 0-.497-.037q-.517 0-.93.225-.409.22-.644.613a1.7 1.7 0 0 0-.236.905v4.724zm12.194-5.912-1.727.188a1.4 1.4 0 0 0-.257-.491 1.3 1.3 0 0 0-.48-.372 1.75 1.75 0 0 0-.744-.141q-.59 0-.994.256-.398.257-.392.665a.7.7 0 0 0 .256.57q.267.22.88.361l1.37.293q1.14.246 1.695.78.56.533.565 1.397a2.2 2.2 0 0 1-.445 1.339q-.434.576-1.208.9-.775.324-1.78.324-1.475 0-2.375-.617-.9-.622-1.072-1.732l1.847-.178q.125.544.534.822.408.277 1.062.277.674 0 1.083-.277.413-.278.413-.686 0-.345-.267-.57-.261-.225-.816-.345l-1.37-.288q-1.157-.24-1.712-.811-.555-.576-.55-1.455-.004-.743.404-1.287.412-.549 1.146-.847.737-.304 1.7-.304 1.413 0 2.224.602.816.601 1.01 1.627m1.734 5.912v-8.036h1.894v8.036zm.952-9.177q-.45 0-.774-.298a.96.96 0 0 1-.325-.727.95.95 0 0 1 .325-.727q.324-.304.774-.304.456 0 .775.303a.95.95 0 0 1 .324.728.96.96 0 0 1-.325.727q-.318.298-.774.298m6.395 9.334q-1.177 0-2.04-.518a3.5 3.5 0 0 1-1.34-1.449q-.47-.93-.47-2.176t.47-2.182a3.5 3.5 0 0 1 1.34-1.455q.862-.518 2.04-.518t2.04.518 1.335 1.455q.476.936.476 2.182t-.476 2.176a3.5 3.5 0 0 1-1.334 1.45q-.864.517-2.04.517m.01-1.517q.639 0 1.068-.35.43-.357.638-.953.215-.596.215-1.329 0-.738-.215-1.334a2.1 2.1 0 0 0-.638-.957q-.43-.357-1.067-.356-.655 0-1.089.356-.429.355-.643.957a4 4 0 0 0-.21 1.334q0 .733.21 1.33.214.596.643.951.435.351 1.089.351m7.343-3.349v4.71h-1.894v-8.037h1.81v1.365h.094q.278-.675.884-1.072.612-.398 1.512-.398.832 0 1.45.356.623.355.962 1.03.346.675.34 1.638v5.117H94.38V28.54q0-.805-.418-1.26-.414-.456-1.146-.456a1.76 1.76 0 0 0-.884.22q-.382.214-.602.623-.214.408-.214.988m13.436-1.203-1.727.188a1.4 1.4 0 0 0-.256-.491 1.3 1.3 0 0 0-.482-.372 1.75 1.75 0 0 0-.743-.141q-.59 0-.994.256-.398.257-.392.665a.7.7 0 0 0 .256.57q.267.22.879.361l1.371.293q1.14.246 1.695.78.56.533.565 1.397a2.18 2.18 0 0 1-.444 1.339q-.435.576-1.209.9t-1.779.324q-1.475 0-2.375-.617-.9-.622-1.073-1.732l1.847-.178q.126.544.534.822t1.062.277q.675 0 1.083-.277.413-.278.413-.686 0-.345-.267-.57-.261-.225-.816-.345l-1.371-.288q-1.155-.24-1.71-.811-.555-.576-.55-1.455-.005-.743.403-1.287.413-.549 1.146-.847.738-.304 1.7-.304 1.413 0 2.224.602.816.601 1.01 1.627m8.894 6.07q-1.178 0-2.04-.519a3.5 3.5 0 0 1-1.34-1.449q-.471-.93-.471-2.176t.471-2.182a3.5 3.5 0 0 1 1.34-1.455q.862-.518 2.04-.518t2.041.518 1.334 1.455q.476.936.476 2.182t-.476 2.176a3.5 3.5 0 0 1-1.334 1.45q-.864.517-2.041.517m.011-1.518q.638 0 1.067-.35.43-.357.638-.953.215-.596.215-1.329 0-.738-.215-1.334a2.1 2.1 0 0 0-.638-.957q-.43-.357-1.067-.356-.654 0-1.089.356-.429.355-.643.957-.21.596-.209 1.334 0 .733.209 1.33.214.596.643.951.435.351 1.089.351m12.353-6.676-2.862 8.036h-2.093l-2.862-8.036h2.02l1.847 5.97h.083l1.852-5.97zm4.595 8.193q-1.209 0-2.088-.502a3.4 3.4 0 0 1-1.344-1.434q-.471-.93-.471-2.192 0-1.24.471-2.176a3.56 3.56 0 0 1 1.329-1.465q.852-.53 2.003-.529.743 0 1.403.24.664.237 1.172.733.512.498.805 1.266.293.765.293 1.821v.581h-6.587v-1.277h4.772a2.04 2.04 0 0 0-.236-.968 1.7 1.7 0 0 0-.643-.674 1.8 1.8 0 0 0-.952-.246q-.582 0-1.021.282a1.95 1.95 0 0 0-.685.733q-.24.45-.246.989v1.114q0 .701.256 1.203.256.497.717.764.46.262 1.078.262.414 0 .748-.115.335-.12.581-.35a1.45 1.45 0 0 0 .371-.571l1.769.199a2.76 2.76 0 0 1-.638 1.224 3.1 3.1 0 0 1-1.193.806q-.728.282-1.664.282m5.176-.157v-8.036h1.836v1.34h.084q.22-.697.753-1.073.54-.382 1.23-.382.157 0 .35.015.2.011.33.037v1.742a2 2 0 0 0-.382-.073 3.5 3.5 0 0 0-.497-.037q-.518 0-.931.225-.408.22-.644.613a1.7 1.7 0 0 0-.235.905v4.724zm13.509-8.036v1.465h-4.62v-1.465zm-3.479-1.926h1.894v7.545q0 .382.115.586a.62.62 0 0 0 .314.272q.194.073.429.073.178 0 .324-.026.152-.026.23-.047l.32 1.48a4 4 0 0 1-.435.116 3.6 3.6 0 0 1-.68.073 3.1 3.1 0 0 1-1.282-.214 2 2 0 0 1-.905-.743q-.33-.503-.324-1.256zm5.063 9.962v-8.036h1.894v8.036zm.952-9.177q-.45 0-.774-.298a.96.96 0 0 1-.324-.727q0-.43.324-.727.324-.304.774-.304.456 0 .775.303a.95.95 0 0 1 .324.728.96.96 0 0 1-.324.727 1.1 1.1 0 0 1-.775.298m2.89 9.177v-8.036h1.81v1.365h.094q.252-.69.832-1.077.581-.393 1.387-.393.816 0 1.376.398.565.392.795 1.072h.084q.267-.67.9-1.067.638-.402 1.512-.403 1.109 0 1.81.701.7.702.701 2.046v5.394h-1.899v-5.101q0-.748-.398-1.094a1.42 1.42 0 0 0-.973-.35q-.685 0-1.073.429-.381.423-.381 1.104v5.012h-1.858v-5.18q0-.622-.377-.994-.371-.37-.973-.371-.407 0-.743.21-.335.203-.533.58a1.8 1.8 0 0 0-.199.869v4.886zm16.78.157q-1.208 0-2.087-.502a3.4 3.4 0 0 1-1.345-1.434q-.471-.93-.471-2.192 0-1.24.471-2.176a3.57 3.57 0 0 1 1.329-1.465q.853-.53 2.004-.529.743 0 1.402.24.665.237 1.172.733.513.498.806 1.266.293.765.293 1.821v.581h-6.587v-1.277h4.771a2 2 0 0 0-.235-.968 1.7 1.7 0 0 0-.644-.674 1.8 1.8 0 0 0-.952-.246q-.58 0-1.02.282a1.95 1.95 0 0 0-.685.733q-.242.45-.246.989v1.114q0 .701.256 1.203.256.497.717.764.46.262 1.078.262.413 0 .748-.115.335-.12.581-.35t.371-.571l1.769.199a2.76 2.76 0 0 1-.639 1.224q-.465.518-1.193.806-.727.282-1.664.282"/><path stroke="#000" stroke-width="1.052" d="M448.817 58.516H.511" opacity=".7"/><path fill="#9ca3af" d="M22.186 98.17q-.888 0-1.583-.305a2.7 2.7 0 0 1-1.098-.848 2.28 2.28 0 0 1-.44-1.27h1.13q.036.445.305.768.27.318.704.493.435.175.964.175.593 0 1.05-.206.458-.208.717-.574.26-.369.26-.853 0-.506-.25-.892a1.66 1.66 0 0 0-.736-.61q-.485-.22-1.184-.22h-.735v-.986h.735a2.2 2.2 0 0 0 .96-.198 1.49 1.49 0 0 0 .888-1.4q0-.465-.207-.81a1.4 1.4 0 0 0-.583-.539 1.9 1.9 0 0 0-.879-.192q-.476 0-.897.174a1.7 1.7 0 0 0-.681.498 1.3 1.3 0 0 0-.287.78h-1.077q.027-.72.435-1.264a2.74 2.74 0 0 1 1.068-.852 3.45 3.45 0 0 1 1.457-.305q.853 0 1.462.345.61.34.938.902.327.56.327 1.21 0 .777-.408 1.323a2.07 2.07 0 0 1-1.099.758v.072q.87.143 1.359.74.489.592.489 1.466 0 .75-.408 1.346-.404.593-1.104.933t-1.592.34m7.934 0q-1.013 0-1.727-.552-.712-.555-1.09-1.61-.375-1.059-.376-2.556 0-1.489.376-2.543.383-1.059 1.095-1.615.717-.56 1.722-.56t1.717.56q.718.557 1.095 1.615.38 1.054.38 2.543 0 1.497-.376 2.556-.376 1.055-1.09 1.61-.712.552-1.726.552m0-.987q1.005 0 1.56-.969.556-.968.556-2.762 0-1.194-.255-2.032-.252-.838-.727-1.278a1.6 1.6 0 0 0-1.134-.44q-.996 0-1.556.983-.561.977-.561 2.767 0 1.192.251 2.027.252.834.722 1.269.475.435 1.144.435M20.53 146.455v-.808l3.032-3.318q.532-.584.879-1.014.345-.435.51-.816.171-.386.171-.807a1.5 1.5 0 0 0-.233-.839 1.5 1.5 0 0 0-.628-.547 2 2 0 0 0-.897-.193q-.528 0-.924.22a1.5 1.5 0 0 0-.605.605q-.21.39-.21.915h-1.06q0-.807.373-1.417a2.6 2.6 0 0 1 1.014-.951q.645-.34 1.448-.341.807 0 1.43.341.624.34.979.92.354.578.354 1.287 0 .506-.184.991-.18.48-.628 1.072-.444.587-1.233 1.435l-2.063 2.206v.072h4.27v.987zm10.642.125q-1.013 0-1.727-.552-.712-.555-1.09-1.61-.376-1.057-.376-2.556 0-1.488.377-2.543.381-1.058 1.094-1.614.717-.561 1.722-.561t1.718.561q.717.556 1.094 1.614.381 1.055.381 2.543 0 1.499-.377 2.556-.376 1.055-1.09 1.61-.712.552-1.726.552m0-.987q1.005 0 1.56-.968.557-.969.557-2.763 0-1.192-.256-2.031-.251-.839-.726-1.278a1.6 1.6 0 0 0-1.135-.44q-.995 0-1.556.982-.56.978-.56 2.767 0 1.194.25 2.027.252.834.723 1.269.476.435 1.143.435M24.587 185.68v9.185h-1.112v-8.019h-.054l-2.242 1.489v-1.13l2.296-1.525zm5.638 9.311q-1.014 0-1.727-.552-.713-.556-1.09-1.61-.376-1.059-.377-2.556 0-1.489.377-2.543.382-1.059 1.095-1.615.717-.56 1.722-.56t1.717.56q.718.556 1.094 1.615.382 1.054.382 2.543 0 1.497-.377 2.556-.376 1.054-1.09 1.61-.712.552-1.726.552m0-.987q1.005 0 1.56-.969.556-.968.556-2.762 0-1.194-.255-2.032-.252-.838-.727-1.278a1.6 1.6 0 0 0-1.134-.439q-.996 0-1.557.982-.56.978-.56 2.767 0 1.193.251 2.027.25.834.722 1.269.475.435 1.144.435M30.539 243.401q-1.013 0-1.727-.551-.712-.557-1.09-1.61-.375-1.059-.376-2.557 0-1.488.377-2.542.381-1.059 1.094-1.615.717-.561 1.722-.561t1.718.561q.717.556 1.094 1.615.381 1.054.381 2.542 0 1.498-.377 2.557-.375 1.053-1.09 1.61-.712.55-1.726.551m0-.986q1.005 0 1.56-.969.557-.969.557-2.763 0-1.192-.256-2.031-.251-.839-.726-1.278a1.6 1.6 0 0 0-1.135-.44q-.996 0-1.556.982-.56.978-.56 2.767 0 1.193.25 2.027.252.834.722 1.27.475.435 1.144.435"/><path stroke="#dee0e6" stroke-dasharray="5.26 5.26" stroke-width="1.052" d="M51.553 97.892H428.05M51.553 149.46H428.05"/><path stroke="#9ca3af" stroke-dasharray="5.26 5.26" stroke-width="1.052" d="M297.765 83.883v163.044" opacity=".5"/><path stroke="#dee0e6" stroke-dasharray="5.26 5.26" stroke-width="1.052" d="M51.553 197.87H428.05M51.553 246.281H428.05"/><path fill="#9ca3af" d="M65.799 259.313v9.185h-1.113v-8.019h-.054l-2.242 1.489v-1.13l2.296-1.525zm5.637 9.31q-1.014 0-1.727-.551-.712-.557-1.09-1.61-.376-1.059-.376-2.556 0-1.49.376-2.543.382-1.059 1.095-1.615.717-.56 1.722-.56t1.717.56q.718.556 1.095 1.615.38 1.053.38 2.543 0 1.497-.376 2.556-.376 1.053-1.09 1.61-.712.551-1.726.551m0-.986q1.005 0 1.56-.969.556-.97.556-2.762 0-1.194-.255-2.032-.252-.839-.727-1.278a1.6 1.6 0 0 0-1.134-.44q-.996 0-1.557.983-.56.977-.56 2.767 0 1.193.251 2.027.252.834.722 1.269.475.435 1.144.435M123.692 259.313v9.185h-1.112v-8.019h-.054l-2.242 1.489v-1.13l2.296-1.525zm5.87 0v9.185h-1.112v-8.019h-.054l-2.242 1.489v-1.13l2.296-1.525zM179.581 259.313v9.185h-1.112v-8.019h-.054l-2.242 1.489v-1.13l2.296-1.525zm2.642 9.185v-.807l3.032-3.319q.532-.583.879-1.014.345-.435.511-.816.17-.386.17-.807 0-.484-.233-.839a1.5 1.5 0 0 0-.628-.547 2.04 2.04 0 0 0-.897-.193q-.529 0-.924.22-.39.215-.605.606a1.9 1.9 0 0 0-.211.914h-1.058q0-.807.372-1.417a2.6 2.6 0 0 1 1.014-.95q.645-.341 1.448-.341.807 0 1.431.341.623.34.977.919.355.579.355 1.287 0 .507-.184.991-.18.48-.628 1.072-.444.588-1.233 1.435l-2.063 2.206v.072h4.269v.987zM236.214 259.313v9.185h-1.112v-8.019h-.054l-2.242 1.489v-1.13l2.296-1.525zm5.745 9.31q-.888 0-1.583-.305a2.7 2.7 0 0 1-1.099-.847 2.3 2.3 0 0 1-.44-1.269h1.131q.035.443.304.767.27.318.705.493t.964.175q.591 0 1.049-.206t.718-.575a1.44 1.44 0 0 0 .26-.852q0-.506-.251-.892a1.67 1.67 0 0 0-.736-.61q-.484-.22-1.184-.22h-.735v-.986h.735q.547 0 .96-.198.417-.197.65-.556.238-.358.238-.843a1.56 1.56 0 0 0-.206-.812 1.4 1.4 0 0 0-.583-.538 1.9 1.9 0 0 0-.879-.193q-.476 0-.897.175-.418.171-.682.498a1.3 1.3 0 0 0-.287.78h-1.076q.027-.722.435-1.264a2.74 2.74 0 0 1 1.067-.852 3.4 3.4 0 0 1 1.458-.305q.852 0 1.462.345.61.341.937.901.327.561.327 1.211 0 .777-.408 1.323a2.06 2.06 0 0 1-1.099.758v.072q.87.144 1.359.74.489.592.489 1.466 0 .75-.408 1.346a2.8 2.8 0 0 1-1.103.933q-.7.34-1.592.34M294.065 259.313v9.185h-1.112v-8.019h-.054l-2.242 1.489v-1.13l2.296-1.525zm2.426 7.301v-.915l4.037-6.386h.663v1.417h-.448l-3.05 4.826v.072h5.436v.986zm4.324 1.884v-9.185h1.058v9.185zM353.209 259.313v9.185h-1.112v-8.019h-.054l-2.242 1.489v-1.13l2.296-1.525zm5.512 9.31q-.789 0-1.422-.313a2.65 2.65 0 0 1-1.013-.862 2.34 2.34 0 0 1-.417-1.246h1.076q.063.623.565 1.031.507.404 1.211.404.566 0 1.005-.265.443-.264.695-.726.255-.467.255-1.054 0-.601-.264-1.072a1.94 1.94 0 0 0-.718-.749 2.03 2.03 0 0 0-1.045-.278 2.9 2.9 0 0 0-.865.13q-.444.13-.731.336l-1.041-.125.556-4.521h4.772v.987h-3.839l-.323 2.709h.054q.283-.225.709-.373t.888-.148q.843 0 1.502.404.664.4 1.041 1.094.381.696.381 1.588 0 .879-.395 1.569-.39.687-1.076 1.086a3.1 3.1 0 0 1-1.561.394M409.941 259.313v9.185h-1.113v-8.019h-.053l-2.243 1.489v-1.13l2.296-1.525zm5.691 9.31a3.4 3.4 0 0 1-1.13-.215 2.7 2.7 0 0 1-1.032-.695q-.467-.494-.749-1.332-.282-.843-.282-2.117 0-1.22.228-2.161.23-.947.664-1.592a3 3 0 0 1 1.049-.987 2.9 2.9 0 0 1 1.395-.336q.772 0 1.372.309.606.304.987.852.382.548.493 1.26h-1.094a2.03 2.03 0 0 0-.592-1.027q-.439-.408-1.166-.408-1.067 0-1.682.929-.61.928-.614 2.605h.072a2.69 2.69 0 0 1 2.26-1.22q.79 0 1.444.395.655.39 1.05 1.081.394.686.394 1.574 0 .852-.381 1.561a2.9 2.9 0 0 1-1.072 1.121q-.686.412-1.614.403m0-.986q.564 0 1.013-.283.453-.282.713-.758a2.13 2.13 0 0 0 .265-1.058q0-.57-.256-1.036a1.94 1.94 0 0 0-.695-.749 1.84 1.84 0 0 0-1.004-.278q-.426 0-.794.17a2.1 2.1 0 0 0-.646.458 2.2 2.2 0 0 0-.431.668q-.156.372-.157.785a2.13 2.13 0 0 0 .965 1.789 1.85 1.85 0 0 0 1.027.292"/><g filter="url(#a)"><rect width="105.197" height="28.823" x="323.037" y="13.787" fill="#fff" stroke="#000" stroke-width="1.052" rx="5.788"/></g><path fill="#9ca3af" d="M332.127 32.463V23.28h1.386v7.991h4.162v1.193zm9.026.153q-.656 0-1.184-.243a2 2 0 0 1-.839-.713q-.305-.466-.305-1.143 0-.584.224-.96.225-.377.606-.596a3.2 3.2 0 0 1 .852-.332q.471-.113.96-.17l1.004-.117q.386-.05.561-.157.175-.108.175-.35v-.031q0-.588-.332-.91-.328-.324-.978-.324-.677 0-1.067.3-.386.297-.534.66l-1.26-.287a2.4 2.4 0 0 1 .655-1.014q.435-.39 1-.565a3.9 3.9 0 0 1 1.188-.179q.413 0 .875.099.466.093.87.35.408.255.668.73.26.471.26 1.225v4.574h-1.31v-.942h-.053a1.9 1.9 0 0 1-.391.512 2.1 2.1 0 0 1-.668.417q-.408.165-.977.166m.291-1.077q.556 0 .951-.22.4-.219.605-.573.211-.36.211-.767v-.888q-.071.07-.278.134a4 4 0 0 1-.462.103q-.26.04-.507.077-.247.03-.412.053-.39.05-.713.166-.319.117-.512.337-.188.215-.188.574 0 .498.368.753.367.252.937.251m10.056-4.283-1.215.216a1.4 1.4 0 0 0-.243-.444 1.2 1.2 0 0 0-.439-.346 1.6 1.6 0 0 0-.695-.134q-.57 0-.951.256-.381.25-.381.65 0 .345.255.556.256.21.826.345l1.094.251q.95.22 1.417.677.466.458.466 1.189 0 .618-.358 1.103-.355.48-.991.754-.633.273-1.467.273-1.157 0-1.888-.493-.73-.498-.897-1.413l1.296-.197q.122.506.498.767.376.255.982.255.66 0 1.054-.273.395-.279.395-.677a.7.7 0 0 0-.243-.543q-.237-.22-.731-.332l-1.166-.256q-.964-.22-1.426-.7-.457-.48-.457-1.214 0-.61.341-1.068.34-.457.941-.713.601-.26 1.377-.26 1.118 0 1.758.484.641.48.848 1.287m4.824-1.681v1.076h-3.762v-1.076zm-2.753-1.65h1.341v6.515q0 .39.116.588a.6.6 0 0 0 .301.265q.188.066.408.067.161 0 .282-.023l.189-.035.242 1.107q-.117.045-.332.09a2.6 2.6 0 0 1-.538.054 2.4 2.4 0 0 1-.987-.188 1.7 1.7 0 0 1-.74-.61q-.282-.412-.282-1.036zm7.87 8.538 4.01-7.929v-.067h-4.638v-1.188h6.073v1.228l-3.996 7.956zm12.943.135a2.67 2.67 0 0 1-1.489-.426q-.65-.43-1.022-1.225-.368-.798-.368-1.915 0-1.115.372-1.91.377-.794 1.032-1.215a2.7 2.7 0 0 1 1.484-.422q.642 0 1.031.215.396.21.61.494.22.282.341.497h.081V23.28h1.341v9.184h-1.31v-1.072h-.112q-.12.22-.35.503a1.9 1.9 0 0 1-.618.493q-.395.21-1.023.21m.296-1.144q.579 0 .978-.305a1.9 1.9 0 0 0 .61-.856q.21-.548.21-1.274 0-.717-.206-1.256a1.84 1.84 0 0 0-.605-.838q-.399-.3-.987-.3-.606 0-1.009.313-.403.315-.61.857-.201.542-.202 1.224 0 .69.207 1.242.205.552.609.875.409.318 1.005.318m7.035 1.162q-.654 0-1.184-.243a2 2 0 0 1-.838-.713q-.305-.466-.305-1.143 0-.584.224-.96.224-.377.605-.596a3.2 3.2 0 0 1 .853-.332q.47-.113.959-.17l1.005-.117q.386-.05.56-.157.175-.108.175-.35v-.031q0-.588-.332-.91-.327-.324-.977-.324-.677 0-1.068.3-.386.297-.533.66l-1.26-.287q.224-.628.654-1.014a2.7 2.7 0 0 1 1-.565q.565-.18 1.189-.179.412 0 .874.099.466.093.87.35.408.255.669.73.26.471.26 1.225v4.574h-1.31v-.942h-.054a1.9 1.9 0 0 1-.39.512 2.1 2.1 0 0 1-.668.417q-.408.165-.978.166m.292-1.077q.556 0 .951-.22.4-.219.605-.573.211-.36.211-.767v-.888q-.072.07-.278.134a4 4 0 0 1-.462.103q-.26.04-.507.077-.247.03-.412.053a3.3 3.3 0 0 0-.714.166q-.318.117-.511.337-.188.215-.188.574 0 .498.368.753.367.252.937.251m5.495 3.507q-.301 0-.547-.049a1.7 1.7 0 0 1-.368-.099l.323-1.098q.367.098.655.085a.78.78 0 0 0 .506-.215q.224-.203.395-.66l.166-.457-2.521-6.978h1.436l1.744 5.345h.072l1.744-5.345h1.44l-2.839 7.808a3.1 3.1 0 0 1-.502.91 1.95 1.95 0 0 1-.727.565 2.4 2.4 0 0 1-.977.188m11.467-7.79-1.215.216a1.5 1.5 0 0 0-.242-.444 1.2 1.2 0 0 0-.44-.346 1.6 1.6 0 0 0-.695-.134q-.57 0-.951.256-.381.25-.381.65 0 .345.256.556.255.21.825.345l1.094.251q.95.22 1.417.677t.467 1.189q0 .618-.359 1.103-.354.48-.991.754-.633.273-1.467.273-1.157 0-1.888-.493-.73-.498-.897-1.413l1.296-.197q.122.506.498.767.377.255.982.255.66 0 1.054-.273.395-.279.395-.677a.7.7 0 0 0-.242-.543q-.239-.22-.731-.332l-1.166-.256q-.965-.22-1.427-.7-.457-.48-.457-1.214 0-.61.341-1.068.34-.457.942-.713.6-.26 1.376-.26 1.118 0 1.758.484.641.48.848 1.287"/><path fill="#9ca3af" fill-rule="evenodd" d="M409.321 25.598a.7.7 0 0 1 .992 0l3.714 3.714 3.713-3.714a.701.701 0 1 1 .992.992l-4.209 4.21a.7.7 0 0 1-.992 0l-4.21-4.21a.7.7 0 0 1 0-.992" clip-rule="evenodd"/><path stroke="#9ca3af" stroke-linecap="round" stroke-linejoin="round" stroke-width="2.105" d="m51.553 184.35 6.128-6.019 5.729-7.141c.12-.149.27-.271.44-.357l6.67-3.371q.087-.044.167-.101l7.43-5.233c.212-.15.377-.358.473-.6l2.953-7.433a1.4 1.4 0 0 1 .087-.178l4.905-8.444c.155-.268.398-.473.687-.582l7.792-2.931c.151-.057.311-.086.472-.086h7.74c.283 0 .558-.089.787-.255l7.26-5.26q.17-.124.37-.189l7.551-2.466c.2-.066.382-.177.531-.327l5.438-5.438q.152-.152.249-.344l4.282-8.479a1.33 1.33 0 0 1 .46-.516l6.899-4.532a1.34 1.34 0 0 1 1.38-.055l11.669 6.397c.223.122.407.305.53.528l3.531 6.405c.157.286.414.504.721.615l6.735 2.416 6.79 1.951c.254.073.481.22.652.421l4.65 5.481q.157.186.37.304l5.698 3.174c.2.111.424.169.652.169h6.951c.153 0 .306.026.45.078l6.567 2.343c.288.103.532.301.692.562l3.304 5.39c.21.344.564.574.963.628l6.441.868c.189.026.372.092.534.194l5.617 3.53q.187.118.328.29l8.431 10.398c.193.237.461.402.76.466l7.209 1.546c.272.058.519.199.706.404l5.354 5.839q.078.084.17.155l10.738 8.28c.235.181.522.279.818.279h6.844c.348 0 .683.136.933.378l5.311 5.146q.181.175.286.405l2.773 6.054c.096.21.245.392.433.528l5.916 4.276q.087.064.184.112l6.062 3.038c.193.097.359.238.486.413l4.63 6.412 4.255 5.188c.156.191.362.335.595.416l6.579 2.294q.09.032.177.077l5.816 3.025c.191.099.403.151.618.151h6.23c.314 0 .617.11.858.312l4.692 3.914c.181.151.399.252.631.292l6.81 1.169q.21.036.398.136l5.951 3.138c.172.091.323.219.441.374l3.566 4.684a1.34 1.34 0 0 0 1.824.294l7.35-5.035c.171-.118.312-.273.413-.454l5.668-10.187q.108-.195.148-.415l1.857-10.322a1.34 1.34 0 0 1 .418-.756l8.96-8.124q.091-.083.166-.18l7.095-9.306c.158-.207.374-.364.62-.451l10.039-3.541q.208-.073.381-.209l9.405-7.369c.199-.156.35-.365.435-.603l3.988-11.147q.082-.229.24-.415l7.074-8.344a1.3 1.3 0 0 1 .43-.336l9.689-4.778q.192-.095.344-.244l7.087-6.926c.114-.111.208-.243.276-.387l4.752-10.091q.086-.181.222-.331l8.283-9.092c.15-.165.257-.364.31-.581l2.637-10.661"/><path stroke="#00162a" stroke-linecap="round" stroke-linejoin="round" stroke-width="2.105" d="m51.299 223.816 7.38 12.326 10.545-16.677 6.326 4.351 9.49-6.526 8.436 8.701 12.653-5.076 15.816 19.578 10.544-21.028h17.926l6.326-10.151h13.708l10.544-13.052 4.218 6.526 13.707-17.402h31.633l7.381-10.152 7.381 7.251 11.599-22.478L278 147.681l18.98 27.553 31.632-27.553 8.436-12.327 16.871 12.327 33.741 27.553 12.653-33.354 17.926-2.175 7.381-4.351 4.217 4.351v-16.678"/><circle cx="298.028" cy="173.715" r="3.815" fill="#090f1d"/><circle cx="297.239" cy="220.547" r="3.289" fill="#9ca3af" stroke="#9ca3af" stroke-width="1.052"/><rect width="237.675" height="262.159" x="323.799" y="154.054" fill="#fff" stroke="#000" stroke-width="1.052" rx="15.474"/><g filter="url(#b)"><path stroke="#000" stroke-width="1.052" d="M562 211.758H323.273" opacity=".7"/></g><path fill="#090f1d" d="M341.156 187.379h-2.072l3.773-10.715h2.396l3.778 10.715h-2.072l-2.862-8.517h-.084zm.068-4.201h5.651v1.559h-5.651zm12.395 4.358q-1.203 0-2.066-.528a3.5 3.5 0 0 1-1.324-1.46q-.46-.936-.461-2.155 0-1.225.471-2.161a3.5 3.5 0 0 1 1.329-1.465q.864-.53 2.041-.529.978 0 1.732.361.758.357 1.208 1.01.45.649.513 1.517h-1.81a1.74 1.74 0 0 0-.524-.968q-.408-.392-1.093-.392-.58 0-1.02.314-.44.309-.686.889-.24.582-.24 1.392 0 .822.24 1.413.241.586.675.905a1.73 1.73 0 0 0 1.031.314q.418 0 .748-.157a1.5 1.5 0 0 0 .56-.466q.225-.303.309-.737h1.81a3.16 3.16 0 0 1-.502 1.512q-.435.654-1.183 1.025-.748.366-1.758.366m10.361 2.857v-4.28h-.078a3.2 3.2 0 0 1-.424.623 2.3 2.3 0 0 1-.733.555q-.455.23-1.145.23a3.04 3.04 0 0 1-1.696-.487q-.748-.486-1.182-1.413-.435-.926-.434-2.249 0-1.34.439-2.261.445-.926 1.198-1.397a3.1 3.1 0 0 1 1.68-.476q.707 0 1.161.241.455.236.722.57.267.33.414.623h.115v-1.329h1.862v11.05zm-1.852-4.426q.602 0 1.025-.325.425-.33.644-.915.22-.586.22-1.366t-.22-1.355q-.215-.576-.638-.895-.419-.319-1.031-.319-.633 0-1.057.33a2 2 0 0 0-.638.91 3.8 3.8 0 0 0-.215 1.329q0 .754.215 1.345a2.1 2.1 0 0 0 .643.926q.43.335 1.052.335m10.82-1.967v-4.657h1.894v8.036h-1.836v-1.428h-.084q-.273.675-.895 1.104-.617.429-1.522.429-.79 0-1.397-.35a2.44 2.44 0 0 1-.942-1.031q-.34-.68-.34-1.643v-5.117h1.894v4.824q0 .764.418 1.214.419.45 1.099.45.418 0 .811-.204t.644-.607q.256-.408.256-1.02m3.842 3.379v-8.036h1.894v8.036zm.952-9.177q-.45 0-.774-.298a.96.96 0 0 1-.325-.727q0-.43.325-.727a1.1 1.1 0 0 1 .774-.304q.454 0 .774.304a.95.95 0 0 1 .325.727.96.96 0 0 1-.325.727 1.1 1.1 0 0 1-.774.298m9.241 3.265-1.726.189a1.4 1.4 0 0 0-.257-.492 1.26 1.26 0 0 0-.481-.372 1.76 1.76 0 0 0-.743-.141q-.591 0-.994.256-.397.257-.393.665a.7.7 0 0 0 .257.57q.267.22.879.361l1.371.293q1.14.246 1.695.78.56.534.565 1.397a2.2 2.2 0 0 1-.445 1.339q-.433.576-1.209.9-.774.324-1.778.324-1.476 0-2.376-.617-.9-.622-1.072-1.732l1.847-.178q.125.544.533.822t1.062.277q.675 0 1.083-.277.414-.278.414-.686 0-.345-.267-.57-.263-.225-.816-.345l-1.371-.288q-1.156-.24-1.711-.811-.555-.576-.549-1.455-.006-.743.402-1.287.414-.549 1.146-.847.738-.304 1.701-.304 1.412 0 2.223.602.816.602 1.01 1.627m1.735 5.912v-8.036h1.894v8.036zm.952-9.177q-.45 0-.775-.298a.96.96 0 0 1-.324-.727.95.95 0 0 1 .324-.727q.325-.304.775-.304.454 0 .774.304a.95.95 0 0 1 .325.727.96.96 0 0 1-.325.727 1.1 1.1 0 0 1-.774.298m6.902 1.141v1.465h-4.62v-1.465zm-3.479-1.925h1.894v7.544q0 .382.115.586a.62.62 0 0 0 .314.272 1.2 1.2 0 0 0 .429.074q.178 0 .324-.027.152-.026.231-.047l.319 1.481a4 4 0 0 1-.434.115 3.6 3.6 0 0 1-.681.073 3.1 3.1 0 0 1-1.282-.214 2 2 0 0 1-.905-.743q-.33-.503-.324-1.256zm5.063 9.961v-8.036h1.894v8.036zm.953-9.177q-.45 0-.775-.298a.96.96 0 0 1-.324-.727.95.95 0 0 1 .324-.727q.325-.304.775-.304.454 0 .774.304a.95.95 0 0 1 .324.727.96.96 0 0 1-.324.727 1.1 1.1 0 0 1-.774.298m6.395 9.334q-1.177 0-2.041-.518a3.5 3.5 0 0 1-1.339-1.449q-.471-.931-.471-2.176t.471-2.182a3.5 3.5 0 0 1 1.339-1.455q.864-.518 2.041-.518t2.04.518q.864.518 1.334 1.455.476.936.476 2.182t-.476 2.176a3.48 3.48 0 0 1-1.334 1.449q-.863.518-2.04.518m.01-1.517q.638 0 1.067-.35.429-.357.639-.953a3.9 3.9 0 0 0 .214-1.329q0-.737-.214-1.334a2.1 2.1 0 0 0-.639-.957q-.429-.356-1.067-.356-.654 0-1.088.356a2.15 2.15 0 0 0-.644.957 4 4 0 0 0-.209 1.334q0 .733.209 1.329.215.596.644.953.434.35 1.088.35m7.342-3.348v4.708h-1.894v-8.036h1.81v1.366h.094q.278-.675.885-1.073.612-.398 1.512-.398.831 0 1.449.356.623.356.963 1.031.345.675.34 1.637v5.117h-1.894v-4.824q0-.805-.419-1.26-.413-.456-1.146-.456-.497 0-.884.22a1.53 1.53 0 0 0-.602.623q-.214.407-.214.989"/><g filter="url(#c)"><rect width="207.826" height="77.215" x="338.724" y="231.126" fill="#fff" rx="5.459"/><rect width="207.144" height="76.532" x="339.065" y="231.467" stroke="#000" stroke-width=".682" rx="5.118"/></g><rect width="192.321" height="4.21" x="346.476" y="291.571" fill="#000" rx="2.105"/><rect width="150.321" height="4.21" x="346.476" y="291.571" fill="#00162a" rx="2.105"/><path fill="#090f1d" d="M351.882 247.53a1.12 1.12 0 0 0-.485-.839q-.423-.3-1.102-.3a2.1 2.1 0 0 0-.818.144 1.2 1.2 0 0 0-.522.39.95.95 0 0 0-.066 1.02q.123.193.333.329.21.13.465.222.255.09.514.152l.789.197q.476.111.917.3.444.189.793.477.354.288.559.695t.206.954q0 .74-.379 1.303-.378.559-1.093.875-.71.313-1.723.313-.982 0-1.706-.304a2.54 2.54 0 0 1-1.126-.888q-.403-.584-.436-1.423h1.501q.033.44.271.732t.621.436q.386.144.863.144.498 0 .872-.148.378-.152.592-.42.213-.27.218-.633a.8.8 0 0 0-.194-.542 1.4 1.4 0 0 0-.53-.362 5 5 0 0 0-.789-.263l-.958-.247q-1.04-.267-1.645-.81-.6-.546-.6-1.451 0-.744.403-1.303.407-.56 1.106-.867.698-.313 1.583-.313.896 0 1.57.313.678.307 1.065.859.385.546.399 1.258zm2.877 6.104v-6.314h1.488v6.314zm.748-7.21a.87.87 0 0 1-.609-.235.75.75 0 0 1-.254-.571q0-.337.254-.571a.86.86 0 0 1 .609-.239.85.85 0 0 1 .608.239q.255.234.255.571a.75.75 0 0 1-.255.571.86.86 0 0 1-.608.235m5.016 9.71q-.801 0-1.377-.218-.576-.214-.925-.576a2 2 0 0 1-.485-.801l1.34-.325q.09.184.263.366.173.185.465.304.295.123.744.123.633 0 1.048-.308.415-.304.415-1.003V252.5h-.074a2.1 2.1 0 0 1-.337.473 1.7 1.7 0 0 1-.579.407q-.358.164-.901.164-.728 0-1.319-.341-.588-.345-.938-1.028-.345-.686-.345-1.718 0-1.04.345-1.756.35-.719.942-1.089a2.4 2.4 0 0 1 1.319-.374q.555 0 .913.189.361.185.576.448.213.26.324.489h.083v-1.044h1.467v6.417q0 .81-.386 1.34-.387.53-1.057.794a4.1 4.1 0 0 1-1.521.263m.013-3.758q.472 0 .805-.23t.506-.662.173-1.036q0-.595-.173-1.044a1.5 1.5 0 0 0-.502-.694q-.329-.252-.809-.251-.498 0-.831.259a1.56 1.56 0 0 0-.501.711 2.9 2.9 0 0 0-.169 1.019q0 .58.169 1.016.172.432.505.674.337.238.827.238m5.965-2.441v3.699h-1.489v-6.314h1.423v1.073h.074q.218-.53.694-.843.481-.312 1.189-.312.653 0 1.138.279.49.28.757.81.272.531.267 1.287v4.02h-1.488v-3.79q0-.633-.329-.991-.325-.357-.9-.357-.391 0-.695.172-.3.17-.473.49a1.65 1.65 0 0 0-.168.777m12.462 1.044v-3.659h1.488v6.314h-1.443v-1.122h-.066a1.9 1.9 0 0 1-.703.868q-.485.336-1.196.337-.621 0-1.098-.276a1.9 1.9 0 0 1-.74-.81q-.267-.534-.267-1.29v-4.021h1.488v3.79q0 .6.329.954.33.354.864.354.328 0 .637-.161.308-.16.505-.477.202-.32.202-.801m3.018 5.023v-8.682h1.464v1.044h.086q.115-.23.325-.489a1.7 1.7 0 0 1 .567-.448q.358-.189.913-.189.732 0 1.319.374.593.37.938 1.098.35.723.349 1.775 0 1.04-.341 1.768-.34.727-.929 1.11a2.4 2.4 0 0 1-1.332.382q-.543 0-.9-.18a1.8 1.8 0 0 1-.576-.436 3 3 0 0 1-.333-.489h-.062v3.362zm1.46-5.525q0 .613.172 1.073.177.46.506.72.333.254.806.254.493 0 .826-.263.333-.267.502-.727.172-.465.172-1.057 0-.588-.168-1.044a1.57 1.57 0 0 0-.502-.715q-.333-.26-.83-.259-.477 0-.81.251a1.54 1.54 0 0 0-.506.702 3 3 0 0 0-.168 1.065m10.766-1.488-1.356.148a1.1 1.1 0 0 0-.202-.386 1 1 0 0 0-.378-.292 1.4 1.4 0 0 0-.584-.111q-.464 0-.781.201-.312.202-.308.522a.54.54 0 0 0 .201.448q.21.173.691.284l1.077.23q.895.193 1.332.613.44.419.444 1.097a1.72 1.72 0 0 1-.349 1.053q-.341.452-.95.707t-1.398.255q-1.16 0-1.866-.485a1.95 1.95 0 0 1-.843-1.361l1.451-.14q.099.427.42.646.32.217.834.217.53 0 .851-.217.325-.219.325-.539a.56.56 0 0 0-.21-.448q-.206-.177-.641-.271l-1.077-.226q-.909-.19-1.345-.638-.435-.452-.431-1.143a1.62 1.62 0 0 1 .316-1.011q.325-.432.901-.666.579-.238 1.336-.238 1.11 0 1.747.473.641.472.793 1.278M352.545 269.015v12.246h-2.218v-10.087h-.072l-2.864 1.829v-2.033l3.044-1.955zm5.001 10.572-.078.658a10 10 0 0 1-.299 1.53 19 19 0 0 1-.442 1.441q-.233.659-.377 1.035h-1.459l.227-.993q.15-.627.287-1.411a14 14 0 0 0 .185-1.59l.042-.67zm6.51 1.842q-1.196 0-2.141-.449a3.8 3.8 0 0 1-1.501-1.244 3.3 3.3 0 0 1-.586-1.806h2.153q.06.754.652 1.232.592.473 1.423.473.652 0 1.16-.299.508-.3.801-.832t.287-1.213a2.44 2.44 0 0 0-.293-1.232 2.2 2.2 0 0 0-.819-.843 2.3 2.3 0 0 0-1.196-.311 2.9 2.9 0 0 0-1.082.203q-.533.21-.843.55l-2.003-.329.639-6.314h7.104v1.854h-5.268l-.353 3.246h.072q.34-.4.963-.663.621-.27 1.363-.269 1.113 0 1.985.526a3.7 3.7 0 0 1 1.376 1.435q.502.915.502 2.093 0 1.214-.562 2.164a3.97 3.97 0 0 1-1.549 1.489q-.987.539-2.284.539m10.793 0q-1.291 0-2.296-.443-.999-.443-1.579-1.232a3.2 3.2 0 0 1-.616-1.824h2.249q.03.497.329.867.298.365.795.569t1.112.203q.658 0 1.166-.227.508-.234.795-.646t.281-.951a1.65 1.65 0 0 0-.287-.981q-.293-.425-.849-.663-.55-.24-1.327-.239h-1.082v-1.711h1.082q.64 0 1.118-.221.484-.221.759-.622.276-.406.27-.939a1.63 1.63 0 0 0-.234-.902 1.56 1.56 0 0 0-.663-.604 2.2 2.2 0 0 0-.999-.216q-.563 0-1.04.204a1.9 1.9 0 0 0-.772.58 1.47 1.47 0 0 0-.311.885h-2.134q.024-1.029.592-1.806a3.8 3.8 0 0 1 1.53-1.22q.957-.443 2.147-.443 1.226 0 2.129.461.909.454 1.405 1.226.496.771.496 1.704.006 1.035-.61 1.734-.609.699-1.602.915v.096q1.292.179 1.979.956.693.772.688 1.92 0 1.028-.586 1.841-.58.808-1.603 1.268-1.017.46-2.332.461m10.831 0q-1.197 0-2.141-.449a3.8 3.8 0 0 1-1.501-1.244 3.3 3.3 0 0 1-.586-1.806h2.153q.06.754.651 1.232.592.473 1.424.473.651 0 1.16-.299.508-.3.801-.832t.287-1.213a2.45 2.45 0 0 0-.293-1.232 2.2 2.2 0 0 0-.819-.843 2.3 2.3 0 0 0-1.196-.311 2.9 2.9 0 0 0-1.083.203q-.531.21-.843.55l-2.003-.329.64-6.314h7.104v1.854h-5.268l-.353 3.246h.072q.34-.4.962-.663.622-.27 1.364-.269 1.112 0 1.985.526.873.52 1.375 1.435.503.915.503 2.093 0 1.214-.563 2.164a3.96 3.96 0 0 1-1.548 1.489q-.987.539-2.284.539"/><g filter="url(#d)"><rect width="207.826" height="77.215" x="338.723" y="323.075" fill="#fff" rx="5.459"/><rect width="207.144" height="76.532" x="339.065" y="323.416" stroke="#000" stroke-width=".682" rx="5.118"/></g><rect width="192.321" height="4.21" x="346.476" y="383.568" fill="#000" rx="2.105"/><rect width="73.036" height="4.21" x="346.476" y="383.568" fill="#00162a" rx="2.105"/><path fill="#090f1d" d="M354.225 337.164v8.419h-1.357l-3.967-5.735h-.07v5.735h-1.525v-8.419h1.365l3.963 5.738h.074v-5.738zm4.391 8.542q-.949 0-1.64-.394a2.68 2.68 0 0 1-1.056-1.127q-.37-.732-.37-1.722 0-.975.37-1.711a2.8 2.8 0 0 1 1.044-1.151q.67-.414 1.574-.415.585 0 1.102.189.522.185.921.576.404.39.633.995.23.6.23 1.43v.457h-5.175v-1.003h3.749a1.6 1.6 0 0 0-.185-.761 1.34 1.34 0 0 0-.506-.53 1.4 1.4 0 0 0-.748-.194q-.456 0-.802.222-.345.219-.538.576a1.65 1.65 0 0 0-.193.777v.876q0 .55.201.945.201.39.563.6.362.206.847.206.325 0 .588-.091a1.3 1.3 0 0 0 .456-.275q.193-.181.292-.448l1.39.156a2.17 2.17 0 0 1-.502.962 2.45 2.45 0 0 1-.937.633 3.6 3.6 0 0 1-1.308.222m5.337-.123-1.785-6.315h1.517l1.11 4.44h.058l1.134-4.44h1.501l1.135 4.416h.061l1.094-4.416h1.521l-1.788 6.315h-1.55l-1.184-4.267h-.087l-1.184 4.267zm18.529-5.579h-1.538a1.9 1.9 0 0 0-.242-.67 1.8 1.8 0 0 0-1.041-.81 2.4 2.4 0 0 0-.719-.107q-.687 0-1.217.346-.53.341-.83 1.003-.3.657-.3 1.607 0 .966.3 1.628.304.658.83.995.53.333 1.213.333.378 0 .707-.099a1.9 1.9 0 0 0 .596-.3q.268-.197.448-.485.186-.288.255-.658l1.538.009q-.087.6-.375 1.126a3.3 3.3 0 0 1-1.821 1.554 4 4 0 0 1-1.369.222q-1.11 0-1.981-.514-.872-.514-1.373-1.484t-.502-2.327q0-1.36.506-2.327.505-.97 1.377-1.484t1.973-.514q.704 0 1.308.198a3.4 3.4 0 0 1 1.077.579q.473.379.777.93.308.546.403 1.249m5.355 2.923v-3.659h1.488v6.315h-1.443v-1.122h-.065a1.9 1.9 0 0 1-.703.867q-.486.337-1.197.337-.62 0-1.097-.275a1.9 1.9 0 0 1-.74-.81q-.267-.535-.267-1.291v-4.021h1.488v3.791q0 .6.329.953.329.354.863.354.329 0 .637-.16.309-.16.506-.477.201-.32.201-.802m8.009-1.99-1.356.148a1.1 1.1 0 0 0-.202-.386 1 1 0 0 0-.378-.292 1.4 1.4 0 0 0-.584-.111q-.464 0-.781.202-.312.201-.308.522a.55.55 0 0 0 .201.448q.21.172.691.283l1.077.231q.895.193 1.332.612.44.42.444 1.098a1.72 1.72 0 0 1-.349 1.052q-.341.452-.95.707t-1.398.255q-1.16 0-1.866-.485a1.95 1.95 0 0 1-.843-1.361l1.451-.139q.099.428.42.645t.834.218q.53 0 .851-.218.325-.218.325-.539 0-.27-.21-.448-.206-.176-.641-.271l-1.077-.226q-.909-.19-1.345-.637-.435-.453-.431-1.143a1.62 1.62 0 0 1 .316-1.011q.325-.432.901-.666.579-.239 1.336-.239 1.11 0 1.747.473.641.472.793 1.278m4.516-1.669v1.151h-3.63v-1.151zm-2.734-1.512h1.489v5.928q0 .3.09.46a.5.5 0 0 0 .247.214 1 1 0 0 0 .337.057q.14 0 .255-.02.118-.02.181-.037l.25 1.163a2.824 2.824 0 0 1-.875.148 2.4 2.4 0 0 1-1.008-.168 1.57 1.57 0 0 1-.711-.584q-.258-.394-.255-.987zm6.665 7.95q-.925 0-1.603-.407a2.76 2.76 0 0 1-1.052-1.139q-.37-.73-.37-1.71 0-.978.37-1.714.374-.737 1.052-1.143t1.603-.407q.925 0 1.604.407a2.73 2.73 0 0 1 1.048 1.143q.374.736.374 1.714 0 .98-.374 1.71a2.74 2.74 0 0 1-1.048 1.139q-.679.407-1.604.407m.008-1.192q.502 0 .839-.275.337-.28.502-.749.168-.468.168-1.044 0-.58-.168-1.048a1.66 1.66 0 0 0-.502-.752q-.337-.28-.839-.28-.513 0-.855.28a1.7 1.7 0 0 0-.505.752 3.1 3.1 0 0 0-.165 1.048q0 .576.165 1.044.169.469.505.749.342.275.855.275m4.281 1.069v-6.315h1.422v1.073h.074q.198-.542.654-.846.456-.309 1.089-.309.642 0 1.082.313.444.308.624.842h.066q.21-.525.707-.838.502-.317 1.188-.317.872 0 1.423.551.55.55.551 1.607v4.239h-1.493v-4.008q0-.588-.312-.86a1.12 1.12 0 0 0-.765-.275q-.539 0-.842.337-.3.333-.301.868v3.938h-1.459v-4.07q0-.49-.296-.781-.291-.292-.765-.292-.32 0-.583.164a1.15 1.15 0 0 0-.42.457 1.4 1.4 0 0 0-.156.682v3.84zm13.185.123q-.95 0-1.64-.394a2.68 2.68 0 0 1-1.057-1.127q-.37-.732-.37-1.722 0-.975.37-1.711a2.8 2.8 0 0 1 1.044-1.151q.67-.414 1.575-.415.584 0 1.101.189.524.185.921.576.404.39.633.995.231.6.231 1.43v.457h-5.176v-1.003h3.749a1.6 1.6 0 0 0-.185-.761 1.34 1.34 0 0 0-.505-.53 1.4 1.4 0 0 0-.749-.194q-.456 0-.801.222-.346.219-.539.576-.189.354-.193.777v.876q0 .55.201.945.202.39.564.6.361.206.846.206.325 0 .588-.091.264-.094.457-.275a1.15 1.15 0 0 0 .291-.448l1.39.156a2.17 2.17 0 0 1-.502.962 2.44 2.44 0 0 1-.937.633 3.6 3.6 0 0 1-1.307.222m4.067-.123v-6.315h1.443v1.053h.065q.173-.548.592-.843.425-.3.966-.3.124 0 .276.012.156.008.259.029v1.369a1.6 1.6 0 0 0-.3-.058 3 3 0 0 0-.391-.028q-.406 0-.732.176a1.3 1.3 0 0 0-.505.481 1.35 1.35 0 0 0-.185.712v3.712zm9.58-4.646-1.356.148a1.1 1.1 0 0 0-.202-.386 1 1 0 0 0-.378-.292 1.4 1.4 0 0 0-.584-.111q-.465 0-.781.202-.312.201-.308.522a.55.55 0 0 0 .201.448q.21.172.691.283l1.077.231q.895.193 1.332.612.44.42.444 1.098a1.7 1.7 0 0 1-.35 1.052q-.341.452-.949.707-.609.255-1.398.255-1.16 0-1.866-.485a1.95 1.95 0 0 1-.843-1.361l1.451-.139q.1.428.419.645.32.218.835.218.53 0 .851-.218.325-.218.325-.539 0-.27-.21-.448-.206-.176-.641-.271l-1.077-.226q-.909-.19-1.345-.637-.435-.453-.431-1.143a1.6 1.6 0 0 1 .316-1.011q.325-.432.901-.666.579-.239 1.336-.239 1.11 0 1.747.473.641.472.793 1.278m4.604.436q0-1.542.407-2.832a8.2 8.2 0 0 1 1.221-2.393h1.402a5.3 5.3 0 0 0-.584.999q-.27.588-.472 1.291-.198.7-.313 1.451a10 10 0 0 0-.111 1.484q0 .975.194 1.973.197.999.53 1.855.337.85.756 1.393h-1.402a8.2 8.2 0 0 1-1.221-2.388q-.407-1.296-.407-2.833m4.252 4.21v-8.419h3.157q.97 0 1.628.337.663.337.999.945.342.605.342 1.41 0 .81-.346 1.406-.34.592-1.007.917-.666.321-1.636.321h-2.249v-1.267h2.043q.568 0 .929-.156.363-.16.535-.464.177-.309.177-.757 0-.447-.177-.764a1.12 1.12 0 0 0-.539-.485q-.362-.17-.933-.169h-1.398v7.145zm4.35-3.815 2.084 3.815h-1.702l-2.047-3.815zm5.819 3.938q-.95 0-1.641-.394a2.7 2.7 0 0 1-1.056-1.127q-.37-.732-.37-1.722 0-.975.37-1.711a2.8 2.8 0 0 1 1.044-1.151q.67-.414 1.575-.415.583 0 1.101.189.522.185.921.576.403.39.633.995.23.6.23 1.43v.457h-5.175v-1.003h3.749a1.6 1.6 0 0 0-.185-.761 1.34 1.34 0 0 0-.506-.53 1.4 1.4 0 0 0-.748-.194q-.456 0-.802.222-.345.219-.538.576a1.65 1.65 0 0 0-.193.777v.876q0 .55.201.945.201.39.563.6.363.206.847.206.325 0 .588-.091.263-.094.456-.275t.292-.448l1.39.156a2.17 2.17 0 0 1-.502.962 2.45 2.45 0 0 1-.937.633 3.6 3.6 0 0 1-1.307.222m9.526-6.438-2.249 6.315h-1.644l-2.249-6.315h1.587l1.451 4.691h.066l1.455-4.691zm3.61 6.438q-.95 0-1.64-.394a2.68 2.68 0 0 1-1.057-1.127q-.37-.732-.37-1.722 0-.975.37-1.711.375-.74 1.045-1.151.67-.414 1.574-.415.583 0 1.102.189.522.185.921.576.402.39.633.995.23.6.23 1.43v.457h-5.176v-1.003h3.749a1.6 1.6 0 0 0-.185-.761 1.34 1.34 0 0 0-.505-.53 1.4 1.4 0 0 0-.748-.194q-.457 0-.802.222-.345.219-.539.576-.189.354-.193.777v.876q0 .55.202.945.201.39.563.6.361.206.847.206.324 0 .588-.091a1.3 1.3 0 0 0 .456-.275q.193-.181.292-.448l1.389.156a2.17 2.17 0 0 1-.501.962 2.46 2.46 0 0 1-.938.633q-.57.222-1.307.222m5.555-3.823v3.7h-1.488v-6.315h1.422v1.073h.074q.219-.53.695-.842.482-.313 1.188-.313.654 0 1.139.28.489.279.756.81.271.53.268 1.286v4.021h-1.489v-3.79q0-.634-.329-.991-.324-.358-.9-.358-.39 0-.695.173a1.2 1.2 0 0 0-.472.489 1.65 1.65 0 0 0-.169.777m9.591 1.044v-3.659h1.488v6.315h-1.443v-1.122h-.066a1.9 1.9 0 0 1-.703.867q-.485.337-1.196.337-.621 0-1.097-.275a1.9 1.9 0 0 1-.74-.81q-.268-.535-.268-1.291v-4.021h1.489v3.791q0 .6.328.953.33.354.864.354.328 0 .637-.16.308-.16.506-.477.201-.32.201-.802m5.814 2.779q-.95 0-1.64-.394a2.68 2.68 0 0 1-1.057-1.127q-.37-.732-.37-1.722 0-.975.37-1.711a2.8 2.8 0 0 1 1.044-1.151q.67-.414 1.575-.415.583 0 1.102.189.522.185.92.576.403.39.633.995.231.6.231 1.43v.457h-5.176v-1.003h3.749a1.6 1.6 0 0 0-.185-.761 1.34 1.34 0 0 0-.505-.53 1.4 1.4 0 0 0-.749-.194q-.456 0-.801.222-.346.219-.539.576-.189.354-.193.777v.876q0 .55.201.945.202.39.564.6.361.206.846.206.325 0 .588-.091.264-.094.457-.275a1.15 1.15 0 0 0 .291-.448l1.39.156a2.17 2.17 0 0 1-.502.962 2.44 2.44 0 0 1-.937.633 3.6 3.6 0 0 1-1.307.222m6.722-3.556q0 1.537-.411 2.833a8.1 8.1 0 0 1-1.217 2.388h-1.401q.316-.407.583-.995.271-.588.469-1.291.201-.702.312-1.455a9.7 9.7 0 0 0-.082-3.453 10.5 10.5 0 0 0-.53-1.854q-.333-.855-.752-1.398h1.401q.81 1.098 1.217 2.393.411 1.29.411 2.832M351.511 374.74v-15.307h.98v15.307zm2.828-10.41q-.084-.783-.706-1.22-.615-.437-1.602-.437-.694 0-1.19.21-.497.209-.759.568a1.38 1.38 0 0 0-.27.819q0 .382.174.664.179.281.484.478.305.192.676.323.37.132.747.221l1.148.287q.694.161 1.334.437a4.7 4.7 0 0 1 1.154.693q.514.418.813 1.011.299.592.299 1.387 0 1.077-.55 1.896-.55.813-1.591 1.273-1.034.455-2.505.455-1.43 0-2.482-.443-1.046-.442-1.638-1.291-.586-.85-.634-2.069h2.183q.048.64.394 1.064.348.425.903.634.563.21 1.256.209.723 0 1.268-.215.549-.221.861-.61.31-.394.317-.921-.006-.478-.281-.789-.276-.317-.772-.526a7.4 7.4 0 0 0-1.148-.383l-1.393-.359q-1.513-.388-2.392-1.178-.873-.795-.873-2.11 0-1.083.586-1.896.592-.813 1.609-1.262 1.016-.454 2.302-.454 1.303 0 2.284.454.987.449 1.549 1.25.562.795.58 1.83zm3.939 6.607v-1.764l5.196-8.21h1.471v2.512h-.897l-3.498 5.543v.095h7.253v1.824zm5.842 2.272v-2.81l.024-.789v-8.647h2.093v12.246zm10.079.168a5.2 5.2 0 0 1-1.717-.305 4 4 0 0 1-1.506-.987q-.67-.687-1.065-1.823-.394-1.143-.388-2.829 0-1.572.334-2.804.336-1.232.963-2.081a4.25 4.25 0 0 1 1.513-1.304q.891-.448 1.991-.448 1.154 0 2.045.454.897.455 1.447 1.244.55.783.682 1.77h-2.183q-.166-.705-.687-1.124-.515-.425-1.304-.425-1.274 0-1.961 1.107-.682 1.106-.688 3.037h.084q.293-.526.759-.903a3.5 3.5 0 0 1 1.053-.58 3.7 3.7 0 0 1 1.249-.209q1.077 0 1.932.514a3.73 3.73 0 0 1 1.363 1.417q.502.897.497 2.057.005 1.208-.551 2.171a4 4 0 0 1-1.548 1.507q-.993.55-2.314.544m-.012-1.794q.651 0 1.166-.317t.813-.855.293-1.208a2.4 2.4 0 0 0-.287-1.19 2.2 2.2 0 0 0-.795-.843 2.2 2.2 0 0 0-1.16-.311q-.484 0-.903.186a2.2 2.2 0 0 0-.73.514 2.4 2.4 0 0 0-.67 1.662q.006.64.299 1.178.294.538.808.861.513.323 1.166.323m8.485-.048-.078.658a10 10 0 0 1-.299 1.531q-.21.783-.443 1.441-.233.657-.376 1.034h-1.459l.227-.992q.15-.628.287-1.412t.185-1.59l.042-.67zm6.471-10.739a5 5 0 0 1 1.71.311 4 4 0 0 1 1.507.98q.67.677 1.064 1.812.395 1.136.395 2.811.006 1.578-.335 2.822-.334 1.238-.963 2.093a4.24 4.24 0 0 1-1.512 1.303q-.885.449-1.992.449-1.16 0-2.057-.455a3.9 3.9 0 0 1-1.441-1.243 3.96 3.96 0 0 1-.675-1.806h2.182q.168.73.682 1.16.52.424 1.309.424 1.274 0 1.962-1.106t.687-3.073h-.083a3.2 3.2 0 0 1-.76.909 3.5 3.5 0 0 1-1.058.58 3.8 3.8 0 0 1-1.244.203 3.7 3.7 0 0 1-1.937-.514 3.77 3.77 0 0 1-1.358-1.411q-.495-.897-.502-2.051 0-1.196.55-2.147a4 4 0 0 1 1.549-1.507q.993-.556 2.32-.544m.006 1.794a2.2 2.2 0 0 0-1.166.317q-.514.31-.813.849a2.4 2.4 0 0 0-.293 1.19q.005.651.293 1.184.292.531.795.843.509.31 1.16.311.485 0 .903-.186.418-.185.729-.514.317-.334.491-.759.179-.425.173-.897a2.3 2.3 0 0 0-.299-1.16 2.3 2.3 0 0 0-.807-.855 2.12 2.12 0 0 0-1.166-.323m6.44 8.347v-1.764l5.196-8.21h1.471v2.512h-.897l-3.498 5.543v.095h7.253v1.824zm5.842 2.272v-2.81l.024-.789v-8.647h2.093v12.246zm9.989.168q-1.292 0-2.296-.443-.999-.442-1.579-1.231a3.2 3.2 0 0 1-.616-1.824h2.249q.029.496.328.867.3.364.796.568t1.112.203q.657 0 1.166-.227a1.9 1.9 0 0 0 .795-.646q.288-.413.281-.951a1.65 1.65 0 0 0-.287-.98q-.293-.424-.849-.664-.55-.239-1.327-.239h-1.083v-1.71h1.083q.64 0 1.118-.221.485-.222.759-.622.276-.406.269-.939a1.63 1.63 0 0 0-.233-.903 1.6 1.6 0 0 0-.664-.604 2.2 2.2 0 0 0-.998-.215q-.562 0-1.041.203a1.9 1.9 0 0 0-.771.58 1.47 1.47 0 0 0-.311.885h-2.135q.024-1.029.592-1.806a3.8 3.8 0 0 1 1.531-1.22q.956-.442 2.147-.442 1.226 0 2.128.46.91.455 1.406 1.226t.496 1.704q.006 1.035-.61 1.734-.61.7-1.602.915v.096q1.291.18 1.979.957.693.771.687 1.919 0 1.029-.586 1.842-.579.808-1.602 1.267-1.017.46-2.332.461"/><g filter="url(#e)"><rect width="69.971" height="28.823" x="476.052" y="167.968" fill="#fff" stroke="#000" stroke-width="1.052" rx="5.788"/></g><path fill="#9ca3af" d="m486.94 186.644-2.547-9.185h1.458l1.789 7.113h.085l1.861-7.113h1.444l1.862 7.117h.085l1.785-7.117h1.462l-2.552 9.185h-1.395l-1.933-6.88h-.071l-1.933 6.88zm12.73.139q-1.017 0-1.753-.435a2.94 2.94 0 0 1-1.13-1.234q-.396-.798-.395-1.87 0-1.058.395-1.865a3.06 3.06 0 0 1 1.112-1.26q.717-.453 1.677-.453.583 0 1.13.192.547.194.982.606t.686 1.072q.252.654.252 1.592v.475h-5.476v-1.004h4.162q0-.53-.216-.938a1.6 1.6 0 0 0-.605-.65 1.7 1.7 0 0 0-.906-.238q-.566 0-.987.278a1.87 1.87 0 0 0-.645.718q-.225.44-.225.955v.785q0 .69.243 1.175.246.485.686.74.44.25 1.027.251.381 0 .695-.108.314-.112.542-.331.23-.22.35-.543l1.269.229a2.3 2.3 0 0 1-.547.982q-.39.417-.982.65a3.7 3.7 0 0 1-1.341.229m7.412 0q-1.017 0-1.753-.435a2.94 2.94 0 0 1-1.13-1.234q-.395-.798-.395-1.87 0-1.058.395-1.865a3.06 3.06 0 0 1 1.112-1.26q.717-.453 1.677-.453.583 0 1.13.192.547.194.982.606t.687 1.072q.25.654.251 1.592v.475h-5.476v-1.004h4.162q0-.53-.216-.938a1.6 1.6 0 0 0-.605-.65 1.7 1.7 0 0 0-.906-.238q-.565 0-.987.278a1.87 1.87 0 0 0-.645.718q-.225.44-.225.955v.785q0 .69.243 1.175.246.485.686.74.44.25 1.027.251.381 0 .695-.108.314-.112.542-.331.23-.22.35-.543l1.269.229a2.3 2.3 0 0 1-.547.982q-.39.417-.982.65a3.7 3.7 0 0 1-1.341.229m5.677-2.476-.009-1.637h.233l2.745-2.915h1.605l-3.13 3.319h-.211zm-1.234 2.337v-9.185h1.341v9.185zm4.351 0-2.467-3.274.924-.937 3.188 4.211z"/><path fill="#9ca3af" fill-rule="evenodd" d="M527.455 179.779a.7.7 0 0 1 .992 0l3.713 3.713 3.714-3.713a.701.701 0 1 1 .992.992l-4.21 4.209a.7.7 0 0 1-.992 0l-4.209-4.209a.7.7 0 0 1 0-.992" clip-rule="evenodd"/><defs><filter id="a" width="110.459" height="34.085" x="320.406" y="12.209" color-interpolation-filters="sRGB" filterUnits="userSpaceOnUse"><feFlood flood-opacity="0" result="BackgroundImageFix"/><feColorMatrix in="SourceAlpha" result="hardAlpha" values="0 0 0 0 0 0 0 0 0 0 0 0 0 0 0 0 0 0 127 0"/><feOffset dy="1.052"/><feGaussianBlur stdDeviation="1.052"/><feComposite in2="hardAlpha" operator="out"/><feColorMatrix values="0 0 0 0 0.254902 0 0 0 0 0.286275 0 0 0 0 0.329412 0 0 0 0.05 0"/><feBlend in2="BackgroundImageFix" result="effect1_dropShadow_4430_7125"/><feBlend in="SourceGraphic" in2="effect1_dropShadow_4430_7125" result="shape"/></filter><filter id="b" width="259.775" height="22.101" x="312.749" y="204.917" color-interpolation-filters="sRGB" filterUnits="userSpaceOnUse"><feFlood flood-opacity="0" result="BackgroundImageFix"/><feColorMatrix in="SourceAlpha" result="hardAlpha" values="0 0 0 0 0 0 0 0 0 0 0 0 0 0 0 0 0 0 127 0"/><feOffset dy="4.21"/><feGaussianBlur stdDeviation="5.262"/><feComposite in2="hardAlpha" operator="out"/><feColorMatrix values="0 0 0 0 0.254902 0 0 0 0 0.286275 0 0 0 0 0.329412 0 0 0 0.06 0"/><feBlend in2="BackgroundImageFix" result="effect1_dropShadow_4430_7125"/><feBlend in="SourceGraphic" in2="effect1_dropShadow_4430_7125" result="shape"/></filter><filter id="c" width="213.285" height="82.674" x="335.994" y="229.079" color-interpolation-filters="sRGB" filterUnits="userSpaceOnUse"><feFlood flood-opacity="0" result="BackgroundImageFix"/><feColorMatrix in="SourceAlpha" result="hardAlpha" values="0 0 0 0 0 0 0 0 0 0 0 0 0 0 0 0 0 0 127 0"/><feOffset dy=".682"/><feGaussianBlur stdDeviation="1.365"/><feComposite in2="hardAlpha" operator="out"/><feColorMatrix values="0 0 0 0 0.254902 0 0 0 0 0.286275 0 0 0 0 0.329412 0 0 0 0.05 0"/><feBlend in2="BackgroundImageFix" result="effect1_dropShadow_4430_7125"/><feBlend in="SourceGraphic" in2="effect1_dropShadow_4430_7125" result="shape"/></filter><filter id="d" width="213.285" height="82.674" x="335.994" y="321.028" color-interpolation-filters="sRGB" filterUnits="userSpaceOnUse"><feFlood flood-opacity="0" result="BackgroundImageFix"/><feColorMatrix in="SourceAlpha" result="hardAlpha" values="0 0 0 0 0 0 0 0 0 0 0 0 0 0 0 0 0 0 127 0"/><feOffset dy=".682"/><feGaussianBlur stdDeviation="1.365"/><feComposite in2="hardAlpha" operator="out"/><feColorMatrix values="0 0 0 0 0.254902 0 0 0 0 0.286275 0 0 0 0 0.329412 0 0 0 0.05 0"/><feBlend in2="BackgroundImageFix" result="effect1_dropShadow_4430_7125"/><feBlend in="SourceGraphic" in2="effect1_dropShadow_4430_7125" result="shape"/></filter><filter id="e" width="75.233" height="34.085" x="473.421" y="166.39" color-interpolation-filters="sRGB" filterUnits="userSpaceOnUse"><feFlood flood-opacity="0" result="BackgroundImageFix"/><feColorMatrix in="SourceAlpha" result="hardAlpha" values="0 0 0 0 0 0 0 0 0 0 0 0 0 0 0 0 0 0 127 0"/><feOffset dy="1.052"/><feGaussianBlur stdDeviation="1.052"/><feComposite in2="hardAlpha" operator="out"/><feColorMatrix values="0 0 0 0 0.254902 0 0 0 0 0.286275 0 0 0 0 0.329412 0 0 0 0.05 0"/><feBlend in2="BackgroundImageFix" result="effect1_dropShadow_4430_7125"/><feBlend in="SourceGraphic" in2="effect1_dropShadow_4430_7125" result="shape"/></filter></defs></svg>