<svg width="24" height="24" viewBox="0 0 24 24" fill="none" xmlns="http://www.w3.org/2000/svg">
<path d="M19 21C19 20.663 18.9818 20.3293 18.9463 20M18.9463 20H9M18.9463 20C18.7899 18.5509 18.2974 17.187 17.5379 16M5 3C5 3.33701 5.01817 3.67071 5.0537 4M5.0537 4H15M5.0537 4C5.21006 5.44909 5.70259 6.81301 6.46206 8M5 21C5 16.8566 7.74671 13.2152 11.7307 12.077L12.2693 11.923C16.2533 10.7848 19 7.14339 19 3M12.5 8H6.46206M6.46206 8C7.65184 9.8595 9.49674 11.2848 11.7307 11.923L12.2693 12.077C14.5033 12.7152 16.3482 14.1405 17.5379 16M11.5 16H17.5379" stroke="black" stroke-width="2" stroke-linecap="round" stroke-linejoin="round"/>
</svg>
