<svg xmlns="http://www.w3.org/2000/svg" width="659" height="436" fill="none" viewBox="0 0 659 436"><rect width="658" height="434" x=".5" y="1.333" fill="#fff" rx="19.5"/><rect width="658" height="434" x=".5" y="1.333" stroke="#00162a" rx="19.5"/><rect width="340.926" height="249.046" x="118.401" y="69.234" fill="#fff" stroke="#00162a" stroke-width=".802" rx="11.599"/><path fill="#090f1d" d="M130.582 94.395v-8.162h3.061q.94 0 1.578.327.642.327.969.916.33.587.331 1.367 0 .786-.335 1.363a2.2 2.2 0 0 1-.977.89q-.645.31-1.586.31h-2.18v-1.228h1.981q.55 0 .901-.151.35-.156.518-.45.171-.3.171-.734 0-.435-.171-.74a1.1 1.1 0 0 0-.522-.471q-.351-.163-.905-.163h-1.355v6.926zm4.217-3.698 2.02 3.698h-1.649l-1.985-3.698zm5.641 3.817q-.921 0-1.59-.382a2.6 2.6 0 0 1-1.024-1.092q-.359-.71-.359-1.67 0-.944.359-1.658.362-.717 1.012-1.116.65-.402 1.526-.402.567 0 1.068.183.506.18.893.558.39.378.614.965.223.581.223 1.386v.443h-5.017v-.973h3.634a1.55 1.55 0 0 0-.179-.737 1.3 1.3 0 0 0-.49-.514 1.4 1.4 0 0 0-.726-.187q-.442 0-.777.215-.335.21-.522.558a1.6 1.6 0 0 0-.187.753v.849q0 .534.195.916.195.38.546.582.35.2.821.2.315 0 .57-.088.255-.092.442-.267t.283-.434l1.347.151a2.1 2.1 0 0 1-.486.933 2.4 2.4 0 0 1-.909.613 3.5 3.5 0 0 1-1.267.215m9.235-6.24-2.18 6.12h-1.594l-2.18-6.12h1.538l1.407 4.547h.064l1.411-4.547zm3.5 6.24q-.921 0-1.59-.382a2.6 2.6 0 0 1-1.024-1.092q-.359-.71-.359-1.67 0-.944.359-1.658.362-.717 1.012-1.116.65-.402 1.526-.402.567 0 1.068.183.506.18.893.558.39.378.614.965.223.581.223 1.386v.443h-5.018v-.973h3.635a1.55 1.55 0 0 0-.179-.737 1.3 1.3 0 0 0-.49-.514 1.4 1.4 0 0 0-.726-.187q-.442 0-.777.215-.335.21-.522.558a1.6 1.6 0 0 0-.187.753v.849q0 .534.195.916.195.38.546.582.35.2.821.2.315 0 .57-.088.255-.092.442-.267t.283-.434l1.347.151a2.1 2.1 0 0 1-.486.933 2.4 2.4 0 0 1-.909.613 3.5 3.5 0 0 1-1.267.215m5.385-3.706v3.587h-1.443v-6.121h1.379v1.04h.072q.211-.514.674-.817.465-.303 1.151-.303.634 0 1.104.27.474.271.734.786.262.514.259 1.247v3.898h-1.443V90.72q0-.615-.319-.961-.315-.347-.873-.347-.379 0-.673.168a1.16 1.16 0 0 0-.459.474 1.6 1.6 0 0 0-.163.753m9.298 1.012v-3.546h1.442v6.12h-1.398v-1.087h-.064a1.84 1.84 0 0 1-.682.84q-.47.328-1.159.328-.602 0-1.064-.267a1.86 1.86 0 0 1-.718-.785q-.26-.519-.259-1.252v-3.898h1.443v3.675q0 .582.319.925.318.342.837.342.318 0 .617-.155.3-.156.49-.463.196-.31.196-.777m5.636 2.695q-.921 0-1.59-.383a2.6 2.6 0 0 1-1.024-1.092q-.36-.71-.359-1.67 0-.944.359-1.658.362-.717 1.012-1.116.65-.402 1.526-.402.565 0 1.068.183.506.18.893.558.39.378.614.965.223.581.223 1.386v.443h-5.018v-.973h3.635a1.6 1.6 0 0 0-.179-.737 1.3 1.3 0 0 0-.491-.514 1.4 1.4 0 0 0-.725-.187q-.442 0-.777.215-.334.21-.522.558a1.6 1.6 0 0 0-.187.753v.849q0 .534.195.916.195.38.546.582.35.2.821.2.315 0 .57-.088.255-.092.442-.267t.283-.434l1.347.151a2.1 2.1 0 0 1-.486.933 2.4 2.4 0 0 1-.909.613 3.5 3.5 0 0 1-1.267.215m6.79-.12v-8.162h1.442v3.053h.06q.113-.223.315-.475.204-.255.55-.434.346-.183.885-.183.71 0 1.279.362.574.36.909 1.065.338.7.338 1.721 0 1.008-.33 1.714-.331.705-.901 1.076-.57.37-1.291.37-.526 0-.873-.175a1.8 1.8 0 0 1-.558-.422 3 3 0 0 1-.323-.475h-.083v.965zm1.415-3.06q0 .593.167 1.04.172.446.49.697.323.247.781.247.478 0 .801-.255.323-.26.486-.706.168-.45.168-1.024 0-.57-.164-1.012a1.5 1.5 0 0 0-.486-.694q-.322-.25-.805-.25-.462 0-.785.243a1.5 1.5 0 0 0-.49.681 3 3 0 0 0-.163 1.032m6.278 5.355a3 3 0 0 1-.546-.047 2 2 0 0 1-.394-.104l.335-1.124q.314.091.562.088a.7.7 0 0 0 .434-.156q.19-.147.323-.494l.123-.33-2.22-6.25h1.531l1.411 4.623h.063l1.415-4.623h1.534l-2.45 6.863a2.8 2.8 0 0 1-.455.833q-.283.351-.693.534-.406.187-.973.187m10.625-2.187q-.721 0-1.291-.371-.57-.37-.901-1.076-.33-.706-.331-1.714 0-1.02.335-1.721.339-.705.913-1.064a2.34 2.34 0 0 1 1.279-.363q.538 0 .885.183.346.18.55.434.203.252.315.475h.059V86.23h1.447v8.162h-1.419v-.965h-.087a2.5 2.5 0 0 1-.323.475 1.8 1.8 0 0 1-.558.422q-.346.175-.873.175m.403-1.184q.457 0 .781-.247.322-.252.49-.698a3 3 0 0 0 .167-1.04q0-.594-.167-1.032a1.47 1.47 0 0 0-.486-.681 1.26 1.26 0 0 0-.785-.244q-.483 0-.805.252a1.5 1.5 0 0 0-.487.693 2.9 2.9 0 0 0-.163 1.012q0 .574.163 1.024.167.447.491.706.326.255.801.255m6.156 1.2q-.582 0-1.048-.208a1.7 1.7 0 0 1-.734-.622q-.267-.41-.267-1.012 0-.517.192-.857.19-.338.522-.542.33-.202.745-.306.418-.108.865-.156.537-.055.873-.1.335-.048.486-.143.155-.1.155-.307v-.024q0-.45-.267-.697t-.769-.247q-.53 0-.841.23a1.15 1.15 0 0 0-.414.547l-1.347-.191q.159-.558.526-.933.366-.378.896-.566a3.4 3.4 0 0 1 1.172-.191q.443 0 .881.103.438.105.801.343.363.235.582.642.222.406.223 1.016v4.097h-1.387v-.841h-.048q-.131.256-.37.478a1.8 1.8 0 0 1-.594.355 2.4 2.4 0 0 1-.833.131m.374-1.06q.435 0 .754-.172.319-.175.49-.462.175-.287.175-.626v-.721a.7.7 0 0 1-.231.103q-.16.048-.359.084t-.394.064l-.339.048q-.323.044-.578.143a.96.96 0 0 0-.402.279.68.68 0 0 0-.148.454q0 .4.291.602.291.203.741.203m4.986 3.231a2.9 2.9 0 0 1-.941-.151l.335-1.124q.315.091.562.088a.7.7 0 0 0 .435-.156q.191-.147.322-.494l.124-.33-2.22-6.25h1.53l1.411 4.623h.064l1.415-4.623h1.534l-2.451 6.863a2.8 2.8 0 0 1-.454.833q-.283.351-.694.534-.406.187-.972.187"/><path stroke="#00162a" stroke-width=".802" d="M459.727 113.238H118" opacity=".7"/><path fill="#00162a" d="M128.874 171.61v-8.745h.56v8.745zm1.886-6.122a1.07 1.07 0 0 0-.499-.806q-.437-.287-1.073-.287-.464 0-.813.15-.345.15-.539.414a1 1 0 0 0-.192.598q0 .28.134.481.136.198.348.332.211.13.444.215.232.081.427.133l.711.191q.272.072.608.198.338.127.645.345.31.216.513.554.201.338.201.83 0 .566-.297 1.025-.294.457-.861.727-.563.27-1.37.27-.751 0-1.301-.242a2.1 2.1 0 0 1-.861-.677 1.94 1.94 0 0 1-.352-1.008h.875q.034.397.266.656.235.257.595.383.362.123.778.123.486 0 .871-.157a1.5 1.5 0 0 0 .612-.444q.225-.288.225-.67a.83.83 0 0 0-.194-.567 1.4 1.4 0 0 0-.513-.355 5 5 0 0 0-.686-.239l-.861-.246q-.82-.236-1.298-.673t-.478-1.144q0-.588.317-1.025.321-.441.861-.683a2.9 2.9 0 0 1 1.213-.246q.676 0 1.202.242.526.24.834.656.31.417.328.946zm4.645-1.749v6.996h-.848v-6.108h-.041l-1.708 1.134v-.86l1.749-1.162zm2.012 6.996v-.615l2.309-2.528q.406-.444.669-.772.263-.33.39-.621.129-.294.129-.615a1.14 1.14 0 0 0-.177-.639 1.16 1.16 0 0 0-.478-.417 1.55 1.55 0 0 0-.684-.147q-.402 0-.703.168a1.15 1.15 0 0 0-.461.461q-.16.297-.161.697h-.806q0-.615.283-1.08.284-.464.772-.724a2.3 2.3 0 0 1 1.104-.259q.615 0 1.089.259.475.26.745.7.27.441.27.981 0 .386-.14.755a3.4 3.4 0 0 1-.478.816q-.339.448-.94 1.093l-1.571 1.681v.055h3.252v.751zm5.947 0v-6.996h.847v3.471h.082l3.143-3.471h1.106l-2.937 3.157 2.937 3.839h-1.025l-2.432-3.252-.874.984v2.268zm-10.122 37.776v-8.744h.561v8.744zm1.886-6.121a1.07 1.07 0 0 0-.499-.806q-.437-.287-1.072-.287-.465 0-.813.15-.345.15-.54.414a1 1 0 0 0-.191.597q0 .28.133.482.137.199.348.331.211.13.444.216.232.082.427.133l.711.191q.273.072.608.198.338.126.645.345.311.215.513.554.201.338.201.83 0 .567-.297 1.024-.294.459-.861.728-.563.27-1.369.27-.751 0-1.302-.243a2.1 2.1 0 0 1-.861-.676 1.94 1.94 0 0 1-.352-1.008h.875q.035.397.266.656.237.257.595.383.362.123.779.123.484 0 .871-.157.386-.16.611-.444.226-.288.226-.67a.82.82 0 0 0-.195-.567 1.4 1.4 0 0 0-.513-.355 5 5 0 0 0-.686-.239l-.861-.246q-.82-.236-1.298-.673t-.478-1.145a1.7 1.7 0 0 1 .317-1.024q.321-.441.861-.684a2.9 2.9 0 0 1 1.213-.246q.677 0 1.202.243.526.239.834.656.31.417.328.946zm4.426 5.343q-.703 0-1.243-.25a2 2 0 0 1-.837-.693 1.73 1.73 0 0 1-.297-1.011 1.84 1.84 0 0 1 .174-.82q.177-.38.485-.632.31-.256.693-.325v-.041a1.35 1.35 0 0 1-.799-.563 1.7 1.7 0 0 1-.294-.994 1.7 1.7 0 0 1 .27-.953q.273-.42.752-.663a2.4 2.4 0 0 1 1.096-.243q.608 0 1.086.243t.752.663q.276.42.28.953a1.74 1.74 0 0 1-.304.994 1.35 1.35 0 0 1-.789.563v.041q.379.069.683.325.304.252.485.632.181.375.185.82a1.77 1.77 0 0 1-.308 1.011q-.3.441-.837.693-.532.25-1.233.25m0-.752q.475 0 .82-.154a1.2 1.2 0 0 0 .533-.433q.188-.28.191-.656a1.25 1.25 0 0 0-.205-.701 1.4 1.4 0 0 0-.55-.478 1.7 1.7 0 0 0-.789-.174q-.447 0-.799.174a1.4 1.4 0 0 0-.55.478 1.24 1.24 0 0 0-.195.701q-.003.375.181.656.188.28.536.433.349.154.827.154m0-3.32q.376 0 .666-.15.294-.151.461-.421t.171-.632a1.17 1.17 0 0 0-.167-.618 1.1 1.1 0 0 0-.455-.41 1.5 1.5 0 0 0-.676-.147 1.5 1.5 0 0 0-.686.147 1.06 1.06 0 0 0-.455.41 1.14 1.14 0 0 0-.157.618q-.004.362.161.632.167.27.461.421t.676.15m3.81 3.976v-6.996h.847v3.471h.082l3.143-3.471h1.106l-2.937 3.156 2.937 3.84h-1.024l-2.433-3.252-.874.984v2.268zm-10.763 37.776v-8.745h.56v8.745zm1.886-6.122a1.07 1.07 0 0 0-.499-.806q-.437-.287-1.073-.287-.464 0-.813.15-.345.15-.539.414a1 1 0 0 0-.192.598q0 .28.133.481.138.198.349.332.212.13.444.215.232.081.427.133l.71.191q.274.072.609.198.337.127.645.345.31.216.513.554.201.338.201.83 0 .566-.297 1.025-.294.457-.861.727-.564.27-1.37.27-.752 0-1.301-.242a2.1 2.1 0 0 1-.861-.677 1.93 1.93 0 0 1-.352-1.008h.875q.033.397.266.656.236.257.594.383.362.123.779.123.486 0 .871-.157.386-.16.612-.444.225-.288.225-.67a.83.83 0 0 0-.194-.567 1.4 1.4 0 0 0-.513-.355 5 5 0 0 0-.686-.239l-.861-.246q-.82-.236-1.298-.673t-.479-1.144q0-.588.318-1.025.321-.441.861-.683a2.9 2.9 0 0 1 1.213-.246q.675 0 1.202.242.527.24.833.656.312.417.328.946zm2.021 3.812v-.696l3.074-4.865h.506v1.08h-.342l-2.323 3.675v.055h4.141v.751zm3.293 1.435v-6.996h.806v6.996zm3.166 0v-6.996h.847v3.471h.082l3.142-3.471h1.107l-2.937 3.157 2.937 3.839h-1.025l-2.432-3.252-.874.984v2.268zm2.843 36.998q-.772 0-1.315-.42-.543-.424-.83-1.227-.287-.805-.287-1.947 0-1.133.287-1.937.29-.806.833-1.229.547-.427 1.312-.427t1.308.427q.546.423.834 1.229.29.803.29 1.937 0 1.142-.287 1.947-.287.803-.83 1.227-.543.42-1.315.42m0-.752q.765 0 1.189-.738.423-.737.423-2.104 0-.909-.195-1.547-.191-.64-.553-.974a1.22 1.22 0 0 0-.864-.334q-.759 0-1.186.748-.427.744-.427 2.107 0 .91.192 1.544.191.636.55.967.361.331.871.331"/><path stroke="#00162a" stroke-dasharray="4.01 4.01" stroke-width=".802" d="M156.907 170.529h286.99m-286.99 51.342h286.99m-286.99 36.901h286.99m-286.99 24.868h286.99"/><path fill="#9ca3af" d="M299.948 292.185v-.751h5.247v.751h-2.2v6.245h-.847v-6.245zm7.251 3.088v3.157h-.806v-6.996h.806v2.569h.068q.185-.407.554-.646.372-.243.99-.243.537 0 .94.216.402.211.625.652.225.438.225 1.114v3.334h-.806v-3.28q0-.625-.324-.966-.322-.345-.892-.345a1.5 1.5 0 0 0-.71.167 1.2 1.2 0 0 0-.492.489 1.6 1.6 0 0 0-.178.778m8.184 1.011v-3.101h.806v5.247h-.806v-.888h-.055a1.7 1.7 0 0 1-.574.679q-.389.277-.984.277-.491 0-.874-.215a1.5 1.5 0 0 1-.601-.656q-.219-.441-.219-1.11v-3.334h.806v3.279q0 .574.321.916.325.34.827.341.3 0 .612-.154.313-.153.526-.471.215-.318.215-.81m-59.392 2.145-1.913-6.996h.861l1.462 5.698h.068l1.489-5.698h.957l1.489 5.698h.068l1.462-5.698h.861l-1.913 6.996h-.874l-1.544-5.575h-.055l-1.544 5.575zm9.462.109q-.759 0-1.308-.335a2.24 2.24 0 0 1-.844-.943q-.294-.607-.294-1.414t.294-1.421q.297-.618.827-.963.532-.348 1.243-.348.41 0 .81.136.399.136.727.444.328.305.523.806t.194 1.237v.342h-4.044v-.697h3.225q0-.445-.178-.793a1.34 1.34 0 0 0-1.257-.751q-.481 0-.834.239a1.57 1.57 0 0 0-.536.615 1.8 1.8 0 0 0-.188.813v.464q0 .594.205 1.008.209.41.578.625.368.212.857.212.318 0 .574-.089.26-.092.447-.273.188-.185.291-.458l.778.219a1.7 1.7 0 0 1-.413.696 2 2 0 0 1-.717.465 2.7 2.7 0 0 1-.96.164m5.38 0q-.655 0-1.158-.331a2.24 2.24 0 0 1-.786-.943q-.283-.611-.283-1.445 0-.826.283-1.435.284-.607.789-.939a2.1 2.1 0 0 1 1.169-.331q.512 0 .809.17.301.168.458.383.16.212.249.348h.069v-2.582h.806v6.996h-.779v-.806h-.096a5 5 0 0 1-.252.362q-.165.215-.468.386-.305.167-.81.167m.109-.724q.486 0 .82-.253.335-.256.509-.707a2.9 2.9 0 0 0 .174-1.049q0-.587-.17-1.028a1.5 1.5 0 0 0-.506-.69q-.335-.249-.827-.249-.512 0-.854.263a1.6 1.6 0 0 0-.509.707 2.8 2.8 0 0 0-.167.997q0 .56.171 1.018.174.454.512.724.342.267.847.267m111.225-4.632a1.07 1.07 0 0 0-.498-.806q-.437-.287-1.073-.287-.465 0-.813.15-.345.15-.54.413a1 1 0 0 0-.191.598q0 .28.133.482.137.198.349.331.212.13.444.215.232.082.427.134l.71.191q.274.072.608.198.339.126.646.345.31.215.512.553.202.34.202.83 0 .567-.297 1.025-.294.458-.861.728-.563.27-1.37.27-.752 0-1.301-.243a2.07 2.07 0 0 1-.861-.676 1.93 1.93 0 0 1-.352-1.008h.874q.035.396.267.656.236.256.594.383.362.123.779.123.486 0 .871-.158.386-.16.612-.444.225-.286.225-.669 0-.35-.195-.567a1.4 1.4 0 0 0-.512-.356 6 6 0 0 0-.687-.239l-.86-.246q-.82-.235-1.298-.673-.479-.436-.479-1.144 0-.588.318-1.025.321-.44.861-.683a2.9 2.9 0 0 1 1.212-.246q.676 0 1.203.243.526.239.833.656.312.416.328.946zm3.743 5.37q-.498 0-.905-.188a1.55 1.55 0 0 1-.645-.55q-.24-.363-.239-.875 0-.45.177-.731a1.26 1.26 0 0 1 .475-.444 2.5 2.5 0 0 1 .656-.239q.362-.082.727-.13.479-.061.776-.092.3-.034.437-.113.14-.078.14-.273v-.027q0-.505-.277-.786-.272-.28-.83-.28-.576 0-.905.253a1.5 1.5 0 0 0-.461.54l-.765-.274a1.83 1.83 0 0 1 .546-.744q.345-.27.752-.376.41-.11.806-.109.253 0 .581.061.332.059.639.243.31.183.515.556t.205.998v3.457h-.806v-.711h-.041a1.4 1.4 0 0 1-.273.366q-.191.195-.509.331-.317.137-.776.137m.123-.724q.478 0 .807-.188a1.28 1.28 0 0 0 .669-1.111v-.737q-.051.061-.225.112a4 4 0 0 1-.397.086 21 21 0 0 1-.772.102 3 3 0 0 0-.587.133q-.27.09-.437.27-.165.178-.164.485 0 .42.311.636.313.212.795.212m6.036-4.646v.683h-2.72v-.683zm-1.927-1.257h.806v5.001q0 .34.099.512a.52.52 0 0 0 .26.226q.16.054.338.054.133 0 .219-.013l.136-.028.164.724a2 2 0 0 1-.229.062 1.7 1.7 0 0 1-.372.034q-.342 0-.669-.147a1.3 1.3 0 0 1-.54-.447q-.212-.302-.212-.759zm-48.102 6.504v-6.996h4.195v.751h-3.348v2.364h3.033v.752h-3.033v3.129zm5.48 0v-5.247h.779v.792h.054q.144-.389.52-.632a1.53 1.53 0 0 1 .847-.242l.222.003q.134.004.201.011v.819a2 2 0 0 0-.188-.03 2 2 0 0 0-.304-.024q-.382 0-.683.16a1.18 1.18 0 0 0-.642 1.069v3.321zm3.579 0v-5.247h.806v5.247zm.41-6.122a.57.57 0 0 1-.407-.16.52.52 0 0 1-.167-.386q0-.226.167-.386a.57.57 0 0 1 .407-.161q.235 0 .403.161a.51.51 0 0 1 .171.386q0 .225-.171.386a.56.56 0 0 1-.403.16m-139.103-.123v-.751h5.247v.751h-2.2v6.245h-.847v-6.245zm9.038 4.099v-3.101h.806v5.247h-.806v-.888h-.055a1.7 1.7 0 0 1-.574.679q-.389.277-.984.277-.491 0-.874-.215a1.5 1.5 0 0 1-.601-.656q-.219-.441-.219-1.11v-3.334h.806v3.279q0 .574.321.916.325.34.827.341.3 0 .612-.154.313-.153.526-.471.215-.318.215-.81m4.482 2.255q-.758 0-1.308-.335a2.24 2.24 0 0 1-.844-.943q-.293-.607-.293-1.414t.293-1.421q.297-.618.827-.963.533-.348 1.243-.348.411 0 .81.136t.728.444q.327.305.522.806t.195 1.237v.342h-4.045v-.697h3.225q0-.445-.178-.793a1.34 1.34 0 0 0-.498-.55 1.4 1.4 0 0 0-.759-.201 1.44 1.44 0 0 0-.833.239 1.57 1.57 0 0 0-.536.615 1.8 1.8 0 0 0-.188.813v.464q0 .594.205 1.008.208.41.577.625.37.212.857.212.318 0 .574-.089a1.2 1.2 0 0 0 .448-.273q.188-.185.29-.458l.779.219q-.123.396-.413.696a2 2 0 0 1-.718.465 2.7 2.7 0 0 1-.96.164m-58.199-7.104h1.011l2.377 5.807h.082l2.378-5.807h1.011v6.996h-.792v-5.316h-.069l-2.186 5.316h-.765l-2.186-5.316h-.069v5.316h-.792zm10.58 7.105q-.71 0-1.247-.338a2.3 2.3 0 0 1-.833-.946q-.298-.609-.298-1.421 0-.82.298-1.432.3-.611.833-.949a2.3 2.3 0 0 1 1.247-.339q.71 0 1.243.339.537.338.834.949.3.612.3 1.432 0 .812-.3 1.421-.297.607-.834.946-.532.338-1.243.338m0-.724q.54 0 .888-.277t.516-.727q.167-.452.167-.977a2.8 2.8 0 0 0-.167-.981 1.66 1.66 0 0 0-.516-.734q-.348-.28-.888-.28t-.888.28a1.64 1.64 0 0 0-.516.734q-.167.454-.167.981 0 .525.167.977.166.45.516.727.348.277.888.277m4.414-2.542v3.157h-.806v-5.247h.779v.82h.068q.185-.4.56-.643.376-.246.97-.246.534 0 .933.219.4.215.622.656.222.436.222 1.107v3.334h-.806v-3.28q0-.618-.322-.963-.32-.348-.881-.348-.385 0-.69.167-.3.167-.475.489a1.6 1.6 0 0 0-.174.778m238.605-2.091a1.07 1.07 0 0 0-.499-.806q-.437-.287-1.073-.287-.463 0-.813.15-.345.15-.539.413a1 1 0 0 0-.192.598q0 .28.134.482.137.198.348.331.212.13.444.215.232.082.427.134l.711.191q.273.072.608.198.337.126.645.345.311.215.513.553.201.34.201.83 0 .567-.297 1.025-.294.458-.861.728-.563.27-1.37.27-.751 0-1.301-.243a2.1 2.1 0 0 1-.861-.676 1.94 1.94 0 0 1-.352-1.008h.875q.034.396.266.656.236.256.595.383.362.123.778.123.486 0 .872-.158.386-.16.611-.444.225-.286.225-.669 0-.35-.194-.567a1.44 1.44 0 0 0-.513-.356 5.5 5.5 0 0 0-.686-.239l-.861-.246q-.82-.235-1.298-.673-.478-.436-.478-1.144 0-.588.317-1.025.321-.44.861-.683a2.9 2.9 0 0 1 1.213-.246q.677 0 1.202.243.526.239.834.656.31.416.328.946zm5.505 3.101v-3.101h.807v5.247h-.807v-.888h-.054a1.7 1.7 0 0 1-.574.679q-.39.277-.984.277-.492 0-.874-.215a1.5 1.5 0 0 1-.602-.656q-.218-.441-.218-1.11v-3.334h.806v3.279q0 .574.321.916.324.34.827.341.3 0 .611-.154.315-.153.526-.471.216-.318.215-.81m3.089-1.011v3.157h-.806v-5.247h.779v.82h.068q.185-.4.561-.643.375-.245.97-.245.533 0 .932.218.4.216.622.656.222.436.222 1.107v3.334h-.806v-3.28q0-.618-.321-.963-.321-.348-.882-.348-.385 0-.69.167-.3.167-.474.489a1.6 1.6 0 0 0-.175.778"/><g filter="url(#a)"><rect width="80.189" height="21.971" x="363.188" y="79.479" fill="#fff" stroke="#00162a" stroke-width=".802" rx="4.409"/></g><path fill="#00162a" d="M370.116 93.856V86.86h1.056v6.087h3.17v.909zm6.875.116q-.499 0-.902-.185a1.5 1.5 0 0 1-.639-.543q-.232-.355-.232-.871 0-.444.171-.731a1.25 1.25 0 0 1 .461-.454q.29-.168.649-.253.358-.085.731-.13l.765-.089q.294-.038.427-.12t.133-.266v-.024q0-.448-.253-.693-.249-.246-.744-.246-.516 0-.813.229-.294.225-.407.502l-.96-.219q.17-.478.499-.772.332-.297.762-.43a3 3 0 0 1 .905-.137q.314 0 .666.075.355.072.663.267.31.195.509.557.198.359.198.932v3.485h-.998v-.718h-.041a1.5 1.5 0 0 1-.297.39 1.6 1.6 0 0 1-.509.317 2 2 0 0 1-.744.127m.222-.82q.423 0 .724-.168.303-.167.461-.437.16-.273.161-.584v-.676a.54.54 0 0 1-.212.102q-.154.045-.352.079l-.386.058-.314.04q-.298.039-.544.127a.94.94 0 0 0-.389.256.64.64 0 0 0-.143.438q0 .379.28.573.279.192.714.192m7.659-3.262-.926.163a1.1 1.1 0 0 0-.184-.338.9.9 0 0 0-.335-.263 1.2 1.2 0 0 0-.529-.102q-.434 0-.725.195-.29.19-.29.495 0 .263.195.423.195.161.628.264l.834.19q.724.168 1.079.517.356.348.356.905 0 .471-.274.84-.27.366-.755.574a2.8 2.8 0 0 1-1.117.208q-.881 0-1.438-.375a1.6 1.6 0 0 1-.683-1.076l.987-.15a.95.95 0 0 0 .379.583q.288.195.748.195.503 0 .803-.208.301-.212.301-.516a.54.54 0 0 0-.185-.413q-.18-.168-.556-.253l-.889-.195q-.733-.168-1.086-.533-.348-.365-.348-.925 0-.465.259-.814.26-.348.718-.543a2.6 2.6 0 0 1 1.048-.198q.851 0 1.339.37.489.365.646.98m3.675-1.281v.82h-2.866v-.82zm-2.098-1.257h1.022v4.963q0 .297.089.447a.46.46 0 0 0 .228.202q.144.051.311.051.123 0 .215-.017l.144-.027.184.843a2 2 0 0 1-.662.11 1.8 1.8 0 0 1-.752-.144q-.348-.15-.563-.464-.216-.315-.216-.79zm5.995 6.504 3.054-6.04v-.051h-3.532v-.905h4.625v.936l-3.043 6.06zm9.859.102a2.03 2.03 0 0 1-1.134-.325 2.2 2.2 0 0 1-.779-.932q-.28-.608-.28-1.459 0-.85.283-1.455.287-.605.786-.926a2.04 2.04 0 0 1 1.131-.32q.488 0 .785.163.3.161.465.376.167.215.259.38h.062v-2.6h1.021v6.996h-.997v-.817h-.086q-.092.168-.266.383a1.5 1.5 0 0 1-.471.375q-.301.16-.779.16m.225-.871q.44 0 .745-.232a1.43 1.43 0 0 0 .464-.653q.16-.417.161-.97a2.7 2.7 0 0 0-.157-.956 1.4 1.4 0 0 0-.461-.64 1.2 1.2 0 0 0-.752-.228q-.46 0-.768.239-.308.24-.465.652a2.7 2.7 0 0 0-.154.933q0 .525.157.946.158.42.465.666.31.243.765.243m5.359.885q-.499 0-.902-.185a1.5 1.5 0 0 1-.639-.543q-.232-.355-.232-.871 0-.444.171-.731.17-.287.461-.454.29-.168.649-.253t.731-.13l.765-.089q.294-.038.427-.12t.133-.266v-.024q0-.448-.252-.693-.25-.246-.745-.246-.516 0-.813.229a1.2 1.2 0 0 0-.406.502l-.96-.219q.17-.478.498-.772.332-.297.762-.43.43-.137.905-.137.315 0 .666.075.356.072.663.267.31.195.509.557.198.359.198.932v3.485h-.997v-.718h-.041a1.5 1.5 0 0 1-.297.39 1.6 1.6 0 0 1-.509.317 2 2 0 0 1-.745.127m.222-.82q.423 0 .724-.168a1.16 1.16 0 0 0 .622-1.021v-.676a.5.5 0 0 1-.212.102 3 3 0 0 1-.352.079l-.386.058-.314.04a2.5 2.5 0 0 0-.543.127.93.93 0 0 0-.39.256.64.64 0 0 0-.143.438q0 .379.28.573.28.192.714.192m4.185 2.671a2.1 2.1 0 0 1-.696-.113l.245-.837q.28.075.499.065a.6.6 0 0 0 .386-.164q.17-.154.301-.502l.126-.348-1.92-5.315h1.094l1.328 4.071h.055l1.329-4.071h1.096l-2.162 5.947q-.15.41-.383.693a1.5 1.5 0 0 1-.553.43 1.8 1.8 0 0 1-.745.144m8.735-5.933-.926.163a1.1 1.1 0 0 0-.184-.338.9.9 0 0 0-.335-.263 1.2 1.2 0 0 0-.529-.102q-.434 0-.725.195-.29.19-.29.495 0 .263.195.423.195.161.628.264l.834.19q.724.168 1.079.517.355.348.355.905 0 .471-.273.84-.27.366-.755.574a2.8 2.8 0 0 1-1.117.208q-.881 0-1.438-.375a1.6 1.6 0 0 1-.683-1.076l.987-.15a.95.95 0 0 0 .379.583q.288.195.748.195.503 0 .803-.208.301-.212.301-.516a.54.54 0 0 0-.185-.413q-.18-.168-.557-.253l-.888-.195q-.733-.168-1.086-.533-.348-.365-.348-.925 0-.465.259-.814.26-.348.718-.543a2.6 2.6 0 0 1 1.048-.198q.851 0 1.339.37.489.365.646.98"/><path fill="#00162a" fill-rule="evenodd" d="M428.959 88.483a.535.535 0 0 1 .756 0l2.831 2.83 2.831-2.83a.535.535 0 1 1 .756.756l-3.209 3.21a.534.534 0 0 1-.756 0l-3.209-3.21a.535.535 0 0 1 0-.756" clip-rule="evenodd"/><path fill="#00162a" d="M174.856 249.145a2.006 2.006 0 0 1 4.011 0v32.89a2.005 2.005 0 1 1-4.011 0zm43.32-33.25a2.006 2.006 0 1 1 4.011 0v66.141a2.005 2.005 0 0 1-4.011 0zm43.72-24.765a2.005 2.005 0 1 1 4.011 0v90.905a2.006 2.006 0 1 1-4.011 0zm44.122-18.763a2.006 2.006 0 1 1 4.011 0v111.674h-4.011zm38.907 39.877a2.006 2.006 0 1 1 4.011 0v69.791a2.006 2.006 0 1 1-4.011 0zm37.704-39.308a2.006 2.006 0 1 1 4.011 0v109.1a2.006 2.006 0 0 1-4.011 0zm40.511 39.542a2.006 2.006 0 0 1 4.011 0v69.558a2.005 2.005 0 1 1-4.011 0z"/><path fill="#090f1d" d="M134.092 142.755v-13.117h.84v13.117zm2.423-8.92a1.4 1.4 0 0 0-.604-1.046q-.528-.374-1.374-.374-.594 0-1.019.18a1.5 1.5 0 0 0-.651.486 1.2 1.2 0 0 0-.231.702q0 .329.149.569.154.241.415.41.261.164.579.277t.641.189l.983.246q.595.138 1.143.374.554.236.989.595.44.358.697.866.256.507.256 1.188 0 .923-.471 1.625-.472.696-1.363 1.091-.887.39-2.147.389-1.225 0-2.127-.379-.896-.379-1.404-1.106-.501-.729-.543-1.773h1.87q.041.548.339.912.297.363.773.543.482.179 1.076.179.62 0 1.087-.184.471-.19.737-.523.267-.338.272-.789a1 1 0 0 0-.241-.676 1.75 1.75 0 0 0-.661-.451 6.3 6.3 0 0 0-.984-.328l-1.193-.308q-1.297-.333-2.05-1.009-.748-.681-.748-1.809 0-.928.502-1.624.507-.697 1.378-1.081.872-.39 1.973-.39 1.117 0 1.957.39.845.384 1.328 1.071.481.681.497 1.568zm7.213 7.752q-1.024 0-1.834-.384a3.3 3.3 0 0 1-1.286-1.066 2.8 2.8 0 0 1-.502-1.547h1.844q.052.645.559 1.055.507.405 1.219.405.559 0 .995-.256.435-.257.686-.713t.246-1.04a2.1 2.1 0 0 0-.251-1.055 1.9 1.9 0 0 0-.702-.723 1.97 1.97 0 0 0-1.025-.266 2.4 2.4 0 0 0-.927.174q-.456.18-.723.471l-1.716-.281.548-5.411h6.087v1.588h-4.514l-.302 2.783h.061q.292-.344.825-.569a2.9 2.9 0 0 1 1.169-.231q.952 0 1.701.451a3.2 3.2 0 0 1 1.178 1.23q.43.783.431 1.793 0 1.04-.482 1.855-.477.81-1.327 1.276-.845.46-1.958.461m5.293-2.09v-1.512l4.453-7.035h1.261v2.152h-.769l-2.997 4.75v.082h6.215v1.563zm5.007 1.947v-2.409l.02-.676v-7.409h1.793v10.494zm6.695-1.435-.066.564q-.072.645-.257 1.311-.179.672-.379 1.235t-.323.887h-1.25l.195-.851q.128-.539.246-1.209.117-.672.159-1.363l.036-.574zm5.471 1.578q-1.107 0-1.967-.379-.857-.38-1.353-1.056a2.74 2.74 0 0 1-.528-1.562h1.927q.025.425.282.743.256.312.681.486t.953.175q.564 0 .999-.195.436-.2.682-.554.246-.353.241-.814a1.42 1.42 0 0 0-.246-.841 1.65 1.65 0 0 0-.728-.568q-.471-.205-1.137-.205h-.928v-1.466H166q.547 0 .958-.189.414-.19.651-.533.235-.349.23-.805a1.4 1.4 0 0 0-.2-.773 1.35 1.35 0 0 0-.569-.518 1.86 1.86 0 0 0-.855-.184q-.481 0-.892.174a1.63 1.63 0 0 0-.661.497 1.26 1.26 0 0 0-.266.758h-1.829a2.65 2.65 0 0 1 .507-1.547 3.26 3.26 0 0 1 1.312-1.045q.819-.38 1.839-.38 1.05 0 1.824.395.779.39 1.204 1.05.426.662.426 1.461.005.886-.523 1.486-.522.599-1.373.784v.081q1.107.154 1.696.82.594.661.589 1.645 0 .882-.502 1.578-.498.692-1.373 1.087-.871.394-1.999.394m9.281 0q-1.025 0-1.834-.384a3.27 3.27 0 0 1-1.286-1.066 2.8 2.8 0 0 1-.503-1.547h1.845q.05.645.559 1.055.507.405 1.219.405.559 0 .994-.256.435-.257.687-.713.25-.456.246-1.04a2.1 2.1 0 0 0-.251-1.055 1.9 1.9 0 0 0-.702-.723 1.97 1.97 0 0 0-1.025-.266 2.4 2.4 0 0 0-.928.174q-.456.18-.722.471l-1.717-.281.549-5.411h6.087v1.588h-4.514l-.303 2.783h.062q.292-.344.825-.569a2.9 2.9 0 0 1 1.168-.231q.952 0 1.701.451.748.446 1.179 1.23.43.783.43 1.793 0 1.04-.482 1.855-.476.81-1.327 1.276-.845.46-1.957.461m5.293-2.09v-1.512l4.453-7.035h1.26v2.152h-.768l-2.998 4.75v.082h6.215v1.563zm5.006 1.947v-2.409l.021-.676v-7.409h1.793v10.494z"/><rect width="263.251" height="217.815" x="277.348" y="150.295" fill="#fff" stroke="#00162a" stroke-width=".802" rx="11.599"/><path fill="#090f1d" d="M295.37 169.987a1.09 1.09 0 0 0-.471-.813q-.41-.291-1.068-.291-.462 0-.793.14a1.2 1.2 0 0 0-.506.378.9.9 0 0 0-.179.546q0 .255.115.443.12.188.323.318.204.128.451.216.246.087.498.147l.765.191q.462.108.889.291.43.184.769.463.342.279.542.673t.199.925q0 .717-.367 1.263-.366.541-1.06.849-.689.303-1.67.303-.952 0-1.653-.295a2.47 2.47 0 0 1-1.092-.861q-.392-.566-.423-1.379h1.455q.032.426.263.71.23.282.602.422.374.14.836.139.483 0 .845-.143.367-.148.574-.406a.98.98 0 0 0 .211-.614.78.78 0 0 0-.187-.526 1.4 1.4 0 0 0-.514-.351 5 5 0 0 0-.765-.255l-.929-.239q-1.008-.26-1.594-.785-.582-.531-.582-1.407 0-.721.391-1.263.394-.543 1.072-.841a3.7 3.7 0 0 1 1.534-.303q.869 0 1.523.303.657.299 1.032.833.375.53.386 1.219zm4.55 6.042q-.582 0-1.048-.207a1.7 1.7 0 0 1-.734-.622q-.267-.41-.267-1.012 0-.519.192-.857.19-.34.522-.542.33-.204.745-.307.418-.108.865-.155.537-.057.873-.1.335-.048.486-.144.155-.099.155-.306v-.024q0-.451-.267-.698t-.769-.247q-.53 0-.841.231a1.14 1.14 0 0 0-.414.546l-1.347-.191q.159-.558.526-.933.366-.378.896-.566a3.5 3.5 0 0 1 1.172-.191q.443 0 .881.104.438.103.801.343.363.234.582.641.223.407.223 1.016v4.097h-1.387v-.841h-.048a1.8 1.8 0 0 1-.37.479 1.8 1.8 0 0 1-.594.354 2.4 2.4 0 0 1-.833.132m.374-1.06q.435 0 .754-.172a1.27 1.27 0 0 0 .49-.462q.175-.287.175-.626v-.721a.7.7 0 0 1-.231.104 3 3 0 0 1-.359.083 10 10 0 0 1-.394.064l-.339.048a2.5 2.5 0 0 0-.578.143 1 1 0 0 0-.402.279.68.68 0 0 0-.148.455q0 .398.291.601.291.204.741.204m5.751-7.226v8.162h-1.442v-8.162zm4.194 8.282q-.921 0-1.59-.383a2.6 2.6 0 0 1-1.025-1.092q-.358-.709-.358-1.67 0-.944.358-1.657.363-.719 1.013-1.116.649-.403 1.526-.403.566 0 1.068.184.506.179.893.557.39.379.613.965.224.582.224 1.387v.442h-5.018v-.972h3.635a1.56 1.56 0 0 0-.18-.738 1.3 1.3 0 0 0-.49-.514 1.4 1.4 0 0 0-.725-.187q-.442 0-.777.215a1.5 1.5 0 0 0-.522.558q-.184.344-.188.753v.849q0 .534.196.917.195.378.546.582.35.2.821.199.314 0 .57-.088.255-.091.442-.267a1.1 1.1 0 0 0 .283-.434l1.347.151a2.1 2.1 0 0 1-.486.933q-.356.395-.909.614a3.5 3.5 0 0 1-1.267.215m8.78-4.623-1.315.143a1.1 1.1 0 0 0-.195-.374 1 1 0 0 0-.367-.283 1.3 1.3 0 0 0-.566-.108q-.45 0-.757.195-.302.196-.299.507a.53.53 0 0 0 .195.434q.204.167.67.275l1.044.223q.869.188 1.291.594.427.407.431 1.064a1.67 1.67 0 0 1-.339 1.02q-.33.439-.921.686a3.5 3.5 0 0 1-1.355.247q-1.123 0-1.809-.47a1.9 1.9 0 0 1-.817-1.32l1.407-.135a1 1 0 0 0 .406.626q.311.21.809.211.515 0 .825-.211.315-.212.315-.522a.55.55 0 0 0-.203-.435q-.2-.171-.622-.263l-1.044-.219q-.88-.183-1.303-.618-.423-.438-.419-1.108-.003-.566.307-.98.315-.418.873-.646a3.4 3.4 0 0 1 1.295-.231q1.077 0 1.694.459.622.457.769 1.239m4.169 4.503v-8.162h1.443v3.053h.059q.113-.224.315-.474a1.7 1.7 0 0 1 .55-.434q.346-.184.885-.184.71 0 1.279.363.575.359.909 1.064.339.701.338 1.722 0 1.008-.33 1.713-.331.705-.901 1.076-.57.37-1.291.371-.526 0-.873-.175a1.8 1.8 0 0 1-.558-.423 2.7 2.7 0 0 1-.323-.474h-.083v.964zm1.415-3.06q0 .593.167 1.04.171.446.49.697.323.247.781.247.478 0 .801-.255.324-.26.487-.705.167-.45.167-1.024 0-.57-.163-1.013a1.5 1.5 0 0 0-.487-.693q-.322-.25-.805-.251-.462 0-.785.243a1.5 1.5 0 0 0-.49.681 3 3 0 0 0-.163 1.033m6.278 5.356a3 3 0 0 1-.546-.048 2 2 0 0 1-.394-.104l.335-1.123q.315.092.562.087a.7.7 0 0 0 .434-.155q.19-.148.323-.494l.123-.331-2.219-6.249h1.53l1.411 4.623h.063l1.415-4.623h1.534l-2.45 6.863a2.8 2.8 0 0 1-.455.832q-.283.351-.693.534-.406.188-.973.188m10.115-2.172q-.582 0-1.048-.207a1.7 1.7 0 0 1-.733-.622q-.267-.41-.267-1.012 0-.519.191-.857.19-.34.522-.542.33-.204.745-.307.418-.108.865-.155.538-.057.873-.1.335-.048.486-.144.156-.099.155-.306v-.024q0-.451-.267-.698t-.769-.247q-.53 0-.841.231a1.15 1.15 0 0 0-.414.546l-1.347-.191q.159-.558.526-.933.366-.378.897-.566a3.4 3.4 0 0 1 1.171-.191q.443 0 .881.104.438.103.801.343.363.234.582.641.223.407.223 1.016v4.097h-1.387v-.841h-.048a1.8 1.8 0 0 1-.37.479 1.8 1.8 0 0 1-.594.354 2.4 2.4 0 0 1-.833.132m.375-1.06q.433 0 .753-.172a1.27 1.27 0 0 0 .49-.462q.175-.287.175-.626v-.721a.7.7 0 0 1-.231.104 3 3 0 0 1-.358.083 10 10 0 0 1-.395.064l-.339.048a2.5 2.5 0 0 0-.578.143 1 1 0 0 0-.402.279.7.7 0 0 0-.148.455q0 .398.291.601.29.204.742.204m6.978 1.056q-.917 0-1.574-.403a2.7 2.7 0 0 1-1.009-1.112q-.35-.712-.35-1.642 0-.932.358-1.645a2.67 2.67 0 0 1 1.013-1.116q.657-.403 1.554-.403.745 0 1.319.275.577.271.921.769.342.495.39 1.156h-1.379a1.3 1.3 0 0 0-.398-.737q-.311-.299-.833-.299-.442 0-.777.239a1.5 1.5 0 0 0-.522.678q-.184.442-.184 1.06 0 .625.184 1.076.183.446.514.689.335.239.785.239.318 0 .57-.119a1.15 1.15 0 0 0 .426-.355q.171-.23.235-.562h1.379a2.4 2.4 0 0 1-.382 1.152 2.3 2.3 0 0 1-.901.781q-.57.279-1.339.279m7.892 2.176v-3.26h-.06a2.5 2.5 0 0 1-.323.474 1.8 1.8 0 0 1-.558.423q-.346.175-.873.175-.721 0-1.291-.371-.57-.37-.901-1.076-.33-.705-.33-1.713 0-1.02.334-1.722.339-.705.913-1.064a2.34 2.34 0 0 1 1.279-.363q.538 0 .885.184.347.179.55.434.203.25.315.474h.088v-1.012h1.418v8.417zm-1.411-3.372q.458 0 .781-.247.323-.251.49-.697a3 3 0 0 0 .168-1.04q0-.594-.168-1.033a1.47 1.47 0 0 0-.486-.681 1.26 1.26 0 0 0-.785-.243q-.483 0-.805.251a1.5 1.5 0 0 0-.486.693 2.9 2.9 0 0 0-.164 1.013q0 .573.164 1.024a1.6 1.6 0 0 0 .49.705q.327.255.801.255m8.241-1.498v-3.547h1.443v6.121h-1.399v-1.088h-.064a1.84 1.84 0 0 1-.681.841q-.47.327-1.16.327-.602 0-1.064-.267a1.86 1.86 0 0 1-.717-.785q-.26-.519-.259-1.252v-3.897h1.443v3.674q0 .582.318.925.32.343.837.343.32 0 .618-.156.299-.155.49-.462.195-.31.195-.777m2.927 2.574v-6.121h1.442v6.121zm.725-6.99a.84.84 0 0 1-.59-.227.73.73 0 0 1-.247-.554q0-.327.247-.554a.83.83 0 0 1 .59-.231q.347 0 .59.231a.73.73 0 0 1 .247.554q0 .323-.247.554a.84.84 0 0 1-.59.227m7.039 2.487-1.315.143a1.1 1.1 0 0 0-.196-.374 1 1 0 0 0-.366-.283 1.3 1.3 0 0 0-.566-.108q-.45 0-.757.195-.303.196-.299.507a.53.53 0 0 0 .195.434q.204.167.67.275l1.044.223q.868.188 1.291.594.426.407.43 1.064a1.66 1.66 0 0 1-.338 1.02q-.332.439-.921.686a3.5 3.5 0 0 1-1.355.247q-1.124 0-1.809-.47a1.9 1.9 0 0 1-.817-1.32l1.407-.135a1 1 0 0 0 .406.626q.31.21.809.211.514 0 .825-.211.315-.212.315-.522a.55.55 0 0 0-.203-.435q-.2-.171-.622-.263l-1.044-.219q-.881-.183-1.303-.618-.423-.438-.419-1.108-.004-.566.307-.98.315-.418.873-.646.561-.231 1.295-.231 1.076 0 1.694.459.622.457.769 1.239m1.321 4.503v-6.121h1.443v6.121zm.725-6.99a.84.84 0 0 1-.589-.227.73.73 0 0 1-.248-.554q0-.327.248-.554a.83.83 0 0 1 .589-.231q.347 0 .59.231a.72.72 0 0 1 .247.554q0 .323-.247.554a.84.84 0 0 1-.59.227m5.258.869v1.116h-3.519v-1.116zm-2.65-1.467h1.442v5.747q0 .291.088.446.092.151.239.208a.9.9 0 0 0 .327.055q.136 0 .247-.019.116-.021.175-.036l.243 1.127a3 3 0 0 1-.33.088 2.7 2.7 0 0 1-.518.056 2.4 2.4 0 0 1-.977-.163 1.53 1.53 0 0 1-.689-.566q-.252-.382-.247-.957zm3.856 7.588v-6.121h1.443v6.121zm.726-6.99a.84.84 0 0 1-.59-.227.73.73 0 0 1-.247-.554q0-.327.247-.554a.83.83 0 0 1 .59-.231q.347 0 .59.231a.73.73 0 0 1 .247.554q0 .323-.247.554a.84.84 0 0 1-.59.227m4.871 7.11q-.897 0-1.555-.395a2.7 2.7 0 0 1-1.02-1.104q-.358-.709-.358-1.658 0-.948.358-1.661a2.7 2.7 0 0 1 1.02-1.108q.658-.395 1.555-.395t1.554.395 1.016 1.108q.363.713.363 1.661t-.363 1.658a2.65 2.65 0 0 1-1.016 1.104q-.657.395-1.554.395m.008-1.156q.486 0 .813-.267.327-.271.486-.725.163-.455.163-1.012 0-.562-.163-1.017a1.6 1.6 0 0 0-.486-.729q-.327-.271-.813-.271-.498 0-.829.271a1.64 1.64 0 0 0-.49.729 3 3 0 0 0-.16 1.017q0 .557.16 1.012.163.454.49.725.33.267.829.267m5.592-2.55v3.586h-1.443v-6.121h1.379v1.04h.072q.211-.514.674-.817.465-.303 1.151-.303.635 0 1.104.271.474.272.733.785.263.514.26 1.248v3.897h-1.443v-3.674q0-.613-.319-.961-.315-.346-.873-.346-.378 0-.673.167a1.17 1.17 0 0 0-.459.474 1.6 1.6 0 0 0-.163.754m10.85 3.706q-.917 0-1.574-.403a2.7 2.7 0 0 1-1.009-1.112q-.35-.712-.35-1.642 0-.932.358-1.645.36-.719 1.013-1.116.657-.403 1.554-.403.746 0 1.319.275.577.271.921.769.342.495.39 1.156h-1.379a1.3 1.3 0 0 0-.398-.737q-.31-.299-.833-.299-.442 0-.777.239a1.54 1.54 0 0 0-.522.678q-.184.442-.184 1.06 0 .625.184 1.076.183.446.514.689.335.239.785.239.318 0 .57-.119a1.15 1.15 0 0 0 .426-.355q.171-.23.235-.562h1.379a2.4 2.4 0 0 1-.382 1.152 2.3 2.3 0 0 1-.901.781q-.57.279-1.339.279m5.25-3.706v3.586h-1.443v-8.162h1.411v3.081h.071q.216-.518.666-.817.454-.303 1.156-.303.637 0 1.112.267.474.267.733.781.263.515.263 1.256v3.897h-1.443v-3.674q0-.618-.319-.961-.315-.346-.884-.346-.383 0-.686.167a1.17 1.17 0 0 0-.47.474 1.6 1.6 0 0 0-.167.754m7.201 3.71q-.582 0-1.048-.207a1.7 1.7 0 0 1-.733-.622q-.268-.41-.268-1.012 0-.519.192-.857.19-.34.522-.542.33-.204.745-.307.418-.108.865-.155.538-.057.873-.1.335-.048.486-.144.155-.099.155-.306v-.024q0-.451-.267-.698t-.769-.247q-.53 0-.841.231a1.15 1.15 0 0 0-.414.546l-1.347-.191q.159-.558.526-.933.366-.378.896-.566a3.5 3.5 0 0 1 1.172-.191q.443 0 .881.104.438.103.801.343.363.234.582.641.223.407.223 1.016v4.097h-1.387v-.841h-.048a1.8 1.8 0 0 1-.37.479 1.8 1.8 0 0 1-.594.354 2.4 2.4 0 0 1-.833.132m.375-1.06q.434 0 .753-.172a1.27 1.27 0 0 0 .49-.462q.175-.287.175-.626v-.721a.7.7 0 0 1-.231.104 3 3 0 0 1-.359.083 10 10 0 0 1-.394.064l-.339.048a2.5 2.5 0 0 0-.578.143 1 1 0 0 0-.402.279.7.7 0 0 0-.148.455q0 .398.291.601.29.204.742.204m5.75-2.65v3.586h-1.442v-6.121h1.379v1.04h.071q.212-.514.674-.817.466-.303 1.152-.303.633 0 1.103.271.475.272.734.785.262.514.259 1.248v3.897h-1.443v-3.674q0-.613-.319-.961-.315-.346-.873-.346-.378 0-.673.167a1.16 1.16 0 0 0-.458.474 1.6 1.6 0 0 0-.164.754m6.839 0v3.586h-1.443v-6.121h1.379v1.04h.072a1.75 1.75 0 0 1 .673-.817q.466-.303 1.152-.303.635 0 1.104.271.474.272.733.785.264.514.259 1.248v3.897h-1.442v-3.674q0-.613-.319-.961-.315-.346-.873-.346-.379 0-.673.167a1.17 1.17 0 0 0-.459.474 1.6 1.6 0 0 0-.163.754m8.106 3.706q-.921 0-1.59-.383a2.6 2.6 0 0 1-1.024-1.092q-.359-.709-.359-1.67 0-.944.359-1.657a2.7 2.7 0 0 1 1.012-1.116q.65-.403 1.526-.403.567 0 1.068.184.506.179.893.557.39.379.614.965.223.582.223 1.387v.442h-5.017v-.972h3.634a1.56 1.56 0 0 0-.179-.738 1.3 1.3 0 0 0-.49-.514 1.4 1.4 0 0 0-.726-.187q-.442 0-.777.215a1.5 1.5 0 0 0-.522.558q-.183.344-.187.753v.849q0 .534.195.917.195.378.546.582.35.2.821.199.315 0 .57-.088.255-.091.442-.267a1.1 1.1 0 0 0 .283-.434l1.347.151a2.1 2.1 0 0 1-.486.933 2.36 2.36 0 0 1-.909.614 3.5 3.5 0 0 1-1.267.215m5.385-8.282v8.162h-1.443v-8.162z"/><g filter="url(#b)"><path stroke="#00162a" stroke-width=".802" d="M540.999 197.387H276.872" opacity=".7"/></g><circle cx="510.701" cy="173.56" r="1.627" fill="#f4f4f4" stroke="#00162a"/><circle cx="518.163" cy="173.56" r="1.627" fill="#f4f4f4" stroke="#00162a"/><circle cx="525.624" cy="173.56" r="1.627" fill="#f4f4f4" stroke="#00162a"/><path fill="#f2f4f8" d="M406.488 282.748c0 32.114-26.033 58.146-58.146 58.146s-58.146-26.032-58.146-58.146c0-32.113 26.033-58.146 58.146-58.146s58.146 26.033 58.146 58.146m-110.478 0c0 28.902 23.43 52.332 52.332 52.332s52.331-23.43 52.331-52.332c0-28.901-23.429-52.331-52.331-52.331s-52.332 23.43-52.332 52.331"/><path fill="#00162a" fill-opacity=".49" d="M406.488 282.748a58.15 58.15 0 0 1-62.708 57.967 58.145 58.145 0 0 1-13.406-113.267l1.796 5.53a52.332 52.332 0 1 0 68.503 49.77z"/><path fill="#002d57" d="M389.457 241.633a58.14 58.14 0 0 1 15.424 27.541 58.147 58.147 0 0 1-47.443 71.005l-.91-5.744a52.3 52.3 0 0 0 25.8-11.894 52.32 52.32 0 0 0 16.899-52.009 52.34 52.34 0 0 0-13.881-24.788z"/><path fill="#9ca3af" d="M433.986 251.243v-6.996h2.494q.816 0 1.353.297.536.297.802.813.267.512.267 1.155 0 .645-.27 1.161a1.95 1.95 0 0 1-.806.813q-.537.297-1.35.297h-1.714v-.895h1.619q.516 0 .837-.177.321-.182.471-.492.15-.311.15-.707 0-.397-.15-.704a1.07 1.07 0 0 0-.475-.482q-.32-.174-.847-.174h-1.325v6.091zm7.093-3.116v3.116h-1.022v-6.996h1.008v2.603h.065q.185-.424.563-.673.38-.25.991-.25.54 0 .943.223.406.221.628.662.226.438.226 1.093v3.338h-1.021v-3.215q0-.577-.298-.895-.297-.321-.826-.321-.363 0-.649.154a1.1 1.1 0 0 0-.448.451q-.16.294-.16.71m6.975 3.222q-.738 0-1.288-.339a2.27 2.27 0 0 1-.854-.946q-.304-.608-.304-1.421 0-.816.304-1.428.304-.611.854-.949.55-.339 1.288-.339t1.288.339q.55.338.854.949.303.612.304 1.428 0 .813-.304 1.421a2.3 2.3 0 0 1-.854.946q-.55.339-1.288.339m.003-.858q.478 0 .793-.253.314-.252.464-.673a2.7 2.7 0 0 0 .154-.925 2.7 2.7 0 0 0-.154-.923 1.5 1.5 0 0 0-.464-.679q-.315-.257-.793-.257-.481 0-.799.257a1.53 1.53 0 0 0-.468.679q-.15.421-.15.923 0 .505.15.925.155.421.468.673.318.253.799.253m4.604-2.364v3.116h-1.021v-5.247h.98v.854h.065q.182-.417.567-.67.39-.252.981-.253.536 0 .939.226.403.222.625.663.222.44.222 1.089v3.338h-1.021v-3.215q0-.57-.297-.891-.298-.325-.817-.325-.355 0-.632.154a1.1 1.1 0 0 0-.434.451 1.5 1.5 0 0 0-.157.71m6.989 3.222q-.776 0-1.335-.332a2.24 2.24 0 0 1-.861-.939q-.301-.608-.301-1.425 0-.806.301-1.421.304-.615.847-.96.546-.345 1.277-.345.445 0 .861.147a2.07 2.07 0 0 1 1.271 1.278q.191.499.191 1.213v.362h-4.171v-.766h3.17q0-.402-.163-.713a1.25 1.25 0 0 0-.462-.496 1.3 1.3 0 0 0-.69-.181q-.43 0-.751.212a1.4 1.4 0 0 0-.492.547 1.6 1.6 0 0 0-.171.727v.598q0 .526.185.895.188.369.522.564.335.19.782.191.291 0 .53-.082a1.1 1.1 0 0 0 .68-.666l.966.174a1.75 1.75 0 0 1-.416.748 2 2 0 0 1-.748.495 2.8 2.8 0 0 1-1.022.175m9.862-4.072-.926.164a1.1 1.1 0 0 0-.184-.338.9.9 0 0 0-.335-.263 1.2 1.2 0 0 0-.529-.103q-.435 0-.725.195-.29.19-.29.495 0 .263.195.424t.628.263l.834.191q.724.167 1.079.516.356.348.356.905 0 .471-.274.84-.27.366-.755.574a2.8 2.8 0 0 1-1.117.209q-.881 0-1.438-.376a1.6 1.6 0 0 1-.683-1.076l.987-.151a.95.95 0 0 0 .379.585q.288.194.748.194.503 0 .803-.208.301-.212.301-.516a.54.54 0 0 0-.185-.413q-.18-.168-.556-.253l-.889-.195q-.733-.167-1.086-.533-.348-.365-.348-.925 0-.465.259-.813a1.7 1.7 0 0 1 .718-.543 2.6 2.6 0 0 1 1.048-.199q.851 0 1.339.369.489.366.646.981m2.752 4.082q-.499 0-.901-.185a1.5 1.5 0 0 1-.639-.543q-.232-.355-.232-.871 0-.444.17-.731.171-.287.462-.454.29-.168.649-.253.358-.085.731-.13l.765-.089q.294-.037.427-.119.133-.083.133-.267v-.023q0-.448-.253-.694-.249-.246-.744-.246-.516 0-.813.229-.294.226-.407.502l-.96-.218q.17-.479.499-.772.332-.298.762-.431a3 3 0 0 1 1.571-.061q.356.07.663.266.31.194.509.557.198.359.198.932v3.485h-.998v-.718h-.041a1.5 1.5 0 0 1-.297.39 1.6 1.6 0 0 1-.509.317 2 2 0 0 1-.745.127m.222-.82q.424 0 .725-.167.303-.168.461-.438.16-.273.16-.584v-.676a.54.54 0 0 1-.211.102q-.154.045-.352.079l-.386.058-.315.041a2.5 2.5 0 0 0-.543.126.94.94 0 0 0-.389.257.64.64 0 0 0-.144.437q0 .38.281.574.28.19.713.191m4.75-6.292v6.996h-1.022v-6.996zm3.635 7.102q-.775 0-1.336-.332a2.25 2.25 0 0 1-.861-.939q-.3-.608-.3-1.425 0-.806.3-1.421.305-.615.848-.96.546-.345 1.277-.345.444 0 .861.147t.748.462q.331.313.523.816.19.499.191 1.213v.362h-4.171v-.766h3.17q0-.402-.164-.713a1.24 1.24 0 0 0-1.151-.677q-.43 0-.751.212a1.4 1.4 0 0 0-.492.547 1.6 1.6 0 0 0-.171.727v.598q0 .526.184.895.189.369.523.564.335.19.782.191.29 0 .53-.082a1.1 1.1 0 0 0 .679-.666l.967.174a1.74 1.74 0 0 1-.417.748 2 2 0 0 1-.748.495 2.8 2.8 0 0 1-1.021.175m7.316-4.072-.926.164a1.1 1.1 0 0 0-.184-.338.9.9 0 0 0-.335-.263 1.2 1.2 0 0 0-.529-.103q-.435 0-.725.195-.29.19-.29.495 0 .263.195.424t.628.263l.834.191q.724.167 1.079.516.356.348.356.905 0 .471-.274.84-.27.366-.755.574a2.8 2.8 0 0 1-1.117.209q-.881 0-1.438-.376a1.6 1.6 0 0 1-.683-1.076l.987-.151a.95.95 0 0 0 .379.585q.288.194.748.194.503 0 .803-.208.301-.212.301-.516a.54.54 0 0 0-.185-.413q-.18-.168-.556-.253l-.889-.195q-.733-.167-1.086-.533-.348-.365-.348-.925 0-.465.259-.813a1.7 1.7 0 0 1 .718-.543 2.6 2.6 0 0 1 1.048-.199q.851 0 1.339.369.489.366.646.981M329.38 301.69q-.82 0-1.466-.283a2.5 2.5 0 0 1-1.017-.785 2.1 2.1 0 0 1-.398-1.172h1.251q.024.363.243.63.224.263.582.406.359.144.797.144.483 0 .853-.168.375-.167.586-.466.211-.303.211-.697 0-.41-.211-.722a1.4 1.4 0 0 0-.61-.494q-.399-.179-.964-.179h-.69V296.9h.69q.454 0 .797-.164.347-.163.542-.454.195-.295.195-.69 0-.378-.171-.657a1.15 1.15 0 0 0-.479-.442 1.54 1.54 0 0 0-.725-.16 1.9 1.9 0 0 0-.745.148 1.36 1.36 0 0 0-.558.414 1.06 1.06 0 0 0-.231.642h-1.192q.02-.661.391-1.164.374-.502.988-.785a3.2 3.2 0 0 1 1.363-.283q.785 0 1.355.307.575.302.885.809.315.506.311 1.108.003.686-.383 1.163a1.85 1.85 0 0 1-1.02.642v.064q.813.123 1.259.645.45.522.447 1.296.003.673-.375 1.207-.375.534-1.024.841-.65.303-1.487.303m4.392-.112v-.892l2.762-2.862q.442-.466.729-.817.291-.355.434-.673.144-.32.144-.678 0-.407-.191-.701a1.25 1.25 0 0 0-.522-.458 1.66 1.66 0 0 0-.746-.164q-.438 0-.765.179-.327.18-.502.507a1.6 1.6 0 0 0-.175.765h-1.176q0-.745.343-1.303t.94-.865a2.9 2.9 0 0 1 1.359-.311q.77 0 1.355.307.59.303.921.829.33.522.331 1.179 0 .455-.172.889-.167.435-.586.969-.419.53-1.163 1.287l-1.622 1.697v.06h3.674v1.056zm14.456-4.627-1.08.192a1.3 1.3 0 0 0-.216-.395 1.1 1.1 0 0 0-.39-.307 1.4 1.4 0 0 0-.618-.119q-.506 0-.845.227-.339.223-.339.578 0 .306.228.494.226.187.733.307l.972.223q.845.195 1.26.602.414.406.414 1.056a1.6 1.6 0 0 1-.319.98q-.315.427-.88.67-.563.243-1.304.243-1.028 0-1.677-.438-.65-.443-.798-1.256l1.152-.175q.108.45.443.681.335.227.872.227.586 0 .937-.243.351-.247.351-.601a.63.63 0 0 0-.216-.483q-.21-.195-.649-.295l-1.036-.227q-.858-.195-1.268-.621-.406-.428-.406-1.08 0-.543.303-.949a2 2 0 0 1 .837-.634 3.05 3.05 0 0 1 1.223-.231q.992 0 1.562.431.57.426.754 1.143m3.211 4.763q-.582 0-1.052-.215a1.8 1.8 0 0 1-.746-.634q-.27-.414-.271-1.016 0-.519.2-.853.199-.335.538-.53a2.8 2.8 0 0 1 .757-.295 8 8 0 0 1 .853-.151l.892-.104q.343-.044.498-.14.156-.095.156-.31v-.028q0-.522-.295-.809-.291-.288-.869-.287-.601 0-.948.267-.343.262-.475.586l-1.119-.255q.198-.559.581-.901.387-.347.889-.502a3.5 3.5 0 0 1 1.056-.16q.368 0 .777.088.415.084.774.311.362.227.593.649.231.419.231 1.088v4.065h-1.163v-.837h-.048a1.7 1.7 0 0 1-.347.455 1.8 1.8 0 0 1-.594.37 2.3 2.3 0 0 1-.868.148m.259-.957q.494 0 .845-.195.354-.195.538-.51.187-.32.187-.681v-.79a.6.6 0 0 1-.247.12q-.18.052-.411.092-.231.036-.45.067l-.367.048a3 3 0 0 0-.633.148q-.283.103-.455.299-.167.19-.167.51 0 .442.327.669.326.223.833.223m5.54-7.34v8.161h-1.191v-8.161zm4.242 8.285q-.905 0-1.559-.387a2.6 2.6 0 0 1-1.004-1.096q-.351-.709-.351-1.661 0-.94.351-1.658.354-.718.988-1.12.638-.403 1.491-.403.518 0 1.004.172.486.17.873.538.387.367.61.952.223.582.223 1.415v.422h-4.866v-.892h3.698q0-.47-.191-.833a1.45 1.45 0 0 0-1.343-.789q-.502 0-.877.247a1.66 1.66 0 0 0-.574.637 1.84 1.84 0 0 0-.199.849v.698q0 .614.215 1.044.219.43.61.657.39.224.912.224.339 0 .618-.096a1.3 1.3 0 0 0 .482-.295q.204-.195.311-.482l1.128.203a2.04 2.04 0 0 1-.486.873q-.346.37-.873.578a3.3 3.3 0 0 1-1.191.203m8.535-4.751-1.08.192a1.3 1.3 0 0 0-.215-.395 1.1 1.1 0 0 0-.391-.307 1.4 1.4 0 0 0-.618-.119q-.506 0-.844.227-.339.223-.339.578a.61.61 0 0 0 .227.494q.227.187.733.307l.973.223q.845.195 1.259.602.415.406.415 1.056 0 .55-.319.98-.315.427-.881.67-.562.243-1.303.243-1.029 0-1.678-.438-.65-.443-.797-1.256l1.152-.175q.107.45.442.681.335.227.873.227.586 0 .936-.243.351-.247.351-.601a.63.63 0 0 0-.215-.483q-.211-.195-.65-.295l-1.036-.227q-.857-.195-1.267-.621-.407-.428-.407-1.08 0-.543.303-.949a2 2 0 0 1 .837-.634 3.1 3.1 0 0 1 1.224-.231q.992 0 1.562.431.57.426.753 1.143"/><circle cx="426.8" cy="248.254" r="3.209" fill="#00162a"/><path fill="#090f1d" d="M427.906 237.425v-13.117h.84v13.117zm2.423-8.921a1.4 1.4 0 0 0-.604-1.045q-.528-.375-1.374-.374-.594 0-1.019.179a1.5 1.5 0 0 0-.651.487 1.2 1.2 0 0 0-.231.702q0 .327.149.569.153.24.415.409.261.165.579.277t.64.19l.984.246q.594.138 1.143.374.553.236.989.594.44.359.697.866t.256 1.189q0 .922-.472 1.624-.47.697-1.363 1.091-.885.39-2.146.39-1.226 0-2.127-.379-.897-.38-1.404-1.107-.502-.728-.543-1.773h1.87q.041.549.338.912.298.364.774.543.482.18 1.076.18.621 0 1.086-.185.472-.189.738-.523.266-.338.272-.789a1 1 0 0 0-.241-.676 1.8 1.8 0 0 0-.661-.451 6.4 6.4 0 0 0-.984-.328l-1.194-.307q-1.296-.333-2.049-1.01-.748-.681-.748-1.808 0-.928.502-1.625.507-.696 1.378-1.081.871-.389 1.973-.389 1.117 0 1.957.389.846.384 1.327 1.071.482.681.497 1.568zm3.565 7.609v-1.373l3.643-3.572q.523-.527.871-.937.35-.41.523-.794a2 2 0 0 0 .174-.82q0-.497-.225-.851a1.5 1.5 0 0 0-.62-.553 2 2 0 0 0-.897-.195q-.517 0-.907.215-.39.21-.605.6-.21.39-.21.927h-1.808q0-.999.456-1.737a3.07 3.07 0 0 1 1.255-1.142q.804-.405 1.845-.405 1.055 0 1.854.394.8.395 1.24 1.081.447.687.446 1.568 0 .59-.225 1.158-.226.57-.794 1.261-.564.692-1.584 1.675l-1.808 1.84v.072h4.57v1.588zm12.605-10.637q.754.005 1.465.266.718.256 1.292.841.573.579.912 1.552.338.974.338 2.408.005 1.353-.287 2.419-.286 1.06-.825 1.793a3.64 3.64 0 0 1-1.296 1.117 3.7 3.7 0 0 1-1.707.385q-.993 0-1.762-.39a3.3 3.3 0 0 1-1.235-1.066 3.4 3.4 0 0 1-.579-1.547h1.87q.144.625.584.994.445.363 1.122.364 1.092 0 1.681-.948.59-.948.589-2.634h-.072q-.25.451-.65.779a3 3 0 0 1-.907.497q-.502.174-1.066.174a3.2 3.2 0 0 1-1.66-.44 3.2 3.2 0 0 1-1.163-1.21q-.425-.768-.431-1.757 0-1.025.472-1.84.476-.82 1.327-1.291.85-.477 1.988-.466m.005 1.537q-.554 0-.999.272-.44.266-.697.727a2.1 2.1 0 0 0-.251 1.02q.005.558.251 1.014.251.456.682.723.435.266.994.266.414 0 .773-.159t.625-.44q.271-.287.421-.651.154-.364.148-.769 0-.537-.256-.994a1.97 1.97 0 0 0-.692-.732 1.8 1.8 0 0 0-.999-.277m7.498 7.665-.067.564q-.072.645-.256 1.312-.18.67-.379 1.235a49 49 0 0 1-.323.886h-1.25l.194-.851q.129-.537.246-1.209.118-.671.159-1.363l.036-.574zm5.578 1.579q-1.024 0-1.834-.385a3.27 3.27 0 0 1-1.286-1.066 2.8 2.8 0 0 1-.502-1.547h1.844q.051.645.559 1.056.507.404 1.219.404.56 0 .994-.256a1.83 1.83 0 0 0 .687-.712 2.1 2.1 0 0 0 .246-1.04 2.1 2.1 0 0 0-.251-1.056 1.9 1.9 0 0 0-.702-.722 1.96 1.96 0 0 0-1.025-.267 2.4 2.4 0 0 0-.927.175 1.9 1.9 0 0 0-.723.471l-1.716-.282.548-5.411h6.087v1.589h-4.514l-.302 2.782h.061q.293-.343.825-.569.533-.23 1.168-.23.954 0 1.701.451a3.2 3.2 0 0 1 1.179 1.229q.43.785.43 1.794 0 1.04-.481 1.854-.477.81-1.327 1.276-.846.462-1.958.462m5.867-.144 4.463-8.834v-.071h-5.18v-1.589h7.148v1.625l-4.458 8.869zm7.049-1.947v-1.512l4.453-7.035h1.261v2.152h-.769l-2.997 4.75v.082h6.215v1.563zm5.006 1.947v-2.408l.021-.677v-7.409h1.793v10.494z"/><path fill="#9ca3af" d="M433.986 296.167v-6.996h4.338v.909h-3.282v2.132h2.972v.905h-2.972v3.05zm7.38.106q-.739 0-1.288-.338a2.3 2.3 0 0 1-.854-.946q-.304-.608-.304-1.421 0-.817.304-1.428.303-.611.854-.95t1.288-.338 1.287.338q.55.339.854.95.304.61.304 1.428 0 .813-.304 1.421-.303.607-.854.946t-1.287.338m.003-.857q.479 0 .792-.253a1.5 1.5 0 0 0 .465-.673q.153-.42.154-.926 0-.502-.154-.922a1.5 1.5 0 0 0-.465-.68q-.314-.256-.792-.256-.482 0-.799.256-.315.257-.468.68-.151.42-.151.922 0 .506.151.926a1.5 1.5 0 0 0 .468.673q.317.253.799.253m3.582.751v-5.247h.988v.834h.054q.144-.424.506-.666.366-.246.827-.246a4 4 0 0 1 .433.024v.977a2 2 0 0 0-.218-.038 2 2 0 0 0-.315-.024q-.362 0-.645.154a1.14 1.14 0 0 0-.608 1.028v3.204zm3.692 0v-5.247h.981v.854h.064q.165-.433.537-.676.372-.246.891-.246.526 0 .882.246.358.246.529.676h.055a1.47 1.47 0 0 1 .598-.669q.41-.253.977-.253.713 0 1.164.448.455.447.455 1.349v3.518h-1.022v-3.423q0-.532-.29-.772a1.06 1.06 0 0 0-.693-.239q-.499 0-.776.308-.277.303-.277.782v3.344H451.7v-3.487q0-.428-.266-.687-.267-.26-.693-.26a1 1 0 0 0-.537.154q-.242.15-.393.42-.146.27-.146.625v3.235zm14.979-3.966-.926.164a1.1 1.1 0 0 0-.184-.338.9.9 0 0 0-.335-.263 1.2 1.2 0 0 0-.529-.102q-.435 0-.724.194-.291.192-.291.496 0 .262.195.423t.628.263l.834.192q.725.167 1.079.515.356.349.356.906 0 .471-.274.84-.27.366-.755.574a2.8 2.8 0 0 1-1.117.208q-.881 0-1.438-.376-.557-.378-.683-1.076l.987-.15a.95.95 0 0 0 .379.584q.287.195.749.195.501 0 .802-.208.301-.213.301-.516a.54.54 0 0 0-.185-.414q-.18-.166-.556-.252l-.888-.195q-.735-.168-1.087-.533-.348-.365-.348-.926 0-.464.259-.813.26-.348.718-.543a2.6 2.6 0 0 1 1.048-.198q.852 0 1.34.369.488.365.645.98m2.753 4.082q-.5 0-.902-.184a1.5 1.5 0 0 1-.639-.543q-.232-.355-.232-.871 0-.444.17-.731a1.26 1.26 0 0 1 .462-.455q.29-.167.649-.252.358-.086.731-.13l.765-.089q.294-.037.427-.12.133-.081.133-.266v-.024q0-.447-.253-.693-.249-.246-.744-.246-.516 0-.813.229-.294.225-.407.502l-.96-.219q.17-.478.499-.772.332-.298.762-.43.43-.137.905-.137.313 0 .666.075.355.072.663.267.31.194.509.556.198.36.198.933v3.484h-.998v-.717h-.041a1.5 1.5 0 0 1-.297.389 1.6 1.6 0 0 1-.509.318 2 2 0 0 1-.744.126m.222-.819q.423 0 .724-.168.303-.167.461-.437.16-.273.16-.584v-.677a.5.5 0 0 1-.211.103 3 3 0 0 1-.352.078l-.386.059-.314.041q-.298.038-.544.126a.94.94 0 0 0-.389.256.64.64 0 0 0-.143.437q0 .38.28.574.279.192.714.192m4.749-6.293v6.996h-1.022v-6.996zm3.635 7.102q-.775 0-1.336-.331a2.24 2.24 0 0 1-.86-.94q-.301-.608-.301-1.424 0-.806.301-1.421.303-.615.847-.96.546-.345 1.277-.345.444 0 .861.147t.748.461.523.816q.19.5.191 1.213v.362h-4.171v-.765h3.17q0-.404-.164-.714a1.24 1.24 0 0 0-1.151-.676q-.43 0-.751.212a1.4 1.4 0 0 0-.492.546 1.6 1.6 0 0 0-.171.728v.597q0 .527.184.895.189.369.523.564.335.191.782.191.29 0 .53-.082.239-.086.413-.252.174-.168.266-.414l.967.175a1.74 1.74 0 0 1-.417.748 2 2 0 0 1-.748.495 2.8 2.8 0 0 1-1.021.174m7.316-4.072-.926.164a1.1 1.1 0 0 0-.184-.338.9.9 0 0 0-.335-.263 1.2 1.2 0 0 0-.529-.102q-.434 0-.725.194-.29.192-.29.496 0 .262.195.423t.628.263l.834.192q.724.167 1.079.515.356.349.356.906 0 .471-.274.84-.27.366-.755.574a2.8 2.8 0 0 1-1.117.208q-.881 0-1.438-.376-.557-.378-.683-1.076l.987-.15a.95.95 0 0 0 .379.584q.287.195.749.195.502 0 .802-.208.301-.213.301-.516a.54.54 0 0 0-.185-.414q-.18-.166-.556-.252l-.889-.195q-.733-.168-1.086-.533-.348-.365-.348-.926 0-.464.259-.813.26-.348.718-.543a2.6 2.6 0 0 1 1.048-.198q.851 0 1.339.369.489.365.646.98"/><circle cx="426.8" cy="293.177" r="3.209" fill="#002d57" fill-opacity=".49"/><path fill="#090f1d" d="M427.906 282.017V268.9h.84v13.117zm2.423-8.921a1.4 1.4 0 0 0-.604-1.045q-.528-.374-1.374-.374-.594 0-1.019.179a1.5 1.5 0 0 0-.651.487 1.2 1.2 0 0 0-.231.702q0 .327.149.569.153.24.415.409.261.165.579.277t.64.19l.984.246q.594.138 1.143.374.553.236.989.594.44.359.697.866t.256 1.189q0 .922-.472 1.624-.47.697-1.363 1.092-.885.389-2.146.389-1.226 0-2.127-.379-.897-.38-1.404-1.107-.502-.728-.543-1.773h1.87q.041.549.338.912.298.364.774.543.482.18 1.076.18.621 0 1.086-.185.472-.189.738-.522.266-.339.272-.79a1 1 0 0 0-.241-.676 1.8 1.8 0 0 0-.661-.451 6.4 6.4 0 0 0-.984-.328l-1.194-.307q-1.296-.333-2.049-1.01-.748-.681-.748-1.808 0-.928.502-1.625.507-.697 1.378-1.081.871-.389 1.973-.389 1.117 0 1.957.389.846.384 1.327 1.071.482.681.497 1.568zm7.833-2.885v10.494h-1.901v-8.644h-.061l-2.454 1.568v-1.742l2.608-1.676zm6.431 10.638q-1.107 0-1.968-.38-.855-.378-1.352-1.055a2.73 2.73 0 0 1-.528-1.563h1.926q.025.425.282.743.256.313.682.487.425.174.953.174.563 0 .999-.195.435-.2.681-.553a1.36 1.36 0 0 0 .241-.815 1.4 1.4 0 0 0-.246-.84 1.65 1.65 0 0 0-.727-.569q-.472-.205-1.138-.205h-.927v-1.465h.927q.549 0 .958-.19.416-.19.651-.533.235-.348.231-.804a1.4 1.4 0 0 0-.2-.774 1.35 1.35 0 0 0-.569-.517 1.9 1.9 0 0 0-.856-.185q-.481 0-.891.174a1.6 1.6 0 0 0-.661.497 1.26 1.26 0 0 0-.267.759h-1.829a2.67 2.67 0 0 1 .507-1.548 3.3 3.3 0 0 1 1.312-1.045q.82-.38 1.84-.379 1.05 0 1.824.394.778.39 1.204 1.051t.425 1.46q.005.886-.523 1.486-.522.6-1.373.784v.082q1.107.153 1.696.82.595.66.59 1.645 0 .88-.503 1.578-.497.692-1.373 1.086-.872.395-1.998.395m7.52-1.579-.066.564q-.072.646-.256 1.312-.18.67-.38 1.235-.2.563-.322.886h-1.251l.195-.851q.129-.537.246-1.209.119-.671.159-1.363l.036-.574zm1.868-.512v-1.512l4.453-7.035h1.26v2.152h-.768l-2.998 4.75v.082h6.216v1.563zm5.006 1.947v-2.408l.021-.677v-7.409h1.793v10.494zm8.56.144q-1.107 0-1.968-.38-.855-.378-1.353-1.055a2.74 2.74 0 0 1-.527-1.563h1.926q.026.425.282.743.256.313.682.487.425.174.953.174.563 0 .999-.195.435-.2.681-.553t.241-.815a1.42 1.42 0 0 0-.246-.84 1.65 1.65 0 0 0-.727-.569q-.472-.205-1.138-.205h-.927v-1.465h.927q.549 0 .958-.19.416-.19.651-.533.236-.348.23-.804a1.4 1.4 0 0 0-.199-.774 1.35 1.35 0 0 0-.569-.517 1.9 1.9 0 0 0-.856-.185q-.482 0-.891.174a1.6 1.6 0 0 0-.661.497 1.26 1.26 0 0 0-.267.759h-1.829a2.67 2.67 0 0 1 .507-1.548 3.3 3.3 0 0 1 1.312-1.045q.82-.38 1.839-.379 1.051 0 1.825.394.778.39 1.204 1.051t.425 1.46q.005.886-.523 1.486-.522.6-1.373.784v.082q1.107.153 1.696.82.595.66.589 1.645 0 .88-.502 1.578-.497.692-1.373 1.086-.872.395-1.998.395m9.28 0q-1.024 0-1.834-.385a3.27 3.27 0 0 1-1.286-1.066 2.8 2.8 0 0 1-.502-1.547h1.844q.052.645.559 1.056.508.404 1.219.404.56 0 .994-.256a1.83 1.83 0 0 0 .687-.712 2.1 2.1 0 0 0 .246-1.04 2.1 2.1 0 0 0-.251-1.056 1.9 1.9 0 0 0-.702-.722 1.96 1.96 0 0 0-1.025-.267 2.4 2.4 0 0 0-.927.175 1.9 1.9 0 0 0-.723.471l-1.716-.282.548-5.411h6.087v1.589h-4.514l-.302 2.782h.061q.293-.343.825-.569.533-.23 1.168-.23.954 0 1.702.451.747.446 1.178 1.229t.43 1.794q0 1.04-.481 1.855-.477.81-1.327 1.275-.846.462-1.958.462"/><path fill="#9ca3af" d="M440.063 337.591q0 1.12-.41 1.927a3 3 0 0 1-1.123 1.236 3.06 3.06 0 0 1-1.616.431 3.1 3.1 0 0 1-1.623-.431 3 3 0 0 1-1.12-1.24q-.41-.805-.41-1.923 0-1.12.41-1.923.41-.807 1.12-1.237a3.07 3.07 0 0 1 1.623-.434q.905 0 1.616.434.714.43 1.123 1.237.41.803.41 1.923m-1.045 0q0-.854-.277-1.438-.273-.588-.751-.888a1.95 1.95 0 0 0-1.076-.304q-.605 0-1.08.304-.475.3-.751.888-.273.584-.273 1.438t.273 1.441q.276.585.751.889.476.3 1.08.3.601 0 1.076-.3.478-.304.751-.889.277-.587.277-1.441m3.301.383v3.115h-1.022v-5.247h.981v.854h.065q.18-.417.567-.67.389-.252.98-.252.537 0 .939.225.404.222.626.663t.222 1.089v3.338h-1.022v-3.215q0-.57-.297-.891-.297-.325-.816-.325-.356 0-.632.154a1.1 1.1 0 0 0-.434.451 1.5 1.5 0 0 0-.157.711m5.749-3.881v6.996h-1.022v-6.996zm1.374 6.996v-5.247h1.021v5.247zm.516-6.057a.65.65 0 0 1-.458-.177.58.58 0 0 1-.188-.431.57.57 0 0 1 .188-.43.64.64 0 0 1 .458-.181.63.63 0 0 1 .454.181.57.57 0 0 1 .191.43q0 .25-.191.431a.64.64 0 0 1-.454.177m2.901 2.942v3.115h-1.022v-5.247h.981v.854h.065q.18-.417.567-.67.389-.252.98-.252.536 0 .939.225.403.222.625.663t.222 1.089v3.338h-1.021v-3.215q0-.57-.297-.891-.297-.325-.816-.325-.356 0-.632.154a1.1 1.1 0 0 0-.434.451 1.5 1.5 0 0 0-.157.711m6.989 3.221q-.776 0-1.336-.332a2.25 2.25 0 0 1-.861-.939q-.3-.608-.3-1.424 0-.807.3-1.421.304-.615.847-.96.547-.345 1.278-.345.444 0 .861.147a2.06 2.06 0 0 1 1.27 1.277q.192.5.192 1.213v.362h-4.171v-.765h3.17a1.5 1.5 0 0 0-.164-.714 1.24 1.24 0 0 0-1.151-.677q-.43 0-.752.212a1.4 1.4 0 0 0-.492.547q-.17.334-.17.727v.598q0 .526.184.895.187.369.523.564.335.19.782.191.29 0 .529-.082.24-.085.414-.253t.266-.413l.967.174a1.76 1.76 0 0 1-.417.748 2 2 0 0 1-.748.496 2.8 2.8 0 0 1-1.021.174m9.861-4.072-.925.164a1.1 1.1 0 0 0-.185-.338.9.9 0 0 0-.334-.263 1.2 1.2 0 0 0-.53-.103q-.434 0-.724.195-.29.191-.29.495a.52.52 0 0 0 .194.424q.195.16.629.263l.833.191q.724.168 1.08.516.355.348.355.905 0 .472-.273.841-.27.365-.755.573a2.8 2.8 0 0 1-1.117.209q-.882 0-1.438-.376-.557-.379-.684-1.076l.988-.15a.94.94 0 0 0 .379.584q.286.195.748.195.502 0 .803-.209.3-.212.3-.516a.54.54 0 0 0-.184-.413q-.182-.168-.557-.253l-.888-.194q-.735-.168-1.086-.533-.35-.366-.349-.926 0-.465.26-.813t.717-.543a2.6 2.6 0 0 1 1.049-.198q.85 0 1.339.369.488.365.645.98m2.753 4.082q-.499 0-.902-.184a1.5 1.5 0 0 1-.639-.544q-.232-.355-.232-.871 0-.443.171-.731.17-.286.461-.454.29-.168.649-.253t.731-.13l.765-.088q.294-.037.427-.12t.133-.266v-.024q0-.448-.252-.694-.25-.246-.745-.246-.516 0-.813.229-.293.225-.407.502l-.959-.218q.17-.478.498-.772a2 2 0 0 1 .762-.431q.43-.136.905-.136.315 0 .666.075.355.072.663.266.31.195.509.557.198.358.198.933v3.484h-.997v-.717h-.041a1.5 1.5 0 0 1-.297.389 1.6 1.6 0 0 1-.509.318 2 2 0 0 1-.745.126m.222-.82q.424 0 .724-.167a1.2 1.2 0 0 0 .461-.437q.16-.274.161-.585v-.676a.5.5 0 0 1-.212.103 4 4 0 0 1-.352.078q-.198.031-.386.058l-.314.041a2.5 2.5 0 0 0-.543.127.9.9 0 0 0-.39.256.64.64 0 0 0-.143.437q0 .38.28.574.28.19.714.191m4.749-6.292v6.996h-1.021v-6.996zm3.635 7.102q-.775 0-1.335-.332a2.24 2.24 0 0 1-.861-.939q-.301-.608-.301-1.424 0-.807.301-1.421.304-.615.847-.96.546-.345 1.278-.345.444 0 .86.147.417.146.749.461.33.314.522.816.192.5.191 1.213v.362h-4.17v-.765h3.17a1.5 1.5 0 0 0-.164-.714 1.24 1.24 0 0 0-.462-.496 1.3 1.3 0 0 0-.69-.181q-.43 0-.751.212a1.4 1.4 0 0 0-.492.547 1.6 1.6 0 0 0-.171.727v.598q0 .526.185.895.188.369.522.564.335.19.783.191.29 0 .529-.082a1.09 1.09 0 0 0 .68-.666l.967.174a1.76 1.76 0 0 1-.417.748 2 2 0 0 1-.748.496 2.8 2.8 0 0 1-1.022.174m7.316-4.072-.925.164a1.1 1.1 0 0 0-.185-.338.9.9 0 0 0-.335-.263 1.2 1.2 0 0 0-.529-.103q-.434 0-.724.195-.291.191-.291.495 0 .264.195.424t.629.263l.833.191q.725.168 1.08.516.354.348.355.905 0 .472-.273.841-.27.365-.755.573a2.8 2.8 0 0 1-1.117.209q-.882 0-1.438-.376-.557-.379-.684-1.076l.988-.15a.94.94 0 0 0 .379.584q.286.195.748.195.502 0 .803-.209.3-.212.3-.516a.54.54 0 0 0-.184-.413q-.182-.168-.557-.253l-.888-.194q-.735-.168-1.086-.533-.35-.366-.349-.926 0-.465.26-.813t.717-.543a2.6 2.6 0 0 1 1.049-.198q.85 0 1.339.369.488.365.645.98"/><circle cx="426.8" cy="338.902" r="3.209" fill="#00162a"/><path fill="#090f1d" d="M427.906 326.939v-13.117h.84v13.117zm2.423-8.921a1.4 1.4 0 0 0-.604-1.045q-.528-.374-1.374-.374-.594 0-1.019.179a1.5 1.5 0 0 0-.651.487 1.2 1.2 0 0 0-.231.702q0 .328.149.569.153.24.415.41.261.163.579.276t.64.19l.984.246q.594.138 1.143.374.553.236.989.594.44.359.697.866t.256 1.189q0 .922-.472 1.624-.47.697-1.363 1.092-.885.389-2.146.389-1.226 0-2.127-.379-.897-.38-1.404-1.107-.502-.728-.543-1.773h1.87q.041.549.338.912.298.364.774.543.482.18 1.076.18.621 0 1.086-.185.472-.189.738-.522.266-.339.272-.789a1 1 0 0 0-.241-.677 1.8 1.8 0 0 0-.661-.451 6.4 6.4 0 0 0-.984-.328l-1.194-.307q-1.296-.334-2.049-1.009-.748-.683-.748-1.809 0-.928.502-1.624.507-.697 1.378-1.082.871-.389 1.973-.389 1.117 0 1.957.389.846.385 1.327 1.071.482.682.497 1.568zm7.208-3.028q.753.005 1.466.266.717.256 1.291.841.573.579.912 1.552.338.974.338 2.408.006 1.353-.287 2.419-.286 1.06-.825 1.793a3.6 3.6 0 0 1-1.296 1.117q-.758.385-1.706.385-.995 0-1.763-.39a3.3 3.3 0 0 1-1.235-1.066 3.4 3.4 0 0 1-.579-1.547h1.87q.144.625.584.994.447.364 1.123.364 1.09 0 1.68-.948t.59-2.634h-.072q-.252.451-.651.779a3 3 0 0 1-.907.497q-.502.174-1.066.174a3.2 3.2 0 0 1-1.66-.44 3.2 3.2 0 0 1-1.163-1.21q-.425-.768-.43-1.757 0-1.024.471-1.84.477-.82 1.327-1.291.85-.476 1.988-.466m.005 1.537q-.553 0-.999.272-.44.266-.697.727a2.1 2.1 0 0 0-.251 1.02q.005.558.251 1.014.252.456.682.723.435.267.994.266a1.9 1.9 0 0 0 1.399-.599q.272-.286.42-.651.154-.364.148-.768 0-.538-.256-.994a2 2 0 0 0-.692-.733 1.8 1.8 0 0 0-.999-.277m7.498 7.666-.067.563a8.4 8.4 0 0 1-.256 1.312q-.179.67-.379 1.235-.2.563-.323.886h-1.25l.195-.85q.127-.538.246-1.21.117-.67.158-1.363l.036-.573zm1.868-.513v-1.511l4.452-7.036h1.261v2.152h-.769l-2.997 4.75v.082h6.215v1.563zm5.006 1.947v-2.408l.02-.676v-7.41h1.794v10.494zm4.793 0v-1.373l3.643-3.571q.523-.528.871-.938.35-.41.523-.794t.174-.82q0-.497-.225-.851a1.5 1.5 0 0 0-.62-.553 2 2 0 0 0-.897-.195q-.517 0-.907.215-.39.21-.605.6-.21.39-.21.927h-1.808q0-.999.456-1.737a3.07 3.07 0 0 1 1.255-1.142q.804-.405 1.845-.405 1.055 0 1.854.394.8.396 1.24 1.082.447.686.446 1.568 0 .588-.225 1.158-.226.568-.794 1.26-.564.692-1.584 1.676l-1.808 1.839v.072h4.57v1.588zm12.61.144q-1.025 0-1.834-.385a3.26 3.26 0 0 1-1.286-1.065 2.8 2.8 0 0 1-.503-1.548h1.845q.05.646.559 1.056.507.405 1.219.404.558 0 .994-.256t.687-.712a2.1 2.1 0 0 0 .246-1.04 2.1 2.1 0 0 0-.251-1.056 1.9 1.9 0 0 0-.702-.722 1.96 1.96 0 0 0-1.025-.267 2.4 2.4 0 0 0-.928.175 1.9 1.9 0 0 0-.722.471l-1.717-.282.549-5.411h6.087v1.589h-4.514l-.303 2.782h.062q.293-.343.825-.569a2.9 2.9 0 0 1 1.168-.23q.953 0 1.701.451a3.2 3.2 0 0 1 1.179 1.229q.43.784.43 1.794 0 1.04-.482 1.855-.476.809-1.327 1.276-.845.46-1.957.461"/><path fill="#00162a" d="M330.302 227.471a58.14 58.14 0 0 1 60.375 15.418l-4.234 3.986a52.33 52.33 0 0 0-54.337-13.877z"/><path fill="#090f1d" d="M314.121 286.053v-17.489h1.12v17.489zm3.231-11.894q-.096-.895-.806-1.394-.703-.498-1.831-.498-.793 0-1.36.239t-.867.649a1.58 1.58 0 0 0-.308.936q0 .437.198.758.206.32.554.547.348.217.772.369.423.15.854.252l1.312.328q.792.185 1.523.499.738.315 1.319.793.587.477.929 1.154t.341 1.585q0 1.23-.628 2.166-.629.929-1.817 1.455-1.183.519-2.863.519-1.634 0-2.835-.505-1.195-.505-1.872-1.476-.67-.97-.724-2.364h2.493q.055.731.451 1.216.396.486 1.032.724.642.24 1.435.24.826 0 1.448-.246.629-.253.984-.697.355-.452.362-1.052-.008-.547-.321-.902-.315-.363-.882-.601a8.5 8.5 0 0 0-1.311-.438l-1.592-.41q-1.729-.444-2.733-1.345-.997-.909-.997-2.412 0-1.236.669-2.166.677-.929 1.838-1.441 1.161-.52 2.63-.52 1.49 0 2.61.52 1.127.512 1.769 1.428.643.908.663 2.09zm9.618 10.337q-1.366 0-2.446-.513-1.08-.518-1.715-1.421a3.76 3.76 0 0 1-.669-2.063h2.459q.069.861.745 1.407.676.54 1.626.54a2.57 2.57 0 0 0 1.325-.341q.58-.342.916-.95.335-.608.327-1.387a2.8 2.8 0 0 0-.334-1.407 2.5 2.5 0 0 0-.936-.964 2.6 2.6 0 0 0-1.367-.355 3.3 3.3 0 0 0-1.236.232q-.609.24-.963.629l-2.289-.376.731-7.214h8.116v2.118h-6.019l-.403 3.709h.082q.39-.458 1.1-.758a3.9 3.9 0 0 1 1.558-.307q1.27 0 2.268.601a4.25 4.25 0 0 1 1.571 1.639q.574 1.045.574 2.392 0 1.387-.642 2.473a4.55 4.55 0 0 1-1.77 1.701q-1.127.615-2.609.615m7.057-2.788v-2.015l5.937-9.38h1.681v2.869h-1.025l-3.997 6.333v.11h8.287v2.083zm6.675 2.596v-3.211l.027-.901v-9.879h2.391v13.991zm8.927-1.912-.088.751a11 11 0 0 1-.342 1.749 21 21 0 0 1-.506 1.646q-.266.751-.43 1.182h-1.667l.26-1.134q.17-.717.328-1.612.157-.895.211-1.817l.048-.765zm7.295 2.104q-1.476 0-2.623-.506-1.141-.505-1.804-1.407-.662-.902-.704-2.084h2.569q.034.567.376.991.342.417.909.649t1.27.232q.751 0 1.333-.26a2.2 2.2 0 0 0 .908-.737q.329-.472.321-1.087a1.9 1.9 0 0 0-.328-1.12q-.334-.486-.97-.758-.628-.274-1.516-.274h-1.237v-1.954h1.237q.73 0 1.277-.252.553-.253.868-.711.314-.464.307-1.073a1.86 1.86 0 0 0-.266-1.031 1.8 1.8 0 0 0-.759-.69q-.484-.246-1.141-.246a3 3 0 0 0-1.188.232 2.17 2.17 0 0 0-.882.663 1.68 1.68 0 0 0-.355 1.011h-2.439q.027-1.175.677-2.063.656-.896 1.748-1.394 1.094-.506 2.453-.506 1.401 0 2.432.526 1.04.52 1.606 1.401.567.882.567 1.947.006 1.182-.697 1.981-.697.8-1.831 1.046v.109q1.476.205 2.261 1.093.793.882.786 2.193 0 1.175-.669 2.104-.663.923-1.831 1.449-1.162.525-2.665.526m12.374 0q-1.367 0-2.445-.513-1.08-.518-1.715-1.421a3.77 3.77 0 0 1-.67-2.063h2.46q.067.861.744 1.407.677.54 1.626.54.745 0 1.326-.341.58-.342.915-.95t.328-1.387a2.8 2.8 0 0 0-.335-1.407 2.5 2.5 0 0 0-.936-.964 2.6 2.6 0 0 0-1.366-.355 3.3 3.3 0 0 0-1.237.232q-.607.24-.963.629l-2.288-.376.731-7.214h8.116v2.118h-6.019l-.403 3.709h.082q.389-.458 1.1-.758a3.9 3.9 0 0 1 1.557-.307q1.272 0 2.269.601a4.26 4.26 0 0 1 1.571 1.639q.574 1.045.574 2.392 0 1.387-.642 2.473a4.56 4.56 0 0 1-1.77 1.701q-1.126.615-2.61.615m7.058-2.788v-2.015l5.937-9.38h1.68v2.869h-1.025l-3.996 6.333v.11h8.287v2.083zm6.674 2.596v-3.211l.028-.901v-9.879h2.391v13.991z"/><defs><filter id="a" width="84.197" height="25.979" x="361.184" y="78.277" color-interpolation-filters="sRGB" filterUnits="userSpaceOnUse"><feFlood flood-opacity="0" result="BackgroundImageFix"/><feColorMatrix in="SourceAlpha" result="hardAlpha" values="0 0 0 0 0 0 0 0 0 0 0 0 0 0 0 0 0 0 127 0"/><feOffset dy=".802"/><feGaussianBlur stdDeviation=".802"/><feComposite in2="hardAlpha" operator="out"/><feColorMatrix values="0 0 0 0 0.254902 0 0 0 0 0.286275 0 0 0 0 0.329412 0 0 0 0.05 0"/><feBlend in2="BackgroundImageFix" result="effect1_dropShadow_4430_7345"/><feBlend in="SourceGraphic" in2="effect1_dropShadow_4430_7345" result="shape"/></filter><filter id="b" width="280.159" height="16.834" x="268.856" y="192.176" color-interpolation-filters="sRGB" filterUnits="userSpaceOnUse"><feFlood flood-opacity="0" result="BackgroundImageFix"/><feColorMatrix in="SourceAlpha" result="hardAlpha" values="0 0 0 0 0 0 0 0 0 0 0 0 0 0 0 0 0 0 127 0"/><feOffset dy="3.206"/><feGaussianBlur stdDeviation="4.008"/><feComposite in2="hardAlpha" operator="out"/><feColorMatrix values="0 0 0 0 0.254902 0 0 0 0 0.286275 0 0 0 0 0.329412 0 0 0 0.06 0"/><feBlend in2="BackgroundImageFix" result="effect1_dropShadow_4430_7345"/><feBlend in="SourceGraphic" in2="effect1_dropShadow_4430_7345" result="shape"/></filter></defs></svg>