<svg xmlns="http://www.w3.org/2000/svg" width="659" height="436" fill="none" viewBox="0 0 659 436"><g clip-path="url(#a)"><rect width="659" height="435" y=".389" fill="#fff" rx="20"/><g filter="url(#b)"><path fill="#eff1f2" d="M389.547 314.62c81.492-33.411-64.821-275.644-41.126-196.319 15.385 51.502-38.308 43.802-32.865 72.228 7.714 40.284 3.346 61.071-19.05 72.774 36.443 16.17 27.847 78.045 93.041 51.317"/></g><circle cx="524.503" cy="68.925" r="2.632" fill="#e5e7eb"/><circle cx="533.737" cy="68.925" r="2.632" fill="#e5e7eb"/><circle cx="542.972" cy="68.925" r="2.632" fill="#e5e7eb"/><rect width="194.565" height="4.401" x="350.946" y="192.97" fill="#f2f4f8" rx="2.201"/><rect width="116.751" height="4.401" fill="#00162a" rx="2.201" transform="matrix(1 .00184 -.00077 1 350.949 192.632)"/><rect width="194.565" height="3.521" x="350.946" y="250.55" fill="#f2f4f8" rx="1.76"/><rect width="77.834" height="4.401" fill="#00162a" rx="2.201" transform="matrix(1 .00184 -.00077 1 350.949 250.213)"/><path fill="#090f1d" d="M520.101 176.332a4.3 4.3 0 0 1-1.416-.251 3.3 3.3 0 0 1-1.244-.815q-.553-.567-.879-1.505-.326-.943-.32-2.335 0-1.298.276-2.315t.795-1.717a3.5 3.5 0 0 1 1.248-1.076 3.6 3.6 0 0 1 1.644-.37q.953 0 1.688.375.741.375 1.194 1.026.455.647.563 1.461h-1.801a1.65 1.65 0 0 0-.568-.928q-.425-.35-1.076-.35-1.052 0-1.619.913-.562.914-.568 2.507h.07q.242-.433.626-.745.386-.31.869-.479.489-.172 1.032-.172a3.03 3.03 0 0 1 2.719 1.594q.415.74.41 1.698.005.997-.454 1.791a3.3 3.3 0 0 1-1.279 1.244q-.82.455-1.91.449m-.01-1.48q.538 0 .963-.262t.671-.706.242-.997a1.97 1.97 0 0 0-.237-.982 1.8 1.8 0 0 0-.656-.696 1.8 1.8 0 0 0-.958-.257q-.4 0-.745.154a1.8 1.8 0 0 0-.602.424 2 2 0 0 0-.405.622 2 2 0 0 0-.148.75q.004.528.247.972.242.445.666.711.425.267.962.267m9.057 1.535q-1.218 0-2.092-.617-.868-.622-1.338-1.792-.464-1.175-.464-2.828.005-1.653.469-2.813.47-1.165 1.338-1.777.873-.612 2.087-.612t2.088.612 1.338 1.777q.468 1.164.469 2.813 0 1.659-.469 2.833-.463 1.17-1.338 1.787-.868.617-2.088.617m0-1.545q.948 0 1.496-.933.553-.938.553-2.759 0-1.205-.252-2.024t-.711-1.234a1.56 1.56 0 0 0-1.086-.419q-.942 0-1.49.938-.548.933-.553 2.739-.005 1.21.242 2.033.252.825.711 1.244.459.415 1.09.415m10.939-.543v-.533q0-.588.247-1.081a2 2 0 0 1 .73-.795q.48-.3 1.16-.301.702 0 1.175.301.474.297.716.79a2.4 2.4 0 0 1 .247 1.086v.533q0 .587-.247 1.081a1.96 1.96 0 0 1-.726.794q-.474.302-1.165.302-.69 0-1.169-.302-.48-.3-.726-.794a2.4 2.4 0 0 1-.242-1.081m1.288-.533v.533q0 .39.188.716.187.325.661.325.48 0 .657-.32a1.45 1.45 0 0 0 .182-.721v-.533q0-.395-.172-.721-.173-.33-.667-.33-.464 0-.656.33a1.4 1.4 0 0 0-.193.721m-6.426-5.252v-.533q0-.593.252-1.086t.73-.789q.48-.301 1.16-.301.696 0 1.17.301.478.296.721.789.241.494.241 1.086v.533a2.4 2.4 0 0 1-.246 1.086 1.9 1.9 0 0 1-.721.785q-.478.296-1.165.296-.696 0-1.174-.296a1.94 1.94 0 0 1-.721-.79 2.4 2.4 0 0 1-.247-1.081m1.298-.533v.533q0 .395.183.721.187.321.661.321t.652-.321q.182-.326.182-.721v-.533q0-.394-.172-.72-.173-.331-.662-.331-.468 0-.656.331-.188.33-.188.72m-.735 8.213 6.949-10.108h1.234l-6.949 10.108zm-18.529 56.698v-1.456l4.289-6.777h1.214v2.073h-.74l-2.888 4.576v.078h5.987v1.506zm4.822 1.875v-2.319l.02-.652v-7.137h1.727v10.108zm8.354.193q-1.22 0-2.093-.617-.869-.622-1.338-1.792-.464-1.175-.464-2.828.006-1.653.469-2.813.47-1.165 1.338-1.777.873-.612 2.088-.612 1.214 0 2.087.612.875.612 1.338 1.777.47 1.164.469 2.813 0 1.659-.469 2.833-.463 1.17-1.338 1.787-.869.617-2.087.617m0-1.545q.947 0 1.495-.933.553-.938.553-2.759 0-1.204-.252-2.023-.251-.82-.711-1.234a1.55 1.55 0 0 0-1.085-.42q-.943 0-1.491.938-.547.933-.553 2.739-.004 1.209.242 2.034.252.824.711 1.243a1.57 1.57 0 0 0 1.091.415m10.938-.543v-.533q0-.587.247-1.081.251-.494.731-.794.478-.302 1.16-.302.7 0 1.174.302.474.296.716.789a2.4 2.4 0 0 1 .247 1.086v.533q0 .588-.247 1.081a1.96 1.96 0 0 1-.726.795q-.474.3-1.164.301-.692 0-1.17-.301a1.97 1.97 0 0 1-.726-.795 2.4 2.4 0 0 1-.242-1.081m1.289-.533v.533q0 .39.187.716.188.326.662.326.479 0 .656-.321.183-.326.183-.721v-.533a1.5 1.5 0 0 0-.173-.721q-.173-.33-.666-.33-.465 0-.657.33a1.4 1.4 0 0 0-.192.721m-6.427-5.252v-.533q0-.591.252-1.085t.731-.79q.478-.301 1.159-.301.696 0 1.17.301.479.296.721.79t.242 1.085v.533a2.4 2.4 0 0 1-.247 1.086 1.9 1.9 0 0 1-.721.785q-.478.297-1.165.296-.696 0-1.174-.296a1.94 1.94 0 0 1-.721-.79 2.4 2.4 0 0 1-.247-1.081m1.298-.533v.533q0 .396.183.721.188.321.661.321t.652-.321q.183-.325.183-.721v-.533q0-.394-.173-.72-.173-.331-.662-.331-.468 0-.656.331-.188.33-.188.72m-.735 8.213 6.949-10.108h1.234l-6.949 10.108z"/><path fill="#9ca3af" d="M265.418 167.05h1.851l3.218 7.858h.118l3.218-7.858h1.851v10.108h-1.451v-7.315h-.094l-2.981 7.3h-1.204l-2.981-7.304h-.094v7.319h-1.451zm15.549 10.261q-1.066 0-1.861-.488a3.3 3.3 0 0 1-1.234-1.368q-.44-.878-.439-2.053 0-1.18.439-2.063a3.3 3.3 0 0 1 1.234-1.372q.795-.489 1.861-.489t1.86.489 1.234 1.372.44 2.063q0 1.175-.44 2.053a3.3 3.3 0 0 1-1.234 1.368q-.794.488-1.86.488m.005-1.239q.69 0 1.145-.365.453-.365.671-.972.222-.608.222-1.338 0-.726-.222-1.332a2.2 2.2 0 0 0-.671-.983q-.455-.37-1.145-.37-.696 0-1.155.37a2.2 2.2 0 0 0-.677.983 4 4 0 0 0-.217 1.332q0 .73.217 1.338.222.607.677.972.459.365 1.155.365m5.294 1.086V167.05h1.476v3.756h.089q.129-.237.37-.548.242-.31.671-.543.43-.237 1.136-.237a2.96 2.96 0 0 1 1.638.464q.72.464 1.131 1.338.414.873.414 2.102 0 1.23-.41 2.108-.41.873-1.125 1.347a2.9 2.9 0 0 1-1.634.469q-.69 0-1.13-.232a2.1 2.1 0 0 1-.681-.543 4 4 0 0 1-.38-.552h-.123v1.179zm1.446-3.79q0 .8.232 1.401.233.603.672.943.439.336 1.076.336.661 0 1.105-.351.444-.356.672-.962.231-.608.232-1.367 0-.751-.227-1.348a2.07 2.07 0 0 0-.672-.943q-.444-.345-1.11-.345-.642 0-1.086.331-.44.33-.666.923-.228.591-.228 1.382m7.136 3.79v-7.581h1.476v7.581zm.746-8.751a.94.94 0 0 1-.662-.256.84.84 0 0 1-.271-.622q0-.366.271-.622a.93.93 0 0 1 .662-.262.9.9 0 0 1 .656.262.82.82 0 0 1 .276.622.83.83 0 0 1-.276.622.92.92 0 0 1-.656.256m4.191-1.357v10.108h-1.476V167.05zm5.253 10.261q-1.12 0-1.93-.479a3.24 3.24 0 0 1-1.244-1.357q-.434-.879-.434-2.058 0-1.165.434-2.053a3.37 3.37 0 0 1 1.224-1.387q.79-.5 1.846-.499.642 0 1.244.212.603.213 1.081.667.479.455.755 1.179.277.721.277 1.753v.523h-6.027v-1.106h4.581q0-.582-.237-1.031a1.8 1.8 0 0 0-.667-.716 1.87 1.87 0 0 0-.997-.262 1.93 1.93 0 0 0-1.086.306 2.05 2.05 0 0 0-.71.79 2.3 2.3 0 0 0-.247 1.051v.864q0 .76.266 1.293.272.534.756.815.483.276 1.13.276.42 0 .765-.118.345-.124.597-.366t.385-.597l1.397.252a2.54 2.54 0 0 1-.602 1.081 2.9 2.9 0 0 1-1.081.715q-.647.252-1.476.252m-36.348 57.428h-3.272V224.63h3.376q1.485 0 2.552.607 1.065.602 1.633 1.733.573 1.125.573 2.7 0 1.579-.578 2.714a4.05 4.05 0 0 1-1.658 1.747q-1.086.608-2.626.608m-1.747-1.333h1.663q1.155 0 1.92-.434.765-.44 1.145-1.269.38-.834.38-2.033 0-1.19-.38-2.019a2.7 2.7 0 0 0-1.12-1.259q-.745-.429-1.851-.429h-1.757zm11.654 1.486q-1.12 0-1.929-.479a3.25 3.25 0 0 1-1.244-1.358q-.435-.877-.435-2.058 0-1.165.435-2.053a3.4 3.4 0 0 1 1.224-1.387q.79-.498 1.846-.498.641 0 1.244.212.601.211 1.081.666.478.454.755 1.18.276.72.276 1.752v.523h-6.026v-1.105h4.58q0-.584-.237-1.032a1.8 1.8 0 0 0-.666-.716 1.87 1.87 0 0 0-.997-.261q-.623 0-1.086.306-.459.3-.711.789a2.3 2.3 0 0 0-.247 1.052v.863q0 .76.267 1.294.272.532.755.814.483.276 1.13.276.42 0 .765-.118a1.65 1.65 0 0 0 .598-.365q.251-.243.385-.598l1.396.252a2.5 2.5 0 0 1-.602 1.081 2.9 2.9 0 0 1-1.081.716q-.647.252-1.476.252m10.572-5.884-1.338.237a1.6 1.6 0 0 0-.267-.489 1.3 1.3 0 0 0-.483-.38q-.306-.148-.765-.148-.627 0-1.047.282-.419.276-.419.715 0 .381.281.612.281.233.908.38l1.205.277q1.046.241 1.559.745.514.504.514 1.308 0 .681-.395 1.214-.39.528-1.091.829-.696.302-1.614.302-1.274 0-2.078-.543-.804-.549-.987-1.555l1.426-.217q.134.558.548.844.415.28 1.081.281.726 0 1.16-.301.435-.306.434-.745a.78.78 0 0 0-.266-.598q-.262-.242-.805-.365l-1.283-.281q-1.061-.242-1.57-.77-.503-.528-.503-1.338 0-.671.375-1.174.375-.504 1.037-.785.662-.286 1.515-.286 1.228 0 1.935.533.705.528.933 1.416m3.128 3.159-.01-1.802h.256l3.021-3.208h1.767l-3.445 3.653h-.232zm-1.358 2.572V224.63h1.476v10.109zm4.788 0-2.715-3.604 1.017-1.031 3.509 4.635zm6.488-7.582v1.185h-4.141v-1.185zm-3.031-1.816h1.476v7.172q0 .429.128.646a.67.67 0 0 0 .331.291q.207.075.449.074.178 0 .311-.024l.208-.04.266 1.219a2.9 2.9 0 0 1-.957.158 2.6 2.6 0 0 1-1.086-.207 1.87 1.87 0 0 1-.815-.671q-.31-.454-.311-1.14zm7.775 9.551q-1.066 0-1.86-.489a3.3 3.3 0 0 1-1.234-1.367q-.44-.879-.44-2.054 0-1.18.44-2.063a3.3 3.3 0 0 1 1.234-1.372q.794-.488 1.86-.488t1.861.488q.795.489 1.234 1.372.44.884.439 2.063 0 1.175-.439 2.054a3.3 3.3 0 0 1-1.234 1.367q-.795.489-1.861.489m.005-1.239q.692 0 1.145-.366.454-.364.672-.972.222-.607.222-1.337 0-.726-.222-1.333a2.17 2.17 0 0 0-.672-.982q-.453-.37-1.145-.371-.696 0-1.155.371a2.2 2.2 0 0 0-.676.982 3.9 3.9 0 0 0-.217 1.333q0 .73.217 1.337.223.608.676.972.459.366 1.155.366m5.177 3.928v-10.424h1.441v1.229h.123q.129-.237.37-.548.242-.31.672-.543.429-.236 1.135-.236.918 0 1.638.464.721.464 1.131 1.337.414.874.414 2.103t-.409 2.107q-.41.874-1.126 1.348a2.9 2.9 0 0 1-1.633.469q-.692 0-1.131-.232a2.2 2.2 0 0 1-.681-.543 4 4 0 0 1-.38-.553h-.089v4.022zm1.446-6.633q0 .8.232 1.402.231.601.671.942.439.336 1.076.336.661 0 1.106-.35.443-.355.671-.963a3.8 3.8 0 0 0 .232-1.367q0-.75-.227-1.348a2.06 2.06 0 0 0-.672-.942q-.444-.346-1.11-.346-.642 0-1.086.331-.44.33-.666.923-.227.592-.227 1.382m-57.072-38.636v8.665h-1.312v-7.353h-.051l-2.073 1.354v-1.253l2.162-1.413zm3.506 7.48-.064.461a7.4 7.4 0 0 1-.215 1.058q-.148.554-.309 1.028-.157.474-.258.753h-.897q.054-.263.152-.711.097-.444.19-.994t.14-1.121l.042-.474zm4.546-7.598q.58.004 1.142.211.562.208 1.015.677.457.47.728 1.27.274.795.279 1.979 0 1.139-.228 2.027-.229.884-.656 1.493a2.9 2.9 0 0 1-1.028.927 2.9 2.9 0 0 1-1.362.317q-.775 0-1.375-.304a2.6 2.6 0 0 1-.978-.842 2.8 2.8 0 0 1-.469-1.244h1.29q.127.558.516.905.394.343 1.016.343.951 0 1.485-.829.533-.834.537-2.327h-.068q-.22.363-.55.626-.326.262-.732.406t-.867.144a2.6 2.6 0 0 1-1.362-.368 2.7 2.7 0 0 1-.978-1.011 2.94 2.94 0 0 1-.363-1.468q0-.821.372-1.489a2.8 2.8 0 0 1 1.049-1.058q.677-.393 1.587-.385m.004 1.1q-.495 0-.893.245-.393.242-.622.656a1.85 1.85 0 0 0-.228.914q0 .503.22.914.223.405.609.647.39.237.888.237.373 0 .694-.144.322-.144.563-.398.241-.258.376-.583a1.8 1.8 0 0 0 .136-.686q0-.478-.229-.888a1.77 1.77 0 0 0-.617-.66 1.6 1.6 0 0 0-.897-.254m7.548 7.801q-.795 0-1.43-.304a2.6 2.6 0 0 1-1.007-.847 2.2 2.2 0 0 1-.401-1.226h1.269q.046.558.495.918.448.359 1.074.359a1.7 1.7 0 0 0 .884-.228q.39-.232.61-.639.224-.406.224-.927 0-.528-.229-.943a1.7 1.7 0 0 0-.63-.652 1.8 1.8 0 0 0-.914-.241q-.393 0-.791.136-.397.135-.643.355l-1.197-.178.486-4.366h4.764v1.122h-3.676l-.275 2.424h.05q.255-.246.673-.411a2.5 2.5 0 0 1 .905-.165 2.65 2.65 0 0 1 2.386 1.405q.36.647.356 1.489a2.9 2.9 0 0 1-.381 1.502q-.38.66-1.058 1.041-.672.376-1.544.376m4.346-1.811v-1.057l3.744-5.915h.834v1.557h-.529l-2.678 4.239v.068h5.132v1.108zm4.108 1.693v-2.014l.009-.482v-6.169h1.239v8.665zm-24.054 48.916v8.664h-1.311v-7.353h-.051l-2.073 1.354v-1.252l2.162-1.413zm3.506 7.48-.063.461a7 7 0 0 1-.216 1.057q-.148.554-.309 1.028-.156.474-.258.753h-.897l.153-.71q.097-.444.19-.995t.14-1.121l.042-.473zm4.472 1.303q-.872 0-1.557-.301a2.65 2.65 0 0 1-1.079-.833 2.2 2.2 0 0 1-.423-1.244h1.329q.026.385.258.668.237.28.618.432.38.152.846.152.512 0 .905-.177.397-.178.622-.495a1.27 1.27 0 0 0 .224-.741q0-.435-.224-.766a1.47 1.47 0 0 0-.647-.524q-.423-.19-1.024-.19h-.732v-1.067h.732q.481 0 .846-.173.368-.174.575-.482a1.3 1.3 0 0 0 .208-.732q0-.402-.182-.698a1.2 1.2 0 0 0-.508-.47 1.65 1.65 0 0 0-.77-.169q-.423 0-.791.156-.364.153-.592.44a1.13 1.13 0 0 0-.246.682h-1.265a2.14 2.14 0 0 1 .415-1.236 2.7 2.7 0 0 1 1.049-.833q.651-.3 1.447-.301.834 0 1.438.326.61.321.94.859.333.537.33 1.176.003.728-.407 1.235-.405.508-1.083.682v.067q.864.131 1.337.686.478.553.474 1.375.004.714-.398 1.281a2.7 2.7 0 0 1-1.087.893q-.69.322-1.578.322m7.949-8.783v8.664h-1.311v-7.353h-.051l-2.073 1.354v-1.252l2.162-1.413zm2.344 8.664v-.948l2.932-3.037q.47-.495.774-.867.31-.377.461-.715a1.7 1.7 0 0 0 .153-.72q0-.43-.203-.744a1.33 1.33 0 0 0-.555-.487 1.8 1.8 0 0 0-.791-.173q-.465 0-.812.19a1.3 1.3 0 0 0-.533.538 1.7 1.7 0 0 0-.186.812h-1.248q0-.792.364-1.384.363-.591.998-.918.635-.33 1.443-.33.816 0 1.438.326.626.322.977.88.351.555.351 1.252 0 .483-.181.944-.178.46-.622 1.028-.444.562-1.236 1.366l-1.722 1.803v.063h3.901v1.121z"/><circle cx="256.365" cy="172.122" r="3.971" fill="#090f1d"/><circle cx="256.365" cy="229.702" r="3.971" fill="#9ca3af"/><rect width="325.788" height="252.055" x="273.876" y="46.945" fill="#fff" stroke="#f2f4f8" stroke-linecap="round" stroke-width=".993" rx="13.587"/><path fill="#090f1d" d="M299.425 71.772h-1.846a2.3 2.3 0 0 0-.291-.805 2.2 2.2 0 0 0-.528-.602 2.2 2.2 0 0 0-.721-.37 2.8 2.8 0 0 0-.864-.128 2.6 2.6 0 0 0-1.461.414q-.636.41-.997 1.205-.36.79-.36 1.93 0 1.16.36 1.954.366.79.997 1.194.637.4 1.456.4.454 0 .849-.118.4-.125.716-.36.32-.238.538-.583a2.2 2.2 0 0 0 .306-.79l1.846.01a4 4 0 0 1-.449 1.353 4 4 0 0 1-.894 1.115q-.552.48-1.293.75a4.8 4.8 0 0 1-1.643.267q-1.334 0-2.379-.617-1.046-.617-1.649-1.782-.602-1.165-.602-2.794 0-1.633.607-2.793.607-1.165 1.654-1.782t2.369-.617q.844 0 1.569.237.726.237 1.293.696.569.454.933 1.115.37.657.484 1.5m4.905 6.846q-1.111 0-1.925-.489a3.3 3.3 0 0 1-1.264-1.367q-.444-.879-.444-2.053 0-1.176.444-2.059.45-.883 1.264-1.372.814-.488 1.925-.488 1.11 0 1.925.488.814.489 1.258 1.372.45.884.449 2.059 0 1.174-.449 2.053a3.3 3.3 0 0 1-1.258 1.367q-.815.489-1.925.489m.01-1.432q.602 0 1.007-.33.404-.336.602-.899.202-.563.202-1.253 0-.696-.202-1.259a2 2 0 0 0-.602-.903q-.405-.336-1.007-.336-.618 0-1.027.336-.405.336-.607.903a3.8 3.8 0 0 0-.197 1.259q0 .69.197 1.253.202.563.607.899.41.33 1.027.33m6.926-3.159v4.443h-1.787v-7.582h1.708v1.289h.089q.261-.637.834-1.012.577-.375 1.426-.375.785 0 1.367.335.588.336.908.973.327.636.321 1.544v4.828h-1.786v-4.551q0-.76-.395-1.19-.39-.429-1.081-.429-.47 0-.834.207-.361.203-.568.588-.202.384-.202.933m13.183-3.139-2.7 7.582h-1.974l-2.7-7.582h1.905l1.743 5.632h.078l1.748-5.632zm4.335 7.73q-1.14 0-1.97-.474a3.2 3.2 0 0 1-1.268-1.353q-.444-.878-.444-2.068 0-1.17.444-2.053a3.35 3.35 0 0 1 1.254-1.382q.804-.498 1.89-.498.7 0 1.323.227.627.222 1.105.69.484.47.76 1.195.277.72.277 1.718v.548h-6.214v-1.205h4.501a1.9 1.9 0 0 0-.222-.913 1.6 1.6 0 0 0-.607-.636 1.7 1.7 0 0 0-.898-.233q-.548 0-.963.267a1.83 1.83 0 0 0-.646.691 2 2 0 0 0-.232.933v1.051q0 .662.241 1.135.242.47.677.721a2 2 0 0 0 1.016.247q.39 0 .706-.109.316-.114.548-.33.232-.218.351-.538l1.668.187q-.158.662-.602 1.155-.44.49-1.126.76-.685.267-1.569.267m4.882-.148v-7.582h1.733v1.264h.079q.207-.657.711-1.012.508-.36 1.159-.36.148 0 .331.015.188.01.311.034v1.644a2 2 0 0 0-.36-.07 3 3 0 0 0-.469-.034q-.489 0-.879.212-.384.207-.607.578a1.63 1.63 0 0 0-.222.854v4.457zm11.503-5.578-1.629.178a1.3 1.3 0 0 0-.242-.464 1.2 1.2 0 0 0-.454-.35 1.65 1.65 0 0 0-.701-.134q-.557 0-.937.242-.375.241-.37.627-.005.33.241.538.252.207.83.34l1.293.277q1.075.233 1.599.735.528.504.533 1.318a2.06 2.06 0 0 1-.42 1.264q-.41.543-1.14.849t-1.678.306q-1.392 0-2.241-.583-.849-.587-1.012-1.633l1.743-.168q.119.513.503.775.386.261 1.002.261.637 0 1.022-.261.39-.262.39-.647a.67.67 0 0 0-.252-.538q-.246-.212-.77-.326l-1.293-.271q-1.09-.227-1.614-.765-.524-.543-.518-1.372a1.94 1.94 0 0 1 .38-1.215q.39-.518 1.081-.8.696-.285 1.604-.285 1.332 0 2.097.567.77.568.953 1.535m1.636 5.578v-7.582h1.787v7.582zm.899-8.658q-.425 0-.731-.281a.9.9 0 0 1-.306-.686q0-.404.306-.686.306-.286.731-.286.429 0 .73.286a.9.9 0 0 1 .306.686.9.9 0 0 1-.306.686 1.03 1.03 0 0 1-.73.281m6.032 8.806q-1.11 0-1.925-.489a3.3 3.3 0 0 1-1.263-1.367q-.444-.879-.444-2.053 0-1.176.444-2.059a3.3 3.3 0 0 1 1.263-1.372q.815-.488 1.925-.488t1.925.488 1.259 1.372q.449.884.449 2.059 0 1.174-.449 2.053a3.3 3.3 0 0 1-1.259 1.367q-.814.489-1.925.489m.01-1.432q.603 0 1.007-.33.405-.336.602-.899.203-.563.203-1.253 0-.696-.203-1.259a2 2 0 0 0-.602-.903q-.404-.336-1.007-.336-.616 0-1.027.336a2.03 2.03 0 0 0-.607.903 3.8 3.8 0 0 0-.197 1.259q0 .69.197 1.253.203.563.607.899.41.33 1.027.33m6.926-3.159v4.443h-1.787v-7.582h1.708v1.289h.089q.261-.637.834-1.012.578-.375 1.427-.375.784 0 1.367.335.587.336.908.973.326.636.321 1.544v4.828h-1.787v-4.551q0-.76-.395-1.19-.39-.429-1.081-.429-.468 0-.834.207-.36.203-.568.588-.202.384-.202.933m12.675-1.135-1.629.178a1.3 1.3 0 0 0-.242-.464 1.2 1.2 0 0 0-.454-.35 1.65 1.65 0 0 0-.701-.134q-.557 0-.937.242-.375.241-.371.627-.004.33.242.538.252.207.83.34l1.293.277q1.075.233 1.599.735.528.504.533 1.318a2.06 2.06 0 0 1-.42 1.264q-.41.543-1.14.849t-1.678.306q-1.392 0-2.241-.583-.849-.587-1.012-1.633l1.743-.168q.119.513.503.775.385.261 1.002.261.637 0 1.022-.261.39-.262.39-.647a.67.67 0 0 0-.252-.538q-.246-.212-.77-.326l-1.293-.271q-1.09-.227-1.614-.765-.524-.543-.518-1.372a1.94 1.94 0 0 1 .38-1.215q.39-.518 1.081-.8.695-.285 1.604-.285 1.332 0 2.097.567.77.568.953 1.535m5.163 5.578V68.36h1.787v3.781h.074q.138-.276.389-.587.252-.315.682-.538.429-.227 1.095-.227.879 0 1.585.449.711.444 1.125 1.318.42.869.42 2.132 0 1.249-.41 2.122-.41.874-1.116 1.333-.705.459-1.599.459-.65 0-1.081-.217a2.2 2.2 0 0 1-.691-.523 3.4 3.4 0 0 1-.399-.588h-.104v1.195zm1.752-3.791q0 .736.207 1.288.213.553.607.864.4.306.968.306.592 0 .992-.316.4-.321.602-.873a3.6 3.6 0 0 0 .207-1.269q0-.705-.202-1.254a1.9 1.9 0 0 0-.602-.858q-.4-.311-.997-.311-.573 0-.973.3-.399.302-.607.845-.202.543-.202 1.278m7.776 6.634q-.365 0-.676-.06a2.5 2.5 0 0 1-.489-.128l.415-1.392q.39.114.696.109a.85.85 0 0 0 .538-.193q.237-.182.4-.612l.153-.41-2.75-7.739h1.896l1.747 5.726h.079l1.752-5.726h1.9l-3.035 8.5a3.4 3.4 0 0 1-.563 1.031q-.35.435-.859.662-.503.231-1.204.232m13.652-2.695q-1.134 0-1.949-.499a3.33 3.33 0 0 1-1.249-1.377q-.435-.884-.434-2.033 0-1.155.444-2.039a3.3 3.3 0 0 1 1.254-1.382q.813-.498 1.924-.498.923 0 1.634.34.716.335 1.14.953.425.612.484 1.431h-1.708a1.63 1.63 0 0 0-.493-.913q-.386-.37-1.032-.37-.548 0-.962.296-.415.291-.647.84-.227.547-.227 1.312 0 .774.227 1.333.227.553.637.853.414.297.972.297.395 0 .706-.148.316-.153.528-.44.213-.285.291-.696h1.708a3 3 0 0 1-.474 1.427 2.8 2.8 0 0 1-1.115.967q-.707.346-1.659.346m8.022 0q-1.11 0-1.925-.489a3.3 3.3 0 0 1-1.263-1.367q-.445-.879-.445-2.053 0-1.176.445-2.059a3.3 3.3 0 0 1 1.263-1.372q.815-.488 1.925-.488t1.925.488 1.259 1.372q.449.884.449 2.059 0 1.174-.449 2.053a3.3 3.3 0 0 1-1.259 1.367q-.815.489-1.925.489m.01-1.432q.602 0 1.007-.33.404-.336.602-.899.202-.563.202-1.253 0-.696-.202-1.259a2 2 0 0 0-.602-.903q-.405-.336-1.007-.336-.617 0-1.027.336a2.03 2.03 0 0 0-.607.903 3.8 3.8 0 0 0-.197 1.259q0 .69.197 1.253.203.563.607.899.41.33 1.027.33m6.926-3.159v4.443h-1.787v-7.582h1.708v1.289h.089q.261-.637.834-1.012.577-.375 1.426-.375.785 0 1.368.335.587.336.908.973.325.636.321 1.544v4.828h-1.787V73.92q0-.76-.395-1.19-.39-.429-1.081-.429-.47 0-.834.207-.36.203-.568.588-.202.384-.202.933m13.183-3.139-2.7 7.582h-1.974l-2.7-7.582h1.905l1.743 5.632h.079l1.747-5.632zm4.335 7.73q-1.14 0-1.969-.474-.825-.48-1.269-1.353-.444-.878-.444-2.068 0-1.17.444-2.053.45-.888 1.254-1.382.804-.498 1.89-.498.7 0 1.323.227.626.222 1.106.69.483.47.76 1.195.276.72.276 1.718v.548h-6.214v-1.205h4.501a1.9 1.9 0 0 0-.222-.913 1.6 1.6 0 0 0-.607-.636 1.7 1.7 0 0 0-.898-.233q-.548 0-.963.267a1.84 1.84 0 0 0-.646.691 2 2 0 0 0-.232.933v1.051q0 .662.242 1.135.241.47.676.721.434.247 1.017.247.39 0 .706-.109.315-.114.547-.33.233-.218.351-.538l1.668.187q-.158.662-.602 1.155-.44.49-1.125.76-.687.267-1.57.267m4.883-.148V70.89h1.732v1.264h.079q.207-.657.711-1.012.508-.36 1.16-.36.148 0 .33.015.188.01.311.034v1.644a2 2 0 0 0-.36-.07 3 3 0 0 0-.469-.034q-.489 0-.878.212a1.55 1.55 0 0 0-.607.578 1.6 1.6 0 0 0-.223.854v4.457zm11.502-5.578-1.628.178a1.3 1.3 0 0 0-.242-.464 1.2 1.2 0 0 0-.454-.35 1.7 1.7 0 0 0-.701-.134q-.558 0-.938.242-.375.241-.37.627-.005.33.242.538.251.207.829.34l1.293.277q1.076.233 1.599.735.528.504.533 1.318a2.06 2.06 0 0 1-.419 1.264q-.41.543-1.14.849t-1.679.306q-1.392 0-2.24-.583-.85-.587-1.012-1.633l1.742-.168q.119.513.504.775.384.261 1.001.261.638 0 1.022-.261.39-.262.39-.647a.67.67 0 0 0-.252-.538q-.246-.212-.77-.326l-1.293-.271q-1.09-.227-1.614-.765-.523-.543-.518-1.372-.005-.701.38-1.215.39-.518 1.081-.8.696-.285 1.604-.285 1.333 0 2.098.567.77.568.952 1.535m1.637 5.578V70.89h1.786v7.582zm.898-8.658q-.425 0-.731-.281a.9.9 0 0 1-.306-.686q0-.404.306-.686.306-.286.731-.286.43 0 .73.286a.9.9 0 0 1 .306.686.9.9 0 0 1-.306.686q-.3.282-.73.281m6.033 8.806q-1.111 0-1.925-.489a3.3 3.3 0 0 1-1.264-1.367q-.444-.879-.444-2.053 0-1.176.444-2.059a3.3 3.3 0 0 1 1.264-1.372q.814-.488 1.925-.488 1.11 0 1.924.488.815.489 1.259 1.372.449.884.449 2.059 0 1.174-.449 2.053a3.3 3.3 0 0 1-1.259 1.367q-.813.489-1.924.489m.009-1.432q.603 0 1.007-.33.405-.336.602-.899.203-.563.203-1.253 0-.696-.203-1.259a2 2 0 0 0-.602-.903q-.404-.336-1.007-.336-.617 0-1.026.336-.405.336-.607.903a3.8 3.8 0 0 0-.198 1.259q0 .69.198 1.253.202.563.607.899.41.33 1.026.33m6.926-3.159v4.443h-1.786V70.89h1.707v1.289h.089q.262-.637.834-1.012.578-.375 1.427-.375.785 0 1.367.335.587.336.908.973.326.636.321 1.544v4.828h-1.787v-4.551q0-.76-.395-1.19-.39-.429-1.08-.429-.47 0-.835.207-.36.203-.567.588-.203.384-.203.933m12.313 4.596q-.721 0-1.299-.257a2.1 2.1 0 0 1-.908-.77q-.33-.508-.33-1.254 0-.641.236-1.06.237-.42.647-.672t.923-.38a7.5 7.5 0 0 1 1.071-.193q.667-.069 1.081-.123.414-.06.602-.178.192-.123.193-.38v-.03q0-.557-.331-.863-.33-.306-.953-.306-.656 0-1.041.286-.38.286-.513.676l-1.669-.237q.198-.69.652-1.155a2.84 2.84 0 0 1 1.11-.7 4.3 4.3 0 0 1 1.452-.237q.547 0 1.09.128t.992.424q.45.292.721.795.276.504.276 1.259v5.074h-1.717v-1.042h-.059q-.163.315-.459.593a2.2 2.2 0 0 1-.736.439 3 3 0 0 1-1.031.163m.463-1.313q.539 0 .933-.213a1.56 1.56 0 0 0 .607-.572q.218-.355.218-.775v-.893a.9.9 0 0 1-.287.128q-.196.06-.444.104-.246.045-.489.079l-.419.059a3 3 0 0 0-.716.177q-.315.124-.498.346-.183.217-.183.563 0 .493.36.745.361.252.918.252m8.643 1.308q-1.135 0-1.95-.499a3.33 3.33 0 0 1-1.248-1.377q-.435-.884-.435-2.033 0-1.155.444-2.039a3.3 3.3 0 0 1 1.254-1.382q.815-.498 1.925-.498.923 0 1.634.34.716.335 1.14.953.424.612.484 1.431h-1.708a1.63 1.63 0 0 0-.494-.913q-.384-.37-1.031-.37-.548 0-.963.296-.414.291-.646.84-.227.547-.227 1.312 0 .774.227 1.333.226.553.636.853.415.297.973.297.394 0 .706-.148.315-.153.528-.44.212-.285.291-.696h1.708a3 3 0 0 1-.474 1.427 2.8 2.8 0 0 1-1.116.967q-.705.346-1.658.346m8.5-7.73v1.382h-4.358v-1.382zm-3.282-1.816h1.787v7.117q0 .36.108.553.114.187.297.257.182.069.404.069.168 0 .306-.025.143-.024.218-.044l.301 1.397q-.144.049-.41.108-.261.06-.642.07a2.9 2.9 0 0 1-1.209-.203 1.9 1.9 0 0 1-.854-.701q-.31-.474-.306-1.184zm4.777 9.398v-7.582h1.786v7.582zm.898-8.658a1.04 1.04 0 0 1-.73-.281.9.9 0 0 1-.306-.686q0-.404.306-.686.306-.286.73-.286.43 0 .73.286a.9.9 0 0 1 .307.686.9.9 0 0 1-.307.686q-.3.282-.73.281m6.033 8.806q-1.111 0-1.925-.489a3.3 3.3 0 0 1-1.264-1.367q-.444-.879-.444-2.053 0-1.176.444-2.059.45-.883 1.264-1.372.814-.488 1.925-.488 1.11 0 1.925.488.814.489 1.258 1.372.45.884.449 2.059 0 1.174-.449 2.053a3.3 3.3 0 0 1-1.258 1.367q-.815.489-1.925.489m.01-1.432q.602 0 1.006-.33.405-.336.603-.899.202-.563.202-1.253 0-.696-.202-1.259a2 2 0 0 0-.603-.903q-.404-.336-1.006-.336-.618 0-1.027.336-.405.336-.607.903a3.8 3.8 0 0 0-.198 1.259q0 .69.198 1.253.202.563.607.899.41.33 1.027.33m6.926-3.159v4.443h-1.787v-7.582h1.708v1.289h.088a2.17 2.17 0 0 1 .835-1.012q.577-.375 1.426-.375.785 0 1.367.335.588.336.908.973.326.636.321 1.544v4.828h-1.787v-4.551q0-.76-.394-1.19-.39-.429-1.081-.429-.47 0-.834.207-.361.203-.568.588-.202.384-.202.933"/><g filter="url(#c)"><path stroke="#f2f4f8" stroke-linecap="round" stroke-width=".993" d="M599.664 101.731h-325.88" opacity=".7"/></g><rect width="325.788" height="252.055" x="273.876" y="46.945" fill="#fff" stroke="#000" stroke-linecap="round" stroke-width=".993" rx="13.587"/><path fill="#090f1d" d="M299.425 71.772h-1.846a2.3 2.3 0 0 0-.291-.805 2.2 2.2 0 0 0-.528-.602 2.2 2.2 0 0 0-.721-.37 2.8 2.8 0 0 0-.864-.128 2.6 2.6 0 0 0-1.461.414q-.636.41-.997 1.205-.36.79-.36 1.93 0 1.16.36 1.954.366.79.997 1.194.637.4 1.456.4.454 0 .849-.118.4-.125.716-.36.32-.238.538-.583a2.2 2.2 0 0 0 .306-.79l1.846.01a4 4 0 0 1-.449 1.353 4 4 0 0 1-.894 1.115q-.552.48-1.293.75a4.8 4.8 0 0 1-1.643.267q-1.334 0-2.379-.617-1.046-.617-1.649-1.782-.602-1.165-.602-2.794 0-1.633.607-2.793.607-1.165 1.654-1.782t2.369-.617q.844 0 1.569.237.726.237 1.293.696.569.454.933 1.115.37.657.484 1.5m4.905 6.846q-1.111 0-1.925-.489a3.3 3.3 0 0 1-1.264-1.367q-.444-.879-.444-2.053 0-1.176.444-2.059.45-.883 1.264-1.372.814-.488 1.925-.488 1.11 0 1.925.488.814.489 1.258 1.372.45.884.449 2.059 0 1.174-.449 2.053a3.3 3.3 0 0 1-1.258 1.367q-.815.489-1.925.489m.01-1.432q.602 0 1.007-.33.404-.336.602-.899.202-.563.202-1.253 0-.696-.202-1.259a2 2 0 0 0-.602-.903q-.405-.336-1.007-.336-.618 0-1.027.336-.405.336-.607.903a3.8 3.8 0 0 0-.197 1.259q0 .69.197 1.253.202.563.607.899.41.33 1.027.33m6.926-3.159v4.443h-1.787v-7.582h1.708v1.289h.089q.261-.637.834-1.012.577-.375 1.426-.375.785 0 1.367.335.588.336.908.973.327.636.321 1.544v4.828h-1.786v-4.551q0-.76-.395-1.19-.39-.429-1.081-.429-.47 0-.834.207-.361.203-.568.588-.202.384-.202.933m13.183-3.139-2.7 7.582h-1.974l-2.7-7.582h1.905l1.743 5.632h.078l1.748-5.632zm4.335 7.73q-1.14 0-1.97-.474a3.2 3.2 0 0 1-1.268-1.353q-.444-.878-.444-2.068 0-1.17.444-2.053a3.35 3.35 0 0 1 1.254-1.382q.804-.498 1.89-.498.7 0 1.323.227.627.222 1.105.69.484.47.76 1.195.277.72.277 1.718v.548h-6.214v-1.205h4.501a1.9 1.9 0 0 0-.222-.913 1.6 1.6 0 0 0-.607-.636 1.7 1.7 0 0 0-.898-.233q-.548 0-.963.267a1.83 1.83 0 0 0-.646.691 2 2 0 0 0-.232.933v1.051q0 .662.241 1.135.242.47.677.721a2 2 0 0 0 1.016.247q.39 0 .706-.109.316-.114.548-.33.232-.218.351-.538l1.668.187q-.158.662-.602 1.155-.44.49-1.126.76-.685.267-1.569.267m4.882-.148v-7.582h1.733v1.264h.079q.207-.657.711-1.012.508-.36 1.159-.36.148 0 .331.015.188.01.311.034v1.644a2 2 0 0 0-.36-.07 3 3 0 0 0-.469-.034q-.489 0-.879.212-.384.207-.607.578a1.63 1.63 0 0 0-.222.854v4.457zm11.503-5.578-1.629.178a1.3 1.3 0 0 0-.242-.464 1.2 1.2 0 0 0-.454-.35 1.65 1.65 0 0 0-.701-.134q-.557 0-.937.242-.375.241-.37.627-.005.33.241.538.252.207.83.34l1.293.277q1.075.233 1.599.735.528.504.533 1.318a2.06 2.06 0 0 1-.42 1.264q-.41.543-1.14.849t-1.678.306q-1.392 0-2.241-.583-.849-.587-1.012-1.633l1.743-.168q.119.513.503.775.386.261 1.002.261.637 0 1.022-.261.39-.262.39-.647a.67.67 0 0 0-.252-.538q-.246-.212-.77-.326l-1.293-.271q-1.09-.227-1.614-.765-.524-.543-.518-1.372a1.94 1.94 0 0 1 .38-1.215q.39-.518 1.081-.8.696-.285 1.604-.285 1.332 0 2.097.567.77.568.953 1.535m1.636 5.578v-7.582h1.787v7.582zm.899-8.658q-.425 0-.731-.281a.9.9 0 0 1-.306-.686q0-.404.306-.686.306-.286.731-.286.429 0 .73.286a.9.9 0 0 1 .306.686.9.9 0 0 1-.306.686 1.03 1.03 0 0 1-.73.281m6.032 8.806q-1.11 0-1.925-.489a3.3 3.3 0 0 1-1.263-1.367q-.444-.879-.444-2.053 0-1.176.444-2.059a3.3 3.3 0 0 1 1.263-1.372q.815-.488 1.925-.488t1.925.488 1.259 1.372q.449.884.449 2.059 0 1.174-.449 2.053a3.3 3.3 0 0 1-1.259 1.367q-.814.489-1.925.489m.01-1.432q.603 0 1.007-.33.405-.336.602-.899.203-.563.203-1.253 0-.696-.203-1.259a2 2 0 0 0-.602-.903q-.404-.336-1.007-.336-.616 0-1.027.336a2.03 2.03 0 0 0-.607.903 3.8 3.8 0 0 0-.197 1.259q0 .69.197 1.253.203.563.607.899.41.33 1.027.33m6.926-3.159v4.443h-1.787v-7.582h1.708v1.289h.089q.261-.637.834-1.012.578-.375 1.427-.375.784 0 1.367.335.587.336.908.973.326.636.321 1.544v4.828h-1.787v-4.551q0-.76-.395-1.19-.39-.429-1.081-.429-.468 0-.834.207-.36.203-.568.588-.202.384-.202.933m12.675-1.135-1.629.178a1.3 1.3 0 0 0-.242-.464 1.2 1.2 0 0 0-.454-.35 1.65 1.65 0 0 0-.701-.134q-.557 0-.937.242-.375.241-.371.627-.004.33.242.538.252.207.83.34l1.293.277q1.075.233 1.599.735.528.504.533 1.318a2.06 2.06 0 0 1-.42 1.264q-.41.543-1.14.849t-1.678.306q-1.392 0-2.241-.583-.849-.587-1.012-1.633l1.743-.168q.119.513.503.775.385.261 1.002.261.637 0 1.022-.261.39-.262.39-.647a.67.67 0 0 0-.252-.538q-.246-.212-.77-.326l-1.293-.271q-1.09-.227-1.614-.765-.524-.543-.518-1.372a1.94 1.94 0 0 1 .38-1.215q.39-.518 1.081-.8.695-.285 1.604-.285 1.332 0 2.097.567.77.568.953 1.535m5.163 5.578V68.36h1.787v3.781h.074q.138-.276.389-.587.252-.315.682-.538.429-.227 1.095-.227.879 0 1.585.449.711.444 1.125 1.318.42.869.42 2.132 0 1.249-.41 2.122-.41.874-1.116 1.333-.705.459-1.599.459-.65 0-1.081-.217a2.2 2.2 0 0 1-.691-.523 3.4 3.4 0 0 1-.399-.588h-.104v1.195zm1.752-3.791q0 .736.207 1.288.213.553.607.864.4.306.968.306.592 0 .992-.316.4-.321.602-.873a3.6 3.6 0 0 0 .207-1.269q0-.705-.202-1.254a1.9 1.9 0 0 0-.602-.858q-.4-.311-.997-.311-.573 0-.973.3-.399.302-.607.845-.202.543-.202 1.278m7.776 6.634q-.365 0-.676-.06a2.5 2.5 0 0 1-.489-.128l.415-1.392q.39.114.696.109a.85.85 0 0 0 .538-.193q.237-.182.4-.612l.153-.41-2.75-7.739h1.896l1.747 5.726h.079l1.752-5.726h1.9l-3.035 8.5a3.4 3.4 0 0 1-.563 1.031q-.35.435-.859.662-.503.231-1.204.232m13.652-2.695q-1.134 0-1.949-.499a3.33 3.33 0 0 1-1.249-1.377q-.435-.884-.434-2.033 0-1.155.444-2.039a3.3 3.3 0 0 1 1.254-1.382q.813-.498 1.924-.498.923 0 1.634.34.716.335 1.14.953.425.612.484 1.431h-1.708a1.63 1.63 0 0 0-.493-.913q-.386-.37-1.032-.37-.548 0-.962.296-.415.291-.647.84-.227.547-.227 1.312 0 .774.227 1.333.227.553.637.853.414.297.972.297.395 0 .706-.148.316-.153.528-.44.213-.285.291-.696h1.708a3 3 0 0 1-.474 1.427 2.8 2.8 0 0 1-1.115.967q-.707.346-1.659.346m8.022 0q-1.11 0-1.925-.489a3.3 3.3 0 0 1-1.263-1.367q-.445-.879-.445-2.053 0-1.176.445-2.059a3.3 3.3 0 0 1 1.263-1.372q.815-.488 1.925-.488t1.925.488 1.259 1.372q.449.884.449 2.059 0 1.174-.449 2.053a3.3 3.3 0 0 1-1.259 1.367q-.815.489-1.925.489m.01-1.432q.602 0 1.007-.33.404-.336.602-.899.202-.563.202-1.253 0-.696-.202-1.259a2 2 0 0 0-.602-.903q-.405-.336-1.007-.336-.617 0-1.027.336a2.03 2.03 0 0 0-.607.903 3.8 3.8 0 0 0-.197 1.259q0 .69.197 1.253.203.563.607.899.41.33 1.027.33m6.926-3.159v4.443h-1.787v-7.582h1.708v1.289h.089q.261-.637.834-1.012.577-.375 1.426-.375.785 0 1.368.335.587.336.908.973.325.636.321 1.544v4.828h-1.787V73.92q0-.76-.395-1.19-.39-.429-1.081-.429-.47 0-.834.207-.36.203-.568.588-.202.384-.202.933m13.183-3.139-2.7 7.582h-1.974l-2.7-7.582h1.905l1.743 5.632h.079l1.747-5.632zm4.335 7.73q-1.14 0-1.969-.474-.825-.48-1.269-1.353-.444-.878-.444-2.068 0-1.17.444-2.053.45-.888 1.254-1.382.804-.498 1.89-.498.7 0 1.323.227.626.222 1.106.69.483.47.76 1.195.276.72.276 1.718v.548h-6.214v-1.205h4.501a1.9 1.9 0 0 0-.222-.913 1.6 1.6 0 0 0-.607-.636 1.7 1.7 0 0 0-.898-.233q-.548 0-.963.267a1.84 1.84 0 0 0-.646.691 2 2 0 0 0-.232.933v1.051q0 .662.242 1.135.241.47.676.721.434.247 1.017.247.39 0 .706-.109.315-.114.547-.33.233-.218.351-.538l1.668.187q-.158.662-.602 1.155-.44.49-1.125.76-.687.267-1.57.267m4.883-.148V70.89h1.732v1.264h.079q.207-.657.711-1.012.508-.36 1.16-.36.148 0 .33.015.188.01.311.034v1.644a2 2 0 0 0-.36-.07 3 3 0 0 0-.469-.034q-.489 0-.878.212a1.55 1.55 0 0 0-.607.578 1.6 1.6 0 0 0-.223.854v4.457zm11.502-5.578-1.628.178a1.3 1.3 0 0 0-.242-.464 1.2 1.2 0 0 0-.454-.35 1.7 1.7 0 0 0-.701-.134q-.558 0-.938.242-.375.241-.37.627-.005.33.242.538.251.207.829.34l1.293.277q1.076.233 1.599.735.528.504.533 1.318a2.06 2.06 0 0 1-.419 1.264q-.41.543-1.14.849t-1.679.306q-1.392 0-2.24-.583-.85-.587-1.012-1.633l1.742-.168q.119.513.504.775.384.261 1.001.261.638 0 1.022-.261.39-.262.39-.647a.67.67 0 0 0-.252-.538q-.246-.212-.77-.326l-1.293-.271q-1.09-.227-1.614-.765-.523-.543-.518-1.372-.005-.701.38-1.215.39-.518 1.081-.8.696-.285 1.604-.285 1.333 0 2.098.567.77.568.952 1.535m1.637 5.578V70.89h1.786v7.582zm.898-8.658q-.425 0-.731-.281a.9.9 0 0 1-.306-.686q0-.404.306-.686.306-.286.731-.286.43 0 .73.286a.9.9 0 0 1 .306.686.9.9 0 0 1-.306.686q-.3.282-.73.281m6.033 8.806q-1.111 0-1.925-.489a3.3 3.3 0 0 1-1.264-1.367q-.444-.879-.444-2.053 0-1.176.444-2.059a3.3 3.3 0 0 1 1.264-1.372q.814-.488 1.925-.488 1.11 0 1.924.488.815.489 1.259 1.372.449.884.449 2.059 0 1.174-.449 2.053a3.3 3.3 0 0 1-1.259 1.367q-.813.489-1.924.489m.009-1.432q.603 0 1.007-.33.405-.336.602-.899.203-.563.203-1.253 0-.696-.203-1.259a2 2 0 0 0-.602-.903q-.404-.336-1.007-.336-.617 0-1.026.336-.405.336-.607.903a3.8 3.8 0 0 0-.198 1.259q0 .69.198 1.253.202.563.607.899.41.33 1.026.33m6.926-3.159v4.443h-1.786V70.89h1.707v1.289h.089q.262-.637.834-1.012.578-.375 1.427-.375.785 0 1.367.335.587.336.908.973.326.636.321 1.544v4.828h-1.787v-4.551q0-.76-.395-1.19-.39-.429-1.08-.429-.47 0-.835.207-.36.203-.567.588-.203.384-.203.933m12.313 4.596q-.721 0-1.299-.257a2.1 2.1 0 0 1-.908-.77q-.33-.508-.33-1.254 0-.641.236-1.06.237-.42.647-.672t.923-.38a7.5 7.5 0 0 1 1.071-.193q.667-.069 1.081-.123.414-.06.602-.178.192-.123.193-.38v-.03q0-.557-.331-.863-.33-.306-.953-.306-.656 0-1.041.286-.38.286-.513.676l-1.669-.237q.198-.69.652-1.155a2.84 2.84 0 0 1 1.11-.7 4.3 4.3 0 0 1 1.452-.237q.547 0 1.09.128t.992.424q.45.292.721.795.276.504.276 1.259v5.074h-1.717v-1.042h-.059q-.163.315-.459.593a2.2 2.2 0 0 1-.736.439 3 3 0 0 1-1.031.163m.463-1.313q.539 0 .933-.213a1.56 1.56 0 0 0 .607-.572q.218-.355.218-.775v-.893a.9.9 0 0 1-.287.128q-.196.06-.444.104-.246.045-.489.079l-.419.059a3 3 0 0 0-.716.177q-.315.124-.498.346-.183.217-.183.563 0 .493.36.745.361.252.918.252m8.643 1.308q-1.135 0-1.95-.499a3.33 3.33 0 0 1-1.248-1.377q-.435-.884-.435-2.033 0-1.155.444-2.039a3.3 3.3 0 0 1 1.254-1.382q.815-.498 1.925-.498.923 0 1.634.34.716.335 1.14.953.424.612.484 1.431h-1.708a1.63 1.63 0 0 0-.494-.913q-.384-.37-1.031-.37-.548 0-.963.296-.414.291-.646.84-.227.547-.227 1.312 0 .774.227 1.333.226.553.636.853.415.297.973.297.394 0 .706-.148.315-.153.528-.44.212-.285.291-.696h1.708a3 3 0 0 1-.474 1.427 2.8 2.8 0 0 1-1.116.967q-.705.346-1.658.346m8.5-7.73v1.382h-4.358v-1.382zm-3.282-1.816h1.787v7.117q0 .36.108.553.114.187.297.257.182.069.404.069.168 0 .306-.025.143-.024.218-.044l.301 1.397q-.144.049-.41.108-.261.06-.642.07a2.9 2.9 0 0 1-1.209-.203 1.9 1.9 0 0 1-.854-.701q-.31-.474-.306-1.184zm4.777 9.398v-7.582h1.786v7.582zm.898-8.658a1.04 1.04 0 0 1-.73-.281.9.9 0 0 1-.306-.686q0-.404.306-.686.306-.286.73-.286.43 0 .73.286a.9.9 0 0 1 .307.686.9.9 0 0 1-.307.686q-.3.282-.73.281m6.033 8.806q-1.111 0-1.925-.489a3.3 3.3 0 0 1-1.264-1.367q-.444-.879-.444-2.053 0-1.176.444-2.059.45-.883 1.264-1.372.814-.488 1.925-.488 1.11 0 1.925.488.814.489 1.258 1.372.45.884.449 2.059 0 1.174-.449 2.053a3.3 3.3 0 0 1-1.258 1.367q-.815.489-1.925.489m.01-1.432q.602 0 1.006-.33.405-.336.603-.899.202-.563.202-1.253 0-.696-.202-1.259a2 2 0 0 0-.603-.903q-.404-.336-1.006-.336-.618 0-1.027.336-.405.336-.607.903a3.8 3.8 0 0 0-.198 1.259q0 .69.198 1.253.202.563.607.899.41.33 1.027.33m6.926-3.159v4.443h-1.787v-7.582h1.708v1.289h.088a2.17 2.17 0 0 1 .835-1.012q.577-.375 1.426-.375.785 0 1.367.335.588.336.908.973.326.636.321 1.544v4.828h-1.787v-4.551q0-.76-.394-1.19-.39-.429-1.081-.429-.47 0-.834.207-.361.203-.568.588-.202.384-.202.933"/><g filter="url(#d)"><path stroke="#f2f4f8" stroke-linecap="round" stroke-width=".993" d="M599.664 101.731h-325.88" opacity=".7"/></g><circle cx="562.664" cy="75.737" r="2.135" fill="#e5e7eb" stroke="#00162a" stroke-linecap="round" stroke-width=".993"/><circle cx="571.898" cy="75.737" r="2.135" fill="#e5e7eb" stroke="#00162a" stroke-linecap="round" stroke-width=".993"/><circle cx="581.133" cy="75.737" r="2.135" fill="#e5e7eb" stroke="#00162a" stroke-linecap="round" stroke-width=".993"/><path fill="#090f1d" d="M299.148 135.366v17.328h-3.139V138.42h-.102l-4.053 2.589v-2.877l4.307-2.766zm7.076 14.959-.11.931q-.118 1.067-.424 2.166a27 27 0 0 1-.626 2.039q-.33.93-.533 1.464h-2.064l.321-1.405q.212-.888.406-1.997t.263-2.25l.059-.948zm3.084-.846v-2.496l7.352-11.617h2.082v3.553h-1.269l-4.95 7.844v.135h10.263v2.581zm8.266 3.215v-3.977l.034-1.116v-12.235h2.961v17.328zm14.135.237q-1.829 0-3.249-.626-1.413-.625-2.234-1.743-.82-1.117-.872-2.581h3.182q.042.703.465 1.227a2.8 2.8 0 0 0 1.125.804q.703.288 1.574.288.931 0 1.65-.322.72-.33 1.125-.914.407-.583.398-1.345a2.34 2.34 0 0 0-.406-1.388q-.415-.6-1.201-.939-.779-.338-1.879-.338h-1.531v-2.42h1.531q.906 0 1.582-.313a2.56 2.56 0 0 0 1.075-.88q.389-.576.381-1.329.007-.735-.33-1.277a2.23 2.23 0 0 0-.939-.855q-.602-.304-1.413-.304-.796 0-1.473.287a2.7 2.7 0 0 0-1.091.821q-.415.525-.44 1.252h-3.021q.034-1.455.838-2.555.811-1.108 2.166-1.726 1.353-.627 3.037-.626 1.735 0 3.013.651 1.286.643 1.988 1.735.702 1.09.702 2.411.009 1.464-.863 2.454-.863.99-2.267 1.295v.135q1.827.253 2.8 1.354.982 1.091.973 2.716 0 1.455-.829 2.606-.82 1.142-2.267 1.794-1.439.651-3.3.651m15.325 0q-1.692 0-3.029-.634-1.337-.644-2.124-1.76-.778-1.118-.829-2.556h3.046q.084 1.067.922 1.743.838.669 2.014.669.922 0 1.642-.423a3.03 3.03 0 0 0 1.133-1.176q.415-.753.406-1.718.009-.981-.414-1.743a3.1 3.1 0 0 0-1.159-1.193q-.736-.44-1.693-.44a4 4 0 0 0-1.531.288q-.753.296-1.193.778l-2.835-.465.906-8.935h10.052v2.623h-7.455l-.499 4.594h.102q.481-.567 1.362-.939a4.8 4.8 0 0 1 1.929-.381q1.574 0 2.809.745a5.26 5.26 0 0 1 1.946 2.03q.711 1.295.711 2.962 0 1.718-.795 3.063a5.63 5.63 0 0 1-2.192 2.107q-1.396.76-3.232.761"/><path fill="#00162a" d="M298.708 119.984h-1.32a2 2 0 0 0-.791-1.29 2.2 2.2 0 0 0-.673-.338 2.6 2.6 0 0 0-.783-.115q-.749 0-1.341.377-.588.377-.93 1.104-.339.728-.339 1.777 0 1.058.339 1.785.342.728.935 1.1.592.373 1.332.373.41 0 .779-.11.372-.115.672-.335a2.02 2.02 0 0 0 .8-1.273l1.32.004a3.5 3.5 0 0 1-.411 1.176 3.2 3.2 0 0 1-.774.923 3.5 3.5 0 0 1-1.074.596 4 4 0 0 1-1.32.212q-1.125 0-2.006-.533-.88-.538-1.387-1.536-.504-.999-.504-2.382 0-1.387.508-2.382.507-.998 1.388-1.531.879-.538 2.001-.538.689 0 1.286.199.6.195 1.079.576.477.376.791.922.313.542.423 1.239m4.2 5.978q-.914 0-1.595-.419a2.8 2.8 0 0 1-1.058-1.171q-.376-.753-.376-1.76 0-1.011.376-1.769a2.8 2.8 0 0 1 1.058-1.176q.681-.419 1.595-.419t1.595.419 1.057 1.176.377 1.769q0 1.007-.377 1.76a2.8 2.8 0 0 1-1.057 1.171q-.681.42-1.595.419m.004-1.062q.592 0 .982-.313.389-.312.575-.833.19-.52.19-1.147 0-.621-.19-1.142a1.87 1.87 0 0 0-.575-.842q-.39-.317-.982-.317-.597 0-.99.317a1.9 1.9 0 0 0-.58.842 3.4 3.4 0 0 0-.186 1.142q0 .627.186 1.147.191.52.58.833.393.313.99.313m5.702-2.927v3.858h-1.265v-6.498h1.214v1.058h.08q.225-.516.703-.83.482-.312 1.214-.313.664 0 1.163.28.5.274.774.82.276.546.275 1.35v4.133h-1.264v-3.981q0-.707-.369-1.104-.367-.402-1.011-.402-.44 0-.782.19a1.4 1.4 0 0 0-.538.559q-.194.363-.194.88m11.181-2.64-2.356 6.498h-1.354l-2.361-6.498h1.358l1.646 5.001h.068l1.641-5.001zm3.769 6.629q-.961 0-1.654-.41a2.8 2.8 0 0 1-1.067-1.163q-.372-.753-.372-1.765 0-.998.372-1.76a2.9 2.9 0 0 1 1.05-1.188q.676-.428 1.582-.428.55 0 1.066.182.516.183.926.571.411.39.648 1.012.237.617.237 1.501v.449h-5.166v-.948h3.926q0-.499-.203-.884a1.53 1.53 0 0 0-.571-.613 1.6 1.6 0 0 0-.855-.225q-.532 0-.93.263a1.75 1.75 0 0 0-.61.677 1.95 1.95 0 0 0-.211.901v.74q0 .651.228 1.108.232.458.648.698.414.237.968.237.36 0 .656-.101.296-.106.512-.313t.33-.512l1.197.216a2.2 2.2 0 0 1-.516.926 2.5 2.5 0 0 1-.926.614q-.555.215-1.265.215m4.191-.131v-6.498h1.223v1.032h.068q.177-.523.626-.825a1.8 1.8 0 0 1 1.023-.304 5 5 0 0 1 .538.029v1.21a2 2 0 0 0-.271-.046q-.195-.03-.389-.03-.449 0-.8.19a1.41 1.41 0 0 0-.753 1.274v3.968zm9.442-4.912-1.147.204a1.4 1.4 0 0 0-.228-.419 1.1 1.1 0 0 0-.415-.326 1.5 1.5 0 0 0-.655-.127q-.538 0-.897.241-.36.237-.36.614 0 .326.241.524.241.199.779.326l1.032.237q.897.207 1.337.639.44.43.44 1.121 0 .584-.339 1.041-.334.452-.935.71-.595.258-1.383.258-1.092 0-1.781-.465-.69-.47-.846-1.333l1.222-.186q.115.478.47.724.356.24.926.241.622 0 .995-.258.372-.263.372-.639a.66.66 0 0 0-.229-.512q-.224-.207-.689-.313l-1.1-.241q-.91-.207-1.345-.66-.432-.453-.432-1.147 0-.575.322-1.007a2.1 2.1 0 0 1 .888-.672 3.2 3.2 0 0 1 1.299-.246q1.053 0 1.658.457.606.453.8 1.214m1.518 4.912v-6.498h1.265v6.498zm.638-7.501a.8.8 0 0 1-.567-.22.7.7 0 0 1-.232-.533q0-.312.232-.533a.8.8 0 0 1 .567-.224q.33 0 .563.224a.7.7 0 0 1 .237.533.7.7 0 0 1-.237.533.8.8 0 0 1-.563.22m5.065 7.632q-.913 0-1.594-.419a2.8 2.8 0 0 1-1.058-1.171q-.377-.753-.377-1.76 0-1.011.377-1.769a2.8 2.8 0 0 1 1.058-1.176q.68-.419 1.594-.419.915 0 1.595.419.681.418 1.058 1.176t.377 1.769q0 1.007-.377 1.76a2.8 2.8 0 0 1-1.058 1.171q-.68.42-1.595.419m.005-1.062q.592 0 .981-.313.39-.312.576-.833.19-.52.19-1.147 0-.621-.19-1.142a1.87 1.87 0 0 0-.576-.842q-.389-.317-.981-.317-.597 0-.99.317a1.9 1.9 0 0 0-.58.842 3.4 3.4 0 0 0-.186 1.142q0 .627.186 1.147.19.52.58.833.393.313.99.313m5.702-2.927v3.858h-1.265v-6.498h1.214v1.058h.08q.225-.516.702-.83.483-.312 1.215-.313.663 0 1.163.28.5.274.774.82.276.546.275 1.35v4.133h-1.265v-3.981q0-.707-.368-1.104-.367-.402-1.011-.402-.44 0-.783.19a1.4 1.4 0 0 0-.537.559q-.195.363-.194.88m10.724-1.054-1.146.204a1.4 1.4 0 0 0-.229-.419 1.1 1.1 0 0 0-.414-.326 1.5 1.5 0 0 0-.656-.127q-.537 0-.897.241-.36.237-.36.614 0 .326.241.524.242.199.779.326l1.032.237q.897.207 1.337.639.44.43.44 1.121 0 .584-.338 1.041-.335.452-.935.71-.597.258-1.384.258-1.09 0-1.781-.465-.69-.47-.846-1.333l1.223-.186q.114.478.469.724.356.24.927.241.621 0 .994-.258.372-.263.372-.639a.66.66 0 0 0-.228-.512q-.225-.207-.69-.313l-1.1-.241q-.91-.207-1.345-.66-.432-.453-.432-1.147 0-.575.322-1.007a2.1 2.1 0 0 1 .888-.672 3.2 3.2 0 0 1 1.299-.246q1.053 0 1.659.457.604.453.799 1.214"/><rect width="194.565" height="4.401" x="389.107" y="199.782" fill="#f2f4f8" rx="2.201"/><rect width="116.751" height="4.401" fill="#00162a" rx="2.201" transform="matrix(1 .00184 -.00077 1 389.11 199.444)"/><rect width="194.565" height="3.521" x="389.107" y="257.362" fill="#f2f4f8" rx="1.76"/><rect width="77.834" height="4.401" fill="#00162a" rx="2.201" transform="matrix(1 .00184 -.00077 1 389.11 257.025)"/><path fill="#090f1d" d="M558.262 183.145a4.3 4.3 0 0 1-1.416-.252 3.3 3.3 0 0 1-1.244-.814q-.554-.568-.879-1.506-.325-.943-.321-2.334 0-1.299.277-2.315.276-1.017.795-1.718.517-.705 1.248-1.076a3.6 3.6 0 0 1 1.644-.37q.953 0 1.688.375.74.375 1.194 1.027.455.646.563 1.461h-1.802a1.63 1.63 0 0 0-.567-.928q-.425-.351-1.076-.351-1.052 0-1.619.913-.562.913-.568 2.508h.069q.243-.435.627-.746.385-.31.869-.478a3.1 3.1 0 0 1 1.032-.173 3.03 3.03 0 0 1 2.719 1.594q.414.741.41 1.698.005.997-.454 1.792a3.3 3.3 0 0 1-1.279 1.244q-.82.453-1.91.449m-.01-1.481q.539 0 .963-.262.425-.261.671-.705.247-.445.242-.997a2 2 0 0 0-.237-.983 1.8 1.8 0 0 0-.656-.696 1.8 1.8 0 0 0-.958-.256q-.4 0-.745.153a1.8 1.8 0 0 0-.602.424 1.98 1.98 0 0 0-.553 1.372q.004.529.247.973.242.444.666.71.425.267.962.267m9.057 1.535q-1.218 0-2.092-.617-.87-.622-1.338-1.792-.464-1.175-.464-2.828.005-1.653.469-2.813.469-1.165 1.338-1.777.873-.612 2.087-.612t2.088.612 1.338 1.777q.468 1.164.469 2.813 0 1.659-.469 2.833-.464 1.17-1.338 1.787-.868.617-2.088.617m0-1.545q.948 0 1.496-.933.553-.938.553-2.759 0-1.204-.252-2.023t-.711-1.234a1.56 1.56 0 0 0-1.086-.42q-.942 0-1.49.938-.548.933-.553 2.739-.005 1.209.242 2.034.252.824.711 1.243.459.415 1.09.415m10.939-.543v-.533q0-.587.247-1.081.252-.494.73-.794.48-.302 1.16-.302.701 0 1.175.302.474.296.716.789a2.4 2.4 0 0 1 .246 1.086v.533q0 .588-.246 1.081a1.97 1.97 0 0 1-.726.795q-.474.3-1.165.301-.69 0-1.17-.301a1.96 1.96 0 0 1-.725-.795 2.4 2.4 0 0 1-.242-1.081m1.288-.533v.533q0 .39.188.716.187.326.661.326.478 0 .657-.321.182-.326.182-.721v-.533a1.5 1.5 0 0 0-.172-.721q-.174-.33-.667-.33-.464 0-.656.33a1.4 1.4 0 0 0-.193.721m-6.426-5.251v-.534q0-.591.252-1.085t.73-.79q.479-.301 1.16-.301.696 0 1.17.301.478.296.721.79.241.494.241 1.085v.534q0 .591-.246 1.085a1.9 1.9 0 0 1-.721.785q-.478.297-1.165.296-.696 0-1.175-.296a1.94 1.94 0 0 1-.72-.79 2.4 2.4 0 0 1-.247-1.08m1.298-.534v.534q0 .394.183.72.187.321.661.321t.652-.321q.182-.326.182-.72v-.534q0-.394-.172-.72-.173-.331-.662-.331-.468 0-.656.331-.188.33-.188.72m-.735 8.213 6.949-10.108h1.234l-6.949 10.108zm-18.529 56.698v-1.456l4.289-6.777h1.214v2.073h-.74l-2.888 4.576v.079h5.987v1.505zm4.822 1.876v-2.32l.02-.652v-7.137h1.727v10.109zm8.354.192q-1.22 0-2.093-.617-.868-.621-1.338-1.792-.464-1.174-.464-2.828.006-1.653.469-2.813.47-1.165 1.338-1.777.873-.612 2.088-.612 1.214 0 2.087.612.875.612 1.338 1.777.47 1.164.469 2.813 0 1.659-.469 2.833-.463 1.17-1.338 1.787-.869.617-2.087.617m0-1.545q.947 0 1.495-.933.553-.938.553-2.759 0-1.204-.252-2.023t-.711-1.234a1.56 1.56 0 0 0-1.085-.42q-.943 0-1.491.938-.548.933-.553 2.739-.005 1.209.242 2.034.252.824.711 1.244.458.414 1.091.414m10.938-.543v-.533q0-.587.247-1.081.251-.494.731-.794.478-.301 1.159-.301.702 0 1.175.301.474.296.716.789a2.4 2.4 0 0 1 .247 1.086v.533q0 .588-.247 1.081a1.97 1.97 0 0 1-.726.795q-.474.301-1.165.301-.69 0-1.169-.301a1.97 1.97 0 0 1-.726-.795 2.4 2.4 0 0 1-.242-1.081m1.289-.533v.533q0 .39.187.716.188.326.661.326.48 0 .657-.321.183-.325.183-.721v-.533q0-.394-.173-.72-.173-.331-.667-.331-.464 0-.656.331a1.4 1.4 0 0 0-.192.72m-6.427-5.251v-.533q0-.593.252-1.086t.73-.79q.48-.301 1.16-.301.696 0 1.17.301.478.296.721.79.242.494.242 1.086v.533a2.4 2.4 0 0 1-.247 1.085 1.9 1.9 0 0 1-.721.785q-.478.296-1.165.296-.696 0-1.174-.296a1.94 1.94 0 0 1-.721-.789 2.4 2.4 0 0 1-.247-1.081m1.298-.533v.533q0 .394.183.72.187.321.661.321t.652-.321q.182-.326.182-.72v-.533q0-.396-.172-.721-.173-.331-.662-.331-.468 0-.656.331-.188.33-.188.721m-.735 8.213 6.949-10.109h1.234l-6.949 10.109z"/><path fill="#9ca3af" d="M303.579 173.862h1.851l3.218 7.858h.118l3.218-7.858h1.851v10.108h-1.451v-7.314h-.094l-2.981 7.3h-1.204l-2.981-7.305h-.094v7.319h-1.451zm15.549 10.261q-1.066 0-1.861-.488a3.3 3.3 0 0 1-1.234-1.367q-.44-.88-.439-2.054 0-1.18.439-2.063a3.3 3.3 0 0 1 1.234-1.372q.795-.489 1.861-.489t1.86.489 1.234 1.372.44 2.063q0 1.175-.44 2.054a3.3 3.3 0 0 1-1.234 1.367q-.794.488-1.86.488m.005-1.239q.69 0 1.145-.365.453-.365.671-.972.222-.608.222-1.338a3.9 3.9 0 0 0-.222-1.332 2.2 2.2 0 0 0-.671-.983q-.455-.37-1.145-.37-.696 0-1.155.37a2.2 2.2 0 0 0-.677.983 4 4 0 0 0-.217 1.332q0 .73.217 1.338.222.607.677.972.459.365 1.155.365m5.294 1.086v-10.108h1.476v3.756h.089q.129-.237.37-.548.242-.31.671-.543.43-.237 1.136-.237a2.96 2.96 0 0 1 1.638.464q.72.464 1.131 1.338.414.873.414 2.103 0 1.228-.41 2.107-.41.873-1.125 1.348a2.9 2.9 0 0 1-1.634.468q-.69 0-1.13-.232a2.1 2.1 0 0 1-.681-.542 4 4 0 0 1-.38-.553h-.123v1.179zm1.447-3.79q0 .8.231 1.401.232.603.672.943.439.336 1.076.336.661 0 1.105-.351a2.2 2.2 0 0 0 .672-.962q.231-.608.232-1.367 0-.75-.227-1.348a2.06 2.06 0 0 0-.672-.942q-.444-.346-1.11-.346-.642 0-1.086.331-.44.33-.666.923-.227.592-.227 1.382m7.135 3.79v-7.581h1.476v7.581zm.746-8.751a.94.94 0 0 1-.662-.256.84.84 0 0 1-.271-.622q0-.366.271-.622a.93.93 0 0 1 .662-.262.9.9 0 0 1 .656.262.82.82 0 0 1 .276.622.83.83 0 0 1-.276.622.92.92 0 0 1-.656.256m4.191-1.357v10.108h-1.476v-10.108zm5.253 10.261q-1.12 0-1.93-.478a3.25 3.25 0 0 1-1.244-1.358q-.434-.878-.434-2.058 0-1.165.434-2.053a3.4 3.4 0 0 1 1.224-1.387q.79-.498 1.846-.499.642 0 1.244.213.603.212 1.081.666.479.454.755 1.18.277.72.277 1.752v.523h-6.027v-1.106h4.581q0-.582-.237-1.031a1.8 1.8 0 0 0-.667-.716 1.87 1.87 0 0 0-.997-.262 1.93 1.93 0 0 0-1.086.307q-.458.3-.71.789a2.3 2.3 0 0 0-.247 1.052v.863q0 .76.266 1.293.271.534.756.815.483.276 1.13.276.42 0 .765-.118.345-.123.597-.365.252-.243.385-.598l1.397.252a2.54 2.54 0 0 1-.602 1.081 2.9 2.9 0 0 1-1.081.716 4.1 4.1 0 0 1-1.476.251m-36.348 57.428h-3.272v-10.109h3.376q1.485 0 2.552.608 1.065.601 1.633 1.732.573 1.125.573 2.7 0 1.58-.578 2.714a4.05 4.05 0 0 1-1.658 1.748q-1.086.607-2.626.607m-1.747-1.333h1.663q1.155 0 1.92-.434.765-.44 1.145-1.269.381-.834.381-2.033 0-1.19-.381-2.019a2.68 2.68 0 0 0-1.12-1.258q-.745-.43-1.851-.43h-1.757zm11.654 1.486q-1.12 0-1.929-.479a3.24 3.24 0 0 1-1.244-1.357q-.435-.879-.435-2.058 0-1.165.435-2.054a3.4 3.4 0 0 1 1.224-1.387q.79-.498 1.846-.498.641 0 1.244.212a3 3 0 0 1 1.081.666q.478.454.755 1.18.276.72.276 1.752v.523h-6.026v-1.105h4.58q0-.583-.237-1.032a1.8 1.8 0 0 0-.666-.715 1.86 1.86 0 0 0-.997-.262q-.623 0-1.086.306a2.06 2.06 0 0 0-.711.79 2.3 2.3 0 0 0-.247 1.051v.864q0 .76.267 1.293.272.533.755.814.483.277 1.13.277.42 0 .765-.119a1.65 1.65 0 0 0 .598-.365q.251-.242.385-.597l1.396.251a2.5 2.5 0 0 1-.602 1.081 2.9 2.9 0 0 1-1.081.716q-.647.252-1.476.252m10.572-5.884-1.338.237a1.6 1.6 0 0 0-.267-.488 1.3 1.3 0 0 0-.483-.38q-.306-.148-.765-.148-.627 0-1.047.281-.419.276-.419.716 0 .38.281.612t.908.38l1.205.276q1.046.242 1.559.745.514.504.514 1.308 0 .681-.395 1.215-.39.528-1.091.829-.696.3-1.614.301-1.274 0-2.078-.543-.804-.548-.987-1.555l1.426-.217q.134.558.548.844.415.281 1.081.281.725 0 1.16-.301.435-.306.434-.745a.77.77 0 0 0-.266-.597q-.262-.242-.805-.366l-1.283-.281q-1.061-.242-1.57-.77-.503-.528-.503-1.337 0-.672.375-1.175.375-.504 1.037-.785.662-.286 1.515-.286 1.229 0 1.935.533.705.528.933 1.416m3.128 3.159-.01-1.801h.256l3.021-3.208h1.767l-3.445 3.652h-.232zm-1.358 2.572v-10.109h1.476v10.109zm4.788 0-2.715-3.603 1.017-1.032 3.509 4.635zm6.488-7.581v1.184h-4.141v-1.184zm-3.031-1.817h1.476v7.172q0 .43.128.646a.67.67 0 0 0 .331.292q.207.074.449.074.178 0 .311-.025l.208-.04.266 1.22a3 3 0 0 1-.365.098 3 3 0 0 1-.592.059 2.6 2.6 0 0 1-1.086-.207 1.87 1.87 0 0 1-.815-.671q-.31-.454-.311-1.14zm7.775 9.551q-1.066 0-1.86-.489a3.3 3.3 0 0 1-1.234-1.367q-.44-.879-.44-2.053 0-1.18.44-2.063a3.3 3.3 0 0 1 1.234-1.373q.794-.488 1.86-.488t1.861.488q.795.49 1.234 1.373.44.883.439 2.063 0 1.174-.439 2.053a3.3 3.3 0 0 1-1.234 1.367q-.795.489-1.861.489m.005-1.239q.692 0 1.145-.365.454-.366.672-.973.222-.606.222-1.337 0-.726-.222-1.333a2.17 2.17 0 0 0-.672-.982q-.453-.37-1.145-.37-.696 0-1.155.37a2.2 2.2 0 0 0-.676.982 3.9 3.9 0 0 0-.217 1.333q0 .73.217 1.337.222.607.676.973.459.365 1.155.365m5.177 3.929V233.97h1.441v1.229h.123q.129-.237.37-.548a2.1 2.1 0 0 1 .672-.543q.429-.237 1.135-.237.918 0 1.638.464.721.464 1.131 1.337.414.874.414 2.103t-.409 2.108q-.41.873-1.126 1.347a2.9 2.9 0 0 1-1.633.469q-.692 0-1.131-.232a2.2 2.2 0 0 1-.681-.543 4 4 0 0 1-.38-.553h-.089v4.023zm1.446-6.634q0 .8.232 1.402.231.602.671.943.439.335 1.076.335.661 0 1.106-.35.444-.356.671-.963.231-.606.232-1.367 0-.75-.227-1.347a2.06 2.06 0 0 0-.672-.943q-.444-.346-1.11-.346-.642 0-1.086.331-.44.331-.666.923t-.227 1.382m-57.072-38.635v8.664h-1.312v-7.353h-.051l-2.073 1.354v-1.252l2.162-1.413zm3.506 7.479-.064.462a7 7 0 0 1-.216 1.057q-.147.555-.308 1.028-.158.474-.258.753h-.897q.054-.263.152-.71.097-.445.19-.995t.14-1.121l.042-.474zm4.545-7.598q.58.005 1.143.212a2.7 2.7 0 0 1 1.015.677q.457.47.728 1.269.274.795.279 1.98 0 1.137-.229 2.026-.228.884-.655 1.494a2.9 2.9 0 0 1-1.028.926 2.9 2.9 0 0 1-1.363.317q-.774 0-1.375-.304a2.6 2.6 0 0 1-.977-.842 2.8 2.8 0 0 1-.469-1.244h1.29q.127.558.516.905.394.343 1.015.343.952 0 1.485-.829.534-.834.538-2.327h-.068a2.3 2.3 0 0 1-.55.626q-.325.262-.732.406t-.867.144q-.748 0-1.362-.368a2.7 2.7 0 0 1-.978-1.011 2.94 2.94 0 0 1-.364-1.468q0-.821.373-1.489a2.8 2.8 0 0 1 1.049-1.058q.677-.393 1.586-.385m.005 1.1q-.495 0-.893.246-.393.24-.622.655a1.85 1.85 0 0 0-.228.914q0 .504.22.914.224.406.609.647.389.237.888.237.373 0 .694-.144a1.8 1.8 0 0 0 .563-.397q.241-.258.376-.584.136-.326.136-.686 0-.477-.229-.888a1.77 1.77 0 0 0-.617-.66 1.6 1.6 0 0 0-.897-.254m7.548 7.801q-.795 0-1.43-.304a2.6 2.6 0 0 1-1.007-.846 2.24 2.24 0 0 1-.402-1.227h1.27q.047.558.495.918t1.074.359a1.7 1.7 0 0 0 .884-.228q.39-.232.61-.639.224-.406.224-.926 0-.529-.229-.944a1.7 1.7 0 0 0-.63-.651 1.77 1.77 0 0 0-.914-.241q-.393 0-.791.135a1.9 1.9 0 0 0-.643.355l-1.197-.177.486-4.366h4.764v1.121h-3.677l-.275 2.424h.051q.254-.245.673-.41a2.5 2.5 0 0 1 .905-.165 2.65 2.65 0 0 1 2.386 1.404q.36.648.356 1.489a2.9 2.9 0 0 1-.381 1.502q-.38.66-1.058 1.041-.672.376-1.544.376m4.346-1.81v-1.058l3.744-5.914h.834v1.557h-.529l-2.678 4.239v.067h5.131v1.109zm4.108 1.692v-2.014l.008-.482v-6.168h1.24v8.664zm-24.054 48.916v8.664h-1.311v-7.352h-.051l-2.073 1.353v-1.252l2.162-1.413zm3.506 7.48-.063.461a7 7 0 0 1-.216 1.058q-.148.554-.309 1.028-.156.474-.258.753h-.897l.153-.711q.097-.444.19-.994t.14-1.121l.042-.474zm4.472 1.303q-.872 0-1.557-.301a2.65 2.65 0 0 1-1.079-.833 2.2 2.2 0 0 1-.423-1.244h1.329q.026.386.258.669.237.28.618.431.38.153.846.153.512 0 .905-.178.397-.179.622-.495.224-.322.224-.741 0-.435-.224-.765a1.46 1.46 0 0 0-.647-.525q-.423-.19-1.024-.19h-.732v-1.066h.732q.482 0 .846-.174a1.4 1.4 0 0 0 .575-.482 1.3 1.3 0 0 0 .208-.732q0-.402-.182-.698a1.23 1.23 0 0 0-.508-.47 1.66 1.66 0 0 0-.77-.169q-.423 0-.791.157-.364.152-.592.44a1.13 1.13 0 0 0-.246.681h-1.265q.022-.702.415-1.236a2.7 2.7 0 0 1 1.049-.833q.651-.3 1.447-.3.834 0 1.438.325.61.322.94.859.333.537.33 1.176.004.727-.407 1.236-.405.507-1.083.681v.067q.863.132 1.337.686.478.554.474 1.375a2.14 2.14 0 0 1-.398 1.282 2.7 2.7 0 0 1-1.087.892q-.69.322-1.578.322m7.949-8.783v8.664h-1.311v-7.352h-.051l-2.073 1.353v-1.252l2.162-1.413zm2.344 8.664v-.947l2.932-3.038q.47-.495.774-.867.31-.376.461-.715.153-.338.153-.719 0-.432-.203-.745a1.33 1.33 0 0 0-.555-.486 1.76 1.76 0 0 0-.791-.174q-.465 0-.812.191a1.3 1.3 0 0 0-.533.537 1.7 1.7 0 0 0-.186.812h-1.248q0-.79.364-1.383.363-.593.998-.918.634-.33 1.443-.33.816 0 1.438.325.626.322.977.88.351.555.351 1.253 0 .482-.181.943-.178.46-.622 1.028a18 18 0 0 1-1.236 1.367l-1.722 1.802v.063h3.901v1.121z"/><circle cx="294.526" cy="178.934" r="3.971" fill="#090f1d"/><circle cx="294.526" cy="236.515" r="3.971" fill="#9ca3af"/><rect width="306.761" height="252.055" x="103.993" y="134.967" fill="#fff" stroke="#000" stroke-linecap="round" stroke-width=".993" rx="13.587"/><path fill="#090f1d" d="M129.542 159.794h-1.846a2.3 2.3 0 0 0-.291-.804 2.16 2.16 0 0 0-1.249-.973 2.8 2.8 0 0 0-.863-.128q-.825 0-1.461.414-.637.41-.997 1.205-.36.79-.361 1.93 0 1.16.361 1.954.365.79.997 1.195.637.399 1.456.399.454 0 .849-.118.4-.123.715-.36.322-.237.538-.583.222-.345.306-.789l1.846.009a4 4 0 0 1-.449 1.353 4 4 0 0 1-.893 1.115q-.553.48-1.293.75a4.8 4.8 0 0 1-1.644.267q-1.332 0-2.379-.617t-1.648-1.782q-.603-1.164-.603-2.793 0-1.634.608-2.794.606-1.165 1.653-1.782t2.369-.617a5 5 0 0 1 1.57.237q.724.237 1.293.696.567.454.933 1.116.37.656.483 1.5m4.905 6.846q-1.11 0-1.925-.489a3.3 3.3 0 0 1-1.263-1.367q-.444-.879-.444-2.053t.444-2.058a3.3 3.3 0 0 1 1.263-1.373q.815-.488 1.925-.488t1.925.488q.815.49 1.259 1.373.449.884.449 2.058t-.449 2.053a3.3 3.3 0 0 1-1.259 1.367q-.814.489-1.925.489m.01-1.431q.602 0 1.007-.331.405-.336.602-.898.203-.563.203-1.254 0-.696-.203-1.259a2 2 0 0 0-.602-.903q-.404-.336-1.007-.336-.616 0-1.027.336a2.04 2.04 0 0 0-.607.903 3.8 3.8 0 0 0-.197 1.259q0 .69.197 1.254.203.562.607.898.41.33 1.027.331m6.926-3.159v4.442h-1.787v-7.581h1.708v1.288h.089a2.16 2.16 0 0 1 .834-1.012q.578-.375 1.427-.375.784 0 1.367.335.587.336.908.973.326.636.321 1.545v4.827h-1.787v-4.551q0-.76-.395-1.189-.39-.43-1.081-.43-.468 0-.834.207-.36.202-.568.588-.202.384-.202.933m13.183-3.139-2.699 7.581h-1.975l-2.7-7.581h1.906l1.742 5.631h.079l1.747-5.631zm4.335 7.729q-1.14 0-1.969-.474a3.2 3.2 0 0 1-1.269-1.352q-.444-.879-.444-2.068 0-1.17.444-2.054.45-.888 1.254-1.382.805-.498 1.89-.498.702 0 1.323.227.627.222 1.106.691.483.469.76 1.194.276.721.276 1.718v.548h-6.214v-1.204h4.502a1.9 1.9 0 0 0-.223-.914 1.6 1.6 0 0 0-.607-.636 1.7 1.7 0 0 0-.898-.232q-.548 0-.962.266a1.84 1.84 0 0 0-.647.691 2 2 0 0 0-.232.933v1.051q0 .662.242 1.136.242.468.676.72.435.247 1.017.247.39 0 .706-.109a1.6 1.6 0 0 0 .548-.33q.231-.217.35-.538l1.668.187a2.6 2.6 0 0 1-.602 1.155 2.94 2.94 0 0 1-1.125.76q-.687.267-1.57.267m4.883-.148v-7.581h1.732v1.263h.079q.207-.657.711-1.012.509-.36 1.16-.36.148 0 .331.015.187.01.311.034v1.644a2 2 0 0 0-.361-.069 3 3 0 0 0-.469-.035q-.488 0-.878.213-.385.207-.607.577a1.63 1.63 0 0 0-.222.854v4.457zm11.503-5.578-1.629.178a1.3 1.3 0 0 0-.242-.464 1.2 1.2 0 0 0-.454-.35 1.65 1.65 0 0 0-.701-.133q-.558 0-.938.241-.375.243-.37.627-.005.331.242.538.252.207.829.341l1.293.276q1.076.232 1.599.736.528.502.533 1.317a2.06 2.06 0 0 1-.419 1.264q-.41.543-1.14.849-.731.306-1.678.306-1.392 0-2.241-.583-.849-.587-1.012-1.633l1.742-.168q.119.513.504.775.384.261 1.002.261.637 0 1.021-.261.39-.262.39-.647a.68.68 0 0 0-.251-.538q-.248-.212-.77-.325l-1.294-.272q-1.09-.227-1.614-.765-.522-.543-.518-1.372a1.95 1.95 0 0 1 .38-1.214q.39-.519 1.081-.8.696-.286 1.604-.286 1.333 0 2.098.567.77.569.953 1.535m1.636 5.578v-7.581h1.786v7.581zm.898-8.657a1.04 1.04 0 0 1-.73-.282.9.9 0 0 1-.307-.686q0-.405.307-.686a1.03 1.03 0 0 1 .73-.286q.43 0 .73.286a.9.9 0 0 1 .306.686.9.9 0 0 1-.306.686q-.3.282-.73.282m6.033 8.805q-1.111 0-1.925-.489a3.3 3.3 0 0 1-1.264-1.367q-.444-.879-.444-2.053t.444-2.058a3.3 3.3 0 0 1 1.264-1.373q.814-.488 1.925-.488 1.11 0 1.925.488a3.3 3.3 0 0 1 1.258 1.373q.45.884.449 2.058 0 1.174-.449 2.053a3.3 3.3 0 0 1-1.258 1.367q-.815.489-1.925.489m.01-1.431q.602 0 1.006-.331.405-.336.603-.898a3.7 3.7 0 0 0 .202-1.254q0-.696-.202-1.259a2 2 0 0 0-.603-.903q-.404-.336-1.006-.336-.618 0-1.027.336-.405.336-.607.903a3.8 3.8 0 0 0-.198 1.259q0 .69.198 1.254.202.562.607.898.41.33 1.027.331m6.926-3.159v4.442h-1.787v-7.581h1.708v1.288h.088q.262-.637.835-1.012.577-.375 1.426-.375.785 0 1.367.335.588.336.908.973.326.636.321 1.545v4.827h-1.787v-4.551q0-.76-.394-1.189-.39-.43-1.081-.43-.47 0-.834.207-.361.202-.568.588-.202.384-.202.933m13.97-3.139v1.382h-4.482v-1.382zm-3.361 7.581v-8.297q0-.765.316-1.274.32-.507.859-.76a2.8 2.8 0 0 1 1.194-.251q.464 0 .824.074.36.073.533.133l-.355 1.382a3 3 0 0 0-.286-.069 1.8 1.8 0 0 0-.385-.04q-.5 0-.706.242-.202.237-.202.681v8.179zm9.592-3.189v-4.392h1.787v7.581h-1.732v-1.348h-.079a2.3 2.3 0 0 1-.844 1.042q-.583.405-1.437.405a2.6 2.6 0 0 1-1.317-.331 2.3 2.3 0 0 1-.889-.972q-.321-.642-.321-1.55v-4.827h1.787v4.55q0 .721.395 1.145t1.036.425q.396 0 .765-.193.37-.192.608-.572.241-.386.241-.963m5.411-1.253v4.442h-1.787v-7.581h1.708v1.288h.089a2.16 2.16 0 0 1 .834-1.012q.578-.375 1.427-.375.785 0 1.367.335.587.336.908.973.326.636.321 1.545v4.827h-1.787v-4.551q0-.76-.395-1.189-.39-.43-1.081-.43-.468 0-.834.207-.36.202-.567.588-.203.384-.203.933m8.47 0v4.442h-1.787v-7.581h1.708v1.288h.089a2.16 2.16 0 0 1 .834-1.012q.577-.375 1.426-.375.785 0 1.367.335.588.336.909.973.326.636.32 1.545v4.827h-1.786v-4.551q0-.76-.395-1.189-.39-.43-1.081-.43-.47 0-.834.207-.36.202-.568.588-.202.384-.202.933m10.039 4.59q-1.14 0-1.969-.474a3.2 3.2 0 0 1-1.269-1.352q-.444-.879-.444-2.068 0-1.17.444-2.054.45-.888 1.254-1.382.804-.498 1.89-.498.701 0 1.323.227a3 3 0 0 1 1.106.691q.484.469.76 1.194.276.721.276 1.718v.548h-6.214v-1.204h4.501a1.9 1.9 0 0 0-.222-.914 1.6 1.6 0 0 0-.607-.636 1.7 1.7 0 0 0-.898-.232q-.548 0-.962.266a1.84 1.84 0 0 0-.647.691 2 2 0 0 0-.232.933v1.051q0 .662.242 1.136.241.468.676.72.434.247 1.017.247.39 0 .706-.109.316-.113.547-.33t.351-.538l1.668.187a2.6 2.6 0 0 1-.602 1.155 2.94 2.94 0 0 1-1.125.76q-.687.267-1.57.267m6.669-10.257v10.109h-1.786v-10.109zm-120.147 92.125v-2.268l6.016-5.897a28 28 0 0 0 1.438-1.549q.576-.677.863-1.311t.288-1.354q0-.82-.372-1.405a2.5 2.5 0 0 0-1.024-.913q-.651-.322-1.481-.322-.854 0-1.497.356a2.45 2.45 0 0 0-.999.989q-.347.644-.347 1.532h-2.987q0-1.65.754-2.868a5.07 5.07 0 0 1 2.073-1.887q1.327-.669 3.046-.669 1.743 0 3.063.652 1.319.651 2.047 1.785.736 1.134.736 2.589 0 .973-.372 1.913-.372.938-1.312 2.081-.93 1.142-2.614 2.767l-2.987 3.037v.119h7.548v2.623zm18.429-2.369-.11.93q-.118 1.067-.424 2.166a27 27 0 0 1-.626 2.04q-.33.93-.533 1.463h-2.064l.321-1.404q.212-.888.406-1.997t.263-2.251l.059-.947zm8.304-14.96v17.329h-3.139v-14.274h-.101l-4.053 2.589v-2.877l4.306-2.767zm5.035 17.329 7.369-14.587v-.119h-8.554v-2.623h11.803v2.682l-7.361 14.647zm19.173.237q-1.828 0-3.249-.626-1.413-.627-2.234-1.743-.82-1.117-.872-2.581h3.182q.042.702.465 1.227a2.8 2.8 0 0 0 1.125.804q.703.287 1.574.287.931 0 1.65-.321.72-.33 1.126-.914t.397-1.345a2.34 2.34 0 0 0-.406-1.388q-.415-.602-1.201-.939-.778-.339-1.879-.339h-1.531v-2.42h1.531q.906 0 1.582-.313a2.55 2.55 0 0 0 1.075-.88q.39-.575.381-1.328.007-.737-.33-1.278a2.23 2.23 0 0 0-.939-.854q-.602-.305-1.413-.305-.796 0-1.473.288a2.7 2.7 0 0 0-1.091.821q-.415.524-.44 1.252h-3.021q.034-1.455.838-2.555.811-1.109 2.166-1.727 1.353-.626 3.037-.626 1.735 0 3.013.652 1.286.644 1.988 1.734.702 1.092.702 2.412.009 1.464-.863 2.454-.863.99-2.267 1.294v.136q1.827.254 2.8 1.353.982 1.092.973 2.716 0 1.456-.829 2.606-.82 1.143-2.267 1.794-1.439.652-3.3.652"/><g filter="url(#e)"><path stroke="#00162a" stroke-linecap="round" stroke-width=".993" d="M410.754 189.753H103.901" opacity=".7"/></g><rect width="40.95" height="17.935" x="187.737" y="230.869" fill="#f4f4f4" rx="2.482"/><rect width="40.95" height="17.935" x="187.737" y="230.869" stroke="#f4f4f4" stroke-linecap="round" stroke-width=".993" rx="2.482"/><path fill="#000" d="M195.462 244.455q-.871 0-1.557-.3a2.64 2.64 0 0 1-1.079-.834 2.2 2.2 0 0 1-.423-1.243h1.328q.025.384.258.668.237.279.618.432t.846.152q.512 0 .905-.178.399-.177.622-.495.225-.321.225-.74 0-.436-.225-.766a1.45 1.45 0 0 0-.647-.524q-.423-.19-1.024-.191h-.732v-1.066h.732q.483 0 .846-.173.369-.174.576-.483.207-.312.207-.732 0-.401-.182-.698a1.2 1.2 0 0 0-.508-.469 1.64 1.64 0 0 0-.77-.169q-.423 0-.791.156-.364.153-.592.44a1.13 1.13 0 0 0-.245.681h-1.265q.021-.702.414-1.235a2.7 2.7 0 0 1 1.05-.834q.651-.3 1.446-.3.834 0 1.439.326.609.32.939.859.334.537.33 1.176.004.728-.406 1.235a1.96 1.96 0 0 1-1.083.681v.068q.863.131 1.337.685.477.555.474 1.375.004.715-.398 1.282a2.7 2.7 0 0 1-1.087.893q-.69.321-1.578.321m5.256-.038a.82.82 0 0 1-.596-.245.82.82 0 0 1-.25-.601q0-.347.25-.592a.8.8 0 0 1 .596-.25q.347 0 .597.25a.8.8 0 0 1 .249.592.8.8 0 0 1-.118.427.9.9 0 0 1-.305.305.8.8 0 0 1-.423.114m2.524-.08v-.948l2.931-3.037q.47-.495.775-.868.309-.376.461-.715t.152-.719q0-.432-.203-.744a1.3 1.3 0 0 0-.554-.487 1.76 1.76 0 0 0-.791-.173q-.466 0-.813.19a1.3 1.3 0 0 0-.533.537 1.7 1.7 0 0 0-.186.812h-1.248q0-.79.364-1.383t.998-.918q.635-.33 1.443-.33.817 0 1.438.326.627.32.978.88.351.554.351 1.252 0 .483-.182.943-.178.462-.622 1.028a17 17 0 0 1-1.235 1.367l-1.722 1.802v.064h3.901v1.121zm10.593-8.664v8.664h-1.311v-7.353h-.051l-2.073 1.354v-1.252l2.162-1.413zm6.866 7.039v-.457q0-.49.203-.897.208-.41.601-.655.397-.25.961-.25.575 0 .964.245.39.246.588.656.203.41.203.901v.457q0 .491-.203.901-.203.407-.596.656-.39.245-.956.245-.572 0-.965-.245a1.63 1.63 0 0 1-.597-.656 2 2 0 0 1-.203-.901m.986-.457v.457q0 .365.174.66.173.296.605.296.426 0 .596-.296t.169-.66v-.457q0-.363-.165-.66-.16-.296-.6-.296-.424 0-.601.296a1.26 1.26 0 0 0-.178.66m-5.343-4.501v-.457q0-.49.203-.901.207-.41.601-.656.398-.245.96-.245.576 0 .965.245.388.245.588.656.198.41.198.901v.457q0 .491-.203.901-.199.406-.592.656-.389.245-.956.245-.576 0-.969-.245a1.64 1.64 0 0 1-.592-.656 2 2 0 0 1-.203-.901m.99-.457v.457q0 .364.169.66.174.296.605.296.423 0 .592-.296.174-.296.174-.66v-.457q0-.363-.165-.66-.166-.296-.601-.296-.423 0-.601.296a1.3 1.3 0 0 0-.173.66m-.588 7.04 5.956-8.664h1.012l-5.957 8.664z"/><path fill="#00162a" d="M126.417 212.98h1.311v5.699q0 .91-.427 1.612a3 3 0 0 1-1.202 1.1q-.774.398-1.815.398-1.036 0-1.81-.398a3 3 0 0 1-1.202-1.1q-.427-.702-.427-1.612v-5.699h1.307v5.593q0 .588.258 1.045.262.457.741.72.477.258 1.133.258.66 0 1.138-.258.482-.263.737-.72.258-.457.258-1.045zm7.98 3.753-1.147.203a1.4 1.4 0 0 0-.228-.419 1.1 1.1 0 0 0-.415-.325 1.5 1.5 0 0 0-.656-.127q-.537 0-.897.241-.359.237-.359.613 0 .326.241.525.241.198.778.326l1.033.236q.897.209 1.337.639.44.432.44 1.121a1.7 1.7 0 0 1-.339 1.041q-.334.453-.935.711-.597.258-1.383.258-1.092 0-1.781-.465-.69-.47-.846-1.333l1.222-.186q.114.478.47.723.356.241.926.241.622 0 .994-.258.373-.263.373-.639a.66.66 0 0 0-.229-.511q-.224-.208-.689-.314l-1.1-.241q-.91-.207-1.346-.66-.43-.452-.431-1.146 0-.576.321-1.007a2.1 2.1 0 0 1 .889-.673 3.3 3.3 0 0 1 1.299-.245q1.053 0 1.658.457.605.452.8 1.214m4.318 5.043q-.96 0-1.654-.41a2.8 2.8 0 0 1-1.066-1.164q-.373-.753-.373-1.764 0-.998.373-1.76.376-.762 1.049-1.189.677-.427 1.582-.427.55 0 1.066.182t.927.571q.41.39.647 1.011.237.618.237 1.502v.448h-5.166v-.947h3.926q0-.5-.203-.884a1.53 1.53 0 0 0-.571-.614 1.6 1.6 0 0 0-.854-.224 1.65 1.65 0 0 0-.931.262 1.77 1.77 0 0 0-.609.677 1.96 1.96 0 0 0-.212.901v.741q0 .65.229 1.108.233.457.647.698.414.237.969.237a2 2 0 0 0 .655-.102q.297-.105.512-.313.216-.207.33-.512l1.198.216a2.16 2.16 0 0 1-.517.927 2.5 2.5 0 0 1-.926.613 3.5 3.5 0 0 1-1.265.216m4.192-.131v-6.498h1.222v1.032h.068q.177-.525.626-.825a1.8 1.8 0 0 1 1.024-.305 5 5 0 0 1 .537.03v1.21a2 2 0 0 0-.271-.047 3 3 0 0 0-.389-.029q-.448 0-.799.19a1.41 1.41 0 0 0-.754 1.273v3.969zm9.441-4.912-1.146.203a1.4 1.4 0 0 0-.229-.419 1.1 1.1 0 0 0-.414-.325 1.5 1.5 0 0 0-.656-.127q-.537 0-.897.241-.36.237-.36.613 0 .326.242.525.24.198.778.326l1.032.236q.897.209 1.337.639.44.432.44 1.121 0 .585-.338 1.041-.335.453-.935.711-.597.258-1.384.258-1.09 0-1.781-.465-.69-.47-.846-1.333l1.223-.186q.114.478.469.723.355.241.927.241.621 0 .994-.258.372-.263.372-.639a.66.66 0 0 0-.228-.511q-.225-.208-.69-.314l-1.1-.241q-.91-.207-1.345-.66-.432-.452-.432-1.146 0-.576.322-1.007.321-.432.888-.673a3.3 3.3 0 0 1 1.299-.245q1.053 0 1.659.457.604.452.799 1.214m15.825 64.932a1.45 1.45 0 0 0-.651-1.086q-.573-.39-1.442-.39-.621 0-1.076.198a1.65 1.65 0 0 0-.705.533 1.26 1.26 0 0 0-.247.765q0 .36.168.622.172.262.449.439.28.173.602.291.32.113.617.188l.987.256q.483.119.992.321.508.203.943.533.434.331.701.82.271.488.271 1.169a2.7 2.7 0 0 1-.444 1.526q-.44.666-1.278 1.051-.835.385-2.019.385-1.136 0-1.965-.36-.828-.361-1.298-1.022-.468-.666-.518-1.58h1.53q.045.548.355.914.316.36.805.538.493.172 1.081.172.646 0 1.15-.202.508-.207.8-.573.291-.37.291-.863 0-.45-.257-.736a1.9 1.9 0 0 0-.686-.474 6.6 6.6 0 0 0-.972-.33l-1.195-.326q-1.214-.332-1.925-.972-.705-.642-.705-1.698 0-.874.473-1.525a3.1 3.1 0 0 1 1.284-1.012q.809-.366 1.826-.365 1.026 0 1.811.36.79.36 1.244.992.455.627.474 1.441zm3.313 7.453v-7.581h1.476v7.581zm.745-8.751a.94.94 0 0 1-.661-.257.83.83 0 0 1-.271-.622q0-.364.271-.621a.93.93 0 0 1 .661-.262.9.9 0 0 1 .657.262.82.82 0 0 1 .276.621.83.83 0 0 1-.276.622.92.92 0 0 1-.657.257m5.895 11.752q-.904 0-1.555-.237-.647-.237-1.056-.627a2.6 2.6 0 0 1-.612-.854l1.268-.523q.134.218.356.459.226.248.612.42.39.172 1.002.172.838 0 1.387-.409.547-.405.547-1.293v-1.491h-.093a3.4 3.4 0 0 1-.385.538 2.1 2.1 0 0 1-.681.513q-.435.218-1.131.218-.898 0-1.619-.42-.715-.424-1.135-1.249-.414-.83-.414-2.038 0-1.209.409-2.073.415-.864 1.135-1.323a2.96 2.96 0 0 1 1.634-.464q.707 0 1.14.237.434.233.677.543.246.31.38.548h.108v-1.229h1.446v7.749q0 .977-.454 1.604a2.67 2.67 0 0 1-1.229.928q-.77.301-1.737.301m-.015-4.339q.637 0 1.076-.296.444-.3.671-.858.232-.564.232-1.348 0-.765-.227-1.347a2 2 0 0 0-.666-.909q-.44-.33-1.086-.33-.666 0-1.11.345-.445.341-.672.928a3.7 3.7 0 0 0-.222 1.313q0 .745.227 1.308t.671.879q.45.315 1.106.315m6.89-3.163v4.501h-1.475v-7.581h1.416v1.234h.094q.261-.603.819-.968.563-.365 1.417-.365.774 0 1.357.326.582.321.903.957.321.637.321 1.575v4.822h-1.476v-4.644q0-.825-.429-1.289-.43-.469-1.18-.469a1.84 1.84 0 0 0-.913.223 1.6 1.6 0 0 0-.627.651q-.227.424-.227 1.027m15.312 1.357v-4.437h1.481v7.581h-1.451v-1.313h-.079a2.37 2.37 0 0 1-.839 1.012q-.572.4-1.427.4-.73 0-1.293-.321a2.24 2.24 0 0 1-.878-.963q-.316-.636-.316-1.574v-4.822h1.475v4.644q0 .775.43 1.234t1.115.459q.415 0 .825-.207.414-.207.686-.627.276-.42.271-1.066m3.464 5.987v-10.424h1.441v1.229h.123q.129-.237.371-.548.242-.31.671-.543.429-.237 1.135-.237.918 0 1.639.464.72.464 1.13 1.338.415.873.415 2.102 0 1.23-.41 2.108-.41.873-1.125 1.347a2.9 2.9 0 0 1-1.634.469q-.692 0-1.13-.232a2.1 2.1 0 0 1-.682-.543 4 4 0 0 1-.38-.553h-.088v4.023zm1.446-6.634q0 .8.232 1.402.232.603.671.943.44.336 1.076.336.662 0 1.106-.351.444-.356.671-.962.232-.607.232-1.368 0-.75-.227-1.347a2.07 2.07 0 0 0-.671-.943q-.445-.345-1.111-.345-.642 0-1.086.33-.44.332-.666.923-.227.593-.227 1.382m12.813-1.939-1.338.237a1.6 1.6 0 0 0-.266-.489 1.3 1.3 0 0 0-.484-.38q-.306-.148-.765-.148-.627 0-1.046.281-.42.276-.42.716 0 .38.282.612.28.232.908.38l1.204.276q1.047.243 1.56.746.513.502.513 1.308 0 .68-.395 1.214-.39.528-1.091.829-.696.301-1.614.301-1.273 0-2.077-.543-.805-.547-.988-1.555l1.427-.217q.133.558.548.844.414.282 1.081.282.725 0 1.159-.302.435-.306.435-.745a.77.77 0 0 0-.267-.597q-.261-.242-.804-.365l-1.284-.282q-1.06-.242-1.569-.77-.504-.528-.504-1.337 0-.671.376-1.175.375-.503 1.036-.785.661-.286 1.515-.286 1.23 0 1.935.533.707.528.933 1.417"/><path fill="#090f1d" d="M366.21 287.242v-1.456l4.289-6.776h1.215v2.073h-.741l-2.887 4.575v.079h5.987v1.505zm4.822 1.876v-2.32l.02-.651v-7.137h1.728v10.108zm8.354.193q-1.219 0-2.093-.617-.869-.622-1.337-1.792-.464-1.175-.464-2.828.004-1.654.469-2.814.468-1.164 1.337-1.776.875-.612 2.088-.612 1.215 0 2.088.612t1.338 1.776q.468 1.165.468 2.814 0 1.658-.468 2.833-.465 1.17-1.338 1.787-.868.617-2.088.617m0-1.545q.947 0 1.496-.933.552-.938.552-2.759 0-1.205-.251-2.024-.252-.819-.711-1.234a1.55 1.55 0 0 0-1.086-.419q-.942 0-1.49.937-.549.933-.553 2.74-.006 1.21.242 2.033.25.825.71 1.244.46.414 1.091.415m10.939-.543v-.533q0-.588.247-1.081a2 2 0 0 1 .73-.795q.479-.301 1.16-.301.7 0 1.175.301.474.297.715.79.247.493.247 1.086v.533q0 .587-.247 1.081a1.95 1.95 0 0 1-.725.794q-.474.301-1.165.301t-1.17-.301a1.95 1.95 0 0 1-.725-.794 2.4 2.4 0 0 1-.242-1.081m1.288-.533v.533q0 .39.188.715.187.327.661.326.479 0 .657-.321.182-.325.182-.72v-.533q0-.396-.173-.721-.172-.33-.666-.331-.464 0-.656.331a1.4 1.4 0 0 0-.193.721m-6.426-5.252v-.533q0-.592.252-1.086a1.96 1.96 0 0 1 .73-.79q.479-.3 1.16-.301.696 0 1.17.301.479.297.72.79.243.493.242 1.086v.533q0 .592-.247 1.086a1.9 1.9 0 0 1-.72.785q-.479.296-1.165.296-.696 0-1.175-.296a1.94 1.94 0 0 1-.72-.79 2.4 2.4 0 0 1-.247-1.081m1.298-.533v.533q0 .395.183.721.187.321.661.321t.651-.321q.183-.326.183-.721v-.533q0-.394-.173-.721-.172-.33-.661-.33-.469 0-.656.33a1.43 1.43 0 0 0-.188.721m-.735 8.213 6.949-10.108h1.234l-6.95 10.108z"/><path fill="#00162a" d="M162.66 322.707v-10.109h1.525v8.796h4.58v1.313zm10.994.153q-1.12 0-1.93-.479a3.25 3.25 0 0 1-1.244-1.358q-.434-.877-.434-2.058 0-1.165.434-2.053a3.37 3.37 0 0 1 1.225-1.387q.789-.498 1.845-.498a3.7 3.7 0 0 1 1.244.212q.603.212 1.081.666.479.454.755 1.18.277.72.277 1.752v.523h-6.027v-1.105h4.581q0-.583-.237-1.032a1.8 1.8 0 0 0-.667-.716 1.86 1.86 0 0 0-.997-.261q-.621 0-1.085.306-.46.3-.711.789a2.3 2.3 0 0 0-.247 1.052v.863q0 .76.267 1.294.27.532.755.814.483.276 1.13.276.42 0 .765-.118.345-.123.597-.365.252-.243.385-.597l1.397.251a2.5 2.5 0 0 1-.602 1.081 2.9 2.9 0 0 1-1.081.716q-.647.252-1.476.252m7.096.014q-.72 0-1.303-.266a2.2 2.2 0 0 1-.923-.785q-.335-.513-.335-1.259 0-.64.247-1.056.246-.414.666-.656t.938-.365a9 9 0 0 1 1.056-.188l1.106-.128q.424-.055.617-.173.192-.118.192-.385v-.035q0-.646-.365-1.002-.36-.355-1.076-.355-.746 0-1.175.331-.425.326-.587.725l-1.387-.316q.247-.69.72-1.115.48-.43 1.101-.622a4.3 4.3 0 0 1 1.308-.197q.455 0 .962.108.514.104.958.385.45.282.735.805.287.517.287 1.347v5.035h-1.442v-1.037h-.059a2.1 2.1 0 0 1-.429.563 2.3 2.3 0 0 1-.736.459q-.449.182-1.076.182m.321-1.184q.612 0 1.047-.242.439-.242.666-.632.232-.394.232-.844v-.977q-.08.08-.306.148a5 5 0 0 1-.508.113q-.287.045-.558.084l-.454.06a3.7 3.7 0 0 0-.785.182 1.36 1.36 0 0 0-.563.37q-.207.237-.207.632 0 .548.405.829.405.277 1.031.277m8.224 1.165a2.94 2.94 0 0 1-1.638-.469q-.715-.474-1.126-1.348-.404-.878-.404-2.107t.409-2.103q.415-.873 1.136-1.337a2.95 2.95 0 0 1 1.633-.464q.706 0 1.135.236.435.233.672.543.242.312.375.548h.089v-3.756h1.475v10.109h-1.441v-1.18h-.123a4 4 0 0 1-.385.553 2.2 2.2 0 0 1-.681.543q-.435.231-1.126.232m.326-1.259q.637 0 1.076-.336.444-.34.671-.942.232-.603.232-1.402 0-.79-.227-1.382-.226-.593-.666-.923t-1.086-.331q-.666 0-1.11.346-.445.345-.672.942a3.9 3.9 0 0 0-.222 1.348q0 .76.227 1.367t.672.963q.449.35 1.105.35m11.218-4.62-1.338.237a1.6 1.6 0 0 0-.266-.489 1.3 1.3 0 0 0-.484-.38q-.306-.147-.765-.148-.627 0-1.046.282-.42.276-.42.715 0 .381.281.612.282.233.909.38l1.204.277q1.046.241 1.56.745.513.504.513 1.308 0 .681-.395 1.214-.39.529-1.091.829-.696.302-1.614.302-1.273 0-2.078-.543-.804-.549-.987-1.555l1.427-.217q.132.558.547.844.415.28 1.081.281.726 0 1.16-.301.435-.306.435-.745a.78.78 0 0 0-.267-.598q-.262-.242-.804-.365l-1.284-.281q-1.06-.242-1.569-.77-.504-.528-.504-1.338 0-.671.375-1.174.375-.504 1.037-.785.661-.286 1.515-.286 1.228 0 1.935.533.705.528.933 1.416"/><path fill="#090f1d" d="M373.424 312.598v10.109h-1.831v-8.327h-.059l-2.364 1.51v-1.678l2.512-1.614zm6.081 10.247q-.987 0-1.767-.37a3.16 3.16 0 0 1-1.239-1.027 2.7 2.7 0 0 1-.484-1.491h1.777q.05.623.538 1.017.49.39 1.175.39.538 0 .957-.247.42-.246.662-.686.241-.44.237-1.002a2.04 2.04 0 0 0-.242-1.017 1.8 1.8 0 0 0-.676-.695 1.9 1.9 0 0 0-.987-.257 2.4 2.4 0 0 0-.894.168 1.8 1.8 0 0 0-.696.454l-1.653-.272.528-5.212h5.864v1.53h-4.349l-.291 2.68h.059q.282-.33.795-.547a2.8 2.8 0 0 1 1.125-.223 3.1 3.1 0 0 1 1.639.435q.72.43 1.135 1.184.415.756.415 1.728 0 1.001-.464 1.787a3.3 3.3 0 0 1-1.279 1.229q-.814.444-1.885.444m10.686-2.034v-.533q0-.587.247-1.081.251-.494.73-.794t1.16-.301q.7 0 1.175.301.474.295.715.789.247.493.247 1.086v.533q0 .588-.247 1.081a1.96 1.96 0 0 1-.725.795q-.474.301-1.165.301t-1.17-.301a1.96 1.96 0 0 1-.725-.795 2.4 2.4 0 0 1-.242-1.081m1.288-.533v.533q0 .39.188.716.187.326.661.326.479 0 .656-.321.183-.326.183-.721v-.533q0-.394-.173-.72-.173-.331-.666-.331-.464 0-.657.331a1.4 1.4 0 0 0-.192.72m-6.426-5.251v-.533q0-.592.251-1.086.252-.494.731-.79.479-.301 1.16-.301.696 0 1.17.301.479.296.72.79.242.493.242 1.086v.533q0 .591-.247 1.085a1.9 1.9 0 0 1-.72.785q-.48.296-1.165.296-.696 0-1.175-.296a1.94 1.94 0 0 1-.721-.789 2.4 2.4 0 0 1-.246-1.081m1.298-.533v.533q0 .394.182.72.188.321.662.321t.651-.321q.183-.325.183-.72v-.533q0-.396-.173-.721-.172-.331-.661-.331-.47 0-.657.331-.187.33-.187.721m-.736 8.213 6.95-10.109h1.234l-6.95 10.109z"/><path fill="#00162a" d="M171.055 349.474h-1.539a2.4 2.4 0 0 0-.331-.869 2.4 2.4 0 0 0-.592-.636 2.6 2.6 0 0 0-.785-.395 3 3 0 0 0-.913-.133q-.874 0-1.565.439-.685.44-1.086 1.288-.395.849-.395 2.073 0 1.234.395 2.083.4.85 1.091 1.283.691.435 1.555.434.479 0 .908-.128.434-.134.785-.39a2.36 2.36 0 0 0 .933-1.485l1.539.005a4.1 4.1 0 0 1-.478 1.372 3.8 3.8 0 0 1-.904 1.076 4.1 4.1 0 0 1-1.253.696 4.7 4.7 0 0 1-1.54.246q-1.312 0-2.34-.622-1.026-.626-1.619-1.791-.587-1.165-.587-2.779 0-1.619.592-2.779.593-1.164 1.619-1.787 1.027-.626 2.335-.626.804 0 1.5.232.702.227 1.259.671.558.439.923 1.076.365.631.493 1.446m4.9 6.974q-1.066 0-1.86-.488a3.3 3.3 0 0 1-1.234-1.368q-.44-.878-.44-2.053 0-1.18.44-2.063a3.3 3.3 0 0 1 1.234-1.372q.794-.489 1.86-.489t1.861.489 1.234 1.372.439 2.063q0 1.175-.439 2.053a3.3 3.3 0 0 1-1.234 1.368q-.795.488-1.861.488m.005-1.239q.692 0 1.145-.365t.672-.972q.222-.608.222-1.338 0-.726-.222-1.332a2.17 2.17 0 0 0-.672-.983q-.453-.37-1.145-.37-.696 0-1.155.37a2.2 2.2 0 0 0-.676.983 3.9 3.9 0 0 0-.217 1.332q0 .73.217 1.338.222.607.676.972.459.365 1.155.365m6.652-3.415v4.501h-1.475v-7.581h1.416v1.234h.094q.261-.602.819-.968.563-.365 1.417-.365.774 0 1.357.326.583.321.903.957.321.638.321 1.575v4.822h-1.476v-4.644q0-.825-.429-1.289-.429-.468-1.18-.468a1.85 1.85 0 0 0-.913.222 1.6 1.6 0 0 0-.627.651q-.227.424-.227 1.027m13.046-3.08-2.75 7.581h-1.579l-2.754-7.581h1.584l1.92 5.834h.079l1.915-5.834zm4.396 7.734q-1.12 0-1.93-.479a3.24 3.24 0 0 1-1.244-1.357q-.434-.879-.434-2.058 0-1.165.434-2.053a3.37 3.37 0 0 1 1.224-1.387q.79-.5 1.846-.499.642 0 1.244.212.603.213 1.081.667.479.454.755 1.179.276.721.277 1.753v.523h-6.027v-1.106h4.58q0-.582-.236-1.031a1.8 1.8 0 0 0-.667-.716 1.87 1.87 0 0 0-.997-.262 1.93 1.93 0 0 0-1.086.306 2.05 2.05 0 0 0-.71.79 2.3 2.3 0 0 0-.247 1.051v.864q0 .76.266 1.293.272.534.756.815.483.276 1.13.276.42 0 .765-.118.345-.124.597-.366t.385-.597l1.397.252a2.54 2.54 0 0 1-.602 1.081 2.9 2.9 0 0 1-1.081.715q-.646.252-1.476.252m4.89-.153v-7.581h1.426v1.204h.079q.208-.612.731-.962a2.1 2.1 0 0 1 1.194-.356 7 7 0 0 1 .627.035v1.412a3 3 0 0 0-.316-.055 3 3 0 0 0-.454-.034q-.524 0-.933.222a1.66 1.66 0 0 0-.878 1.485v4.63zm9.321-7.581v1.184h-4.141v-1.184zm-3.03-1.816h1.475v7.171q0 .43.129.647a.67.67 0 0 0 .33.291q.208.074.45.074.177 0 .311-.025l.207-.039.266 1.219a2.5 2.5 0 0 1-.365.099 3 3 0 0 1-.592.059 2.6 2.6 0 0 1-1.086-.207 1.86 1.86 0 0 1-.814-.672q-.312-.453-.311-1.14zm7.849 9.55q-1.121 0-1.93-.479a3.24 3.24 0 0 1-1.244-1.357q-.434-.879-.434-2.058 0-1.165.434-2.053a3.37 3.37 0 0 1 1.224-1.387q.79-.5 1.846-.499.641 0 1.244.212a3 3 0 0 1 1.081.667q.479.454.755 1.179.276.721.276 1.753v.523h-6.026v-1.106h4.58q0-.582-.237-1.031a1.8 1.8 0 0 0-.666-.716 1.87 1.87 0 0 0-.997-.262q-.622 0-1.086.306a2.06 2.06 0 0 0-.711.79 2.3 2.3 0 0 0-.247 1.051v.864q0 .76.267 1.293.272.534.755.815.484.276 1.13.276.42 0 .765-.118.346-.124.598-.366.251-.242.385-.597l1.396.252a2.5 2.5 0 0 1-.602 1.081 2.9 2.9 0 0 1-1.081.715q-.647.252-1.475.252m7.728-.005a2.94 2.94 0 0 1-1.639-.469q-.716-.474-1.125-1.347-.405-.878-.405-2.108t.41-2.102q.414-.874 1.135-1.338a2.95 2.95 0 0 1 1.634-.464q.705 0 1.135.237.434.232.671.543.242.31.375.548h.089v-3.756h1.476v10.108h-1.441v-1.179h-.124a4 4 0 0 1-.385.552 2.1 2.1 0 0 1-.681.543q-.435.232-1.125.232m.325-1.258q.638 0 1.076-.336.445-.34.672-.943.232-.602.232-1.401 0-.79-.227-1.382-.228-.593-.667-.923t-1.086-.331q-.666 0-1.11.345-.444.346-.671.943a3.9 3.9 0 0 0-.222 1.348q0 .76.227 1.367.227.606.671.962.449.351 1.105.351m12.409 1.263q-1.101 0-1.895-.498a3.3 3.3 0 0 1-1.215-1.387q-.424-.884-.424-2.024 0-1.155.434-2.038a3.33 3.33 0 0 1 1.224-1.387q.79-.5 1.861-.499.864 0 1.54.321.676.317 1.091.888.42.573.498 1.338h-1.436a1.72 1.72 0 0 0-.543-.918q-.42-.385-1.125-.385-.618 0-1.081.326-.46.321-.716.918-.257.592-.257 1.402 0 .828.252 1.431.252.602.711.933.464.33 1.091.33.419 0 .76-.153.345-.158.577-.449a1.7 1.7 0 0 0 .331-.701h1.436a2.8 2.8 0 0 1-.479 1.313 2.74 2.74 0 0 1-1.071.908q-.666.331-1.564.331m9.495-3.297v-4.437h1.481v7.581h-1.451v-1.313h-.079a2.37 2.37 0 0 1-.84 1.012q-.572.4-1.426.4-.73 0-1.293-.321a2.26 2.26 0 0 1-.879-.962q-.316-.638-.316-1.575v-4.822h1.476v4.644q0 .775.43 1.234t1.115.459q.414 0 .824-.207.415-.207.686-.627.277-.419.272-1.066m9.145-2.586-1.338.237a1.6 1.6 0 0 0-.267-.489 1.3 1.3 0 0 0-.483-.38q-.306-.148-.765-.148-.627 0-1.047.281-.419.277-.419.716 0 .38.281.612t.908.38l1.205.276q1.046.243 1.559.746.513.502.514 1.308 0 .681-.395 1.214-.39.528-1.091.829-.696.301-1.614.301-1.274 0-2.078-.543-.804-.547-.987-1.555l1.426-.217q.134.558.548.844.415.282 1.081.282.726 0 1.16-.301.435-.306.434-.746a.78.78 0 0 0-.266-.597q-.262-.242-.805-.365l-1.283-.282q-1.061-.241-1.57-.769-.503-.529-.503-1.338 0-.671.375-1.175.375-.503 1.037-.785.661-.286 1.515-.286 1.229 0 1.935.533.705.529.933 1.417m5.309-1.851v1.184h-4.141v-1.184zm-3.03-1.816h1.475v7.171q0 .43.129.647a.67.67 0 0 0 .33.291q.208.074.45.074.177 0 .31-.025l.208-.039.266 1.219a2.5 2.5 0 0 1-.365.099 3 3 0 0 1-.592.059 2.6 2.6 0 0 1-1.086-.207 1.86 1.86 0 0 1-.814-.672q-.312-.453-.311-1.14zm7.775 9.55q-1.066 0-1.861-.488a3.3 3.3 0 0 1-1.234-1.368q-.44-.878-.439-2.053 0-1.18.439-2.063a3.3 3.3 0 0 1 1.234-1.372q.795-.489 1.861-.489t1.86.489 1.234 1.372.44 2.063q0 1.175-.44 2.053a3.3 3.3 0 0 1-1.234 1.368q-.794.488-1.86.488m.004-1.239q.692 0 1.146-.365t.671-.972q.222-.608.222-1.338 0-.726-.222-1.332a2.2 2.2 0 0 0-.671-.983q-.454-.37-1.146-.37-.695 0-1.154.37a2.2 2.2 0 0 0-.677.983 4 4 0 0 0-.217 1.332q0 .73.217 1.338.222.607.677.972.46.365 1.154.365m5.177 1.086v-7.581h1.416v1.234h.094q.237-.627.775-.977.538-.356 1.288-.356.76 0 1.274.356.518.354.765.977h.079a2.14 2.14 0 0 1 .863-.968q.593-.365 1.412-.365 1.032 0 1.683.647.657.647.657 1.949v5.084h-1.476v-4.945q0-.771-.42-1.116a1.53 1.53 0 0 0-1.002-.345q-.72 0-1.12.444-.4.439-.4 1.13v4.832h-1.471v-5.039q0-.617-.385-.992-.384-.375-1.002-.375-.419 0-.775.222a1.64 1.64 0 0 0-.567.607q-.212.39-.212.903v4.674zm15.551.153q-1.12 0-1.93-.479a3.24 3.24 0 0 1-1.244-1.357q-.434-.879-.434-2.058 0-1.165.434-2.053a3.37 3.37 0 0 1 1.224-1.387q.79-.5 1.846-.499.642 0 1.244.212.603.213 1.081.667.479.454.755 1.179.277.721.277 1.753v.523h-6.027v-1.106h4.58q0-.582-.236-1.031a1.8 1.8 0 0 0-.667-.716 1.87 1.87 0 0 0-.997-.262 1.93 1.93 0 0 0-1.086.306 2.05 2.05 0 0 0-.71.79 2.3 2.3 0 0 0-.247 1.051v.864q0 .76.266 1.293.272.534.756.815.483.276 1.13.276.42 0 .765-.118.345-.124.597-.366t.385-.597l1.397.252a2.54 2.54 0 0 1-.602 1.081 2.9 2.9 0 0 1-1.081.715q-.647.252-1.476.252m4.89-.153v-7.581h1.426v1.204h.079q.208-.612.731-.962a2.1 2.1 0 0 1 1.194-.356 7 7 0 0 1 .627.035v1.412a3 3 0 0 0-.316-.055 3 3 0 0 0-.454-.034q-.524 0-.933.222a1.66 1.66 0 0 0-.878 1.485v4.63zm11.015-5.73-1.337.237a1.6 1.6 0 0 0-.267-.489 1.3 1.3 0 0 0-.483-.38q-.306-.148-.766-.148-.626 0-1.046.281-.42.277-.419.716 0 .38.281.612.28.232.908.38l1.204.276q1.047.243 1.56.746.513.502.513 1.308 0 .681-.394 1.214-.39.528-1.091.829-.696.301-1.614.301-1.274 0-2.078-.543-.805-.547-.987-1.555l1.426-.217q.134.558.548.844.415.282 1.081.282.725 0 1.16-.301.434-.306.434-.746a.78.78 0 0 0-.266-.597q-.262-.242-.805-.365l-1.283-.282q-1.062-.241-1.57-.769-.503-.529-.503-1.338 0-.671.375-1.175.375-.503 1.036-.785.661-.286 1.516-.286 1.229 0 1.934.533.707.529.933 1.417"/><path fill="#090f1d" d="M379.425 356.433a4.3 4.3 0 0 1-1.417-.251 3.35 3.35 0 0 1-1.244-.815q-.552-.567-.878-1.505-.325-.943-.321-2.335 0-1.298.276-2.315.278-1.016.795-1.717a3.5 3.5 0 0 1 1.249-1.076 3.6 3.6 0 0 1 1.643-.37q.953 0 1.688.375.74.375 1.195 1.026.454.647.563 1.461h-1.802a1.64 1.64 0 0 0-.568-.928q-.424-.35-1.076-.35-1.05 0-1.618.913-.564.914-.568 2.507h.069q.241-.434.627-.745.385-.31.869-.479a3.1 3.1 0 0 1 1.031-.172 3.03 3.03 0 0 1 1.594.424q.71.425 1.126 1.17.415.74.409 1.698a3.47 3.47 0 0 1-.454 1.791 3.3 3.3 0 0 1-1.278 1.244q-.82.455-1.91.449m-.01-1.48q.538 0 .962-.262a1.9 1.9 0 0 0 .672-.706q.246-.444.242-.997a1.97 1.97 0 0 0-.237-.982 1.8 1.8 0 0 0-.657-.696 1.8 1.8 0 0 0-.957-.257 1.82 1.82 0 0 0-1.348.578 2 2 0 0 0-.405.622 2 2 0 0 0-.148.75q.006.528.247.972.241.445.666.711.424.267.963.267m10.725-.553v-.533q0-.588.247-1.081.252-.493.731-.795.478-.3 1.159-.301.702 0 1.175.301.474.297.716.79a2.4 2.4 0 0 1 .247 1.086v.533q0 .587-.247 1.081a1.96 1.96 0 0 1-.726.794q-.474.302-1.165.302-.69 0-1.169-.302-.48-.3-.726-.794a2.4 2.4 0 0 1-.242-1.081m1.288-.533v.533q0 .39.188.716t.661.325q.48 0 .657-.321.183-.325.182-.72v-.533q0-.395-.172-.721-.173-.33-.667-.331-.464 0-.656.331a1.4 1.4 0 0 0-.193.721m-6.426-5.252v-.533q0-.592.252-1.086.252-.493.73-.789.48-.301 1.16-.301.696 0 1.17.301.478.296.721.789.241.493.241 1.086v.533a2.4 2.4 0 0 1-.246 1.086 1.9 1.9 0 0 1-.721.785q-.478.296-1.165.296-.696 0-1.174-.296a1.94 1.94 0 0 1-.721-.79 2.4 2.4 0 0 1-.247-1.081m1.298-.533v.533q0 .395.183.721.187.321.661.321t.652-.321q.182-.326.182-.721v-.533q0-.394-.172-.72-.174-.331-.662-.331-.468 0-.656.331-.188.33-.188.72m-.735 8.213 6.949-10.108h1.234l-6.949 10.108z"/><circle cx="372.279" cy="163.759" r="2.135" fill="#e5e7eb" stroke="#00162a" stroke-linecap="round" stroke-width=".993"/><circle cx="381.514" cy="163.759" r="2.135" fill="#e5e7eb" stroke="#00162a" stroke-linecap="round" stroke-width=".993"/><circle cx="390.748" cy="163.759" r="2.135" fill="#e5e7eb" stroke="#00162a" stroke-linecap="round" stroke-width=".993"/><g stroke="#00162a" stroke-width="1.76" clip-path="url(#f)"><path stroke-linecap="round" d="M122.989 350.266a8.802 8.802 0 1 0 17.604 0 8.802 8.802 0 0 0-17.604 0z"/><path stroke-linecap="square" d="M130.031 352.128c0 .272.103.587.296.876a1.76 1.76 0 0 0 1.807.749 1.762 1.762 0 0 0 1.283-2.4 1.755 1.755 0 0 0-1.626-1.087 1.755 1.755 0 0 1-1.626-1.087 1.75 1.75 0 0 1 .381-1.918 1.755 1.755 0 0 1 1.919-.382c.321.133.596.359.79.648.193.29.296.596.296.868m-1.76-2.824v1.174m0 7.042v1.173"/></g><path stroke="#00162a" stroke-linecap="square" stroke-width="1.76" d="M124.089 325.937v-1.1a7.71 7.71 0 0 1 4.754-7.116 7.706 7.706 0 0 1 10.063 4.168c.388.935.587 1.936.587 2.948v1.1"/><path stroke="#00162a" stroke-linecap="round" stroke-width="1.76" d="M131.791 317.135a4.404 4.404 0 0 0 4.401-4.401 4.4 4.4 0 1 0-4.401 4.401z"/><path stroke="#00162a" stroke-linecap="round" stroke-linejoin="round" stroke-width="1.76" d="M139.763 277.474a2.84 2.84 0 0 0-3.122-.603c-.346.147-.66.362-.923.631l-11.345 11.344-1.384 5.403 5.402-1.386 11.345-11.345a2.83 2.83 0 0 0 .857-2.016 2.84 2.84 0 0 0-.83-2.028m-4.369.352 4.017 4.017m-15.037 7.002 4.021 4.014"/></g><rect width="658" height="434" x=".5" y=".889" stroke="#00162a" rx="19.5"/><defs><filter id="b" width="353.886" height="454.695" x="178.556" y="-15.513" color-interpolation-filters="sRGB" filterUnits="userSpaceOnUse"><feFlood flood-opacity="0" result="BackgroundImageFix"/><feBlend in="SourceGraphic" in2="BackgroundImageFix" result="shape"/><feGaussianBlur result="effect1_foregroundBlur_4430_7214" stdDeviation="58.975"/></filter><filter id="c" width="346.729" height="20.848" x="263.359" y="95.278" color-interpolation-filters="sRGB" filterUnits="userSpaceOnUse"><feFlood flood-opacity="0" result="BackgroundImageFix"/><feColorMatrix in="SourceAlpha" result="hardAlpha" values="0 0 0 0 0 0 0 0 0 0 0 0 0 0 0 0 0 0 127 0"/><feOffset dy="3.971"/><feGaussianBlur stdDeviation="4.964"/><feComposite in2="hardAlpha" operator="out"/><feColorMatrix values="0 0 0 0 0.254902 0 0 0 0 0.286275 0 0 0 0 0.329412 0 0 0 0.06 0"/><feBlend in2="BackgroundImageFix" result="effect1_dropShadow_4430_7214"/><feBlend in="SourceGraphic" in2="effect1_dropShadow_4430_7214" result="shape"/></filter><filter id="d" width="346.729" height="20.848" x="263.359" y="95.278" color-interpolation-filters="sRGB" filterUnits="userSpaceOnUse"><feFlood flood-opacity="0" result="BackgroundImageFix"/><feColorMatrix in="SourceAlpha" result="hardAlpha" values="0 0 0 0 0 0 0 0 0 0 0 0 0 0 0 0 0 0 127 0"/><feOffset dy="3.971"/><feGaussianBlur stdDeviation="4.964"/><feComposite in2="hardAlpha" operator="out"/><feColorMatrix values="0 0 0 0 0.254902 0 0 0 0 0.286275 0 0 0 0 0.329412 0 0 0 0.06 0"/><feBlend in2="BackgroundImageFix" result="effect1_dropShadow_4430_7214"/><feBlend in="SourceGraphic" in2="effect1_dropShadow_4430_7214" result="shape"/></filter><filter id="e" width="327.702" height="20.848" x="93.477" y="183.3" color-interpolation-filters="sRGB" filterUnits="userSpaceOnUse"><feFlood flood-opacity="0" result="BackgroundImageFix"/><feColorMatrix in="SourceAlpha" result="hardAlpha" values="0 0 0 0 0 0 0 0 0 0 0 0 0 0 0 0 0 0 127 0"/><feOffset dy="3.971"/><feGaussianBlur stdDeviation="4.964"/><feComposite in2="hardAlpha" operator="out"/><feColorMatrix values="0 0 0 0 0.254902 0 0 0 0 0.286275 0 0 0 0 0.329412 0 0 0 0.06 0"/><feBlend in2="BackgroundImageFix" result="effect1_dropShadow_4430_7214"/><feBlend in="SourceGraphic" in2="effect1_dropShadow_4430_7214" result="shape"/></filter><clipPath id="a"><rect width="659" height="435" y=".389" fill="#fff" rx="20"/></clipPath><clipPath id="f"><path fill="#fff" d="M121.228 340.021h21.125v21.125h-21.125z"/></clipPath></defs></svg>