<svg xmlns="http://www.w3.org/2000/svg" width="659" height="436" fill="none" viewBox="0 0 659 436"><rect width="658" height="434" x=".5" y=".722" fill="#fff" rx="19.5"/><rect width="658" height="434" x=".5" y=".722" stroke="#00162a" rx="19.5"/><rect width="329.785" height="218.352" x="167.388" y="57.61" fill="#fff" stroke="#00162a" stroke-width=".776" rx="5.82"/><path fill="#00162a" d="M183.466 75.579a1.05 1.05 0 0 0-.456-.787q-.397-.282-1.034-.282-.447 0-.767.135t-.49.367a.9.9 0 0 0-.174.528q0 .248.112.428.115.181.313.31.196.122.436.207.239.086.482.143l.74.185q.449.105.861.282.417.177.744.448.332.27.525.651.193.382.193.896 0 .694-.355 1.222-.356.525-1.026.822-.668.293-1.617.293-.921 0-1.601-.285a2.4 2.4 0 0 1-1.057-.833q-.378-.548-.409-1.335h1.408q.031.413.255.686.223.275.583.41.361.135.81.135.467 0 .818-.14a1.33 1.33 0 0 0 .555-.393.95.95 0 0 0 .205-.594.76.76 0 0 0-.182-.51 1.3 1.3 0 0 0-.497-.339 5 5 0 0 0-.741-.247l-.899-.231q-.976-.25-1.543-.76-.564-.513-.563-1.362 0-.699.378-1.223.381-.525 1.037-.814a3.6 3.6 0 0 1 1.486-.293q.84 0 1.473.293.637.29 1 .806.362.514.374 1.18zm5.323 5.845q-.892 0-1.54-.37a2.5 2.5 0 0 1-.991-1.058q-.348-.686-.347-1.616 0-.915.347-1.605.351-.694.98-1.08.628-.39 1.477-.39.549 0 1.034.177.49.174.864.54.379.367.595.934.216.563.216 1.343v.428h-4.858v-.941h3.519a1.5 1.5 0 0 0-.174-.714 1.26 1.26 0 0 0-.474-.498 1.34 1.34 0 0 0-.702-.181q-.429 0-.753.208a1.44 1.44 0 0 0-.505.54 1.55 1.55 0 0 0-.181.73v.821q0 .517.189.888.189.366.528.563.34.192.795.193.305 0 .552-.085a1.2 1.2 0 0 0 .428-.259q.181-.17.274-.42l1.304.146a2.04 2.04 0 0 1-.471.903 2.3 2.3 0 0 1-.88.594 3.4 3.4 0 0 1-1.226.209m8.5-4.476-1.274.14a1 1 0 0 0-.189-.363.9.9 0 0 0-.354-.274 1.3 1.3 0 0 0-.548-.104q-.436 0-.733.189-.294.189-.29.49a.52.52 0 0 0 .189.42q.198.162.649.266l1.01.216q.842.182 1.25.575.412.394.417 1.03a1.6 1.6 0 0 1-.328.988q-.32.425-.891.663-.571.24-1.312.24-1.088 0-1.751-.456a1.83 1.83 0 0 1-.791-1.277l1.362-.13q.091.4.393.605t.783.204q.498 0 .799-.204.305-.204.305-.505 0-.255-.197-.421-.193-.165-.602-.255l-1.011-.212q-.853-.177-1.261-.598-.41-.424-.405-1.072a1.5 1.5 0 0 1 .297-.95q.305-.405.845-.624a3.3 3.3 0 0 1 1.253-.224q1.042 0 1.64.444.601.442.745 1.2m5.962 0-1.273.14a1 1 0 0 0-.189-.363.95.95 0 0 0-.355-.274 1.3 1.3 0 0 0-.548-.104q-.436 0-.733.189-.293.189-.289.49a.51.51 0 0 0 .189.42q.197.162.648.266l1.011.216q.84.182 1.25.575.413.394.416 1.03a1.6 1.6 0 0 1-.328.988q-.32.425-.891.663-.57.24-1.311.24-1.089 0-1.752-.456a1.83 1.83 0 0 1-.791-1.277l1.362-.13a.96.96 0 0 0 .394.605q.3.204.783.204.497 0 .798-.204.305-.204.305-.505 0-.255-.197-.421-.192-.165-.602-.255l-1.01-.212q-.853-.177-1.262-.598-.409-.424-.405-1.072a1.52 1.52 0 0 1 .297-.95q.305-.405.845-.624.545-.225 1.254-.224 1.042 0 1.639.444.603.442.745 1.2m1.279 4.36v-5.926h1.397v5.926zm.702-6.767a.82.82 0 0 1-.571-.22.7.7 0 0 1-.239-.536q0-.317.239-.536.24-.225.571-.224.336 0 .571.224a.7.7 0 0 1 .239.536.7.7 0 0 1-.239.536.8.8 0 0 1-.571.22m4.715 6.883q-.868 0-1.504-.382a2.6 2.6 0 0 1-.988-1.069q-.347-.687-.347-1.605t.347-1.609q.35-.69.988-1.072.637-.382 1.504-.382.869 0 1.505.382t.984 1.072q.351.69.351 1.61 0 .917-.351 1.604-.348.687-.984 1.069t-1.505.382m.008-1.12q.47 0 .787-.258.317-.263.471-.702a2.9 2.9 0 0 0 .158-.98q0-.543-.158-.984a1.56 1.56 0 0 0-.471-.706q-.316-.262-.787-.262-.482 0-.802.262-.316.262-.475.706a3 3 0 0 0-.154.984q0 .54.154.98.159.44.475.702.32.26.802.259m5.414-2.468v3.472h-1.397v-5.926h1.335v1.007h.07q.204-.498.652-.79.45-.294 1.114-.294.614 0 1.069.262.46.263.71.76.254.498.251 1.208v3.773h-1.397V77.75q0-.594-.308-.93-.306-.336-.845-.336-.367 0-.652.162a1.1 1.1 0 0 0-.444.46q-.158.3-.158.729m9.907-.888-1.273.14a1 1 0 0 0-.189-.363.95.95 0 0 0-.355-.274 1.3 1.3 0 0 0-.548-.104q-.436 0-.733.189-.293.189-.289.49a.51.51 0 0 0 .189.42q.197.162.648.266l1.011.216q.84.182 1.25.575.413.394.416 1.03a1.6 1.6 0 0 1-.328.988q-.32.425-.891.663-.57.24-1.312.24-1.088 0-1.751-.456a1.83 1.83 0 0 1-.791-1.277l1.362-.13q.093.4.393.605t.784.204q.497 0 .798-.204.305-.204.305-.505 0-.255-.197-.421-.192-.165-.602-.255l-1.01-.212q-.853-.177-1.262-.598-.41-.424-.405-1.072a1.5 1.5 0 0 1 .297-.95q.305-.405.845-.624.544-.225 1.254-.224 1.041 0 1.639.444.603.442.745 1.2m6.558 4.476q-.868 0-1.504-.382a2.6 2.6 0 0 1-.988-1.069q-.347-.687-.347-1.605t.347-1.609q.35-.69.988-1.072.636-.382 1.504-.382.869 0 1.505.382t.984 1.072q.351.69.351 1.61 0 .917-.351 1.604-.348.687-.984 1.069t-1.505.382m.008-1.12q.47 0 .787-.258.316-.263.471-.702a2.9 2.9 0 0 0 .158-.98q0-.543-.158-.984a1.56 1.56 0 0 0-.471-.706q-.316-.262-.787-.262-.482 0-.802.262-.316.262-.475.706a3 3 0 0 0-.154.984q0 .54.154.98.159.44.475.702.32.26.802.259m9.109-4.922-2.111 5.926h-1.543l-2.11-5.926h1.489l1.362 4.402h.062l1.365-4.402zm3.388 6.042q-.891 0-1.539-.37a2.5 2.5 0 0 1-.992-1.058q-.347-.686-.347-1.616 0-.915.347-1.605.351-.694.98-1.08.629-.39 1.478-.39.548 0 1.034.177.489.174.864.54.378.367.594.934.216.563.216 1.343v.428h-4.857v-.941h3.518a1.5 1.5 0 0 0-.173-.714 1.27 1.27 0 0 0-.475-.498q-.3-.18-.702-.181-.429 0-.752.208a1.44 1.44 0 0 0-.506.54 1.56 1.56 0 0 0-.181.73v.821q0 .517.189.888.189.366.529.563.34.192.794.193.305 0 .552-.085a1.2 1.2 0 0 0 .428-.259q.181-.17.274-.42l1.304.146a2 2 0 0 1-.471.903 2.3 2.3 0 0 1-.879.594 3.4 3.4 0 0 1-1.227.209m3.816-.116v-5.926h1.355v.988h.061a1.48 1.48 0 0 1 1.462-1.073q.117 0 .259.012.147.007.243.027v1.285a1.5 1.5 0 0 0-.282-.054 3 3 0 0 0-.366-.027q-.383 0-.687.165-.3.162-.474.452a1.27 1.27 0 0 0-.174.667v3.484zm9.781-5.926-2.11 5.926h-1.543l-2.11-5.926h1.489l1.362 4.402h.061l1.366-4.402zm.967 5.926v-5.926h1.396v5.926zm.702-6.767a.8.8 0 0 1-.571-.22.7.7 0 0 1-.239-.536.7.7 0 0 1 .239-.536.8.8 0 0 1 .571-.224q.336 0 .571.224a.7.7 0 0 1 .239.536.7.7 0 0 1-.239.536.8.8 0 0 1-.571.22m4.754 6.883q-.89 0-1.54-.37a2.5 2.5 0 0 1-.991-1.058q-.348-.686-.347-1.616 0-.915.347-1.605.351-.694.98-1.08.629-.39 1.477-.39.548 0 1.034.177.49.174.865.54.378.367.594.934.216.563.216 1.343v.428h-4.857v-.941h3.518a1.5 1.5 0 0 0-.174-.714 1.26 1.26 0 0 0-.474-.498 1.34 1.34 0 0 0-.702-.181q-.429 0-.753.208a1.44 1.44 0 0 0-.505.54 1.55 1.55 0 0 0-.181.73v.821q0 .517.189.888.189.366.528.563.34.192.795.193.305 0 .552-.085a1.2 1.2 0 0 0 .428-.259q.181-.17.274-.42l1.304.146a2 2 0 0 1-.471.903 2.3 2.3 0 0 1-.879.594 3.4 3.4 0 0 1-1.227.209m5.007-.116-1.674-5.926h1.424l1.041 4.167h.054l1.065-4.167h1.408l1.065 4.143h.058l1.026-4.143h1.427l-1.678 5.926h-1.454l-1.111-4.005h-.081l-1.111 4.005z"/><path stroke="#f2f4f8" stroke-width=".776" d="M497.561 100.176H167" opacity=".7"/><path fill="#9ca3af" d="M183.185 129.83a2.9 2.9 0 0 1-1.168-.225 2 2 0 0 1-.81-.625 1.7 1.7 0 0 1-.324-.936h.834a.98.98 0 0 0 .224.565q.2.235.52.364t.711.129q.436 0 .773-.152.338-.151.529-.423a1.06 1.06 0 0 0 .192-.629q0-.373-.185-.658a1.23 1.23 0 0 0-.542-.449q-.357-.162-.873-.162h-.543v-.728h.543q.404 0 .707-.145.307-.146.48-.41a1.1 1.1 0 0 0 .175-.622q0-.344-.152-.599a1.04 1.04 0 0 0-.43-.396 1.4 1.4 0 0 0-.648-.143q-.35 0-.661.129a1.24 1.24 0 0 0-.503.367.96.96 0 0 0-.212.576h-.793q.02-.533.32-.933.301-.403.787-.628.49-.225 1.075-.225.628 0 1.078.255.45.251.691.664.242.414.242.893 0 .573-.301.976a1.53 1.53 0 0 1-.81.559v.053q.64.105 1.002.545.36.437.36 1.081 0 .553-.301.993-.297.436-.813.687a2.64 2.64 0 0 1-1.174.252m5.849 0q-.747 0-1.273-.407-.525-.41-.803-1.187-.278-.78-.278-1.885 0-1.098.278-1.875.28-.78.807-1.191.529-.413 1.269-.413t1.267.413q.53.411.807 1.191.28.777.281 1.875 0 1.105-.278 1.885-.278.777-.803 1.187-.526.407-1.274.407m0-.728q.741 0 1.151-.714t.41-2.037q0-.88-.188-1.498-.185-.618-.536-.943a1.18 1.18 0 0 0-.837-.324q-.733 0-1.147.725-.413.72-.413 2.04 0 .88.185 1.495t.532.935q.351.321.843.321m-7.071 36.331v-.596l2.236-2.447q.393-.429.648-.747.254-.32.377-.602.126-.284.126-.595 0-.357-.172-.618a1.1 1.1 0 0 0-.463-.404 1.5 1.5 0 0 0-.662-.142q-.39 0-.681.162a1.1 1.1 0 0 0-.446.446 1.4 1.4 0 0 0-.156.675h-.78q0-.595.274-1.045t.748-.701a2.24 2.24 0 0 1 1.068-.251q.595 0 1.055.251.459.252.721.678t.261.949q0 .374-.136.731a3.2 3.2 0 0 1-.463.79q-.327.434-.909 1.058l-1.521 1.627v.053h3.148v.728zm7.847.092q-.747 0-1.273-.407-.525-.41-.803-1.187-.278-.78-.278-1.885 0-1.096.278-1.875.28-.78.807-1.19.529-.413 1.269-.413t1.267.413q.53.41.807 1.19.28.779.281 1.875 0 1.105-.278 1.885-.278.777-.803 1.187-.526.408-1.274.407m0-.727q.741 0 1.151-.715.41-.714.41-2.037 0-.879-.188-1.498-.185-.618-.536-.942a1.18 1.18 0 0 0-.837-.324q-.733 0-1.147.724-.413.722-.413 2.04 0 .88.185 1.495t.532.936q.351.321.843.321m-4.38 29.558v6.772h-.82v-5.912h-.04l-1.653 1.098v-.834l1.693-1.124zm4.156 6.865q-.747 0-1.273-.407-.525-.41-.803-1.187-.278-.78-.278-1.885 0-1.098.278-1.875.28-.78.807-1.19.529-.414 1.269-.413.74 0 1.267.413.53.41.807 1.19.28.777.281 1.875 0 1.105-.278 1.885-.278.777-.803 1.187-.526.407-1.274.407m0-.727q.741 0 1.151-.715.41-.714.41-2.037 0-.879-.188-1.498-.185-.618-.536-.942a1.18 1.18 0 0 0-.837-.324q-.733 0-1.147.724-.413.721-.413 2.04 0 .88.185 1.495t.532.936q.351.321.843.321m-.344 36.423q-.747 0-1.273-.407-.525-.41-.803-1.187-.278-.78-.278-1.885 0-1.098.278-1.875.28-.78.807-1.19.529-.414 1.269-.414t1.267.414q.53.41.807 1.19.28.777.281 1.875 0 1.105-.278 1.885-.278.777-.803 1.187-.526.407-1.274.407m0-.728q.741 0 1.151-.714t.41-2.037q0-.88-.188-1.498-.185-.618-.536-.942a1.18 1.18 0 0 0-.837-.324q-.733 0-1.147.724-.414.72-.413 2.04 0 .88.185 1.495t.532.936q.351.32.843.32"/><path stroke="#00162a" stroke-dasharray="3.88 3.88" stroke-width=".776" d="M204.636 129.211h277.612m-277.612 38.024h277.612"/><path stroke="#9ca3af" stroke-dasharray="3.88 3.88" stroke-width=".776" d="M384.63 118.881v120.222" opacity=".5"/><path stroke="#00162a" stroke-dasharray="3.88 3.88" stroke-width=".776" d="M204.636 202.93h277.612m-277.612 35.696h277.612"/><path fill="#9ca3af" d="M209.327 248.387h.82v4.841q0 .65-.238 1.102a1.6 1.6 0 0 1-.672.687q-.432.235-1.021.235-.556 0-.989-.201a1.63 1.63 0 0 1-.681-.582 1.6 1.6 0 0 1-.248-.897h.807q0 .288.142.503a1 1 0 0 0 .397.331q.25.119.572.119.354 0 .601-.149a.94.94 0 0 0 .377-.437 1.7 1.7 0 0 0 .133-.711zm3.852 6.892q-.483 0-.876-.182a1.5 1.5 0 0 1-.625-.533 1.5 1.5 0 0 1-.232-.846q0-.436.172-.708.172-.274.46-.43t.635-.231q.35-.08.704-.126.463-.059.751-.089.291-.033.423-.109.136-.076.136-.265v-.026q0-.49-.268-.761-.264-.271-.804-.271-.558 0-.876.245t-.446.522l-.741-.264q.198-.463.529-.721.334-.261.727-.364a3 3 0 0 1 .781-.106q.244 0 .562.06.321.056.618.235.301.178.5.539.198.36.198.965v3.347h-.78v-.688h-.04q-.08.165-.264.354a1.5 1.5 0 0 1-.493.32 1.9 1.9 0 0 1-.751.133m.119-.701q.463 0 .781-.182a1.24 1.24 0 0 0 .648-1.075v-.714q-.05.06-.219.109-.165.046-.383.083a19 19 0 0 1-.747.099 3 3 0 0 0-.569.129 1 1 0 0 0-.423.261q-.159.172-.159.47 0 .406.301.615.304.204.77.205m4.414-2.474v3.056h-.78v-5.08h.754v.794h.066a1.45 1.45 0 0 1 .542-.622q.363-.238.939-.238.516 0 .903.212.386.208.602.635.215.423.215 1.071v3.228h-.781v-3.175q0-.599-.311-.932-.31-.338-.853-.338-.374 0-.668.162a1.16 1.16 0 0 0-.459.473 1.56 1.56 0 0 0-.169.754m9.653-3.717v6.773h-.82v-5.913h-.039l-1.654 1.098v-.833l1.693-1.125zm23.435 0h.82v4.841q0 .65-.238 1.102a1.6 1.6 0 0 1-.672.687q-.433.235-1.021.235-.556 0-.989-.201a1.63 1.63 0 0 1-.681-.582 1.6 1.6 0 0 1-.248-.897h.807q0 .288.142.503a1 1 0 0 0 .397.331q.25.119.572.119.353 0 .601-.149a.94.94 0 0 0 .377-.437 1.7 1.7 0 0 0 .133-.711zm3.852 6.892q-.483 0-.876-.182a1.5 1.5 0 0 1-.625-.533 1.5 1.5 0 0 1-.232-.846q0-.436.172-.708.172-.274.46-.43t.635-.231q.35-.08.704-.126.463-.059.751-.089.291-.033.423-.109.135-.076.136-.265v-.026q0-.49-.268-.761-.265-.271-.804-.271-.558 0-.876.245t-.446.522l-.741-.264a1.8 1.8 0 0 1 .529-.721q.334-.261.727-.364a3 3 0 0 1 .781-.106q.244 0 .562.06.321.056.618.235.301.178.5.539.198.36.198.965v3.347h-.78v-.688h-.04q-.08.165-.265.354a1.5 1.5 0 0 1-.492.32 1.9 1.9 0 0 1-.751.133m.119-.701q.463 0 .781-.182a1.24 1.24 0 0 0 .648-1.075v-.714q-.05.06-.219.109-.165.046-.383.083a19 19 0 0 1-.747.099 3 3 0 0 0-.569.129 1 1 0 0 0-.424.261q-.158.172-.158.47 0 .406.301.615.303.204.77.205m4.414-2.474v3.056h-.781v-5.08h.754v.794h.067a1.45 1.45 0 0 1 .542-.622q.363-.238.939-.238.516 0 .903.212.387.208.602.635.215.423.215 1.071v3.228h-.781v-3.175q0-.599-.311-.932-.31-.338-.853-.338-.374 0-.668.162a1.16 1.16 0 0 0-.459.473 1.56 1.56 0 0 0-.169.754m7.272 3.056v-.596l2.236-2.447q.393-.429.648-.747.255-.32.377-.602.126-.284.126-.595 0-.357-.172-.618a1.1 1.1 0 0 0-.463-.404 1.5 1.5 0 0 0-.662-.142q-.39 0-.681.162a1.1 1.1 0 0 0-.446.446 1.4 1.4 0 0 0-.156.675h-.78q0-.595.274-1.045t.748-.701a2.26 2.26 0 0 1 1.068-.251q.595 0 1.055.251.459.252.72.678.262.426.262.949 0 .374-.136.731a3.2 3.2 0 0 1-.463.79q-.327.434-.909 1.058l-1.521 1.627v.053h3.148v.728zm26.101-6.773h.82v4.841q0 .65-.238 1.102a1.6 1.6 0 0 1-.671.687q-.434.235-1.022.235-.555 0-.989-.201a1.63 1.63 0 0 1-.681-.582 1.6 1.6 0 0 1-.248-.897h.807q0 .288.142.503a1 1 0 0 0 .397.331q.25.119.572.119.353 0 .602-.149a.94.94 0 0 0 .377-.437q.132-.291.132-.711zm3.852 6.892q-.482 0-.876-.182a1.5 1.5 0 0 1-.625-.533q-.231-.35-.231-.846 0-.436.172-.708.171-.274.459-.43t.635-.231q.351-.08.705-.126.462-.059.75-.089.291-.033.423-.109.136-.076.136-.265v-.026q0-.49-.268-.761-.264-.271-.803-.271-.56 0-.877.245a1.45 1.45 0 0 0-.446.522l-.741-.264q.199-.463.529-.721a2 2 0 0 1 .728-.364q.396-.105.78-.106.245 0 .562.06.32.056.619.235.3.178.499.539.198.36.198.965v3.347h-.78v-.688h-.04q-.08.165-.264.354a1.5 1.5 0 0 1-.493.32 1.9 1.9 0 0 1-.751.133m.119-.701q.463 0 .781-.182a1.24 1.24 0 0 0 .648-1.075v-.714q-.05.06-.218.109-.165.046-.384.083-.214.032-.42.059l-.327.04a3 3 0 0 0-.569.129 1 1 0 0 0-.423.261q-.159.172-.159.47 0 .406.301.615.305.204.77.205m4.414-2.474v3.056h-.78v-5.08h.754v.794h.066q.179-.387.542-.622.365-.238.939-.238.516 0 .903.212.387.208.602.635.215.423.215 1.071v3.228h-.781v-3.175q0-.599-.31-.932-.312-.338-.854-.338-.373 0-.667.162a1.16 1.16 0 0 0-.46.473 1.56 1.56 0 0 0-.169.754m9.561 3.148q-.656 0-1.167-.225a2 2 0 0 1-.81-.625 1.7 1.7 0 0 1-.325-.935h.834a.98.98 0 0 0 .225.565q.198.235.519.364t.711.129q.437 0 .774-.152a1.3 1.3 0 0 0 .529-.424q.192-.27.191-.628 0-.373-.185-.658a1.2 1.2 0 0 0-.542-.45q-.357-.162-.873-.162h-.542v-.727h.542q.404 0 .708-.146.307-.145.479-.41.175-.264.175-.621 0-.344-.152-.599a1.03 1.03 0 0 0-.43-.397 1.4 1.4 0 0 0-.648-.142q-.35 0-.661.129a1.23 1.23 0 0 0-.503.367.96.96 0 0 0-.211.575h-.794q.02-.532.321-.932.3-.403.787-.628.489-.225 1.074-.225.629 0 1.078.254.45.252.692.665t.241.893q0 .571-.301.975a1.52 1.52 0 0 1-.81.559v.053q.642.106 1.002.546.36.436.36 1.081 0 .552-.301.992-.297.436-.813.688a2.65 2.65 0 0 1-1.174.251m24.711-6.865h.82v4.841q0 .65-.238 1.102a1.6 1.6 0 0 1-.671.687q-.434.235-1.022.235-.555 0-.989-.201a1.63 1.63 0 0 1-.681-.582 1.6 1.6 0 0 1-.248-.897h.807q0 .288.142.503a1 1 0 0 0 .397.331q.25.119.572.119.353 0 .602-.149a.94.94 0 0 0 .377-.437q.132-.291.132-.711zm3.852 6.892q-.482 0-.876-.182a1.5 1.5 0 0 1-.625-.533q-.231-.35-.231-.846 0-.436.172-.708.171-.274.459-.43t.635-.231q.351-.08.704-.126.463-.059.751-.089.291-.033.423-.109.136-.076.136-.265v-.026q0-.49-.268-.761-.264-.271-.803-.271-.56 0-.877.245a1.45 1.45 0 0 0-.446.522l-.741-.264q.199-.463.529-.721a2 2 0 0 1 .728-.364q.396-.105.78-.106.245 0 .562.06.32.056.619.235.3.178.499.539.198.36.198.965v3.347h-.78v-.688h-.04q-.08.165-.264.354a1.5 1.5 0 0 1-.493.32 1.9 1.9 0 0 1-.751.133m.119-.701q.463 0 .781-.182a1.24 1.24 0 0 0 .648-1.075v-.714q-.05.06-.218.109a4 4 0 0 1-.384.083q-.214.032-.42.059l-.327.04a3 3 0 0 0-.569.129 1 1 0 0 0-.423.261q-.159.172-.159.47 0 .406.301.615.305.204.77.205m4.414-2.474v3.056h-.78v-5.08h.754v.794h.066q.179-.387.542-.622.364-.238.939-.238.516 0 .903.212.387.208.602.635.215.423.215 1.071v3.228h-.781v-3.175q0-.599-.31-.932-.312-.338-.854-.338-.373 0-.668.162a1.16 1.16 0 0 0-.459.473 1.56 1.56 0 0 0-.169.754m7.114 1.667v-.675l2.976-4.709h.489v1.045h-.33l-2.249 3.558v.053h4.008v.728zm3.188 1.389v-6.773h.78v6.773zm24.147-6.773h.82v4.841q0 .65-.238 1.102a1.6 1.6 0 0 1-.671.687q-.433.235-1.022.235-.556 0-.988-.201a1.64 1.64 0 0 1-.682-.582 1.6 1.6 0 0 1-.248-.897h.807q0 .288.142.503.146.211.397.331.251.119.572.119.354 0 .602-.149a.94.94 0 0 0 .377-.437q.132-.291.132-.711zm3.853 6.892q-.483 0-.877-.182a1.5 1.5 0 0 1-.625-.533q-.231-.35-.231-.846 0-.436.172-.708.172-.274.46-.43a2.4 2.4 0 0 1 .635-.231 8 8 0 0 1 .704-.126q.463-.059.751-.089.291-.033.423-.109.135-.076.135-.265v-.026q0-.49-.267-.761-.266-.271-.804-.271-.56 0-.876.245a1.45 1.45 0 0 0-.447.522l-.74-.264a1.8 1.8 0 0 1 .529-.721q.333-.261.727-.364.397-.105.78-.106.245 0 .563.06.32.056.618.235.301.178.499.539.2.36.199.965v3.347h-.781v-.688h-.039q-.08.165-.265.354a1.5 1.5 0 0 1-.493.32 1.9 1.9 0 0 1-.75.133m.119-.701q.463 0 .78-.182a1.24 1.24 0 0 0 .648-1.075v-.714q-.049.06-.218.109-.165.046-.383.083a21 21 0 0 1-.748.099 3 3 0 0 0-.569.129 1 1 0 0 0-.423.261q-.159.172-.159.47 0 .406.301.615.304.204.771.205m4.414-2.474v3.056h-.781v-5.08h.754v.794h.066q.179-.387.543-.622.363-.238.939-.238.516 0 .902.212.387.208.602.635.215.423.215 1.071v3.228h-.78v-3.175q0-.599-.311-.932-.311-.338-.853-.338-.374 0-.668.162a1.17 1.17 0 0 0-.46.473 1.6 1.6 0 0 0-.168.754m9.388 3.148q-.582 0-1.048-.231a1.95 1.95 0 0 1-.747-.635 1.73 1.73 0 0 1-.308-.919h.794q.047.46.417.76.373.298.892.298.417 0 .741-.195.327-.195.513-.536.188-.344.188-.777 0-.444-.195-.79a1.44 1.44 0 0 0-.529-.553 1.5 1.5 0 0 0-.771-.205 2.1 2.1 0 0 0-.638.096 1.8 1.8 0 0 0-.539.248l-.767-.092.41-3.334h3.519v.728h-2.831l-.238 1.997h.04q.208-.165.522-.274t.655-.109a2.09 2.09 0 0 1 1.875 1.104 2.4 2.4 0 0 1 .281 1.171q0 .648-.291 1.157a2.13 2.13 0 0 1-.794.8 2.27 2.27 0 0 1-1.151.291m24.057-6.865h.82v4.841q0 .65-.238 1.102a1.6 1.6 0 0 1-.671.687q-.433.235-1.022.235-.555 0-.988-.201a1.64 1.64 0 0 1-.682-.582 1.6 1.6 0 0 1-.248-.897h.807q0 .288.142.503.146.211.397.331.251.119.572.119.354 0 .602-.149a.94.94 0 0 0 .377-.437q.132-.291.132-.711zm3.853 6.892q-.483 0-.876-.182a1.5 1.5 0 0 1-.625-.533q-.232-.35-.232-.846 0-.436.172-.708.172-.274.46-.43a2.4 2.4 0 0 1 .635-.231 8 8 0 0 1 .704-.126q.463-.059.751-.089.291-.033.423-.109.135-.076.135-.265v-.026q0-.49-.267-.761-.266-.271-.804-.271-.56 0-.876.245a1.45 1.45 0 0 0-.447.522l-.74-.264a1.8 1.8 0 0 1 .529-.721q.334-.261.727-.364a3 3 0 0 1 .781-.106q.244 0 .562.06.321.056.618.235.301.178.499.539.2.36.199.965v3.347h-.781v-.688h-.039q-.08.165-.265.354a1.5 1.5 0 0 1-.493.32 1.9 1.9 0 0 1-.75.133m.119-.701q.464 0 .78-.182a1.24 1.24 0 0 0 .648-1.075v-.714q-.049.06-.218.109-.165.046-.383.083a21 21 0 0 1-.748.099 3 3 0 0 0-.569.129 1 1 0 0 0-.423.261q-.159.172-.159.47 0 .406.301.615.304.204.771.205m4.414-2.474v3.056h-.781v-5.08h.754v.794h.066q.179-.387.543-.622.363-.238.939-.238.516 0 .903.212.386.208.601.635.216.423.215 1.071v3.228h-.78v-3.175q0-.599-.311-.932-.311-.338-.853-.338-.374 0-.668.162a1.17 1.17 0 0 0-.46.473 1.6 1.6 0 0 0-.168.754m9.521 3.148a2.5 2.5 0 0 1-.834-.158 2 2 0 0 1-.76-.513q-.344-.364-.552-.982-.209-.622-.209-1.561 0-.9.169-1.594.168-.697.489-1.174a2.2 2.2 0 0 1 .774-.727 2.1 2.1 0 0 1 1.029-.248q.569 0 1.011.228.447.225.728.628.281.404.364.929h-.807a1.5 1.5 0 0 0-.437-.757q-.324-.3-.859-.301-.787 0-1.241.685-.449.685-.453 1.921h.053a2 2 0 0 1 1.009-.79q.311-.11.658-.109.582 0 1.065.291.483.287.774.796.291.507.291 1.161 0 .629-.282 1.151-.28.52-.79.827-.506.304-1.19.297m0-.727q.416 0 .747-.209.334-.208.526-.558a1.6 1.6 0 0 0 .195-.781q0-.42-.189-.764a1.44 1.44 0 0 0-.512-.552 1.35 1.35 0 0 0-.741-.205q-.314 0-.585.126-.272.122-.476.337a1.6 1.6 0 0 0-.318.493 1.56 1.56 0 0 0 .595 1.898q.335.215.758.215m24.519-6.138h.82v4.841q0 .65-.238 1.102a1.6 1.6 0 0 1-.672.687q-.433.235-1.021.235-.556 0-.989-.201a1.63 1.63 0 0 1-.681-.582 1.6 1.6 0 0 1-.248-.897h.806q0 .288.143.503a1 1 0 0 0 .396.331q.252.119.573.119.353 0 .601-.149a.94.94 0 0 0 .377-.437 1.7 1.7 0 0 0 .133-.711zm3.852 6.892q-.483 0-.876-.182a1.5 1.5 0 0 1-.625-.533q-.232-.35-.232-.846 0-.436.172-.708.172-.274.46-.43t.635-.231a8 8 0 0 1 .704-.126q.463-.059.751-.089.291-.033.423-.109.136-.076.136-.265v-.026q0-.49-.268-.761-.265-.271-.804-.271-.558 0-.876.245a1.4 1.4 0 0 0-.446.522l-.741-.264a1.8 1.8 0 0 1 .529-.721q.334-.261.727-.364a3 3 0 0 1 .781-.106q.244 0 .562.06.321.056.618.235.301.178.5.539.198.36.198.965v3.347h-.78v-.688h-.04q-.08.165-.265.354a1.5 1.5 0 0 1-.492.32 1.9 1.9 0 0 1-.751.133m.119-.701q.464 0 .78-.182a1.24 1.24 0 0 0 .649-1.075v-.714q-.05.06-.219.109-.165.046-.383.083a20 20 0 0 1-.748.099 3 3 0 0 0-.568.129 1 1 0 0 0-.424.261q-.158.172-.158.47 0 .406.301.615.303.204.77.205m4.414-2.474v3.056h-.781v-5.08h.754v.794h.067a1.45 1.45 0 0 1 .542-.622q.363-.238.939-.238.516 0 .903.212.386.208.602.635.215.423.215 1.071v3.228h-.781v-3.175q0-.599-.311-.932-.31-.338-.853-.338-.374 0-.668.162a1.17 1.17 0 0 0-.46.473 1.6 1.6 0 0 0-.168.754m7.484 3.056 3.029-5.992v-.053h-3.492v-.728h4.339v.768l-3.016 6.005z"/><g filter="url(#a)"><rect width="51.863" height="21.253" x="383.207" y="67.278" fill="#fff" stroke="#00162a" stroke-width=".776" rx="4.268"/></g><path fill="#00162a" d="m391.235 81.412-1.878-6.772h1.075l1.319 5.244h.063l1.372-5.244h1.065l1.372 5.248h.063l1.316-5.248h1.078l-1.881 6.772h-1.029l-1.425-5.073h-.053l-1.425 5.073zm9.387.103q-.752 0-1.293-.321a2.2 2.2 0 0 1-.834-.91q-.291-.588-.291-1.378 0-.781.291-1.376.295-.596.821-.93.528-.333 1.236-.333.43 0 .834.142t.724.446.506.79q.185.484.185 1.175v.35h-4.038v-.74h3.069q0-.39-.159-.692a1.2 1.2 0 0 0-.446-.48 1.25 1.25 0 0 0-.668-.174q-.416 0-.728.204a1.4 1.4 0 0 0-.476.53 1.5 1.5 0 0 0-.165.704v.579q0 .51.178.866.183.357.506.546.324.185.758.185.28 0 .512-.08.231-.082.4-.244a1.05 1.05 0 0 0 .258-.4l.936.168a1.7 1.7 0 0 1-.403.725 2 2 0 0 1-.725.479 2.7 2.7 0 0 1-.988.169m5.465 0q-.75 0-1.293-.321a2.2 2.2 0 0 1-.833-.91q-.291-.588-.291-1.378 0-.781.291-1.376.294-.596.82-.93.53-.333 1.237-.333.43 0 .833.142t.724.446.506.79q.185.484.185 1.175v.35h-4.037v-.74h3.068q0-.39-.158-.692a1.2 1.2 0 0 0-.447-.48 1.25 1.25 0 0 0-.668-.174q-.417 0-.727.204-.308.202-.477.53a1.5 1.5 0 0 0-.165.704v.579q0 .51.179.866.182.357.506.546.324.185.757.185.28 0 .512-.08a1.1 1.1 0 0 0 .401-.244q.168-.163.258-.4l.935.168a1.7 1.7 0 0 1-.403.725 2 2 0 0 1-.724.479 2.7 2.7 0 0 1-.989.169m4.186-1.826-.007-1.207h.172l2.024-2.15h1.184l-2.309 2.448h-.155zm-.91 1.723V74.64h.989v6.772zm3.208 0-1.819-2.414.681-.691 2.351 3.105z"/><path fill="#00162a" fill-rule="evenodd" d="M421.124 75.987a.52.52 0 0 1 .732 0l2.738 2.738 2.738-2.738a.518.518 0 0 1 .732.731l-3.104 3.104a.52.52 0 0 1-.732 0l-3.104-3.104a.517.517 0 0 1 0-.731" clip-rule="evenodd"/><g filter="url(#b)"><rect width="39.7" height="21.253" x="442.054" y="67.278" fill="#00162a" stroke="#00162a" stroke-width=".776" rx="4.268"/></g><path fill="#fff" d="M447.904 81.412v-6.773h4.246v.88h-3.224v2.064h3.002v.876h-3.002v2.073h3.264v.88zm6.312-5.08 1.121 1.978 1.131-1.977h1.081l-1.584 2.54 1.597 2.539h-1.081l-1.144-1.898-1.141 1.898h-1.085l1.581-2.54-1.561-2.54zm4.348 6.985v-6.984h.966v.823h.082q.086-.159.249-.367.162-.208.449-.364.288-.159.761-.159.615 0 1.098.311t.757.897q.278.585.278 1.408 0 .825-.275 1.412-.274.585-.754.903-.479.314-1.094.314-.463 0-.758-.155a1.4 1.4 0 0 1-.456-.364 3 3 0 0 1-.255-.37h-.059v2.695zm.969-4.445q0 .535.156.94.155.403.449.631.295.225.721.225.443 0 .741-.235.297-.238.45-.645.155-.405.155-.916 0-.502-.152-.903a1.4 1.4 0 0 0-.45-.631q-.297-.231-.744-.232-.43 0-.727.222a1.36 1.36 0 0 0-.447.618 2.6 2.6 0 0 0-.152.926m6.918 2.642q-.714 0-1.247-.327a2.2 2.2 0 0 1-.826-.916q-.295-.587-.295-1.376 0-.79.295-1.382a2.2 2.2 0 0 1 .826-.92q.533-.326 1.247-.327.714 0 1.247.328a2.2 2.2 0 0 1 .826.92q.295.591.295 1.381 0 .788-.295 1.376a2.2 2.2 0 0 1-.826.916q-.533.327-1.247.327m.003-.83q.464 0 .767-.244.304-.244.45-.652.149-.406.149-.896 0-.486-.149-.893a1.45 1.45 0 0 0-.45-.658q-.303-.248-.767-.248-.466 0-.774.248a1.5 1.5 0 0 0-.453.658 2.6 2.6 0 0 0-.145.893q0 .49.145.896.15.407.453.652.308.244.774.244m3.468.728v-5.08h.956v.808h.053q.139-.411.489-.645a1.4 1.4 0 0 1 .8-.238 4 4 0 0 1 .42.023v.945a2 2 0 0 0-.211-.036 2 2 0 0 0-.304-.023q-.35 0-.625.149a1.1 1.1 0 0 0-.589.995v3.102zm6.245-5.08v.794h-2.774v-.793zm-2.03-1.216h.989v4.805q0 .287.085.433.087.142.222.195a.9.9 0 0 0 .301.05q.119 0 .208-.017l.139-.027.179.817a2 2 0 0 1-.642.106 1.7 1.7 0 0 1-.727-.139 1.25 1.25 0 0 1-.546-.45q-.208-.303-.208-.763z"/><path stroke="#00162a" stroke-linecap="round" stroke-linejoin="round" stroke-width="1.552" d="m483.566 160.042-5.442-9.09-7.775 12.297-4.665-3.207-6.998 4.811-6.22-6.415-9.329 3.742-11.663-14.435-7.775 15.504h-13.217l-4.665 7.486H395.71l-7.775 9.623-3.11-4.812-10.107 12.832h-23.325l-5.442 7.485-5.443-5.346-8.552 16.574-15.55 9.089-13.994-20.317-23.325 20.317-6.22 9.089-12.44-9.089-24.879-20.317-9.33 24.594-13.217 1.604-5.443 3.208-3.11-3.208"/><circle cx="384.242" cy="176.179" r="2.813" fill="#00162a"/><rect width="219.41" height="198.267" x="374.388" y="197.61" fill="#fff" stroke="#00162a" stroke-width=".776" rx="5.82"/><path fill="#00162a" d="M390.272 222.893h-2.677v-7.901h2.731q1.178 0 2.022.474.849.47 1.304 1.354t.455 2.114q0 1.235-.459 2.122a3.17 3.17 0 0 1-1.315 1.362q-.857.474-2.061.475m-1.246-1.239h1.177q.825 0 1.377-.301.552-.304.83-.906.277-.606.277-1.513t-.277-1.504a1.9 1.9 0 0 0-.822-.899q-.54-.301-1.343-.301h-1.219zm9.003 1.354q-.89 0-1.54-.37a2.5 2.5 0 0 1-.991-1.057q-.348-.687-.347-1.617 0-.914.347-1.604.351-.695.98-1.081.629-.389 1.477-.389.548 0 1.034.177.49.174.865.54.378.367.594.934.216.563.216 1.342v.429h-4.857v-.942h3.518a1.5 1.5 0 0 0-.174-.713 1.26 1.26 0 0 0-.474-.498 1.33 1.33 0 0 0-.702-.181 1.36 1.36 0 0 0-.753.208 1.43 1.43 0 0 0-.505.54 1.55 1.55 0 0 0-.181.729v.822q0 .517.189.887.189.367.528.563.34.193.795.193.304 0 .552-.084.246-.09.428-.259.181-.17.274-.42l1.304.146a2 2 0 0 1-.471.903 2.3 2.3 0 0 1-.879.594 3.4 3.4 0 0 1-1.227.208m8.94-6.041-2.111 5.926h-1.543l-2.11-5.926h1.489l1.362 4.402h.062l1.365-4.402zm.966 5.926v-5.926h1.397v5.926zm.702-6.767a.82.82 0 0 1-.571-.22.7.7 0 0 1-.239-.536q0-.316.239-.537a.8.8 0 0 1 .571-.223q.336 0 .571.223.24.22.239.537a.7.7 0 0 1-.239.536.8.8 0 0 1-.571.22m4.715 6.882q-.887 0-1.523-.389a2.6 2.6 0 0 1-.976-1.077q-.34-.69-.34-1.589 0-.903.347-1.593.347-.695.98-1.081.637-.389 1.505-.389.721 0 1.277.266.56.263.891.744.332.478.378 1.119h-1.335a1.28 1.28 0 0 0-.386-.714q-.3-.289-.806-.289-.428 0-.752.232a1.5 1.5 0 0 0-.506.655q-.177.429-.177 1.027 0 .605.177 1.041.179.432.498.668.324.231.76.231.309 0 .552-.116.246-.119.413-.343.165-.223.227-.544h1.335a2.3 2.3 0 0 1-.37 1.115 2.2 2.2 0 0 1-.872.756q-.552.27-1.297.27m6.309 0q-.891 0-1.539-.37-.645-.375-.992-1.057-.347-.687-.347-1.617 0-.914.347-1.604.351-.695.98-1.081.629-.389 1.478-.389a3 3 0 0 1 1.034.177q.489.174.864.54.378.367.594.934.216.563.216 1.342v.429h-4.857v-.942h3.518a1.5 1.5 0 0 0-.173-.713 1.26 1.26 0 0 0-.475-.498 1.33 1.33 0 0 0-.702-.181 1.36 1.36 0 0 0-.752.208 1.43 1.43 0 0 0-.506.54 1.56 1.56 0 0 0-.181.729v.822q0 .517.189.887.189.367.529.563.34.193.794.193.306 0 .552-.084.247-.09.428-.259.182-.17.274-.42l1.304.146a2.03 2.03 0 0 1-.47.903 2.3 2.3 0 0 1-.88.594 3.4 3.4 0 0 1-1.227.208m8.5-4.475-1.273.139a1 1 0 0 0-.189-.363.94.94 0 0 0-.355-.274 1.3 1.3 0 0 0-.548-.104q-.435 0-.733.189-.293.19-.289.49a.51.51 0 0 0 .189.421q.196.162.648.266l1.011.216q.841.182 1.25.575.413.393.416 1.03a1.6 1.6 0 0 1-.327.988 2.1 2.1 0 0 1-.892.663q-.57.24-1.311.239-1.088 0-1.752-.455a1.83 1.83 0 0 1-.791-1.277l1.362-.131a.96.96 0 0 0 .394.606q.3.204.783.204.498 0 .798-.204.306-.205.305-.506 0-.255-.197-.42-.193-.166-.601-.255l-1.011-.212q-.853-.178-1.262-.598-.408-.424-.405-1.073a1.53 1.53 0 0 1 .297-.949q.305-.405.845-.625a3.3 3.3 0 0 1 1.254-.223q1.041 0 1.64.443.601.444.744 1.2"/><g filter="url(#c)"><path stroke="#00162a" stroke-width=".776" d="M594.186 239.818H374" opacity=".7"/></g><path fill="#9ca3af" d="M561.998 380.254v-.44l1.362-1.412q.218-.23.359-.403.144-.174.215-.332a.8.8 0 0 0 .07-.334.6.6 0 0 0-.094-.346.63.63 0 0 0-.257-.226.8.8 0 0 0-.368-.08.8.8 0 0 0-.377.088.6.6 0 0 0-.248.25.8.8 0 0 0-.086.377h-.58q0-.367.169-.643.168-.274.464-.426.294-.153.67-.154.38 0 .668.152.29.149.454.409.163.257.163.581 0 .225-.084.439a2 2 0 0 1-.289.477 8 8 0 0 1-.574.635l-.8.838v.029h1.812v.521zm4.167-.55-.03.214a3.5 3.5 0 0 1-.1.491 10 10 0 0 1-.264.828h-.416q.025-.123.071-.331.045-.206.088-.461.043-.256.065-.521l.02-.22zm2.086.605a1.5 1.5 0 0 1-.665-.142 1.2 1.2 0 0 1-.468-.393 1.04 1.04 0 0 1-.186-.57h.589a.6.6 0 0 0 .23.427.78.78 0 0 0 .5.167.76.76 0 0 0 .693-.403.9.9 0 0 0 .105-.43.9.9 0 0 0-.107-.439.8.8 0 0 0-.292-.302.83.83 0 0 0-.425-.113q-.183 0-.368.063a.9.9 0 0 0-.298.165l-.557-.082.226-2.028h2.214v.52h-1.708l-.128 1.127h.023a.9.9 0 0 1 .313-.191 1.2 1.2 0 0 1 .421-.077 1.24 1.24 0 0 1 1.108.653q.167.3.165.692a1.33 1.33 0 0 1-.177.697 1.3 1.3 0 0 1-.491.484 1.44 1.44 0 0 1-.717.175m3.505.012a1.3 1.3 0 0 1-.797-.246q-.33-.243-.505-.71-.174-.465-.175-1.122 0-.654.175-1.118.177-.464.507-.708.333-.244.795-.244.46 0 .792.246.33.245.505.708.177.462.177 1.116 0 .659-.175 1.124-.175.464-.505.71a1.3 1.3 0 0 1-.794.244m0-.525q.408 0 .638-.399.232-.4.232-1.154 0-.5-.106-.847-.104-.348-.301-.527a.66.66 0 0 0-.463-.181q-.408 0-.639.401t-.234 1.154q0 .504.104.851.106.346.301.525a.67.67 0 0 0 .468.177m3.572.525a1.3 1.3 0 0 1-.796-.246q-.33-.243-.505-.71-.174-.465-.175-1.122 0-.654.175-1.118.177-.464.507-.708a1.3 1.3 0 0 1 .794-.244q.462 0 .792.246.331.245.506.708.177.462.176 1.116 0 .659-.174 1.124-.175.464-.506.71-.33.244-.794.244m0-.525q.41 0 .639-.399.232-.4.232-1.154 0-.5-.106-.847-.105-.348-.301-.527a.66.66 0 0 0-.464-.181q-.407 0-.638.401t-.234 1.154q0 .504.104.851.106.346.301.525a.67.67 0 0 0 .467.177m-49.086.458v-.44l1.362-1.412a7 7 0 0 0 .36-.403q.144-.174.214-.332a.8.8 0 0 0 .071-.334.6.6 0 0 0-.094-.346.6.6 0 0 0-.258-.226.8.8 0 0 0-.367-.08.8.8 0 0 0-.378.088.6.6 0 0 0-.247.25.8.8 0 0 0-.087.377h-.58q0-.367.169-.643.17-.274.464-.426.295-.153.67-.154.38 0 .669.152.29.149.454.409.162.257.163.581 0 .225-.085.439a1.9 1.9 0 0 1-.289.477 8 8 0 0 1-.574.635l-.799.838v.029h1.812v.521zm4.167-.55-.029.214q-.03.236-.101.491a7 7 0 0 1-.143.478q-.074.22-.12.35h-.417l.071-.331q.045-.206.089-.461.043-.256.064-.521l.02-.22zm2.078.617a1.3 1.3 0 0 1-.796-.246q-.331-.243-.506-.71-.174-.465-.174-1.122 0-.654.174-1.118.177-.464.508-.708.332-.244.794-.244t.792.246.505.708q.177.462.177 1.116 0 .659-.175 1.124-.175.464-.505.71-.33.244-.794.244m0-.525q.408 0 .638-.399.232-.4.232-1.154 0-.5-.106-.847-.103-.348-.3-.527a.66.66 0 0 0-.464-.181q-.408 0-.639.401t-.234 1.154q0 .504.104.851.106.346.301.525.195.177.468.177m3.572.525a1.3 1.3 0 0 1-.796-.246q-.33-.243-.505-.71-.174-.465-.175-1.122 0-.654.175-1.118.177-.464.507-.708.333-.244.794-.244.462 0 .793.246.33.245.505.708.177.462.177 1.116 0 .659-.175 1.124-.175.464-.505.71a1.3 1.3 0 0 1-.795.244m0-.525q.41 0 .639-.399.232-.4.232-1.154 0-.5-.106-.847-.104-.348-.301-.527a.66.66 0 0 0-.464-.181q-.407 0-.638.401t-.234 1.154q0 .504.104.851.106.346.301.525a.67.67 0 0 0 .467.177m3.573.525a1.3 1.3 0 0 1-.796-.246q-.33-.243-.505-.71-.174-.465-.175-1.122 0-.654.175-1.118.177-.464.507-.708a1.3 1.3 0 0 1 .794-.244q.462 0 .792.246.331.245.506.708.176.462.176 1.116 0 .659-.174 1.124-.175.464-.506.71-.33.244-.794.244m0-.525q.41 0 .639-.399.232-.4.232-1.154 0-.5-.106-.847-.105-.348-.301-.527a.66.66 0 0 0-.464-.181q-.407 0-.638.401t-.234 1.154q0 .504.104.851.106.346.301.525a.67.67 0 0 0 .467.177m-45.706-3.567v4.025h-.61v-3.416h-.023l-.963.629v-.582l1.004-.656zm1.628 3.475-.029.214a3.5 3.5 0 0 1-.1.491 10 10 0 0 1-.264.828h-.416l.07-.331q.046-.206.089-.461.043-.256.065-.521l.019-.22zm2.086.605q-.369 0-.664-.142a1.2 1.2 0 0 1-.468-.393 1.03 1.03 0 0 1-.186-.57h.589a.6.6 0 0 0 .23.427.78.78 0 0 0 .499.167.76.76 0 0 0 .694-.403.9.9 0 0 0 .104-.43.9.9 0 0 0-.106-.439.77.77 0 0 0-.293-.302.83.83 0 0 0-.424-.113q-.183 0-.368.063a.9.9 0 0 0-.298.165l-.557-.082.226-2.028h2.214v.52h-1.709l-.127 1.127h.023a.9.9 0 0 1 .313-.191q.197-.077.42-.077a1.24 1.24 0 0 1 1.109.653q.166.3.165.692.001.39-.177.697a1.3 1.3 0 0 1-.491.484 1.44 1.44 0 0 1-.718.175m3.505.012a1.3 1.3 0 0 1-.796-.246q-.33-.243-.505-.71-.175-.465-.175-1.122 0-.654.175-1.118.177-.464.507-.708a1.3 1.3 0 0 1 .794-.244q.462 0 .793.246.33.245.505.708.177.462.177 1.116 0 .659-.175 1.124-.175.464-.506.71-.33.244-.794.244m0-.525q.41 0 .639-.399.232-.4.232-1.154 0-.5-.106-.847-.104-.348-.301-.527a.66.66 0 0 0-.464-.181q-.407 0-.638.401-.233.401-.234 1.154 0 .504.104.851.106.346.301.525a.67.67 0 0 0 .467.177m3.573.525a1.3 1.3 0 0 1-.796-.246q-.33-.243-.505-.71-.175-.465-.175-1.122 0-.654.175-1.118.177-.464.507-.708a1.3 1.3 0 0 1 .794-.244q.462 0 .792.246.33.245.505.708.177.462.177 1.116 0 .659-.175 1.124-.175.464-.505.71-.33.244-.794.244m0-.525q.41 0 .639-.399.232-.4.232-1.154 0-.5-.106-.847-.105-.348-.301-.527a.66.66 0 0 0-.464-.181q-.406 0-.639.401-.231.401-.233 1.154 0 .504.104.851.106.346.3.525.195.177.468.177m-44.766-3.567v4.025h-.609v-3.416h-.024l-.963.629v-.582l1.005-.656zm1.629 3.475-.029.214q-.03.236-.101.491a10 10 0 0 1-.263.828h-.417l.071-.331q.045-.206.089-.461.042-.256.064-.521l.02-.22zm2.078.617a1.3 1.3 0 0 1-.796-.246q-.33-.243-.505-.71-.175-.465-.175-1.122 0-.654.175-1.118.177-.464.507-.708.332-.244.794-.244t.792.246.505.708q.177.462.177 1.116 0 .659-.175 1.124-.175.464-.505.71-.33.244-.794.244m0-.525q.408 0 .639-.399.232-.4.232-1.154 0-.5-.107-.847-.103-.348-.3-.527a.66.66 0 0 0-.464-.181q-.406 0-.639.401t-.234 1.154q0 .504.104.851.106.346.301.525.195.177.468.177m3.573.525a1.3 1.3 0 0 1-.796-.246q-.331-.243-.506-.71-.175-.465-.175-1.122 0-.654.175-1.118.177-.464.508-.708.332-.244.794-.244t.792.246.505.708q.177.462.177 1.116 0 .659-.175 1.124-.175.464-.505.71-.33.244-.794.244m0-.525q.408 0 .638-.399.232-.4.232-1.154 0-.5-.106-.847-.104-.348-.301-.527a.66.66 0 0 0-.463-.181q-.408 0-.639.401-.233.401-.234 1.154 0 .504.104.851.106.346.301.525a.67.67 0 0 0 .468.177m3.572.525a1.3 1.3 0 0 1-.796-.246q-.33-.243-.505-.71-.174-.465-.175-1.122 0-.654.175-1.118.177-.464.507-.708a1.3 1.3 0 0 1 .794-.244q.462 0 .793.246.33.245.505.708.177.462.177 1.116 0 .659-.175 1.124-.175.464-.506.71-.33.244-.794.244m0-.525q.41 0 .639-.399.232-.4.232-1.154 0-.5-.106-.847-.104-.348-.301-.527a.66.66 0 0 0-.464-.181q-.407 0-.638.401t-.234 1.154q0 .504.104.851.106.346.301.525a.67.67 0 0 0 .467.177m-63.937.525a1.3 1.3 0 0 1-.796-.246q-.33-.243-.505-.71-.175-.465-.175-1.122 0-.654.175-1.118.177-.464.507-.708.333-.244.794-.244.462 0 .793.246.33.245.505.708.177.462.177 1.116 0 .659-.175 1.124-.175.464-.505.71a1.3 1.3 0 0 1-.795.244m0-.525q.41 0 .639-.399.232-.4.232-1.154 0-.5-.106-.847-.104-.348-.301-.527a.66.66 0 0 0-.464-.181q-.407 0-.638.401-.233.401-.234 1.154 0 .504.104.851.106.346.301.525a.67.67 0 0 0 .467.177m23.244.513q-.37 0-.664-.142a1.2 1.2 0 0 1-.468-.393 1.03 1.03 0 0 1-.187-.57h.59a.6.6 0 0 0 .23.427.78.78 0 0 0 .499.167.8.8 0 0 0 .411-.106.76.76 0 0 0 .283-.297.9.9 0 0 0 .104-.43.9.9 0 0 0-.106-.439.8.8 0 0 0-.293-.302.83.83 0 0 0-.425-.113q-.183 0-.367.063a.9.9 0 0 0-.299.165l-.556-.082.226-2.028h2.213v.52h-1.708l-.128 1.127h.024a.9.9 0 0 1 .312-.191q.197-.077.421-.077a1.24 1.24 0 0 1 1.108.653q.168.3.166.692.001.39-.177.697a1.3 1.3 0 0 1-.492.484 1.44 1.44 0 0 1-.717.175m3.505.012a1.3 1.3 0 0 1-.796-.246q-.33-.243-.505-.71-.175-.465-.175-1.122 0-.654.175-1.118.177-.464.507-.708.332-.244.794-.244t.792.246.505.708q.177.462.177 1.116 0 .659-.175 1.124-.175.464-.505.71-.33.244-.794.244m0-.525q.408 0 .639-.399.231-.4.232-1.154 0-.5-.107-.847-.103-.348-.3-.527a.66.66 0 0 0-.464-.181q-.407 0-.639.401t-.234 1.154q0 .504.104.851.106.346.301.525.195.177.468.177m3.573.525a1.3 1.3 0 0 1-.796-.246q-.33-.243-.505-.71-.175-.465-.175-1.122 0-.654.175-1.118t.507-.708.794-.244.792.246.505.708q.177.462.177 1.116 0 .659-.175 1.124-.175.464-.505.71-.33.244-.794.244m0-.525q.408 0 .638-.399.232-.4.232-1.154 0-.5-.106-.847-.104-.348-.3-.527a.66.66 0 0 0-.464-.181q-.407 0-.639.401t-.234 1.154q0 .504.104.851.106.346.301.525.195.177.468.177"/><path fill="#00162a" d="M484.906 223.06h-1.24v-3.659h1.265q.545 0 .936.219.394.219.604.628.211.409.211.979 0 .572-.213.983-.21.411-.609.63-.396.22-.954.22m-.577-.574h.545q.382 0 .638-.139a.9.9 0 0 0 .384-.42q.129-.28.128-.7 0-.42-.128-.697a.87.87 0 0 0-.381-.416 1.26 1.26 0 0 0-.622-.14h-.564zm3.486.574v-3.659h2.38v.555h-1.717v.994h1.594v.556h-1.594v.998h1.731v.556zm5.548-2.653a.49.49 0 0 0-.21-.365.8.8 0 0 0-.479-.13.9.9 0 0 0-.356.062.53.53 0 0 0-.227.17.41.41 0 0 0-.028.443.5.5 0 0 0 .144.143q.091.057.202.097.111.039.224.066l.343.085q.207.049.398.131.194.083.345.207a.9.9 0 0 1 .243.302q.09.177.089.415a1 1 0 0 1-.164.566q-.165.243-.475.381-.31.135-.749.135a1.9 1.9 0 0 1-.742-.132 1.1 1.1 0 0 1-.489-.386 1.15 1.15 0 0 1-.19-.618h.653a.54.54 0 0 0 .118.318.6.6 0 0 0 .269.189q.168.063.376.063.216 0 .378-.064a.6.6 0 0 0 .258-.183.44.44 0 0 0 .094-.275.35.35 0 0 0-.084-.236.6.6 0 0 0-.23-.157 2 2 0 0 0-.343-.114l-.416-.107q-.453-.117-.715-.352a.81.81 0 0 1-.261-.631q0-.324.175-.567a1.16 1.16 0 0 1 .481-.377q.303-.135.688-.135.389 0 .682.135.295.134.463.374.168.237.173.547zm1.782 2.653v-3.659h.663v1.681h.045l1.428-1.681h.809l-1.415 1.642 1.428 2.017h-.797l-1.092-1.569-.406.479v1.09zm3.748-3.104v-.555h2.92v.555h-1.131v3.104h-.658v-3.104zm7.094 1.274q0 .592-.222 1.013-.22.42-.6.644a1.66 1.66 0 0 1-.86.223 1.67 1.67 0 0 1-.861-.223 1.6 1.6 0 0 1-.6-.645q-.22-.422-.22-1.012t.22-1.011.6-.645a1.67 1.67 0 0 1 .861-.223q.481 0 .86.223.38.224.6.645.222.42.222 1.011m-.667 0a1.7 1.7 0 0 0-.13-.702.97.97 0 0 0-.358-.434.94.94 0 0 0-.527-.148.95.95 0 0 0-.527.148 1 1 0 0 0-.359.434 1.7 1.7 0 0 0-.129.702q0 .417.129.704a1 1 0 0 0 .359.435.96.96 0 0 0 .527.146.96.96 0 0 0 .527-.146 1 1 0 0 0 .358-.435q.13-.287.13-.704m1.796 1.83v-3.659h1.373q.422 0 .707.157.288.157.435.432.148.274.148.622 0 .352-.148.625a1.06 1.06 0 0 1-.438.431 1.5 1.5 0 0 1-.713.156h-.91v-.545h.821a.84.84 0 0 0 .403-.086.54.54 0 0 0 .233-.236.75.75 0 0 0 .076-.345.74.74 0 0 0-.076-.343.5.5 0 0 0-.234-.23.86.86 0 0 0-.406-.084h-.608v3.105z"/><circle cx="479.607" cy="221.079" r="1.182" fill="#00162a"/><path fill="#00162a" d="M524.602 219.401h.811l1.087 2.651h.043l1.086-2.651h.811v3.659h-.636v-2.514h-.034l-1.011 2.503h-.475l-1.012-2.508h-.034v2.519h-.636zm8.333 1.829q0 .592-.221 1.013-.22.42-.601.644a1.66 1.66 0 0 1-.859.223q-.481 0-.861-.223a1.6 1.6 0 0 1-.601-.645q-.22-.422-.22-1.012t.22-1.011q.222-.421.601-.645.38-.223.861-.223.48 0 .859.223.38.224.601.645.22.42.221 1.011m-.666 0q0-.416-.131-.702a.96.96 0 0 0-.357-.434.95.95 0 0 0-.527-.148.94.94 0 0 0-.527.148.97.97 0 0 0-.359.434 1.7 1.7 0 0 0-.129.702q0 .417.129.704a1 1 0 0 0 .359.435.96.96 0 0 0 .527.146.96.96 0 0 0 .527-.146 1 1 0 0 0 .357-.435q.13-.287.131-.704m1.796 1.83v-3.659h1.401q.396 0 .659.125a.9.9 0 0 1 .395.337.9.9 0 0 1 .132.486.8.8 0 0 1-.085.383.7.7 0 0 1-.231.255 1 1 0 0 1-.323.141v.036q.195.01.373.12a.8.8 0 0 1 .295.304.93.93 0 0 1 .114.475q0 .284-.137.511a.94.94 0 0 1-.415.356q-.277.13-.697.13zm.663-.554h.713q.361 0 .52-.137a.45.45 0 0 0 .161-.358.55.55 0 0 0-.309-.5.76.76 0 0 0-.354-.077h-.731zm0-1.549h.656a.7.7 0 0 0 .309-.063.48.48 0 0 0 .297-.459.45.45 0 0 0-.151-.35q-.148-.138-.441-.138h-.67zm3.81-1.556v3.659h-.663v-3.659zm1.221 3.659v-3.659h.663v3.103h1.612v.556zm3.353 0v-3.659h2.381v.555h-1.718v.994h1.594v.556h-1.594v.998h1.732v.556z"/><circle cx="520.544" cy="221.079" r="1.182" fill="#9ca3af"/><path fill="#00162a" d="M560.378 219.956v-.555h2.92v.555h-1.131v3.104h-.658v-3.104zm4.014 3.104h-.708l1.288-3.659h.819l1.29 3.659h-.708l-.977-2.909h-.029zm.023-1.435h1.93v.533h-1.93zm3.651 1.435v-3.659h1.401q.396 0 .659.125a.9.9 0 0 1 .395.337.9.9 0 0 1 .132.486.8.8 0 0 1-.086.383.7.7 0 0 1-.23.255 1 1 0 0 1-.323.141v.036a.8.8 0 0 1 .373.12q.18.107.295.304a.93.93 0 0 1 .114.475q0 .284-.137.511a.94.94 0 0 1-.415.356q-.277.13-.697.13zm.663-.554h.713q.36 0 .52-.137a.45.45 0 0 0 .161-.358.55.55 0 0 0-.31-.5.76.76 0 0 0-.353-.077h-.731zm0-1.549h.656a.7.7 0 0 0 .309-.063.49.49 0 0 0 .296-.459.45.45 0 0 0-.15-.35q-.149-.138-.441-.138h-.67zm3.147 2.103v-3.659h.663v3.103h1.612v.556zm3.353 0v-3.659h2.38v.555h-1.717v.994h1.594v.556h-1.594v.998h1.732v.556zm3.399-3.104v-.555h2.92v.555h-1.131v3.104h-.658v-3.104z"/><circle cx="556.48" cy="221.079" r="1.182" fill="#9ca3af"/><path stroke="#00162a" stroke-dasharray="2.52 2.52" stroke-width=".503" d="M405.752 263.324H575.76M405.752 286.47H575.76"/><path stroke="#f2f4f8" stroke-dasharray="2.52 2.52" stroke-width=".503" d="M405.752 309.616H575.76"/><path stroke="#00162a" stroke-dasharray="2.52 2.52" stroke-width=".503" d="M405.752 332.762H575.76m-169.791 23.145h170.664"/><rect width="145.902" height="2.345" x="405.079" y="350.387" fill="#00162a" rx="1.172"/><rect width="112.369" height="2.345" x="405.079" y="359.345" fill="#e5e7eb" rx="1.172"/><rect width="49.511" height="2.345" x="405.079" y="354.986" fill="#9ca3af" rx="1.172"/><rect width="123.737" height="2.345" x="405.079" y="326.52" fill="#00162a" rx="1.172"/><rect width="35.871" height="2.345" x="405.079" y="335.478" fill="#e5e7eb" rx="1.172"/><rect width="64.546" height="2.345" x="405.079" y="331.119" fill="#9ca3af" rx="1.172"/><rect width="62.46" height="2.345" x="405.079" y="302.654" fill="#00162a" rx="1.172"/><rect width="33.117" height="2.345" x="405.079" y="311.612" fill="#e5e7eb" rx="1.172"/><rect width="26.555" height="2.345" x="405.079" y="307.253" fill="#9ca3af" rx="1.172"/><rect width="57.12" height="2.345" x="405.079" y="280.455" fill="#00162a" rx="1.172"/><rect width="35.957" height="2.345" x="405.079" y="289.412" fill="#e5e7eb" rx="1.172"/><rect width="82.853" height="2.345" x="405.079" y="285.053" fill="#9ca3af" rx="1.172"/><rect width="158.512" height="2.345" x="405.079" y="257.697" fill="#00162a" rx="1.172"/><rect width="62.318" height="2.345" x="405.079" y="266.655" fill="#e5e7eb" rx="1.172"/><rect width="123.737" height="2.345" x="405.079" y="262.296" fill="#9ca3af" rx="1.172"/><path fill="#9ca3af" d="M391.322 260.457h.605v2.853q0 .388-.153.663a1 1 0 0 1-.426.42 1.4 1.4 0 0 1-.645.144q-.34 0-.611-.124a1 1 0 0 1-.427-.36 1.04 1.04 0 0 1-.155-.577h.603q0 .166.077.289a.54.54 0 0 0 .214.19.7.7 0 0 0 .315.067.6.6 0 0 0 .326-.081.52.52 0 0 0 .206-.241 1 1 0 0 0 .071-.39zm2.321 4.092q-.286 0-.519-.106a.9.9 0 0 1-.368-.313.9.9 0 0 1-.133-.501.8.8 0 0 1 .098-.421.73.73 0 0 1 .265-.261q.168-.096.374-.146a4 4 0 0 1 .42-.074l.441-.051a.7.7 0 0 0 .245-.069q.077-.048.077-.153v-.014q0-.258-.145-.399-.144-.142-.429-.142-.297 0-.468.132a.7.7 0 0 0-.234.289l-.552-.126a1.1 1.1 0 0 1 .287-.444q.19-.171.438-.248a1.7 1.7 0 0 1 .905-.035q.204.04.381.153a.85.85 0 0 1 .293.321q.114.206.114.536v2.005h-.574v-.413h-.024a.88.88 0 0 1-.464.407 1.1 1.1 0 0 1-.428.073m.128-.472a.84.84 0 0 0 .416-.096.66.66 0 0 0 .358-.588v-.389a.3.3 0 0 1-.122.059 2 2 0 0 1-.202.045l-.222.033-.181.024a1.5 1.5 0 0 0-.313.073.54.54 0 0 0-.224.147.37.37 0 0 0-.082.252q0 .218.161.33.16.11.411.11m2.732-1.388v1.793h-.588v-3.019h.565v.491h.037a.86.86 0 0 1 .326-.385q.225-.145.564-.145.309 0 .541.129a.9.9 0 0 1 .36.382q.127.253.127.627v1.92h-.587v-1.85q0-.327-.171-.513a.6.6 0 0 0-.47-.186.74.74 0 0 0-.364.088.63.63 0 0 0-.249.26.85.85 0 0 0-.091.408m-7.47 24.939v-4.025h2.496v.523h-1.889v1.226h1.71v.521h-1.71v1.755zm4.275.061q-.446 0-.768-.191a1.3 1.3 0 0 1-.496-.54 1.8 1.8 0 0 1-.173-.82q0-.463.173-.817.175-.354.488-.553a1.35 1.35 0 0 1 .735-.198q.255 0 .495.084.24.085.431.266.19.18.3.469.11.288.11.698v.209h-2.399v-.441h1.824a.9.9 0 0 0-.095-.411.7.7 0 0 0-.265-.285.75.75 0 0 0-.397-.104.77.77 0 0 0-.433.122.8.8 0 0 0-.283.315.9.9 0 0 0-.098.418v.344q0 .303.106.515.109.213.301.325.192.11.45.11a1 1 0 0 0 .305-.048.63.63 0 0 0 .391-.383l.556.1a1 1 0 0 1-.24.431 1.2 1.2 0 0 1-.43.285q-.258.1-.588.1m1.995-.061v-4.025h.587v1.496h.036q.051-.094.147-.219a.9.9 0 0 1 .268-.216.93.93 0 0 1 .452-.094 1.17 1.17 0 0 1 1.102.717q.165.348.165.838t-.163.839a1.27 1.27 0 0 1-.448.536q-.285.187-.651.187a1 1 0 0 1-.45-.092.9.9 0 0 1-.271-.216 1.6 1.6 0 0 1-.151-.221h-.049v.47zm.576-1.509q0 .318.092.558a.85.85 0 0 0 .267.375q.175.134.429.134a.7.7 0 0 0 .44-.14.86.86 0 0 0 .267-.383q.093-.242.093-.544 0-.3-.091-.537a.8.8 0 0 0-.267-.375.7.7 0 0 0-.442-.138.7.7 0 0 0-.433.132.8.8 0 0 0-.265.367q-.09.236-.09.551m-6.858 20.63h.738l1.281 3.129h.047l1.282-3.129h.737v4.025h-.578v-2.913h-.037l-1.188 2.907h-.479l-1.187-2.909h-.038v2.915h-.578zm5.799 4.092q-.286 0-.519-.106a.9.9 0 0 1-.367-.313.9.9 0 0 1-.134-.501.8.8 0 0 1 .098-.421.7.7 0 0 1 .266-.261q.167-.096.373-.146.207-.048.421-.074l.44-.051a.7.7 0 0 0 .246-.069q.076-.048.076-.153v-.014q0-.258-.145-.399-.143-.142-.429-.142-.296 0-.467.132a.7.7 0 0 0-.234.289l-.553-.126a1.08 1.08 0 0 1 .726-.692 1.7 1.7 0 0 1 .904-.035q.204.04.381.153a.85.85 0 0 1 .293.321q.114.206.114.536v2.005h-.574v-.413h-.023a.9.9 0 0 1-.464.407 1.1 1.1 0 0 1-.429.073m.128-.472a.85.85 0 0 0 .417-.096.67.67 0 0 0 .357-.588v-.389a.3.3 0 0 1-.121.059 2 2 0 0 1-.203.045l-.222.033-.181.024a1.4 1.4 0 0 0-.312.073.54.54 0 0 0-.224.147.37.37 0 0 0-.083.252q0 .217.161.33.162.11.411.11m2.145.405v-3.019h.568v.479h.031a.73.73 0 0 1 .291-.383.84.84 0 0 1 .476-.141 2 2 0 0 1 .25.013v.563a1 1 0 0 0-.126-.022 1 1 0 0 0-.181-.014.8.8 0 0 0-.372.089.66.66 0 0 0-.349.591v1.844zm-6.898 23.146h-.645l1.449-4.025h.701l1.449 4.025h-.645l-1.138-3.294h-.031zm.108-1.576h2.091v.511h-2.091zm3.38 2.708v-4.151h.574v.489h.049q.05-.094.148-.218a.8.8 0 0 1 .267-.216.93.93 0 0 1 .452-.094q.366 0 .653.184.286.185.45.533t.165.837q0 .49-.163.84-.164.348-.449.536-.285.187-.65.187a1 1 0 0 1-.45-.092.8.8 0 0 1-.271-.217 2 2 0 0 1-.152-.22h-.035v1.602zm.576-2.642q0 .32.092.559a.85.85 0 0 0 .268.375.7.7 0 0 0 .428.134.7.7 0 0 0 .44-.14.86.86 0 0 0 .268-.383 1.5 1.5 0 0 0 .092-.545q0-.299-.09-.536a.8.8 0 0 0-.268-.376.7.7 0 0 0-.442-.137.7.7 0 0 0-.432.132.8.8 0 0 0-.266.367 1.5 1.5 0 0 0-.09.55m2.84 1.51v-3.019h.568v.479h.032a.73.73 0 0 1 .291-.383.83.83 0 0 1 .475-.141 2 2 0 0 1 .25.013v.563a1 1 0 0 0-.126-.022 1 1 0 0 0-.181-.014.8.8 0 0 0-.371.089.65.65 0 0 0-.35.591v1.844zm-8.987 19.12h.738l1.281 3.129h.047l1.282-3.129h.737v4.026h-.578v-2.913h-.037l-1.188 2.907h-.479l-1.187-2.909h-.038v2.915h-.578zm5.799 4.093q-.286 0-.519-.107a.87.87 0 0 1-.367-.312.9.9 0 0 1-.134-.501q0-.256.098-.421a.7.7 0 0 1 .266-.261q.167-.097.373-.146.207-.05.421-.075l.44-.051a.7.7 0 0 0 .246-.068q.076-.048.076-.154v-.014q0-.256-.145-.399-.144-.141-.429-.141-.296 0-.467.132a.7.7 0 0 0-.234.289l-.553-.126q.1-.276.287-.444.192-.171.439-.248a1.7 1.7 0 0 1 .904-.035q.204.04.381.153a.85.85 0 0 1 .293.32q.114.207.114.537v2.005h-.574v-.413h-.023a.8.8 0 0 1-.171.224.9.9 0 0 1-.293.183q-.18.072-.429.073m.128-.472a.84.84 0 0 0 .417-.097.7.7 0 0 0 .265-.251.65.65 0 0 0 .092-.336v-.389a.3.3 0 0 1-.121.059 2 2 0 0 1-.203.045 12 12 0 0 1-.403.057 1.4 1.4 0 0 0-.312.072.55.55 0 0 0-.224.148.37.37 0 0 0-.083.252q0 .217.161.33.162.11.411.11m2.408 1.537a1.2 1.2 0 0 1-.401-.065l.142-.482a1 1 0 0 0 .287.038.34.34 0 0 0 .222-.095.7.7 0 0 0 .173-.289l.073-.2-1.105-3.058h.629l.764 2.343h.032l.765-2.343h.63l-1.244 3.422q-.086.236-.22.399a.85.85 0 0 1-.318.247 1 1 0 0 1-.429.083"/><rect width="237.675" height="262.159" x="33.526" y="134.748" fill="#fff" stroke="#00162a" stroke-width="1.052" rx="15.474"/><g filter="url(#d)"><path stroke="#00162a" stroke-width="1.052" d="M271.727 192.452H33" opacity=".7"/></g><path fill="#00162a" d="M55.33 160.305a1.43 1.43 0 0 0-.617-1.068q-.538-.382-1.402-.382-.606 0-1.041.183t-.665.497-.235.717q0 .335.152.581.157.246.424.419.267.167.59.282.325.115.655.194l1.004.251q.607.14 1.167.382.565.24 1.01.607.45.366.712.884t.261 1.214q0 .941-.481 1.658-.481.712-1.392 1.115-.905.397-2.192.397-1.251 0-2.172-.387-.915-.387-1.433-1.13-.513-.743-.555-1.81h1.91q.042.56.345.931.304.372.79.555a3.1 3.1 0 0 0 1.1.183q.631 0 1.108-.189.481-.193.754-.533.272-.345.277-.806a1.03 1.03 0 0 0-.246-.691 1.8 1.8 0 0 0-.675-.46 6.5 6.5 0 0 0-1.004-.335l-1.22-.314q-1.323-.34-2.092-1.031-.764-.695-.764-1.846 0-.948.513-1.659.517-.711 1.407-1.104.89-.398 2.014-.398 1.14 0 1.999.398.864.393 1.355 1.093.492.696.508 1.602zm7.675-.267v1.465h-4.62v-1.465zm-3.48-1.926h1.895v7.545q0 .382.115.586a.62.62 0 0 0 .314.272 1.2 1.2 0 0 0 .429.073 2 2 0 0 0 .324-.026q.152-.026.23-.047l.32 1.481a4 4 0 0 1-.435.115 3.6 3.6 0 0 1-.68.073 3.1 3.1 0 0 1-1.282-.214 2 2 0 0 1-.905-.743q-.33-.503-.324-1.256zm7.377 10.124q-.764 0-1.376-.272a2.25 2.25 0 0 1-.963-.816q-.35-.538-.35-1.329 0-.68.25-1.125.251-.444.686-.711.434-.267.978-.403a8 8 0 0 1 1.136-.204q.705-.074 1.145-.131.44-.063.639-.188.204-.132.204-.403v-.032q0-.591-.35-.915-.351-.325-1.01-.325-.696 0-1.105.304-.403.303-.544.717l-1.768-.252q.21-.732.69-1.224a3 3 0 0 1 1.178-.743 4.5 4.5 0 0 1 1.538-.251q.581 0 1.156.136.576.137 1.052.45.476.31.764.842.293.534.293 1.335v5.378h-1.82v-1.104h-.064a2.3 2.3 0 0 1-.486.628 2.3 2.3 0 0 1-.78.466q-.465.172-1.093.172m.491-1.391q.57 0 .99-.225.418-.23.643-.607.23-.376.23-.822v-.947a.9.9 0 0 1-.303.136q-.21.063-.471.11-.262.048-.518.084l-.445.063a3.3 3.3 0 0 0-.759.188q-.334.13-.528.366-.194.231-.194.597 0 .523.382.79.383.267.973.267m9.67-6.807v1.465h-4.62v-1.465zm-3.48-1.926h1.894v7.545q0 .382.115.586a.62.62 0 0 0 .314.272 1.2 1.2 0 0 0 .43.073 2 2 0 0 0 .323-.026q.153-.026.23-.047l.32 1.481a4 4 0 0 1-.434.115 3.6 3.6 0 0 1-.68.073 3.1 3.1 0 0 1-1.282-.214 2 2 0 0 1-.906-.743q-.33-.503-.324-1.256zm5.063 9.962v-8.036h1.894v8.036zm.953-9.177q-.45 0-.775-.298a.96.96 0 0 1-.324-.727q0-.43.324-.728.325-.303.775-.303.454 0 .774.303a.95.95 0 0 1 .324.728.96.96 0 0 1-.324.727q-.319.298-.774.298m9.24 3.265-1.726.188a1.4 1.4 0 0 0-.256-.492 1.3 1.3 0 0 0-.481-.371 1.8 1.8 0 0 0-.743-.141q-.591 0-.995.256-.397.256-.392.665a.7.7 0 0 0 .257.57q.266.22.879.361l1.37.293q1.14.246 1.696.779.56.534.565 1.397a2.2 2.2 0 0 1-.445 1.34q-.435.576-1.209.9t-1.779.324q-1.475 0-2.375-.617-.9-.623-1.073-1.732l1.847-.178q.126.544.534.822.408.276 1.062.277.675 0 1.083-.277.413-.278.413-.686 0-.345-.266-.57-.262-.225-.817-.346l-1.37-.287q-1.157-.241-1.711-.811-.555-.576-.55-1.455-.005-.742.403-1.287.414-.55 1.146-.847.738-.304 1.7-.304 1.413 0 2.224.602.815.601 1.01 1.627m5.748-2.124v1.465h-4.62v-1.465zm-3.479-1.926h1.894v7.545q0 .382.115.586a.62.62 0 0 0 .314.272 1.2 1.2 0 0 0 .43.073 2 2 0 0 0 .323-.026q.152-.026.23-.047l.32 1.481a4 4 0 0 1-.434.115 3.6 3.6 0 0 1-.68.073 3.1 3.1 0 0 1-1.282-.214 2 2 0 0 1-.906-.743q-.33-.503-.324-1.256zm5.063 9.962v-8.036h1.894v8.036zm.953-9.177q-.45 0-.775-.298a.96.96 0 0 1-.324-.727q0-.43.324-.728.325-.303.775-.303.455 0 .774.303a.95.95 0 0 1 .324.728.96.96 0 0 1-.324.727q-.319.298-.774.298m6.395 9.334q-1.204 0-2.067-.528a3.54 3.54 0 0 1-1.324-1.46q-.46-.936-.46-2.156 0-1.224.471-2.161a3.5 3.5 0 0 1 1.329-1.465q.862-.528 2.04-.528.979 0 1.732.361.759.356 1.209 1.01.45.648.512 1.517h-1.81a1.73 1.73 0 0 0-.523-.968q-.408-.392-1.094-.392-.58 0-1.02.314-.44.309-.685.889-.241.58-.241 1.392 0 .821.241 1.413.24.585.675.905.44.314 1.03.314.419 0 .749-.157.334-.163.559-.466t.309-.738h1.81a3.14 3.14 0 0 1-.502 1.512 3 3 0 0 1-1.182 1.026q-.748.366-1.758.366m11.349-6.069-1.726.188a1.4 1.4 0 0 0-.257-.492 1.3 1.3 0 0 0-.481-.371 1.8 1.8 0 0 0-.743-.141q-.59 0-.994.256-.398.256-.392.665a.7.7 0 0 0 .256.57q.267.22.879.361l1.371.293q1.14.246 1.695.779.56.534.565 1.397a2.2 2.2 0 0 1-.445 1.34q-.434.576-1.208.9-.775.324-1.779.324-1.476 0-2.376-.617-.9-.623-1.072-1.732l1.847-.178q.125.544.533.822.409.276 1.063.277.675 0 1.083-.277.413-.278.413-.686 0-.345-.267-.57-.261-.225-.816-.346l-1.371-.287q-1.156-.241-1.711-.811-.555-.576-.549-1.455-.006-.742.403-1.287.413-.55 1.145-.847.738-.304 1.701-.304 1.413 0 2.224.602.816.601 1.009 1.627"/><g filter="url(#e)"><rect width="207.826" height="77.215" x="48.451" y="211.821" fill="#fff" rx="5.459"/><rect width="207.144" height="76.532" x="48.792" y="212.162" stroke="#00162a" stroke-width=".682" rx="5.118"/></g><rect width="192.321" height="4.21" x="56.203" y="272.266" fill="#f2f4f8" rx="2.105"/><rect width="150.321" height="4.21" x="56.203" y="272.266" fill="#00162a" rx="2.105"/><path fill="#00162a" d="M57.033 234.329v-8.419h3.158q.97 0 1.628.337.66.337.999.945.34.604.34 1.411 0 .809-.345 1.405a2.3 2.3 0 0 1-1.007.917q-.666.321-1.636.321h-2.249v-1.266h2.044q.566 0 .929-.157.36-.16.534-.464a1.5 1.5 0 0 0 .177-.756q0-.448-.177-.765a1.12 1.12 0 0 0-.538-.485q-.363-.17-.934-.169H58.56v7.145zm4.35-3.815 2.084 3.815h-1.702l-2.047-3.815zm5.819 3.938q-.95 0-1.64-.394a2.7 2.7 0 0 1-1.057-1.127q-.37-.731-.37-1.722 0-.975.37-1.71.375-.74 1.044-1.151.67-.416 1.575-.416.583 0 1.102.19.52.185.92.575.404.39.633.995.23.6.23 1.431v.456h-5.175v-1.003h3.75a1.6 1.6 0 0 0-.186-.761 1.35 1.35 0 0 0-.505-.53 1.4 1.4 0 0 0-.749-.193 1.45 1.45 0 0 0-.801.222q-.345.218-.539.575a1.66 1.66 0 0 0-.193.777v.876q0 .55.201.945.202.391.564.601.36.205.846.205.326 0 .588-.09.264-.094.457-.276.193-.18.291-.448l1.39.156a2.16 2.16 0 0 1-.502.962 2.4 2.4 0 0 1-.937.633 3.6 3.6 0 0 1-1.307.222m6.82 0q-.944 0-1.623-.415a2.77 2.77 0 0 1-1.04-1.147q-.362-.736-.362-1.693 0-.963.37-1.698a2.76 2.76 0 0 1 1.044-1.151q.679-.416 1.604-.416.768 0 1.36.284.596.28.95.794.354.509.403 1.192h-1.422a1.36 1.36 0 0 0-.412-.761q-.32-.308-.859-.308a1.34 1.34 0 0 0-.801.247q-.345.242-.539.698-.189.457-.189 1.094 0 .645.19 1.11.188.46.53.711.345.247.81.247.328 0 .587-.124.263-.127.44-.366a1.4 1.4 0 0 0 .243-.579h1.422a2.5 2.5 0 0 1-.395 1.188 2.35 2.35 0 0 1-.929.806q-.588.288-1.381.287m7.953-2.779v-3.658h1.488v6.314H82.02v-1.122h-.066a1.9 1.9 0 0 1-.703.867q-.485.337-1.196.337a2.15 2.15 0 0 1-1.098-.275 1.9 1.9 0 0 1-.74-.81q-.267-.535-.267-1.291v-4.02h1.488v3.79q0 .6.329.954.33.353.863.353.33 0 .638-.16t.505-.477q.201-.32.202-.802m3.018 2.656v-6.314h1.443v1.052h.066a1.58 1.58 0 0 1 .592-.843q.423-.3.966-.3.123 0 .275.013.156.008.26.028v1.369a1.5 1.5 0 0 0-.3-.057 3 3 0 0 0-.391-.029q-.408 0-.732.177a1.3 1.3 0 0 0-.506.481 1.35 1.35 0 0 0-.185.711v3.712zm4.59 0v-6.314h1.443v1.052h.066a1.58 1.58 0 0 1 .592-.843q.423-.3.966-.3.123 0 .275.013.156.008.26.028v1.369a1.5 1.5 0 0 0-.301-.057 3 3 0 0 0-.39-.029q-.408 0-.732.177a1.3 1.3 0 0 0-.506.481 1.35 1.35 0 0 0-.185.711v3.712zm4.59 0v-6.314h1.488v6.314zm.748-7.211a.87.87 0 0 1-.609-.234.75.75 0 0 1-.254-.571q0-.337.254-.572a.86.86 0 0 1 .609-.238.85.85 0 0 1 .608.238.75.75 0 0 1 .255.572.76.76 0 0 1-.255.571.86.86 0 0 1-.608.234m3.758 3.511v3.7h-1.488v-6.314h1.423v1.073h.074q.217-.531.694-.843.481-.312 1.188-.313.654 0 1.139.28.489.279.757.81.27.53.267 1.287v4.02h-1.488v-3.79q0-.633-.329-.991-.325-.358-.901-.358-.39 0-.694.173a1.2 1.2 0 0 0-.473.489 1.65 1.65 0 0 0-.169.777m8.313 6.2q-.802 0-1.377-.218-.576-.214-.925-.576a2 2 0 0 1-.485-.801l1.34-.325q.09.185.263.366.173.184.464.304.297.123.744.123.633 0 1.049-.308.415-.304.415-1.003v-1.197h-.074a2 2 0 0 1-.337.473 1.7 1.7 0 0 1-.58.407q-.357.165-.9.165-.727 0-1.32-.342-.588-.345-.937-1.027-.345-.687-.345-1.719 0-1.04.345-1.755.35-.72.941-1.089.592-.375 1.32-.375.555 0 .913.19.362.184.575.448.214.258.325.489h.082v-1.044h1.468v6.417q0 .81-.387 1.34a2.3 2.3 0 0 1-1.056.793 4.1 4.1 0 0 1-1.521.264m.012-3.758q.473 0 .806-.23t.505-.662q.174-.432.173-1.036 0-.595-.173-1.044a1.5 1.5 0 0 0-.501-.695q-.329-.25-.81-.251-.498 0-.83.259a1.57 1.57 0 0 0-.502.712 2.9 2.9 0 0 0-.168 1.019q0 .58.168 1.016.173.43.506.674.337.238.826.238m12.989-5.056-2.249 6.314H116.1l-2.249-6.314h1.587l1.451 4.69h.066l1.455-4.69zm1.029 6.314v-6.314h1.489v6.314zm.749-7.211a.87.87 0 0 1-.609-.234.75.75 0 0 1-.255-.571q0-.337.255-.572a.86.86 0 0 1 .609-.238.85.85 0 0 1 .608.238q.255.235.255.572a.75.75 0 0 1-.255.571.86.86 0 0 1-.608.234m7.261 2.566-1.357.148a1.1 1.1 0 0 0-.201-.387 1 1 0 0 0-.379-.292 1.4 1.4 0 0 0-.583-.111q-.465 0-.782.202-.312.201-.308.522a.55.55 0 0 0 .202.448q.21.173.69.284l1.077.23q.897.193 1.332.612.44.42.444 1.098a1.72 1.72 0 0 1-.349 1.052q-.342.453-.95.708t-1.398.254q-1.159 0-1.866-.485a1.95 1.95 0 0 1-.843-1.36l1.452-.14q.098.428.419.645t.834.218q.531 0 .851-.218.325-.218.325-.538a.56.56 0 0 0-.21-.448q-.205-.177-.641-.272l-1.077-.226q-.909-.189-1.344-.637-.436-.451-.432-1.143a1.6 1.6 0 0 1 .317-1.011q.324-.432.9-.666.58-.239 1.336-.239 1.11 0 1.747.473.642.473.794 1.279m1.362 4.645v-6.314h1.489v6.314zm.749-7.211a.87.87 0 0 1-.609-.234.75.75 0 0 1-.255-.571q0-.337.255-.572a.86.86 0 0 1 .609-.238.85.85 0 0 1 .608.238q.255.235.255.572a.75.75 0 0 1-.255.571.86.86 0 0 1-.608.234m5.423.897v1.151h-3.63v-1.151zm-2.734-1.513h1.488v5.928q0 .3.091.46a.5.5 0 0 0 .246.214 1 1 0 0 0 .337.058q.141 0 .255-.021.12-.02.181-.037l.251 1.163a3 3 0 0 1-.341.091 3 3 0 0 1-.535.057 2.4 2.4 0 0 1-1.007-.168 1.56 1.56 0 0 1-.711-.584q-.26-.395-.255-.987zm6.665 7.95q-.925 0-1.603-.407a2.77 2.77 0 0 1-1.053-1.138q-.37-.732-.37-1.71 0-.979.37-1.715.375-.735 1.053-1.143.678-.407 1.603-.407t1.603.407 1.049 1.143q.374.736.374 1.715 0 .978-.374 1.71a2.74 2.74 0 0 1-1.049 1.138q-.678.407-1.603.407m.008-1.192q.502 0 .839-.275.337-.28.501-.748.17-.47.169-1.045 0-.579-.169-1.048a1.65 1.65 0 0 0-.501-.752q-.337-.28-.839-.28-.513 0-.855.28a1.7 1.7 0 0 0-.505.752q-.165.47-.165 1.048 0 .576.165 1.045.168.468.505.748.342.275.855.275m4.281 1.069v-6.314h1.443v1.052h.065q.174-.546.592-.843.424-.3.967-.3.123 0 .275.013.156.008.259.028v1.369a1.5 1.5 0 0 0-.3-.057 3 3 0 0 0-.391-.029 1.5 1.5 0 0 0-.731.177 1.3 1.3 0 0 0-.506.481 1.36 1.36 0 0 0-.185.711v3.712zm9.58-4.645-1.356.148a1.1 1.1 0 0 0-.202-.387 1 1 0 0 0-.378-.292 1.4 1.4 0 0 0-.584-.111q-.464 0-.781.202-.312.201-.308.522a.54.54 0 0 0 .201.448q.21.173.691.284l1.077.23q.897.193 1.332.612.44.42.444 1.098a1.72 1.72 0 0 1-.349 1.052q-.342.453-.95.708-.609.254-1.398.254-1.16 0-1.866-.485a1.95 1.95 0 0 1-.843-1.36l1.451-.14q.099.428.42.645t.834.218q.53 0 .851-.218.325-.218.325-.538a.56.56 0 0 0-.21-.448q-.206-.177-.641-.272l-1.077-.226q-.909-.189-1.344-.637-.436-.451-.432-1.143a1.62 1.62 0 0 1 .316-1.011q.325-.432.901-.666.579-.239 1.336-.239 1.11 0 1.747.473.641.473.793 1.279m-97.296 30v-1.764l5.196-8.21h1.471v2.511h-.897l-3.498 5.543v.096h7.254v1.824zm5.842 2.272v-2.811l.024-.789v-8.646h2.093v12.246zm10.12.233q-1.477 0-2.535-.747-1.052-.754-1.62-2.171-.562-1.424-.562-3.426.006-2.004.568-3.409.568-1.41 1.62-2.152 1.059-.742 2.53-.742t2.529.742 1.62 2.152q.568 1.411.568 3.409 0 2.008-.568 3.432-.562 1.417-1.62 2.165-1.053.747-2.53.747m0-1.872q1.149 0 1.812-1.13.67-1.135.67-3.342 0-1.46-.305-2.452-.304-.993-.861-1.495a1.88 1.88 0 0 0-1.315-.508q-1.143 0-1.806 1.136-.664 1.13-.67 3.319-.006 1.465.293 2.463.305.999.861 1.507.555.502 1.322.502m10.963 1.806q-1.197 0-2.141-.448a3.8 3.8 0 0 1-1.501-1.244 3.3 3.3 0 0 1-.586-1.806h2.153q.06.753.651 1.232.593.472 1.424.472.65 0 1.16-.299.507-.298.8-.831t.288-1.214a2.44 2.44 0 0 0-.293-1.231q-.299-.538-.82-.844a2.3 2.3 0 0 0-1.195-.31 2.8 2.8 0 0 0-1.083.203q-.531.209-.843.55l-2.003-.329.64-6.314h7.104v1.853h-5.268l-.353 3.247h.072q.34-.4.962-.664a3.4 3.4 0 0 1 1.364-.269q1.112 0 1.985.527.873.52 1.375 1.435t.502 2.093q0 1.213-.562 2.164a4 4 0 0 1-1.548 1.489q-.987.538-2.284.538m8.552-1.841-.078.657a10 10 0 0 1-.299 1.531q-.21.784-.442 1.441-.234.658-.377 1.035h-1.46l.228-.993q.15-.628.287-1.411.138-.784.185-1.591l.042-.669zm6.293 1.841q-1.333 0-2.368-.448-1.028-.449-1.614-1.226a2.88 2.88 0 0 1-.574-1.776 2.94 2.94 0 0 1 .335-1.417q.34-.646.92-1.076.587-.437 1.304-.557v-.083a2.6 2.6 0 0 1-1.53-.963 2.78 2.78 0 0 1-.575-1.752 2.8 2.8 0 0 1 .526-1.686q.533-.742 1.46-1.166.926-.43 2.116-.431 1.178 0 2.099.431.927.424 1.459 1.166.538.741.538 1.686 0 .993-.592 1.752-.585.753-1.513.963v.083q.718.12 1.292.557.58.43.921 1.076.347.646.347 1.417 0 .993-.586 1.776-.586.777-1.615 1.226-1.022.448-2.35.448m0-1.71q.688 0 1.196-.233.508-.24.79-.67.28-.43.287-.992a1.86 1.86 0 0 0-.305-1.035 2 2 0 0 0-.808-.711 2.5 2.5 0 0 0-1.16-.258q-.657 0-1.172.258a2.04 2.04 0 0 0-.813.711 1.8 1.8 0 0 0-.287 1.035 1.74 1.74 0 0 0 .275.992q.281.424.79.664.513.239 1.207.239m0-5.579a2.1 2.1 0 0 0 .993-.227 1.74 1.74 0 0 0 .688-.634q.25-.406.257-.939a1.75 1.75 0 0 0-.251-.921 1.6 1.6 0 0 0-.682-.615 2.2 2.2 0 0 0-1.005-.222q-.58 0-1.022.222a1.6 1.6 0 0 0-.682.615q-.24.395-.233.921-.006.532.24.939.25.4.687.634.443.227 1.01.227m10.774 7.289q-1.196 0-2.141-.448a3.8 3.8 0 0 1-1.501-1.244 3.3 3.3 0 0 1-.586-1.806h2.153q.06.753.652 1.232.591.472 1.423.472a2.24 2.24 0 0 0 1.16-.299q.508-.298.801-.831t.287-1.214a2.44 2.44 0 0 0-.293-1.231 2.2 2.2 0 0 0-.819-.844 2.3 2.3 0 0 0-1.196-.31 2.8 2.8 0 0 0-1.082.203q-.532.209-.843.55l-2.003-.329.639-6.314h7.104v1.853h-5.268l-.353 3.247h.072q.34-.4.963-.664a3.4 3.4 0 0 1 1.363-.269q1.112 0 1.985.527a3.7 3.7 0 0 1 1.376 1.435q.502.915.502 2.093 0 1.213-.562 2.164a4 4 0 0 1-1.549 1.489q-.987.538-2.284.538m6.847-.167 5.208-10.309v-.084h-6.046v-1.853h8.342v1.895l-5.202 10.351z"/><g filter="url(#f)"><rect width="207.826" height="77.215" x="48.451" y="303.77" fill="#fff" rx="5.459"/><rect width="207.144" height="76.532" x="48.792" y="304.111" stroke="#00162a" stroke-width=".682" rx="5.118"/></g><rect width="192.321" height="4.21" x="56.203" y="364.263" fill="#f2f4f8" rx="2.105"/><rect width="73.036" height="4.21" x="56.203" y="364.263" fill="#00162a" rx="2.105"/><path fill="#00162a" d="M63.952 317.858v8.42h-1.356l-3.967-5.735h-.07v5.735h-1.526v-8.42h1.365l3.963 5.739h.074v-5.739zm4.392 8.543q-.95 0-1.64-.395a2.67 2.67 0 0 1-1.057-1.126q-.37-.732-.37-1.723 0-.974.37-1.71.374-.74 1.044-1.151.67-.415 1.575-.415.583 0 1.101.189.522.185.921.576.404.39.633.994.23.6.23 1.431v.456h-5.175v-1.003h3.749a1.6 1.6 0 0 0-.185-.76 1.35 1.35 0 0 0-.506-.531 1.43 1.43 0 0 0-.748-.193 1.45 1.45 0 0 0-.802.222q-.346.218-.538.576-.189.353-.193.777v.875q0 .552.201.946.202.39.563.6.363.206.847.206.325 0 .588-.091.263-.095.456-.275.195-.181.292-.448l1.39.156a2.2 2.2 0 0 1-.502.962 2.45 2.45 0 0 1-.937.633 3.6 3.6 0 0 1-1.307.222m5.336-.123-1.785-6.315h1.517l1.11 4.44h.058l1.135-4.44h1.5l1.135 4.415h.061l1.094-4.415h1.521l-1.788 6.315h-1.55l-1.184-4.268h-.086l-1.184 4.268zm16.897-6.315-2.249 6.315h-1.644l-2.249-6.315h1.587l1.45 4.691h.067l1.455-4.691zm1.03 6.315v-6.315h1.488v6.315zm.748-7.211a.87.87 0 0 1-.609-.234.76.76 0 0 1-.255-.572q0-.337.255-.571a.86.86 0 0 1 .609-.239q.357 0 .608.239.255.234.255.571a.76.76 0 0 1-.255.572.86.86 0 0 1-.608.234m7.26 2.565-1.356.148a1.1 1.1 0 0 0-.201-.386 1 1 0 0 0-.379-.292 1.4 1.4 0 0 0-.583-.111q-.465 0-.781.201-.313.203-.309.522a.55.55 0 0 0 .202.449q.21.172.69.283l1.077.23q.897.193 1.332.613.441.418.444 1.098-.003.596-.35 1.052-.34.452-.949.707-.608.255-1.397.255-1.16 0-1.867-.485a1.95 1.95 0 0 1-.843-1.361l1.452-.14q.098.427.419.646.321.218.834.218.531 0 .851-.218.325-.219.325-.539a.56.56 0 0 0-.21-.448q-.205-.177-.64-.271l-1.078-.226q-.909-.19-1.344-.638-.435-.452-.432-1.142a1.62 1.62 0 0 1 .317-1.012q.324-.43.9-.666.58-.238 1.336-.238 1.11 0 1.747.473.641.472.794 1.278m1.363 4.646v-6.315h1.489v6.315zm.749-7.211a.87.87 0 0 1-.609-.234.76.76 0 0 1-.255-.572q0-.337.255-.571a.86.86 0 0 1 .609-.239.85.85 0 0 1 .608.239q.255.234.255.571a.76.76 0 0 1-.255.572.86.86 0 0 1-.608.234m5.423.896v1.151h-3.63v-1.151zm-2.734-1.513h1.488v5.928q0 .3.091.461a.5.5 0 0 0 .246.214 1 1 0 0 0 .338.057q.14 0 .254-.02.12-.022.181-.037l.251 1.163a3 3 0 0 1-.341.09 3 3 0 0 1-.535.058 2.4 2.4 0 0 1-1.007-.169 1.57 1.57 0 0 1-.711-.583q-.26-.394-.255-.987zm6.665 7.951q-.925 0-1.603-.407a2.77 2.77 0 0 1-1.053-1.139q-.37-.732-.37-1.71t.37-1.714a2.76 2.76 0 0 1 1.053-1.143q.678-.407 1.603-.407t1.603.407q.679.406 1.049 1.143.374.736.374 1.714t-.374 1.71a2.73 2.73 0 0 1-1.049 1.139q-.678.407-1.603.407m.008-1.192q.502 0 .839-.276.337-.279.502-.748.168-.468.168-1.044 0-.58-.168-1.048a1.66 1.66 0 0 0-.502-.753q-.337-.279-.839-.279-.513 0-.855.279a1.7 1.7 0 0 0-.505.753 3.1 3.1 0 0 0-.165 1.048q0 .576.165 1.044.169.47.505.748.342.276.855.276m4.281 1.069v-6.315h1.443v1.053h.066a1.57 1.57 0 0 1 .592-.843q.423-.3.966-.3.123 0 .275.012.156.008.259.029v1.369a1.6 1.6 0 0 0-.3-.058 3 3 0 0 0-.391-.029 1.5 1.5 0 0 0-.731.177 1.3 1.3 0 0 0-.506.481 1.36 1.36 0 0 0-.185.711v3.713zm9.58-4.646-1.356.148a1.1 1.1 0 0 0-.202-.386 1 1 0 0 0-.378-.292 1.4 1.4 0 0 0-.584-.111q-.464 0-.781.201-.312.203-.308.522a.55.55 0 0 0 .201.449q.21.172.691.283l1.077.23q.897.193 1.332.613.44.418.444 1.098a1.72 1.72 0 0 1-.349 1.052q-.341.452-.95.707-.608.255-1.398.255-1.16 0-1.866-.485a1.95 1.95 0 0 1-.843-1.361l1.451-.14q.099.427.42.646.32.218.834.218.53 0 .851-.218.325-.219.325-.539a.56.56 0 0 0-.21-.448q-.206-.177-.641-.271l-1.077-.226q-.909-.19-1.344-.638-.436-.452-.432-1.142-.004-.585.317-1.012a2.1 2.1 0 0 1 .9-.666q.58-.238 1.336-.238 1.11 0 1.747.473.642.472.793 1.278m-62.679 20.026v12.246h-2.218v-10.087h-.072l-2.864 1.83v-2.034l3.043-1.955zm2.888 9.974v-1.764l5.197-8.21h1.47v2.512h-.896l-3.498 5.543v.095h7.253v1.824zm5.842 2.272v-2.81l.024-.789v-8.647h2.093v12.246zm5.373-2.272v-1.764l5.196-8.21h1.471v2.512h-.897l-3.498 5.543v.095H85.9v1.824zm5.842 2.272v-2.81l.024-.789v-8.647h2.093v12.246zm7.814-1.674-.078.658a10 10 0 0 1-.299 1.531 19 19 0 0 1-.442 1.441q-.234.657-.377 1.034h-1.459l.227-.993q.15-.627.287-1.411.138-.783.186-1.59l.041-.67zm5.869-10.572v12.246h-2.22v-10.087h-.071l-2.864 1.83v-2.034l3.043-1.955zm7.504 12.414q-1.291 0-2.296-.443-.999-.442-1.579-1.232a3.2 3.2 0 0 1-.615-1.823h2.248q.03.497.329.867.299.364.795.568t1.112.203q.658 0 1.166-.227.508-.234.796-.646.287-.412.281-.951a1.65 1.65 0 0 0-.287-.98q-.294-.425-.85-.664-.55-.24-1.327-.239h-1.082v-1.71h1.082q.64 0 1.118-.222.484-.22.76-.622.275-.407.269-.938a1.63 1.63 0 0 0-.234-.903 1.57 1.57 0 0 0-.663-.604q-.425-.216-.999-.215-.562 0-1.04.203a1.9 1.9 0 0 0-.772.58 1.47 1.47 0 0 0-.311.885h-2.134q.024-1.029.592-1.806a3.8 3.8 0 0 1 1.53-1.22q.957-.442 2.147-.442 1.226 0 2.129.46.909.455 1.405 1.226t.496 1.704q.006 1.035-.61 1.734-.609.7-1.602.915v.096q1.292.179 1.979.956.694.772.688 1.92 0 1.028-.586 1.842-.58.807-1.603 1.267-1.016.46-2.332.461m10.825-12.581a5 5 0 0 1 1.71.311q.837.299 1.507.98.67.677 1.064 1.812.395 1.136.395 2.811.006 1.578-.335 2.822-.334 1.238-.963 2.093a4.24 4.24 0 0 1-1.513 1.303q-.885.449-1.991.449-1.16 0-2.057-.455a3.9 3.9 0 0 1-1.441-1.243 3.96 3.96 0 0 1-.676-1.806h2.183q.168.73.682 1.16.52.424 1.309.424 1.274 0 1.961-1.106t.688-3.073h-.084q-.292.525-.759.908a3.4 3.4 0 0 1-1.058.58 3.8 3.8 0 0 1-1.244.204 3.7 3.7 0 0 1-1.938-.514 3.76 3.76 0 0 1-1.357-1.412q-.496-.897-.502-2.051 0-1.195.55-2.146a4 4 0 0 1 1.549-1.507q.992-.556 2.32-.544m.006 1.794q-.647 0-1.166.317-.514.31-.814.849a2.4 2.4 0 0 0-.293 1.19q.006.651.293 1.183.294.532.796.844a2.2 2.2 0 0 0 1.16.311q.484 0 .903-.186.418-.185.729-.514.317-.334.491-.759.179-.425.173-.897 0-.629-.299-1.16a2.3 2.3 0 0 0-.807-.856 2.13 2.13 0 0 0-1.166-.322"/><g filter="url(#g)"><rect width="69.971" height="28.823" x="185.779" y="148.663" fill="#fff" stroke="#00162a" stroke-width="1.052" rx="5.788"/></g><path fill="#00162a" d="m196.668 167.338-2.548-9.184h1.458l1.789 7.112h.085l1.861-7.112h1.445l1.861 7.117h.085l1.785-7.117h1.462l-2.552 9.184h-1.395l-1.933-6.879H200l-1.933 6.879zm12.729.139q-1.018 0-1.753-.435a2.95 2.95 0 0 1-1.13-1.233q-.395-.798-.395-1.87 0-1.058.395-1.866a3.06 3.06 0 0 1 1.112-1.26q.717-.453 1.677-.453.583 0 1.13.193t.982.605q.435.414.687 1.072.25.656.251 1.592v.476h-5.476v-1.005h4.162q0-.53-.216-.937a1.6 1.6 0 0 0-.605-.65 1.7 1.7 0 0 0-.906-.238q-.565 0-.987.278a1.86 1.86 0 0 0-.645.718q-.225.44-.225.955v.785q0 .69.243 1.175.246.483.686.74.44.25 1.027.251.381 0 .695-.108.314-.112.542-.332.23-.22.35-.542l1.269.228a2.3 2.3 0 0 1-.547.982q-.39.417-.982.651a3.7 3.7 0 0 1-1.341.228m7.412 0q-1.018 0-1.753-.435a2.95 2.95 0 0 1-1.13-1.233q-.395-.798-.395-1.87 0-1.058.395-1.866a3.06 3.06 0 0 1 1.112-1.26q.717-.453 1.677-.453.584 0 1.13.193.547.193.982.605.435.414.687 1.072.25.656.251 1.592v.476h-5.476v-1.005h4.162q0-.53-.216-.937a1.6 1.6 0 0 0-.605-.65 1.7 1.7 0 0 0-.906-.238q-.565 0-.987.278a1.86 1.86 0 0 0-.645.718q-.225.44-.225.955v.785q0 .69.243 1.175.246.483.686.74.44.25 1.027.251.381 0 .695-.108.313-.112.543-.332.228-.22.349-.542l1.269.228a2.3 2.3 0 0 1-.547.982q-.39.417-.982.651a3.7 3.7 0 0 1-1.341.228m5.677-2.475-.009-1.637h.233l2.745-2.915h1.605l-3.13 3.319h-.211zm-1.234 2.336v-9.184h1.341v9.184zm4.351 0-2.467-3.273.924-.938 3.188 4.211z"/><path fill="#00162a" fill-rule="evenodd" d="M237.182 160.473a.7.7 0 0 1 .992 0l3.714 3.714 3.713-3.714a.701.701 0 1 1 .992.993l-4.209 4.209a.7.7 0 0 1-.992 0l-4.21-4.209a.703.703 0 0 1 0-.993" clip-rule="evenodd"/><defs><filter id="a" width="55.743" height="25.133" x="381.267" y="66.114" color-interpolation-filters="sRGB" filterUnits="userSpaceOnUse"><feFlood flood-opacity="0" result="BackgroundImageFix"/><feColorMatrix in="SourceAlpha" result="hardAlpha" values="0 0 0 0 0 0 0 0 0 0 0 0 0 0 0 0 0 0 127 0"/><feOffset dy=".776"/><feGaussianBlur stdDeviation=".776"/><feComposite in2="hardAlpha" operator="out"/><feColorMatrix values="0 0 0 0 0.254902 0 0 0 0 0.286275 0 0 0 0 0.329412 0 0 0 0.05 0"/><feBlend in2="BackgroundImageFix" result="effect1_dropShadow_4430_7476"/><feBlend in="SourceGraphic" in2="effect1_dropShadow_4430_7476" result="shape"/></filter><filter id="b" width="43.58" height="25.133" x="440.114" y="66.114" color-interpolation-filters="sRGB" filterUnits="userSpaceOnUse"><feFlood flood-opacity="0" result="BackgroundImageFix"/><feColorMatrix in="SourceAlpha" result="hardAlpha" values="0 0 0 0 0 0 0 0 0 0 0 0 0 0 0 0 0 0 127 0"/><feOffset dy=".776"/><feGaussianBlur stdDeviation=".776"/><feComposite in2="hardAlpha" operator="out"/><feColorMatrix values="0 0 0 0 0.254902 0 0 0 0 0.286275 0 0 0 0 0.329412 0 0 0 0.05 0"/><feBlend in2="BackgroundImageFix" result="effect1_dropShadow_4430_7476"/><feBlend in="SourceGraphic" in2="effect1_dropShadow_4430_7476" result="shape"/></filter><filter id="c" width="235.706" height="16.296" x="366.24" y="234.774" color-interpolation-filters="sRGB" filterUnits="userSpaceOnUse"><feFlood flood-opacity="0" result="BackgroundImageFix"/><feColorMatrix in="SourceAlpha" result="hardAlpha" values="0 0 0 0 0 0 0 0 0 0 0 0 0 0 0 0 0 0 127 0"/><feOffset dy="3.104"/><feGaussianBlur stdDeviation="3.88"/><feComposite in2="hardAlpha" operator="out"/><feColorMatrix values="0 0 0 0 0.254902 0 0 0 0 0.286275 0 0 0 0 0.329412 0 0 0 0.06 0"/><feBlend in2="BackgroundImageFix" result="effect1_dropShadow_4430_7476"/><feBlend in="SourceGraphic" in2="effect1_dropShadow_4430_7476" result="shape"/></filter><filter id="d" width="259.775" height="22.101" x="22.476" y="185.612" color-interpolation-filters="sRGB" filterUnits="userSpaceOnUse"><feFlood flood-opacity="0" result="BackgroundImageFix"/><feColorMatrix in="SourceAlpha" result="hardAlpha" values="0 0 0 0 0 0 0 0 0 0 0 0 0 0 0 0 0 0 127 0"/><feOffset dy="4.21"/><feGaussianBlur stdDeviation="5.262"/><feComposite in2="hardAlpha" operator="out"/><feColorMatrix values="0 0 0 0 0.254902 0 0 0 0 0.286275 0 0 0 0 0.329412 0 0 0 0.06 0"/><feBlend in2="BackgroundImageFix" result="effect1_dropShadow_4430_7476"/><feBlend in="SourceGraphic" in2="effect1_dropShadow_4430_7476" result="shape"/></filter><filter id="e" width="213.285" height="82.674" x="45.721" y="209.774" color-interpolation-filters="sRGB" filterUnits="userSpaceOnUse"><feFlood flood-opacity="0" result="BackgroundImageFix"/><feColorMatrix in="SourceAlpha" result="hardAlpha" values="0 0 0 0 0 0 0 0 0 0 0 0 0 0 0 0 0 0 127 0"/><feOffset dy=".682"/><feGaussianBlur stdDeviation="1.365"/><feComposite in2="hardAlpha" operator="out"/><feColorMatrix values="0 0 0 0 0.254902 0 0 0 0 0.286275 0 0 0 0 0.329412 0 0 0 0.05 0"/><feBlend in2="BackgroundImageFix" result="effect1_dropShadow_4430_7476"/><feBlend in="SourceGraphic" in2="effect1_dropShadow_4430_7476" result="shape"/></filter><filter id="f" width="213.285" height="82.674" x="45.721" y="301.722" color-interpolation-filters="sRGB" filterUnits="userSpaceOnUse"><feFlood flood-opacity="0" result="BackgroundImageFix"/><feColorMatrix in="SourceAlpha" result="hardAlpha" values="0 0 0 0 0 0 0 0 0 0 0 0 0 0 0 0 0 0 127 0"/><feOffset dy=".682"/><feGaussianBlur stdDeviation="1.365"/><feComposite in2="hardAlpha" operator="out"/><feColorMatrix values="0 0 0 0 0.254902 0 0 0 0 0.286275 0 0 0 0 0.329412 0 0 0 0.05 0"/><feBlend in2="BackgroundImageFix" result="effect1_dropShadow_4430_7476"/><feBlend in="SourceGraphic" in2="effect1_dropShadow_4430_7476" result="shape"/></filter><filter id="g" width="75.233" height="34.085" x="183.148" y="147.084" color-interpolation-filters="sRGB" filterUnits="userSpaceOnUse"><feFlood flood-opacity="0" result="BackgroundImageFix"/><feColorMatrix in="SourceAlpha" result="hardAlpha" values="0 0 0 0 0 0 0 0 0 0 0 0 0 0 0 0 0 0 127 0"/><feOffset dy="1.052"/><feGaussianBlur stdDeviation="1.052"/><feComposite in2="hardAlpha" operator="out"/><feColorMatrix values="0 0 0 0 0.254902 0 0 0 0 0.286275 0 0 0 0 0.329412 0 0 0 0.05 0"/><feBlend in2="BackgroundImageFix" result="effect1_dropShadow_4430_7476"/><feBlend in="SourceGraphic" in2="effect1_dropShadow_4430_7476" result="shape"/></filter></defs></svg>