<svg xmlns="http://www.w3.org/2000/svg" width="180" height="15" fill="none" viewBox="0 0 180 15"><path fill="#00162a" d="M4.423 14h-4.2L5.746.875h6.174L12.844 14H8.623l-.084-2.079H5.242zm3.59-9.093-1.47 3.675h1.681V4.907zM14.239 14 16.548.875h5.586q2.709 0 3.843.966 1.155.945 1.155 3.087 0 1.092-.252 2.52-.63 3.528-2.163 5.04Q23.204 14 19.824 14zm7.35-9.765h-1.66l-1.112 6.405h1.659q.819 0 1.218-.189.398-.21.525-.924l.735-4.179q.02-.126.02-.336 0-.483-.335-.63-.336-.147-1.05-.147m5.807 9.534 1.176-3.465q1.764.483 3.234.483t2.373-.126l.168-1.05-1.743-.168q-1.995-.189-2.835-.903-.819-.714-.819-2.016 0-.567.126-1.26.483-2.688 1.743-3.696Q32.099.56 34.766.56t4.704.525l-1.092 3.36q-1.827-.315-2.94-.315t-1.89.105l-.168 1.029 1.407.147q2.142.231 3.045 1.029.903.777.903 2.1 0 1.344-.588 2.772-.294.735-.651 1.239a3.2 3.2 0 0 1-.882.84 7 7 0 0 1-.966.525 5 5 0 0 1-1.113.252q-.987.147-2.415.147-2.604 0-4.725-.546m27.182-9.534H51.68L49.98 14h-3.99l1.7-9.765h-2.877l.61-3.36h9.764zM61.55 14l.798-4.641h-3.003L58.546 14h-3.99L56.866.875h3.99l-.819 4.641h3.003l.82-4.641h3.99L65.54 14zm9.647 0h-4.2L72.52.875h6.174L79.617 14h-4.22l-.085-2.079h-3.297zm3.591-9.093-1.47 3.675h1.68V4.907zm16.007-.672h-2.898L86.195 14h-3.99l1.701-9.765h-2.877l.609-3.36h9.765zm13.213 6.006-.336 3.528q-1.344.546-3.402.546-2.645 0-3.8-1.029-1.135-1.029-1.135-3.171 0-.903.294-2.667.63-3.612 2.163-5.25Q99.345.56 102.684.56q.777 0 1.764.168 1.008.147 1.47.378l-1.176 3.213a10 10 0 0 0-2.331-.294q-1.071 0-1.533.21t-.567.84l-.966 5.502a7 7 0 0 0 1.554.168q1.701 0 3.108-.504m6.699-4.977-.966 5.46h1.659q.819 0 1.218-.189.399-.21.525-.924l.966-5.46h-1.68q-.798 0-1.197.21-.399.189-.525.903M113.121.56q2.667 0 3.801 1.05 1.134 1.029 1.134 3.192t-.693 4.536q-.672 2.352-2.163 3.675-1.47 1.302-4.326 1.302-2.835 0-3.969-1.029-1.134-1.05-1.134-3.213 0-1.029.294-2.709.294-1.701.777-2.919a6.9 6.9 0 0 1 1.302-2.142Q109.719.56 113.121.56M126.034 14l-2.142-4.662a.8.8 0 0 1-.084-.399q0-.273.042-.609h-.168l-.987 5.67h-3.99l2.31-13.125h3.759l2.142 4.662q.063.147.063.42 0 .252-.042.588h.168l1.008-5.67h3.99L129.793 14zM141.348.875h4.221L140.172 14h-5.838L133.557.875h4.431v8.337h.189zm12.181 8.169h-3.99l-.273 1.596h4.893l-.588 3.36h-8.883l2.31-13.125h8.778l-1.092 3.36h-4.305l-.294 1.764h3.99zM166.702 14h-4.389l-.966-3.906h-.861L159.814 14h-3.99l2.31-13.125h6.3q3.591 0 3.591 3.213 0 1.323-.399 2.52-.735 2.268-2.31 3.024zm-5.187-9.765-.462 2.625h.924q.714 0 1.071-.147.378-.168.504-.903.147-.756.147-.924 0-.42-.336-.525-.315-.126-1.05-.126zm17.401 0h-2.898L174.317 14h-3.99l1.701-9.765h-2.877l.609-3.36h9.765z"/></svg>