<svg xmlns="http://www.w3.org/2000/svg" width="135" height="20" fill="none" viewBox="0 0 135 20"><g clip-path="url(#a)"><path fill="#0075ff" d="M132.82 4.136q-.938 0-1.571-.58a2.02 2.02 0 0 1-.608-1.488q0-.883.608-1.462Q131.882 0 132.82 0t1.547.605q.633.58.633 1.463t-.633 1.488q-.609.58-1.547.58m1.749 1.665v13.972h-3.548V5.801zm-21.638 6.936q0-2.119.836-3.758.862-1.64 2.307-2.522 1.47-.883 3.269-.883 1.571 0 2.738.63 1.191.631 1.901 1.589V5.801h3.573v13.972h-3.573V17.73q-.685.983-1.901 1.64-1.191.63-2.763.63a6.05 6.05 0 0 1-3.244-.908q-1.444-.907-2.307-2.547-.836-1.665-.836-3.808m11.05.05q0-1.287-.507-2.194a3.45 3.45 0 0 0-1.368-1.413 3.6 3.6 0 0 0-1.85-.504 3.6 3.6 0 0 0-1.825.479q-.837.479-1.369 1.412-.507.908-.507 2.169t.507 2.22q.532.933 1.369 1.437a3.55 3.55 0 0 0 1.825.505q.988 0 1.85-.479a3.7 3.7 0 0 0 1.368-1.413q.507-.933.507-2.219m-14.934 7.163q-.785 0-1.317-.53a1.78 1.78 0 0 1-.533-1.312q0-.782.533-1.311.532-.53 1.317-.53.761 0 1.293.53.533.53.533 1.311 0 .783-.533 1.312-.532.53-1.293.53"/><path fill="#1b2631" d="M107.323 7.768a5.75 5.75 0 0 1-.71 2.825q-.71 1.261-2.18 2.043t-3.65.782h-2.686v6.355h-4.334V2.068h7.02q2.13 0 3.6.732 1.47.731 2.205 2.017t.735 2.951m-6.869 2.22q1.242 0 1.85-.58t.608-1.64-.608-1.639-1.85-.58h-2.357v4.439zm-8.969-7.92v3.455h-7.249v3.733h5.424v3.355h-5.424v7.162h-4.335V2.068zM72.441 19.773 68.74 13.09h-1.039v6.683h-4.334V2.068h7.274q2.104 0 3.574.732 1.496.731 2.231 2.017.735 1.262.735 2.825 0 1.765-1.014 3.153-.989 1.387-2.94 1.967l4.106 7.011zm-4.74-9.735h2.687q1.19 0 1.774-.58.609-.58.608-1.639 0-1.01-.608-1.589-.583-.58-1.774-.58h-2.687zm-14.034 9.937q-2.079 0-3.752-.883a6.6 6.6 0 0 1-2.61-2.522q-.938-1.64-.938-3.834 0-2.169.963-3.808a6.5 6.5 0 0 1 2.636-2.547q1.673-.883 3.751-.883 2.079 0 3.752.883a6.5 6.5 0 0 1 2.636 2.547q.963 1.64.963 3.808t-.989 3.834a6.5 6.5 0 0 1-2.661 2.522q-1.673.883-3.751.883m0-3.733q1.242 0 2.104-.908.887-.908.887-2.598t-.862-2.597a2.7 2.7 0 0 0-2.078-.908q-1.267 0-2.104.908-.836.882-.836 2.597 0 1.69.811 2.598a2.71 2.71 0 0 0 2.078.908m-8.852-.126v3.657H42.61q-2.356 0-3.675-1.135-1.317-1.16-1.318-3.757v-5.6h-1.723V5.7h1.723V2.27h4.334V5.7h2.839v3.581h-2.839v5.65q0 .63.305.908.303.277 1.013.277zM33.819 5.7v14.073h-4.334v-1.917q-.66.933-1.8 1.513-1.115.555-2.484.555-1.622 0-2.864-.706-1.242-.73-1.926-2.093t-.685-3.203V5.7h4.309v7.642q0 1.412.735 2.194t1.977.782q1.268 0 2.003-.782t.735-2.194V5.7zM12.242 16.646H5.601l-1.064 3.127H0L6.438 2.068h5.018l6.438 17.705h-4.587zm-1.115-3.33L8.922 6.835l-2.18 6.481z"/></g><defs><clipPath id="a"><path fill="#fff" d="M0 0h135v20H0z"/></clipPath></defs></svg>